<?xml version="1.0" encoding="UTF-8" standalone="no"?>
<!DOCTYPE svg PUBLIC "-//W3C//DTD SVG 1.1//EN"
 "http://www.w3.org/Graphics/SVG/1.1/DTD/svg11.dtd">
<!-- Generated by graphviz version 2.36.0 (20140111.2315)
 -->
<!-- Title: IControl.h Pages: 1 -->
<!--zoomable 196 -->
<svg id="main" version="1.1" xmlns="http://www.w3.org/2000/svg" xmlns:xlink="http://www.w3.org/1999/xlink" xml:space="preserve" onload="init(evt)">
<style type="text/css"><![CDATA[
.edge:hover path { stroke: red; }
.edge:hover polygon { stroke: red; fill: red; }
]]></style>
<script type="text/javascript"><![CDATA[
var edges = document.getElementsByTagName('g');
if (edges && edges.length) {
  for (var i=0;i<edges.length;i++) {
    if (edges[i].id.substr(0,4)=='edge') {
      edges[i].setAttribute('class','edge');
    }
  }
}
]]></script>
        <defs>
                <circle id="rim" cx="0" cy="0" r="7"/>
                <circle id="rim2" cx="0" cy="0" r="3.5"/>
                <g id="zoomPlus">
                        <use xlink:href="#rim" fill="#404040">
                                <set attributeName="fill" to="#808080" begin="zoomplus.mouseover" end="zoomplus.mouseout"/>
                        </use>
                        <path d="M-4,0h8M0,-4v8" fill="none" stroke="white" stroke-width="1.5" pointer-events="none"/>
                </g>
                <g id="zoomMin">
                        <use xlink:href="#rim" fill="#404040">
                                <set attributeName="fill" to="#808080" begin="zoomminus.mouseover" end="zoomminus.mouseout"/>
                        </use>
                        <path d="M-4,0h8" fill="none" stroke="white" stroke-width="1.5" pointer-events="none"/>
                </g>
                <g id="dirArrow">
                        <path fill="none" stroke="white" stroke-width="1.5" d="M0,-3.0v7 M-2.5,-0.5L0,-3.0L2.5,-0.5"/>
                </g>
               <g id="resetDef">
                       <use xlink:href="#rim2" fill="#404040">
                               <set attributeName="fill" to="#808080" begin="reset.mouseover" end="reset.mouseout"/>
                       </use>
               </g>
        </defs>

<script type="text/javascript">
var viewWidth = 3364;
var viewHeight = 196;
var sectionId = 'dynsection-1';
</script>
<script xlink:href="svgpan.js"/>
<svg id="graph" class="graph">
<g id="viewport">
<title>IControl.h</title>
<polygon fill="white" stroke="none" points="-4,4 -4,-192 3359.54,-192 3359.54,4 -4,4"/>
<!-- Node1 -->
<g id="node1" class="node"><title>Node1</title>
<polygon fill="#bfbfbf" stroke="black" points="1307.04,-168.5 1307.04,-187.5 1366.04,-187.5 1366.04,-168.5 1307.04,-168.5"/>
<text text-anchor="middle" x="1336.54" y="-175.5" font-family="Helvetica,sans-Serif" font-size="10.00">IControl.h</text>
</g>
<!-- Node2 -->
<g id="node2" class="node"><title>Node2</title>
<g id="a_node2"><a xlink:href="_i_color_picker_control_8h.html" target="_top" xlink:title="A control for choosing a color. ">
<polygon fill="white" stroke="black" points="13.5364,-112.5 13.5364,-131.5 123.536,-131.5 123.536,-112.5 13.5364,-112.5"/>
<text text-anchor="middle" x="68.5364" y="-119.5" font-family="Helvetica,sans-Serif" font-size="10.00">IColorPickerControl.h</text>
</a>
</g>
</g>
<!-- Node1&#45;&gt;Node2 -->
<g id="edge1" class="edge"><title>Node1&#45;&gt;Node2</title>
<path fill="none" stroke="midnightblue" d="M1296.43,-176.989C1144.28,-176.631 588.312,-172.457 132.536,-132 129.63,-131.742 126.655,-131.444 123.653,-131.116"/>
<polygon fill="midnightblue" stroke="midnightblue" points="1296.67,-180.489 1306.68,-177.008 1296.69,-173.489 1296.67,-180.489"/>
</g>
<!-- Node3 -->
<g id="node3" class="node"><title>Node3</title>
<g id="a_node3"><a xlink:href="_i_controls_8h.html" target="_top" xlink:title="A collection of IControls for common UI widgets, such as knobs, sliders, switches. ">
<polygon fill="white" stroke="black" points="265.036,-56.5 265.036,-75.5 330.036,-75.5 330.036,-56.5 265.036,-56.5"/>
<text text-anchor="middle" x="297.536" y="-63.5" font-family="Helvetica,sans-Serif" font-size="10.00">IControls.h</text>
</a>
</g>
</g>
<!-- Node1&#45;&gt;Node3 -->
<g id="edge5" class="edge"><title>Node1&#45;&gt;Node3</title>
<path fill="none" stroke="midnightblue" d="M1296.42,-177.194C1079.07,-178.054 50.5498,-179.594 4.53636,-132 -1.64201,-125.609 -1.25234,-118.746 4.53636,-112 37.8001,-73.2374 195.64,-67.5318 264.866,-66.9242"/>
<polygon fill="midnightblue" stroke="midnightblue" points="1296.74,-180.693 1306.73,-177.151 1296.72,-173.693 1296.74,-180.693"/>
</g>
<!-- Node5 -->
<g id="node5" class="node"><title>Node5</title>
<g id="a_node5"><a xlink:href="_i_graphics_8cpp_source.html" target="_top" xlink:title="IGraphics.cpp">
<polygon fill="white" stroke="black" points="754.036,-0.5 754.036,-19.5 831.036,-19.5 831.036,-0.5 754.036,-0.5"/>
<text text-anchor="middle" x="792.536" y="-7.5" font-family="Helvetica,sans-Serif" font-size="10.00">IGraphics.cpp</text>
</a>
</g>
</g>
<!-- Node1&#45;&gt;Node5 -->
<g id="edge62" class="edge"><title>Node1&#45;&gt;Node5</title>
<path fill="none" stroke="midnightblue" d="M1296.57,-176.829C1167.96,-175.901 766.015,-169.958 642.536,-132 625.779,-126.849 625.046,-117.899 608.536,-112 559.612,-94.5196 411.326,-115.463 377.536,-76 327.497,-17.5579 641.869,-11.2971 753.937,-10.9018"/>
<polygon fill="midnightblue" stroke="midnightblue" points="1296.73,-180.33 1306.76,-176.896 1296.78,-173.33 1296.73,-180.33"/>
</g>
<!-- Node6 -->
<g id="node6" class="node"><title>Node6</title>
<g id="a_node6"><a xlink:href="_i_v_keyboard_control_8h.html" target="_top" xlink:title="Vectorial keyboard control. ">
<polygon fill="white" stroke="black" points="142.036,-112.5 142.036,-131.5 249.036,-131.5 249.036,-112.5 142.036,-112.5"/>
<text text-anchor="middle" x="195.536" y="-119.5" font-family="Helvetica,sans-Serif" font-size="10.00">IVKeyboardControl.h</text>
</a>
</g>
</g>
<!-- Node1&#45;&gt;Node6 -->
<g id="edge6" class="edge"><title>Node1&#45;&gt;Node6</title>
<path fill="none" stroke="midnightblue" d="M1296.48,-176.808C1154.46,-175.813 661.899,-169.681 257.536,-132 254.829,-131.748 252.059,-131.459 249.265,-131.143"/>
<polygon fill="midnightblue" stroke="midnightblue" points="1296.83,-180.31 1306.85,-176.876 1296.88,-173.31 1296.83,-180.31"/>
</g>
<!-- Node7 -->
<g id="node7" class="node"><title>Node7</title>
<g id="a_node7"><a xlink:href="_i_v_meter_control_8h.html" target="_top" xlink:title="Vectorial multichannel capable meter control. ">
<polygon fill="white" stroke="black" points="267.036,-112.5 267.036,-131.5 358.036,-131.5 358.036,-112.5 267.036,-112.5"/>
<text text-anchor="middle" x="312.536" y="-119.5" font-family="Helvetica,sans-Serif" font-size="10.00">IVMeterControl.h</text>
</a>
</g>
</g>
<!-- Node1&#45;&gt;Node7 -->
<g id="edge8" class="edge"><title>Node1&#45;&gt;Node7</title>
<path fill="none" stroke="midnightblue" d="M1296.62,-176.8C1164.08,-175.783 726.718,-169.6 367.536,-132 364.457,-131.678 361.288,-131.295 358.1,-130.873"/>
<polygon fill="midnightblue" stroke="midnightblue" points="1296.68,-180.3 1306.71,-176.872 1296.73,-173.301 1296.68,-180.3"/>
</g>
<!-- Node8 -->
<g id="node8" class="node"><title>Node8</title>
<g id="a_node8"><a xlink:href="_i_v_scope_control_8h.html" target="_top" xlink:title="Vectorial multichannel capable oscilloscope control. ">
<polygon fill="white" stroke="black" points="376.536,-112.5 376.536,-131.5 470.536,-131.5 470.536,-112.5 376.536,-112.5"/>
<text text-anchor="middle" x="423.536" y="-119.5" font-family="Helvetica,sans-Serif" font-size="10.00">IVScopeControl.h</text>
</a>
</g>
</g>
<!-- Node1&#45;&gt;Node8 -->
<g id="edge10" class="edge"><title>Node1&#45;&gt;Node8</title>
<path fill="none" stroke="midnightblue" d="M1296.82,-176.423C1174.6,-174.323 793.367,-165.361 479.536,-132 476.599,-131.688 473.581,-131.325 470.541,-130.928"/>
<polygon fill="midnightblue" stroke="midnightblue" points="1296.79,-179.923 1306.84,-176.589 1296.9,-172.924 1296.79,-179.923"/>
</g>
<!-- Node9 -->
<g id="node9" class="node"><title>Node9</title>
<g id="a_node9"><a xlink:href="_i_v_multi_slider_control_8h.html" target="_top" xlink:title="A vectorial multi&#45;slider control. ">
<polygon fill="white" stroke="black" points="488.536,-112.5 488.536,-131.5 600.536,-131.5 600.536,-112.5 488.536,-112.5"/>
<text text-anchor="middle" x="544.536" y="-119.5" font-family="Helvetica,sans-Serif" font-size="10.00">IVMultiSliderControl.h</text>
</a>
</g>
</g>
<!-- Node1&#45;&gt;Node9 -->
<g id="edge12" class="edge"><title>Node1&#45;&gt;Node9</title>
<path fill="none" stroke="midnightblue" d="M1296.68,-175.436C1187.44,-170.949 874.069,-156.745 614.536,-132 610.023,-131.57 605.353,-131.076 600.664,-130.546"/>
<polygon fill="midnightblue" stroke="midnightblue" points="1296.78,-178.942 1306.91,-175.852 1297.06,-171.948 1296.78,-178.942"/>
</g>
<!-- Node10 -->
<g id="node10" class="node"><title>Node10</title>
<g id="a_node10"><a xlink:href="_i_corner_resizer_control_8h.html" target="_top" xlink:title="A control for resizing the plug&#45;in window by clicking and dragging in the bottom right&#45;hand corner Th...">
<polygon fill="white" stroke="black" points="386.536,-56.5 386.536,-75.5 508.536,-75.5 508.536,-56.5 386.536,-56.5"/>
<text text-anchor="middle" x="447.536" y="-63.5" font-family="Helvetica,sans-Serif" font-size="10.00">ICornerResizerControl.h</text>
</a>
</g>
</g>
<!-- Node1&#45;&gt;Node10 -->
<g id="edge14" class="edge"><title>Node1&#45;&gt;Node10</title>
<path fill="none" stroke="midnightblue" d="M1296.78,-176.421C1173.25,-174.284 797.385,-165.156 680.536,-132 662.176,-126.79 660.427,-118.645 642.536,-112 596.124,-94.7611 540.961,-82.7708 501.171,-75.5273"/>
<polygon fill="midnightblue" stroke="midnightblue" points="1296.87,-179.922 1306.92,-176.59 1296.98,-172.923 1296.87,-179.922"/>
</g>
<!-- Node11 -->
<g id="node11" class="node"><title>Node11</title>
<g id="a_node11"><a xlink:href="_i_f_p_s_display_control_8h.html" target="_top" xlink:title="Performance display meter, based on code from NanoVG This is a special control that lives outside the...">
<polygon fill="white" stroke="black" points="934.536,-56.5 934.536,-75.5 1046.54,-75.5 1046.54,-56.5 934.536,-56.5"/>
<text text-anchor="middle" x="990.536" y="-63.5" font-family="Helvetica,sans-Serif" font-size="10.00">IFPSDisplayControl.h</text>
</a>
</g>
</g>
<!-- Node1&#45;&gt;Node11 -->
<g id="edge16" class="edge"><title>Node1&#45;&gt;Node11</title>
<path fill="none" stroke="midnightblue" d="M1296.85,-175.192C1204.57,-170.58 981.684,-156.949 959.536,-132 944.43,-114.983 966.471,-89.3092 980.476,-75.8881"/>
<polygon fill="midnightblue" stroke="midnightblue" points="1296.76,-178.691 1306.92,-175.685 1297.11,-171.7 1296.76,-178.691"/>
</g>
<!-- Node12 -->
<g id="node12" class="node"><title>Node12</title>
<g id="a_node12"><a xlink:href="_i_popup_menu_control_8h.html" target="_top" xlink:title="A base control for a pop&#45;up menu/drop&#45;down list that stays within the bounds of the IGraphics context...">
<polygon fill="white" stroke="black" points="733.036,-112.5 733.036,-131.5 844.036,-131.5 844.036,-112.5 733.036,-112.5"/>
<text text-anchor="middle" x="788.536" y="-119.5" font-family="Helvetica,sans-Serif" font-size="10.00">IPopupMenuControl.h</text>
</a>
</g>
</g>
<!-- Node1&#45;&gt;Node12 -->
<g id="edge18" class="edge"><title>Node1&#45;&gt;Node12</title>
<path fill="none" stroke="midnightblue" d="M1296.72,-173.713C1214.67,-166.836 1020.83,-150.068 858.536,-132 853.909,-131.485 849.113,-130.924 844.3,-130.343"/>
<polygon fill="midnightblue" stroke="midnightblue" points="1296.6,-177.214 1306.85,-174.559 1297.18,-170.239 1296.6,-177.214"/>
</g>
<!-- Node14 -->
<g id="node14" class="node"><title>Node14</title>
<g id="a_node14"><a xlink:href="_i_graphics_web_8cpp_source.html" target="_top" xlink:title="IGraphicsWeb.cpp">
<polygon fill="white" stroke="black" points="526.536,-56.5 526.536,-75.5 624.536,-75.5 624.536,-56.5 526.536,-56.5"/>
<text text-anchor="middle" x="575.536" y="-63.5" font-family="Helvetica,sans-Serif" font-size="10.00">IGraphicsWeb.cpp</text>
</a>
</g>
</g>
<!-- Node1&#45;&gt;Node14 -->
<g id="edge66" class="edge"><title>Node1&#45;&gt;Node14</title>
<path fill="none" stroke="midnightblue" d="M1296.69,-175.949C1178.69,-172.542 832.56,-160.34 723.536,-132 703.137,-126.697 699.781,-120.597 680.536,-112 651.382,-98.9763 617.369,-84.5355 596.139,-75.6111"/>
<polygon fill="midnightblue" stroke="midnightblue" points="1296.64,-179.449 1306.73,-176.234 1296.84,-172.452 1296.64,-179.449"/>
</g>
<!-- Node15 -->
<g id="node15" class="node"><title>Node15</title>
<g id="a_node15"><a xlink:href="_i_graphics_win_8cpp_source.html" target="_top" xlink:title="IGraphicsWin.cpp">
<polygon fill="white" stroke="black" points="821.036,-56.5 821.036,-75.5 916.036,-75.5 916.036,-56.5 821.036,-56.5"/>
<text text-anchor="middle" x="868.536" y="-63.5" font-family="Helvetica,sans-Serif" font-size="10.00">IGraphicsWin.cpp</text>
</a>
</g>
</g>
<!-- Node1&#45;&gt;Node15 -->
<g id="edge67" class="edge"><title>Node1&#45;&gt;Node15</title>
<path fill="none" stroke="midnightblue" d="M1296.81,-175.122C1211.3,-170.638 1012.53,-157.712 950.536,-132 918.99,-118.916 889.554,-89.9941 876.142,-75.5526"/>
<polygon fill="midnightblue" stroke="midnightblue" points="1296.73,-178.623 1306.9,-175.64 1297.09,-171.632 1296.73,-178.623"/>
</g>
<!-- Node16 -->
<g id="node16" class="node"><title>Node16</title>
<g id="a_node16"><a xlink:href="_i_text_entry_control_8h.html" target="_top" xlink:title="A Text entry widget drawn by IGraphics to optionally override platform text entries. ">
<polygon fill="white" stroke="black" points="976.536,-112.5 976.536,-131.5 1078.54,-131.5 1078.54,-112.5 976.536,-112.5"/>
<text text-anchor="middle" x="1027.54" y="-119.5" font-family="Helvetica,sans-Serif" font-size="10.00">ITextEntryControl.h</text>
</a>
</g>
</g>
<!-- Node1&#45;&gt;Node16 -->
<g id="edge23" class="edge"><title>Node1&#45;&gt;Node16</title>
<path fill="none" stroke="midnightblue" d="M1296.95,-170.081C1240.56,-160.227 1137.2,-142.164 1076.2,-131.505"/>
<polygon fill="midnightblue" stroke="midnightblue" points="1296.45,-173.548 1306.91,-171.822 1297.66,-166.653 1296.45,-173.548"/>
</g>
<!-- Node21 -->
<g id="node21" class="node"><title>Node21</title>
<g id="a_node21"><a xlink:href="_test_animation_control_8h.html" target="_top" xlink:title="Control to test animation. ">
<polygon fill="white" stroke="black" points="1097.04,-112.5 1097.04,-131.5 1216.04,-131.5 1216.04,-112.5 1097.04,-112.5"/>
<text text-anchor="middle" x="1156.54" y="-119.5" font-family="Helvetica,sans-Serif" font-size="10.00">TestAnimationControl.h</text>
</a>
</g>
</g>
<!-- Node1&#45;&gt;Node21 -->
<g id="edge29" class="edge"><title>Node1&#45;&gt;Node21</title>
<path fill="none" stroke="midnightblue" d="M1298.43,-165.568C1264.47,-155.381 1215.55,-140.703 1184.92,-131.516"/>
<polygon fill="midnightblue" stroke="midnightblue" points="1297.43,-168.922 1308.01,-168.444 1299.44,-162.218 1297.43,-168.922"/>
</g>
<!-- Node23 -->
<g id="node23" class="node"><title>Node23</title>
<g id="a_node23"><a xlink:href="_test_arc_control_8h.html" target="_top" xlink:title="Control to test drawing arcs. ">
<polygon fill="white" stroke="black" points="1234.04,-112.5 1234.04,-131.5 1325.04,-131.5 1325.04,-112.5 1234.04,-112.5"/>
<text text-anchor="middle" x="1279.54" y="-119.5" font-family="Helvetica,sans-Serif" font-size="10.00">TestArcControl.h</text>
</a>
</g>
</g>
<!-- Node1&#45;&gt;Node23 -->
<g id="edge31" class="edge"><title>Node1&#45;&gt;Node23</title>
<path fill="none" stroke="midnightblue" d="M1319.91,-161.253C1309.8,-151.673 1297.26,-139.791 1288.86,-131.834"/>
<polygon fill="midnightblue" stroke="midnightblue" points="1317.71,-163.987 1327.38,-168.324 1322.53,-158.906 1317.71,-163.987"/>
</g>
<!-- Node24 -->
<g id="node24" class="node"><title>Node24</title>
<g id="a_node24"><a xlink:href="_test_blend_control_8h.html" target="_top" xlink:title="Control to test blend methods. ">
<polygon fill="white" stroke="black" points="1343.04,-112.5 1343.04,-131.5 1444.04,-131.5 1444.04,-112.5 1343.04,-112.5"/>
<text text-anchor="middle" x="1393.54" y="-119.5" font-family="Helvetica,sans-Serif" font-size="10.00">TestBlendControl.h</text>
</a>
</g>
</g>
<!-- Node1&#45;&gt;Node24 -->
<g id="edge33" class="edge"><title>Node1&#45;&gt;Node24</title>
<path fill="none" stroke="midnightblue" d="M1353.16,-161.253C1363.27,-151.673 1375.81,-139.791 1384.21,-131.834"/>
<polygon fill="midnightblue" stroke="midnightblue" points="1350.55,-158.906 1345.69,-168.324 1355.36,-163.987 1350.55,-158.906"/>
</g>
<!-- Node25 -->
<g id="node25" class="node"><title>Node25</title>
<g id="a_node25"><a xlink:href="_test_dir_browse_control_8h.html" target="_top" xlink:title="Control to test IDirBrowseControlBase. ">
<polygon fill="white" stroke="black" points="1462.54,-112.5 1462.54,-131.5 1584.54,-131.5 1584.54,-112.5 1462.54,-112.5"/>
<text text-anchor="middle" x="1523.54" y="-119.5" font-family="Helvetica,sans-Serif" font-size="10.00">TestDirBrowseControl.h</text>
</a>
</g>
</g>
<!-- Node1&#45;&gt;Node25 -->
<g id="edge35" class="edge"><title>Node1&#45;&gt;Node25</title>
<path fill="none" stroke="midnightblue" d="M1376.13,-165.568C1411.4,-155.381 1462.23,-140.703 1494.04,-131.516"/>
<polygon fill="midnightblue" stroke="midnightblue" points="1374.8,-162.307 1366.17,-168.444 1376.75,-169.032 1374.8,-162.307"/>
</g>
<!-- Node26 -->
<g id="node26" class="node"><title>Node26</title>
<g id="a_node26"><a xlink:href="_test_gradient_control_8h.html" target="_top" xlink:title="Control to test drawing gradients with path based drawing backends. ">
<polygon fill="white" stroke="black" points="1603.04,-112.5 1603.04,-131.5 1716.04,-131.5 1716.04,-112.5 1603.04,-112.5"/>
<text text-anchor="middle" x="1659.54" y="-119.5" font-family="Helvetica,sans-Serif" font-size="10.00">TestGradientControl.h</text>
</a>
</g>
</g>
<!-- Node1&#45;&gt;Node26 -->
<g id="edge37" class="edge"><title>Node1&#45;&gt;Node26</title>
<path fill="none" stroke="midnightblue" d="M1376.02,-170.399C1434.53,-160.618 1544.25,-142.274 1608.69,-131.5"/>
<polygon fill="midnightblue" stroke="midnightblue" points="1375.34,-166.964 1366.06,-172.065 1376.5,-173.868 1375.34,-166.964"/>
</g>
<!-- Node27 -->
<g id="node27" class="node"><title>Node27</title>
<g id="a_node27"><a xlink:href="_test_layer_control_8h.html" target="_top" xlink:title="Control to test IGraphics layers. ">
<polygon fill="white" stroke="black" points="1734.54,-112.5 1734.54,-131.5 1834.54,-131.5 1834.54,-112.5 1734.54,-112.5"/>
<text text-anchor="middle" x="1784.54" y="-119.5" font-family="Helvetica,sans-Serif" font-size="10.00">TestLayerControl.h</text>
</a>
</g>
</g>
<!-- Node1&#45;&gt;Node27 -->
<g id="edge39" class="edge"><title>Node1&#45;&gt;Node27</title>
<path fill="none" stroke="midnightblue" d="M1376.46,-172.815C1446.86,-165.336 1597.62,-148.874 1724.54,-132 1727.77,-131.57 1731.11,-131.112 1734.46,-130.639"/>
<polygon fill="midnightblue" stroke="midnightblue" points="1375.85,-169.36 1366.27,-173.894 1376.58,-176.321 1375.85,-169.36"/>
</g>
<!-- Node28 -->
<g id="node28" class="node"><title>Node28</title>
<g id="a_node28"><a xlink:href="_test_multi_path_control_8h.html" target="_top" xlink:title="Control to test drawing paths in path&#45;based drawing backends. ">
<polygon fill="white" stroke="black" points="1853.04,-112.5 1853.04,-131.5 1970.04,-131.5 1970.04,-112.5 1853.04,-112.5"/>
<text text-anchor="middle" x="1911.54" y="-119.5" font-family="Helvetica,sans-Serif" font-size="10.00">TestMultiPathControl.h</text>
</a>
</g>
</g>
<!-- Node1&#45;&gt;Node28 -->
<g id="edge41" class="edge"><title>Node1&#45;&gt;Node28</title>
<path fill="none" stroke="midnightblue" d="M1376.36,-174.052C1461.97,-167.586 1669.85,-151.193 1843.54,-132 1846.61,-131.66 1849.77,-131.296 1852.95,-130.917"/>
<polygon fill="midnightblue" stroke="midnightblue" points="1376.01,-170.569 1366.3,-174.809 1376.53,-177.549 1376.01,-170.569"/>
</g>
<!-- Node29 -->
<g id="node29" class="node"><title>Node29</title>
<g id="a_node29"><a xlink:href="_test_poly_control_8h.html" target="_top" xlink:title="Control to test drawing polygons. ">
<polygon fill="white" stroke="black" points="1988.04,-112.5 1988.04,-131.5 2083.04,-131.5 2083.04,-112.5 1988.04,-112.5"/>
<text text-anchor="middle" x="2035.54" y="-119.5" font-family="Helvetica,sans-Serif" font-size="10.00">TestPolyControl.h</text>
</a>
</g>
</g>
<!-- Node1&#45;&gt;Node29 -->
<g id="edge43" class="edge"><title>Node1&#45;&gt;Node29</title>
<path fill="none" stroke="midnightblue" d="M1376.09,-175.421C1476.84,-171.141 1751.23,-157.863 1978.54,-132 1981.62,-131.649 1984.8,-131.251 1987.99,-130.822"/>
<polygon fill="midnightblue" stroke="midnightblue" points="1375.9,-171.926 1366.06,-175.842 1376.19,-178.92 1375.9,-171.926"/>
</g>
<!-- Node30 -->
<g id="node30" class="node"><title>Node30</title>
<g id="a_node30"><a xlink:href="_test_text_control_8h.html" target="_top" xlink:title="Control to test drawing text. ">
<polygon fill="white" stroke="black" points="2101.04,-112.5 2101.04,-131.5 2196.04,-131.5 2196.04,-112.5 2101.04,-112.5"/>
<text text-anchor="middle" x="2148.54" y="-119.5" font-family="Helvetica,sans-Serif" font-size="10.00">TestTextControl.h</text>
</a>
</g>
</g>
<!-- Node1&#45;&gt;Node30 -->
<g id="edge45" class="edge"><title>Node1&#45;&gt;Node30</title>
<path fill="none" stroke="midnightblue" d="M1376.33,-175.989C1488.87,-172.837 1819.01,-161.567 2091.54,-132 2094.62,-131.665 2097.8,-131.279 2101,-130.86"/>
<polygon fill="midnightblue" stroke="midnightblue" points="1376.02,-172.496 1366.12,-176.269 1376.22,-179.493 1376.02,-172.496"/>
</g>
<!-- Node31 -->
<g id="node31" class="node"><title>Node31</title>
<g id="a_node31"><a xlink:href="_test_draw_context_control_8h.html" target="_top" xlink:title="Control to test obtaining a drawing API (NanoVG, LICE, Cairo, AGG etc) context and using that API wit...">
<polygon fill="white" stroke="black" points="2214.54,-112.5 2214.54,-131.5 2348.54,-131.5 2348.54,-112.5 2214.54,-112.5"/>
<text text-anchor="middle" x="2281.54" y="-119.5" font-family="Helvetica,sans-Serif" font-size="10.00">TestDrawContextControl.h</text>
</a>
</g>
</g>
<!-- Node1&#45;&gt;Node31 -->
<g id="edge47" class="edge"><title>Node1&#45;&gt;Node31</title>
<path fill="none" stroke="midnightblue" d="M1376.28,-175.853C1499.44,-172.104 1885.66,-158.873 2204.54,-132 2207.76,-131.729 2211.05,-131.429 2214.37,-131.109"/>
<polygon fill="midnightblue" stroke="midnightblue" points="1376.08,-172.358 1366.19,-176.157 1376.29,-179.355 1376.08,-172.358"/>
</g>
<!-- Node32 -->
<g id="node32" class="node"><title>Node32</title>
<g id="a_node32"><a xlink:href="_test_size_control_8h.html" target="_top" xlink:title="Control to display the size of a region. ">
<polygon fill="white" stroke="black" points="2367.04,-112.5 2367.04,-131.5 2462.04,-131.5 2462.04,-112.5 2367.04,-112.5"/>
<text text-anchor="middle" x="2414.54" y="-119.5" font-family="Helvetica,sans-Serif" font-size="10.00">TestSizeControl.h</text>
</a>
</g>
</g>
<!-- Node1&#45;&gt;Node32 -->
<g id="edge49" class="edge"><title>Node1&#45;&gt;Node32</title>
<path fill="none" stroke="midnightblue" d="M1376.3,-176.855C1513.09,-176.012 1976.87,-170.319 2357.54,-132 2360.63,-131.689 2363.8,-131.321 2367,-130.915"/>
<polygon fill="midnightblue" stroke="midnightblue" points="1376.26,-173.355 1366.28,-176.911 1376.3,-180.354 1376.26,-173.355"/>
</g>
<!-- Node33 -->
<g id="node33" class="node"><title>Node33</title>
<g id="a_node33"><a xlink:href="_test_s_v_g_control_8h.html" target="_top" xlink:title="Control to test drawing SVGs. ">
<polygon fill="white" stroke="black" points="2480.04,-112.5 2480.04,-131.5 2577.04,-131.5 2577.04,-112.5 2480.04,-112.5"/>
<text text-anchor="middle" x="2528.54" y="-119.5" font-family="Helvetica,sans-Serif" font-size="10.00">TestSVGControl.h</text>
</a>
</g>
</g>
<!-- Node1&#45;&gt;Node33 -->
<g id="edge51" class="edge"><title>Node1&#45;&gt;Node33</title>
<path fill="none" stroke="midnightblue" d="M1376.71,-177.063C1523.41,-176.943 2043.89,-173.43 2470.54,-132 2473.58,-131.705 2476.71,-131.355 2479.85,-130.967"/>
<polygon fill="midnightblue" stroke="midnightblue" points="1376.41,-173.563 1366.41,-177.066 1376.41,-180.563 1376.41,-173.563"/>
</g>
<!-- Node34 -->
<g id="node34" class="node"><title>Node34</title>
<g id="a_node34"><a xlink:href="_test_image_control_8h.html" target="_top" xlink:title="Control to test drawing bitmaps. ">
<polygon fill="white" stroke="black" points="2595.04,-112.5 2595.04,-131.5 2698.04,-131.5 2698.04,-112.5 2595.04,-112.5"/>
<text text-anchor="middle" x="2646.54" y="-119.5" font-family="Helvetica,sans-Serif" font-size="10.00">TestImageControl.h</text>
</a>
</g>
</g>
<!-- Node1&#45;&gt;Node34 -->
<g id="edge53" class="edge"><title>Node1&#45;&gt;Node34</title>
<path fill="none" stroke="midnightblue" d="M1376.58,-177.163C1532.15,-177.458 2111.28,-175.396 2585.54,-132 2588.63,-131.717 2591.8,-131.383 2595,-131.012"/>
<polygon fill="midnightblue" stroke="midnightblue" points="1376.13,-173.662 1366.12,-177.139 1376.11,-180.662 1376.13,-173.662"/>
</g>
<!-- Node35 -->
<g id="node35" class="node"><title>Node35</title>
<g id="a_node35"><a xlink:href="_test_drop_shadow_control_8h.html" target="_top" xlink:title="Control to test layer drop shadows. ">
<polygon fill="white" stroke="black" points="2716.54,-112.5 2716.54,-131.5 2848.54,-131.5 2848.54,-112.5 2716.54,-112.5"/>
<text text-anchor="middle" x="2782.54" y="-119.5" font-family="Helvetica,sans-Serif" font-size="10.00">TestDropShadowControl.h</text>
</a>
</g>
</g>
<!-- Node1&#45;&gt;Node35 -->
<g id="edge55" class="edge"><title>Node1&#45;&gt;Node35</title>
<path fill="none" stroke="midnightblue" d="M1376.63,-176.928C1541.3,-176.369 2181.76,-171.619 2706.54,-132 2709.72,-131.76 2712.97,-131.486 2716.25,-131.186"/>
<polygon fill="midnightblue" stroke="midnightblue" points="1376.46,-173.428 1366.47,-176.959 1376.48,-180.428 1376.46,-173.428"/>
</g>
<!-- Node36 -->
<g id="node36" class="node"><title>Node36</title>
<g id="a_node36"><a xlink:href="_test_cursor_control_8h.html" target="_top" xlink:title="Control to test changing the platform cursor. ">
<polygon fill="white" stroke="black" points="2867.04,-112.5 2867.04,-131.5 2972.04,-131.5 2972.04,-112.5 2867.04,-112.5"/>
<text text-anchor="middle" x="2919.54" y="-119.5" font-family="Helvetica,sans-Serif" font-size="10.00">TestCursorControl.h</text>
</a>
</g>
</g>
<!-- Node1&#45;&gt;Node36 -->
<g id="edge57" class="edge"><title>Node1&#45;&gt;Node36</title>
<path fill="none" stroke="midnightblue" d="M1376.28,-176.442C1585.13,-173.415 2557.46,-158.132 2857.54,-132 2860.57,-131.736 2863.68,-131.422 2866.82,-131.072"/>
<polygon fill="midnightblue" stroke="midnightblue" points="1376.03,-172.945 1366.08,-176.589 1376.13,-179.944 1376.03,-172.945"/>
</g>
<!-- Node37 -->
<g id="node37" class="node"><title>Node37</title>
<g id="a_node37"><a xlink:href="_test_keyboard_control_8h.html" target="_top" xlink:title="Control to test keyboard input. ">
<polygon fill="white" stroke="black" points="2990.04,-112.5 2990.04,-131.5 3107.04,-131.5 3107.04,-112.5 2990.04,-112.5"/>
<text text-anchor="middle" x="3048.54" y="-119.5" font-family="Helvetica,sans-Serif" font-size="10.00">TestKeyboardControl.h</text>
</a>
</g>
</g>
<!-- Node1&#45;&gt;Node37 -->
<g id="edge59" class="edge"><title>Node1&#45;&gt;Node37</title>
<path fill="none" stroke="midnightblue" d="M1376.31,-176.475C1595.15,-173.5 2654.47,-157.969 2980.54,-132 2983.62,-131.754 2986.78,-131.465 2989.97,-131.145"/>
<polygon fill="midnightblue" stroke="midnightblue" points="1376.2,-172.976 1366.24,-176.611 1376.29,-179.975 1376.2,-172.976"/>
</g>
<!-- Node38 -->
<g id="node38" class="node"><title>Node38</title>
<g id="a_node38"><a xlink:href="_i_control_8cpp_source.html" target="_top" xlink:title="IControl.cpp">
<polygon fill="white" stroke="black" points="3125.54,-112.5 3125.54,-131.5 3195.54,-131.5 3195.54,-112.5 3125.54,-112.5"/>
<text text-anchor="middle" x="3160.54" y="-119.5" font-family="Helvetica,sans-Serif" font-size="10.00">IControl.cpp</text>
</a>
</g>
</g>
<!-- Node1&#45;&gt;Node38 -->
<g id="edge61" class="edge"><title>Node1&#45;&gt;Node38</title>
<path fill="none" stroke="midnightblue" d="M1376.27,-176.925C1605.61,-176.352 2762.1,-171.516 3115.54,-132 3118.7,-131.646 3121.98,-131.183 3125.25,-130.653"/>
<polygon fill="midnightblue" stroke="midnightblue" points="1376.05,-173.425 1366.06,-176.949 1376.07,-180.425 1376.05,-173.425"/>
</g>
<!-- Node39 -->
<g id="node39" class="node"><title>Node39</title>
<g id="a_node39"><a xlink:href="_i_graphics_live_edit_8h.html" target="_top" xlink:title="A control to enable live modification of control layout in an IGraphics context in debug builds This ...">
<polygon fill="white" stroke="black" points="1064.54,-56.5 1064.54,-75.5 1166.54,-75.5 1166.54,-56.5 1064.54,-56.5"/>
<text text-anchor="middle" x="1115.54" y="-63.5" font-family="Helvetica,sans-Serif" font-size="10.00">IGraphicsLiveEdit.h</text>
</a>
</g>
</g>
<!-- Node1&#45;&gt;Node39 -->
<g id="edge63" class="edge"><title>Node1&#45;&gt;Node39</title>
<path fill="none" stroke="midnightblue" d="M1296.77,-175.078C1205.89,-170.279 989.116,-156.372 967.536,-132 961.644,-125.345 962.244,-119.141 967.536,-112 979.49,-95.8719 1027.96,-83.2342 1066.21,-75.5105"/>
<polygon fill="midnightblue" stroke="midnightblue" points="1296.79,-178.583 1306.95,-175.605 1297.15,-171.593 1296.79,-178.583"/>
</g>
<!-- Node40 -->
<g id="node40" class="node"><title>Node40</title>
<g id="a_node40"><a xlink:href="_i_graphics_editor_delegate_8cpp_source.html" target="_top" xlink:title="IGraphicsEditorDelegate.cpp">
<polygon fill="white" stroke="black" points="3213.54,-112.5 3213.54,-131.5 3355.54,-131.5 3355.54,-112.5 3213.54,-112.5"/>
<text text-anchor="middle" x="3284.54" y="-119.5" font-family="Helvetica,sans-Serif" font-size="10.00">IGraphicsEditorDelegate.cpp</text>
</a>
</g>
</g>
<!-- Node1&#45;&gt;Node40 -->
<g id="edge65" class="edge"><title>Node1&#45;&gt;Node40</title>
<path fill="none" stroke="midnightblue" d="M1376.46,-177.339C1574.6,-178.747 2472,-181.931 3204.54,-132 3207.46,-131.8 3210.45,-131.573 3213.47,-131.324"/>
<polygon fill="midnightblue" stroke="midnightblue" points="1376.27,-173.837 1366.24,-177.263 1376.22,-180.837 1376.27,-173.837"/>
</g>
<!-- Node2&#45;&gt;Node3 -->
<g id="edge2" class="edge"><title>Node2&#45;&gt;Node3</title>
<path fill="none" stroke="midnightblue" d="M114.804,-110.09C159.305,-99.5961 225.451,-83.9984 264.76,-74.729"/>
<polygon fill="midnightblue" stroke="midnightblue" points="113.752,-106.742 104.822,-112.444 115.358,-113.555 113.752,-106.742"/>
</g>
<!-- Node4 -->
<g id="node4" class="node"><title>Node4</title>
<g id="a_node4"><a xlink:href="_i_controls_8cpp.html" target="_top" xlink:title="IControls implementation. ">
<polygon fill="white" stroke="black" points="260.036,-0.5 260.036,-19.5 335.036,-19.5 335.036,-0.5 260.036,-0.5"/>
<text text-anchor="middle" x="297.536" y="-7.5" font-family="Helvetica,sans-Serif" font-size="10.00">IControls.cpp</text>
</a>
</g>
</g>
<!-- Node3&#45;&gt;Node4 -->
<g id="edge3" class="edge"><title>Node3&#45;&gt;Node4</title>
<path fill="none" stroke="midnightblue" d="M297.536,-45.8045C297.536,-36.9102 297.536,-26.7798 297.536,-19.7511"/>
<polygon fill="midnightblue" stroke="midnightblue" points="294.036,-46.083 297.536,-56.083 301.036,-46.083 294.036,-46.083"/>
</g>
<!-- Node3&#45;&gt;Node5 -->
<g id="edge4" class="edge"><title>Node3&#45;&gt;Node5</title>
<path fill="none" stroke="midnightblue" d="M340.082,-56.6787C341.584,-56.4405 343.072,-56.2133 344.536,-56 495.181,-34.0553 675.893,-19.4563 753.742,-13.7267"/>
<polygon fill="midnightblue" stroke="midnightblue" points="339.361,-53.251 330.089,-58.3773 340.534,-60.152 339.361,-53.251"/>
</g>
<!-- Node6&#45;&gt;Node3 -->
<g id="edge7" class="edge"><title>Node6&#45;&gt;Node3</title>
<path fill="none" stroke="midnightblue" d="M220.867,-107.59C239.727,-97.6052 264.921,-84.2672 281.189,-75.6545"/>
<polygon fill="midnightblue" stroke="midnightblue" points="219.125,-104.552 211.924,-112.324 222.4,-110.738 219.125,-104.552"/>
</g>
<!-- Node7&#45;&gt;Node3 -->
<g id="edge9" class="edge"><title>Node7&#45;&gt;Node3</title>
<path fill="none" stroke="midnightblue" d="M307.368,-102.396C304.859,-93.362 301.963,-82.936 299.967,-75.7511"/>
<polygon fill="midnightblue" stroke="midnightblue" points="304.011,-103.385 310.059,-112.083 310.755,-101.511 304.011,-103.385"/>
</g>
<!-- Node8&#45;&gt;Node3 -->
<g id="edge11" class="edge"><title>Node8&#45;&gt;Node3</title>
<path fill="none" stroke="midnightblue" d="M394.377,-108.503C370.755,-98.3795 338.108,-84.388 317.408,-75.5164"/>
<polygon fill="midnightblue" stroke="midnightblue" points="393.001,-111.721 403.571,-112.444 395.759,-105.287 393.001,-111.721"/>
</g>
<!-- Node9&#45;&gt;Node3 -->
<g id="edge13" class="edge"><title>Node9&#45;&gt;Node3</title>
<path fill="none" stroke="midnightblue" d="M495.333,-110.243C446.298,-99.5228 372.393,-83.3654 330.181,-74.1368"/>
<polygon fill="midnightblue" stroke="midnightblue" points="494.882,-113.727 505.398,-112.444 496.377,-106.888 494.882,-113.727"/>
</g>
<!-- Node10&#45;&gt;Node5 -->
<g id="edge15" class="edge"><title>Node10&#45;&gt;Node5</title>
<path fill="none" stroke="midnightblue" d="M512.379,-54.8508C583.421,-43.731 695.051,-26.2586 753.651,-17.0865"/>
<polygon fill="midnightblue" stroke="midnightblue" points="511.541,-51.4392 502.203,-56.4435 512.624,-58.355 511.541,-51.4392"/>
</g>
<!-- Node11&#45;&gt;Node5 -->
<g id="edge17" class="edge"><title>Node11&#45;&gt;Node5</title>
<path fill="none" stroke="midnightblue" d="M949.098,-53.6986C911.729,-43.507 857.594,-28.7429 823.763,-19.5164"/>
<polygon fill="midnightblue" stroke="midnightblue" points="948.594,-57.189 959.163,-56.4435 950.436,-50.4356 948.594,-57.189"/>
</g>
<!-- Node12&#45;&gt;Node5 -->
<g id="edge20" class="edge"><title>Node12&#45;&gt;Node5</title>
<path fill="none" stroke="midnightblue" d="M789.215,-102.348C790.091,-78.2538 791.58,-37.3079 792.224,-19.5914"/>
<polygon fill="midnightblue" stroke="midnightblue" points="785.716,-102.248 788.85,-112.368 792.711,-102.502 785.716,-102.248"/>
</g>
<!-- Node13 -->
<g id="node13" class="node"><title>Node13</title>
<g id="a_node13"><a xlink:href="_i_popup_menu_control_8cpp.html" target="_top" xlink:title="IPopupMenuControl implementation. ">
<polygon fill="white" stroke="black" points="642.536,-56.5 642.536,-75.5 764.536,-75.5 764.536,-56.5 642.536,-56.5"/>
<text text-anchor="middle" x="703.536" y="-63.5" font-family="Helvetica,sans-Serif" font-size="10.00">IPopupMenuControl.cpp</text>
</a>
</g>
</g>
<!-- Node12&#45;&gt;Node13 -->
<g id="edge19" class="edge"><title>Node12&#45;&gt;Node13</title>
<path fill="none" stroke="midnightblue" d="M766.343,-106.901C750.756,-96.9986 730.407,-84.0705 717.159,-75.6545"/>
<polygon fill="midnightblue" stroke="midnightblue" points="764.562,-109.916 774.88,-112.324 768.316,-104.007 764.562,-109.916"/>
</g>
<!-- Node12&#45;&gt;Node14 -->
<g id="edge21" class="edge"><title>Node12&#45;&gt;Node14</title>
<path fill="none" stroke="midnightblue" d="M744.986,-109.959C704.756,-99.7598 645.833,-84.8217 609.129,-75.5164"/>
<polygon fill="midnightblue" stroke="midnightblue" points="744.232,-113.379 754.786,-112.444 745.953,-106.593 744.232,-113.379"/>
</g>
<!-- Node12&#45;&gt;Node15 -->
<g id="edge22" class="edge"><title>Node12&#45;&gt;Node15</title>
<path fill="none" stroke="midnightblue" d="M809.837,-106.622C824.451,-96.7574 843.363,-83.9919 855.715,-75.6545"/>
<polygon fill="midnightblue" stroke="midnightblue" points="807.72,-103.828 801.39,-112.324 811.636,-109.63 807.72,-103.828"/>
</g>
<!-- Node16&#45;&gt;Node5 -->
<g id="edge28" class="edge"><title>Node16&#45;&gt;Node5</title>
<path fill="none" stroke="midnightblue" d="M1086.52,-110.337C1122.54,-102.492 1163.69,-90.6612 1174.54,-76 1179.82,-68.8537 1180.44,-62.6429 1174.54,-56 1151.96,-30.6109 923.891,-17.1509 831.296,-12.6981"/>
<polygon fill="midnightblue" stroke="midnightblue" points="1085.6,-106.956 1076.53,-112.444 1087.04,-113.806 1085.6,-106.956"/>
</g>
<!-- Node17 -->
<g id="node17" class="node"><title>Node17</title>
<g id="a_node17"><a xlink:href="_i_text_entry_control_8cpp.html" target="_top" xlink:title="ITextEntryControl implementation. ">
<polygon fill="white" stroke="black" points="1223.04,-56.5 1223.04,-75.5 1336.04,-75.5 1336.04,-56.5 1223.04,-56.5"/>
<text text-anchor="middle" x="1279.54" y="-63.5" font-family="Helvetica,sans-Serif" font-size="10.00">ITextEntryControl.cpp</text>
</a>
</g>
</g>
<!-- Node16&#45;&gt;Node17 -->
<g id="edge24" class="edge"><title>Node16&#45;&gt;Node17</title>
<path fill="none" stroke="midnightblue" d="M1077.26,-110.346C1124.88,-100.141 1195.82,-84.94 1239.79,-75.5164"/>
<polygon fill="midnightblue" stroke="midnightblue" points="1076.51,-106.926 1067.47,-112.444 1077.98,-113.77 1076.51,-106.926"/>
</g>
<!-- Node18 -->
<g id="node18" class="node"><title>Node18</title>
<g id="a_node18"><a xlink:href="_i_graphics_cairo_8cpp_source.html" target="_top" xlink:title="IGraphicsCairo.cpp">
<polygon fill="white" stroke="black" points="1354.04,-56.5 1354.04,-75.5 1455.04,-75.5 1455.04,-56.5 1354.04,-56.5"/>
<text text-anchor="middle" x="1404.54" y="-63.5" font-family="Helvetica,sans-Serif" font-size="10.00">IGraphicsCairo.cpp</text>
</a>
</g>
</g>
<!-- Node16&#45;&gt;Node18 -->
<g id="edge25" class="edge"><title>Node16&#45;&gt;Node18</title>
<path fill="none" stroke="midnightblue" d="M1088.83,-111.825C1203.37,-95.2705 1233.63,-92.086 1344.54,-76 1347.56,-75.5616 1350.67,-75.107 1353.8,-74.6455"/>
<polygon fill="midnightblue" stroke="midnightblue" points="1087.99,-108.41 1078.59,-113.307 1088.99,-115.337 1087.99,-108.41"/>
</g>
<!-- Node19 -->
<g id="node19" class="node"><title>Node19</title>
<g id="a_node19"><a xlink:href="_i_graphics_lice_8cpp_source.html" target="_top" xlink:title="IGraphicsLice.cpp">
<polygon fill="white" stroke="black" points="1473.04,-56.5 1473.04,-75.5 1568.04,-75.5 1568.04,-56.5 1473.04,-56.5"/>
<text text-anchor="middle" x="1520.54" y="-63.5" font-family="Helvetica,sans-Serif" font-size="10.00">IGraphicsLice.cpp</text>
</a>
</g>
</g>
<!-- Node16&#45;&gt;Node19 -->
<g id="edge26" class="edge"><title>Node16&#45;&gt;Node19</title>
<path fill="none" stroke="midnightblue" d="M1088.71,-111.919C1255.88,-91.7484 1300.25,-96.6889 1463.54,-76 1466.62,-75.6096 1469.79,-75.1818 1472.98,-74.7314"/>
<polygon fill="midnightblue" stroke="midnightblue" points="1088.08,-108.47 1078.57,-113.155 1088.92,-115.419 1088.08,-108.47"/>
</g>
<!-- Node20 -->
<g id="node20" class="node"><title>Node20</title>
<g id="a_node20"><a xlink:href="_i_graphics_nano_v_g_8cpp_source.html" target="_top" xlink:title="IGraphicsNanoVG.cpp">
<polygon fill="white" stroke="black" points="1586.04,-56.5 1586.04,-75.5 1701.04,-75.5 1701.04,-56.5 1586.04,-56.5"/>
<text text-anchor="middle" x="1643.54" y="-63.5" font-family="Helvetica,sans-Serif" font-size="10.00">IGraphicsNanoVG.cpp</text>
</a>
</g>
</g>
<!-- Node16&#45;&gt;Node20 -->
<g id="edge27" class="edge"><title>Node16&#45;&gt;Node20</title>
<path fill="none" stroke="midnightblue" d="M1088.69,-111.956C1305.83,-88.1358 1363.06,-98.1755 1576.54,-76 1579.57,-75.6847 1582.68,-75.3406 1585.82,-74.9769"/>
<polygon fill="midnightblue" stroke="midnightblue" points="1088.12,-108.498 1078.57,-113.078 1088.89,-115.455 1088.12,-108.498"/>
</g>
<!-- Node22 -->
<g id="node22" class="node"><title>Node22</title>
<g id="a_node22"><a xlink:href="_test_controls_8h.html" target="_top" xlink:title="Include all the test controls. ">
<polygon fill="white" stroke="black" points="2051.04,-56.5 2051.04,-75.5 2132.04,-75.5 2132.04,-56.5 2051.04,-56.5"/>
<text text-anchor="middle" x="2091.54" y="-63.5" font-family="Helvetica,sans-Serif" font-size="10.00">TestControls.h</text>
</a>
</g>
</g>
<!-- Node21&#45;&gt;Node22 -->
<g id="edge30" class="edge"><title>Node21&#45;&gt;Node22</title>
<path fill="none" stroke="midnightblue" d="M1226.25,-111.91C1549.84,-82.5633 1927.95,-71.1013 2050.83,-67.9597"/>
<polygon fill="midnightblue" stroke="midnightblue" points="1225.85,-108.432 1216.21,-112.828 1226.49,-115.403 1225.85,-108.432"/>
</g>
<!-- Node23&#45;&gt;Node22 -->
<g id="edge32" class="edge"><title>Node23&#45;&gt;Node22</title>
<path fill="none" stroke="midnightblue" d="M1335.47,-111.894C1614.38,-81.0004 1938.3,-70.7177 2050.73,-67.9039"/>
<polygon fill="midnightblue" stroke="midnightblue" points="1334.7,-108.458 1325.15,-113.048 1335.48,-115.414 1334.7,-108.458"/>
</g>
<!-- Node24&#45;&gt;Node22 -->
<g id="edge34" class="edge"><title>Node24&#45;&gt;Node22</title>
<path fill="none" stroke="midnightblue" d="M1454.21,-112.017C1686.06,-86.851 1950.91,-73.3226 2050.76,-68.7644"/>
<polygon fill="midnightblue" stroke="midnightblue" points="1453.8,-108.541 1444.24,-113.109 1454.56,-115.499 1453.8,-108.541"/>
</g>
<!-- Node25&#45;&gt;Node22 -->
<g id="edge36" class="edge"><title>Node25&#45;&gt;Node22</title>
<path fill="none" stroke="midnightblue" d="M1594.56,-111.925C1770.59,-92.8324 1967.35,-76.7372 2050.82,-70.1556"/>
<polygon fill="midnightblue" stroke="midnightblue" points="1594.17,-108.447 1584.6,-113.011 1594.92,-115.406 1594.17,-108.447"/>
</g>
<!-- Node26&#45;&gt;Node22 -->
<g id="edge38" class="edge"><title>Node26&#45;&gt;Node22</title>
<path fill="none" stroke="midnightblue" d="M1726.17,-111.933C1850.94,-95.8088 1985.11,-79.6596 2050.89,-71.8195"/>
<polygon fill="midnightblue" stroke="midnightblue" points="1725.52,-108.488 1716.06,-113.243 1726.42,-115.43 1725.52,-108.488"/>
</g>
<!-- Node27&#45;&gt;Node22 -->
<g id="edge40" class="edge"><title>Node27&#45;&gt;Node22</title>
<path fill="none" stroke="midnightblue" d="M1843.03,-110.71C1903.94,-99.9975 1997.73,-83.5006 2050.96,-74.1368"/>
<polygon fill="midnightblue" stroke="midnightblue" points="1842.42,-107.264 1833.18,-112.444 1843.64,-114.158 1842.42,-107.264"/>
</g>
<!-- Node28&#45;&gt;Node22 -->
<g id="edge42" class="edge"><title>Node28&#45;&gt;Node22</title>
<path fill="none" stroke="midnightblue" d="M1949.64,-109.568C1983.6,-99.381 2032.52,-84.7034 2063.15,-75.5164"/>
<polygon fill="midnightblue" stroke="midnightblue" points="1948.63,-106.218 1940.06,-112.444 1950.64,-112.922 1948.63,-106.218"/>
</g>
<!-- Node29&#45;&gt;Node22 -->
<g id="edge44" class="edge"><title>Node29&#45;&gt;Node22</title>
<path fill="none" stroke="midnightblue" d="M2051.87,-105.253C2061.8,-95.6731 2074.12,-83.7906 2082.38,-75.8339"/>
<polygon fill="midnightblue" stroke="midnightblue" points="2049.3,-102.863 2044.53,-112.324 2054.16,-107.902 2049.3,-102.863"/>
</g>
<!-- Node30&#45;&gt;Node22 -->
<g id="edge46" class="edge"><title>Node30&#45;&gt;Node22</title>
<path fill="none" stroke="midnightblue" d="M2131.91,-105.253C2121.8,-95.6731 2109.26,-83.7906 2100.86,-75.8339"/>
<polygon fill="midnightblue" stroke="midnightblue" points="2129.71,-107.987 2139.38,-112.324 2134.53,-102.906 2129.71,-107.987"/>
</g>
<!-- Node31&#45;&gt;Node22 -->
<g id="edge48" class="edge"><title>Node31&#45;&gt;Node22</title>
<path fill="none" stroke="midnightblue" d="M2241.77,-109.699C2205.91,-99.507 2153.96,-84.7429 2121.5,-75.5164"/>
<polygon fill="midnightblue" stroke="midnightblue" points="2240.85,-113.076 2251.43,-112.444 2242.77,-106.343 2240.85,-113.076"/>
</g>
<!-- Node32&#45;&gt;Node22 -->
<g id="edge50" class="edge"><title>Node32&#45;&gt;Node22</title>
<path fill="none" stroke="midnightblue" d="M2356.84,-111.355C2292.18,-100.544 2188.98,-83.2906 2132.23,-73.8032"/>
<polygon fill="midnightblue" stroke="midnightblue" points="2356.44,-114.835 2366.88,-113.032 2357.59,-107.931 2356.44,-114.835"/>
</g>
<!-- Node33&#45;&gt;Node22 -->
<g id="edge52" class="edge"><title>Node33&#45;&gt;Node22</title>
<path fill="none" stroke="midnightblue" d="M2469.72,-111.933C2340.25,-94.349 2199.98,-78.6938 2132.26,-71.3519"/>
<polygon fill="midnightblue" stroke="midnightblue" points="2469.44,-115.427 2479.82,-113.311 2470.39,-108.491 2469.44,-115.427"/>
</g>
<!-- Node34&#45;&gt;Node22 -->
<g id="edge54" class="edge"><title>Node34&#45;&gt;Node22</title>
<path fill="none" stroke="midnightblue" d="M2584.83,-111.982C2410.11,-91.3945 2215.27,-76.0953 2132.28,-69.94"/>
<polygon fill="midnightblue" stroke="midnightblue" points="2584.64,-115.484 2594.98,-113.187 2585.46,-108.533 2584.64,-115.484"/>
</g>
<!-- Node35&#45;&gt;Node22 -->
<g id="edge56" class="edge"><title>Node35&#45;&gt;Node22</title>
<path fill="none" stroke="midnightblue" d="M2705.96,-111.992C2482.65,-90.8256 2229.4,-75.079 2132.25,-69.3457"/>
<polygon fill="midnightblue" stroke="midnightblue" points="2705.95,-115.506 2716.24,-112.971 2706.61,-108.538 2705.95,-115.506"/>
</g>
<!-- Node36&#45;&gt;Node22 -->
<g id="edge58" class="edge"><title>Node36&#45;&gt;Node22</title>
<path fill="none" stroke="midnightblue" d="M2856.75,-112.015C2573.4,-83.5954 2245.54,-71.673 2132.32,-68.1684"/>
<polygon fill="midnightblue" stroke="midnightblue" points="2856.51,-115.509 2866.81,-113.033 2857.21,-108.544 2856.51,-115.509"/>
</g>
<!-- Node37&#45;&gt;Node22 -->
<g id="edge60" class="edge"><title>Node37&#45;&gt;Node22</title>
<path fill="none" stroke="midnightblue" d="M2979.62,-112.002C2646.19,-81.97 2257.42,-70.8652 2132.38,-67.8902"/>
<polygon fill="midnightblue" stroke="midnightblue" points="2979.69,-115.523 2989.96,-112.942 2980.32,-108.551 2979.69,-115.523"/>
</g>
<!-- Node39&#45;&gt;Node5 -->
<g id="edge64" class="edge"><title>Node39&#45;&gt;Node5</title>
<path fill="none" stroke="midnightblue" d="M1054.15,-54.7379C988.561,-43.7718 886.579,-26.7223 831.312,-17.4826"/>
<polygon fill="midnightblue" stroke="midnightblue" points="1053.92,-58.2466 1064.36,-56.4435 1055.07,-51.3424 1053.92,-58.2466"/>
</g>
</g>
</svg>
        <g id="navigator" transform="translate(0 0)" fill="#404254">
                <rect fill="#f2f5e9" fill-opacity="0.5" stroke="#606060" stroke-width=".5" x="0" y="0" width="60" height="60"/>
                <use id="zoomplus" xlink:href="#zoomPlus" x="17" y="9" onmousedown="handleZoom(evt,'in')"/>
                <use id="zoomminus" xlink:href="#zoomMin" x="42" y="9" onmousedown="handleZoom(evt,'out')"/>
                <use id="reset" xlink:href="#resetDef" x="30" y="36" onmousedown="handleReset()"/>
                <g id="arrowUp" xlink:href="#dirArrow" transform="translate(30 24)" onmousedown="handlePan(0,-1)">
                  <use xlink:href="#rim" fill="#404040">
                        <set attributeName="fill" to="#808080" begin="arrowUp.mouseover" end="arrowUp.mouseout"/>
                  </use>
                  <path fill="none" stroke="white" stroke-width="1.5" d="M0,-3.0v7 M-2.5,-0.5L0,-3.0L2.5,-0.5"/>
                </g>
                <g id="arrowRight" xlink:href="#dirArrow" transform="rotate(90) translate(36 -43)" onmousedown="handlePan(1,0)">
                  <use xlink:href="#rim" fill="#404040">
                        <set attributeName="fill" to="#808080" begin="arrowRight.mouseover" end="arrowRight.mouseout"/>
                  </use>
                  <path fill="none" stroke="white" stroke-width="1.5" d="M0,-3.0v7 M-2.5,-0.5L0,-3.0L2.5,-0.5"/>
                </g>
                <g id="arrowDown" xlink:href="#dirArrow" transform="rotate(180) translate(-30 -48)" onmousedown="handlePan(0,1)">
                  <use xlink:href="#rim" fill="#404040">
                        <set attributeName="fill" to="#808080" begin="arrowDown.mouseover" end="arrowDown.mouseout"/>
                  </use>
                  <path fill="none" stroke="white" stroke-width="1.5" d="M0,-3.0v7 M-2.5,-0.5L0,-3.0L2.5,-0.5"/>
                </g>
                <g id="arrowLeft" xlink:href="#dirArrow" transform="rotate(270) translate(-36 17)" onmousedown="handlePan(-1,0)">
                  <use xlink:href="#rim" fill="#404040">
                        <set attributeName="fill" to="#808080" begin="arrowLeft.mouseover" end="arrowLeft.mouseout"/>
                  </use>
                  <path fill="none" stroke="white" stroke-width="1.5" d="M0,-3.0v7 M-2.5,-0.5L0,-3.0L2.5,-0.5"/>
                </g>
        </g>
        <svg viewBox="0 0 15 15" width="100%" height="30px" preserveAspectRatio="xMaxYMin meet">
         <g id="arrow_out" transform="scale(0.3 0.3)">
          <a xlink:href="_i_control_8h__dep__incl_org.svg" target="_base">
           <rect id="button" ry="5" rx="5" y="6" x="6" height="38" width="38"
                fill="#f2f5e9" fill-opacity="0.5" stroke="#606060" stroke-width="1.0"/>
           <path id="arrow"
             d="M 11.500037,31.436501 C 11.940474,20.09759 22.043105,11.32322 32.158766,21.979434 L 37.068811,17.246167 C 37.068811,17.246167 37.088388,32 37.088388,32 L 22.160133,31.978069 C 22.160133,31.978069 26.997745,27.140456 26.997745,27.140456 C 18.528582,18.264221 13.291696,25.230495 11.500037,31.436501 z"
             style="fill:#404040;"/>
          </a>
         </g>
        </svg>
</svg>
