<?xml version="1.0" encoding="UTF-8" standalone="no"?>
<!DOCTYPE svg PUBLIC "-//W3C//DTD SVG 1.1//EN"
 "http://www.w3.org/Graphics/SVG/1.1/DTD/svg11.dtd">
<!-- Generated by graphviz version 2.36.0 (20140111.2315)
 -->
<!-- Title: IGraphicsPathBase.h Pages: 1 -->
<svg width="1853pt" height="532pt"
 viewBox="0.00 0.00 1852.97 532.00" xmlns="http://www.w3.org/2000/svg" xmlns:xlink="http://www.w3.org/1999/xlink">
<g id="graph0" class="graph" transform="scale(1 1) rotate(0) translate(4 528)">
<title>IGraphicsPathBase.h</title>
<polygon fill="white" stroke="none" points="-4,4 -4,-528 1848.97,-528 1848.97,4 -4,4"/>
<!-- Node1 -->
<g id="node1" class="node"><title>Node1</title>
<polygon fill="#bfbfbf" stroke="black" points="210,-504.5 210,-523.5 320,-523.5 320,-504.5 210,-504.5"/>
<text text-anchor="middle" x="265" y="-511.5" font-family="Helvetica,sans-Serif" font-size="10.00">IGraphicsPathBase.h</text>
</g>
<!-- Node2 -->
<g id="node2" class="node"><title>Node2</title>
<polygon fill="white" stroke="#bfbfbf" points="620,-56.5 620,-75.5 676,-75.5 676,-56.5 620,-56.5"/>
<text text-anchor="middle" x="648" y="-63.5" font-family="Helvetica,sans-Serif" font-size="10.00">algorithm</text>
</g>
<!-- Node1&#45;&gt;Node2 -->
<g id="edge1" class="edge"><title>Node1&#45;&gt;Node2</title>
<path fill="none" stroke="midnightblue" d="M262.402,-504.318C256.745,-483.767 245.115,-430.944 262,-392 280.105,-350.241 523.824,-138.259 561,-112 579.048,-99.2521 601.188,-87.8519 618.617,-79.7155"/>
<polygon fill="midnightblue" stroke="midnightblue" points="620.115,-82.8793 627.759,-75.5432 617.208,-76.5111 620.115,-82.8793"/>
</g>
<!-- Node3 -->
<g id="node3" class="node"><title>Node3</title>
<polygon fill="white" stroke="#bfbfbf" points="271.5,-392.5 271.5,-411.5 312.5,-411.5 312.5,-392.5 271.5,-392.5"/>
<text text-anchor="middle" x="292" y="-399.5" font-family="Helvetica,sans-Serif" font-size="10.00">stack</text>
</g>
<!-- Node1&#45;&gt;Node3 -->
<g id="edge2" class="edge"><title>Node1&#45;&gt;Node3</title>
<path fill="none" stroke="midnightblue" d="M267.119,-504.368C271.476,-486.617 281.527,-445.666 287.435,-421.597"/>
<polygon fill="midnightblue" stroke="midnightblue" points="290.906,-422.137 289.891,-411.591 284.108,-420.469 290.906,-422.137"/>
</g>
<!-- Node4 -->
<g id="node4" class="node"><title>Node4</title>
<g id="a_node4"><a xlink:href="_i_graphics_8h.html" target="_top" xlink:title="The lowest level base class of an IGraphics context. ">
<polygon fill="white" stroke="black" points="497.5,-448.5 497.5,-467.5 564.5,-467.5 564.5,-448.5 497.5,-448.5"/>
<text text-anchor="middle" x="531" y="-455.5" font-family="Helvetica,sans-Serif" font-size="10.00">IGraphics.h</text>
</a>
</g>
</g>
<!-- Node1&#45;&gt;Node4 -->
<g id="edge3" class="edge"><title>Node1&#45;&gt;Node4</title>
<path fill="none" stroke="midnightblue" d="M307.148,-504.444C356.487,-494.427 437.778,-477.925 487.635,-467.803"/>
<polygon fill="midnightblue" stroke="midnightblue" points="488.367,-471.226 497.471,-465.807 486.974,-464.366 488.367,-471.226"/>
</g>
<!-- Node26 -->
<g id="node26" class="node"><title>Node26</title>
<polygon fill="white" stroke="#bfbfbf" points="0,-112.5 0,-131.5 62,-131.5 62,-112.5 0,-112.5"/>
<text text-anchor="middle" x="31" y="-119.5" font-family="Helvetica,sans-Serif" font-size="10.00">nanosvg.h</text>
</g>
<!-- Node1&#45;&gt;Node26 -->
<g id="edge81" class="edge"><title>Node1&#45;&gt;Node26</title>
<path fill="none" stroke="midnightblue" d="M232.376,-504.389C189.069,-490.755 118,-459.738 118,-403 118,-403 118,-403 118,-233 118,-191.4 79.2477,-156.331 53.4701,-137.605"/>
<polygon fill="midnightblue" stroke="midnightblue" points="55.1817,-134.531 44.9781,-131.679 51.1759,-140.272 55.1817,-134.531"/>
</g>
<!-- Node4&#45;&gt;Node3 -->
<g id="edge79" class="edge"><title>Node4&#45;&gt;Node3</title>
<path fill="none" stroke="midnightblue" d="M497.347,-449.949C456.839,-441.376 386.793,-426.278 327,-412 325.551,-411.654 324.069,-411.295 322.573,-410.927"/>
<polygon fill="midnightblue" stroke="midnightblue" points="323.25,-407.489 312.699,-408.449 321.546,-414.278 323.25,-407.489"/>
</g>
<!-- Node5 -->
<g id="node5" class="node"><title>Node5</title>
<g id="a_node5"><a xlink:href="_i_plug_constants_8h.html" target="_top" xlink:title="IPlug Constant definitions, Types, magic numbers. ">
<polygon fill="white" stroke="black" points="1740,-56.5 1740,-75.5 1832,-75.5 1832,-56.5 1740,-56.5"/>
<text text-anchor="middle" x="1786" y="-63.5" font-family="Helvetica,sans-Serif" font-size="10.00">IPlugConstants.h</text>
</a>
</g>
</g>
<!-- Node4&#45;&gt;Node5 -->
<g id="edge4" class="edge"><title>Node4&#45;&gt;Node5</title>
<path fill="none" stroke="midnightblue" d="M564.796,-457.098C687.976,-457.097 1124.33,-453.937 1481,-412 1635.53,-393.83 1825,-502.594 1825,-347 1825,-347 1825,-347 1825,-177 1825,-142.716 1807.96,-105.698 1796.41,-84.5372"/>
<polygon fill="midnightblue" stroke="midnightblue" points="1799.4,-82.7198 1791.42,-75.7504 1793.31,-86.175 1799.4,-82.7198"/>
</g>
<!-- Node6 -->
<g id="node6" class="node"><title>Node6</title>
<g id="a_node6"><a xlink:href="_i_plug_logger_8h.html" target="_top" xlink:title="IPlug logging a.k.a tracing functionality. ">
<polygon fill="white" stroke="black" points="1437.5,-168.5 1437.5,-187.5 1514.5,-187.5 1514.5,-168.5 1437.5,-168.5"/>
<text text-anchor="middle" x="1476" y="-175.5" font-family="Helvetica,sans-Serif" font-size="10.00">IPlugLogger.h</text>
</a>
</g>
</g>
<!-- Node4&#45;&gt;Node6 -->
<g id="edge5" class="edge"><title>Node4&#45;&gt;Node6</title>
<path fill="none" stroke="midnightblue" d="M564.528,-455.776C760.492,-448.408 1749,-408.208 1749,-347 1749,-347 1749,-347 1749,-289 1749,-241.197 1603.18,-204.512 1524.68,-188.227"/>
<polygon fill="midnightblue" stroke="midnightblue" points="1525.03,-184.727 1514.54,-186.158 1523.63,-191.586 1525.03,-184.727"/>
</g>
<!-- Node20 -->
<g id="node20" class="node"><title>Node20</title>
<g id="a_node20"><a xlink:href="_i_graphics_constants_8h_source.html" target="_top" xlink:title="IGraphicsConstants.h">
<polygon fill="white" stroke="black" points="80,-112.5 80,-131.5 192,-131.5 192,-112.5 80,-112.5"/>
<text text-anchor="middle" x="136" y="-119.5" font-family="Helvetica,sans-Serif" font-size="10.00">IGraphicsConstants.h</text>
</a>
</g>
</g>
<!-- Node4&#45;&gt;Node20 -->
<g id="edge28" class="edge"><title>Node4&#45;&gt;Node20</title>
<path fill="none" stroke="midnightblue" d="M497.246,-452.319C465.65,-446.705 418.17,-435.012 383,-412 267.016,-336.113 175.109,-190.256 145.825,-140.289"/>
<polygon fill="midnightblue" stroke="midnightblue" points="148.85,-138.529 140.814,-131.624 142.79,-142.033 148.85,-138.529"/>
</g>
<!-- Node21 -->
<g id="node21" class="node"><title>Node21</title>
<g id="a_node21"><a xlink:href="_i_graphics_structs_8h_source.html" target="_top" xlink:title="IGraphicsStructs.h">
<polygon fill="white" stroke="black" points="328,-168.5 328,-187.5 426,-187.5 426,-168.5 328,-168.5"/>
<text text-anchor="middle" x="377" y="-175.5" font-family="Helvetica,sans-Serif" font-size="10.00">IGraphicsStructs.h</text>
</a>
</g>
</g>
<!-- Node4&#45;&gt;Node21 -->
<g id="edge30" class="edge"><title>Node4&#45;&gt;Node21</title>
<path fill="none" stroke="midnightblue" d="M510.355,-448.421C477.504,-433.231 417,-398.293 417,-347 417,-347 417,-347 417,-289 417,-254.617 399.526,-217.631 387.677,-196.503"/>
<polygon fill="midnightblue" stroke="midnightblue" points="390.623,-194.607 382.562,-187.731 384.576,-198.133 390.623,-194.607"/>
</g>
<!-- Node27 -->
<g id="node27" class="node"><title>Node27</title>
<g id="a_node27"><a xlink:href="_i_graphics_utilities_8h_source.html" target="_top" xlink:title="IGraphicsUtilities.h">
<polygon fill="white" stroke="black" points="289,-224.5 289,-243.5 389,-243.5 389,-224.5 289,-224.5"/>
<text text-anchor="middle" x="339" y="-231.5" font-family="Helvetica,sans-Serif" font-size="10.00">IGraphicsUtilities.h</text>
</a>
</g>
</g>
<!-- Node4&#45;&gt;Node27 -->
<g id="edge42" class="edge"><title>Node4&#45;&gt;Node27</title>
<path fill="none" stroke="midnightblue" d="M497.38,-453.233C468.787,-448.343 428.43,-437.205 403,-412 358.185,-367.581 344.564,-289.465 340.576,-253.76"/>
<polygon fill="midnightblue" stroke="midnightblue" points="344.054,-253.364 339.592,-243.754 337.088,-254.049 344.054,-253.364"/>
</g>
<!-- Node28 -->
<g id="node28" class="node"><title>Node28</title>
<g id="a_node28"><a xlink:href="_i_graphics_popup_menu_8h.html" target="_top" xlink:title="A class for setting the contents of a pop up menu. ">
<polygon fill="white" stroke="black" points="760.5,-168.5 760.5,-187.5 879.5,-187.5 879.5,-168.5 760.5,-168.5"/>
<text text-anchor="middle" x="820" y="-175.5" font-family="Helvetica,sans-Serif" font-size="10.00">IGraphicsPopupMenu.h</text>
</a>
</g>
</g>
<!-- Node4&#45;&gt;Node28 -->
<g id="edge45" class="edge"><title>Node4&#45;&gt;Node28</title>
<path fill="none" stroke="midnightblue" d="M531,-448.442C531,-429.936 531,-384.812 531,-347 531,-347 531,-347 531,-289 531,-240.572 674.538,-205.769 759.298,-189.44"/>
<polygon fill="midnightblue" stroke="midnightblue" points="760.155,-192.84 769.329,-187.54 758.853,-185.962 760.155,-192.84"/>
</g>
<!-- Node29 -->
<g id="node29" class="node"><title>Node29</title>
<g id="a_node29"><a xlink:href="_i_graphics_editor_delegate_8h.html" target="_top" xlink:title="An editor delgate base class for a SOMETHING that uses IGraphics for it&#39;s UI. ">
<polygon fill="white" stroke="black" points="830.5,-392.5 830.5,-411.5 961.5,-411.5 961.5,-392.5 830.5,-392.5"/>
<text text-anchor="middle" x="896" y="-399.5" font-family="Helvetica,sans-Serif" font-size="10.00">IGraphicsEditorDelegate.h</text>
</a>
</g>
</g>
<!-- Node4&#45;&gt;Node29 -->
<g id="edge52" class="edge"><title>Node4&#45;&gt;Node29</title>
<path fill="none" stroke="midnightblue" d="M564.684,-452.017C624.39,-443.183 749.848,-424.622 828.097,-413.046"/>
<polygon fill="midnightblue" stroke="midnightblue" points="828.961,-416.456 838.341,-411.53 827.936,-409.532 828.961,-416.456"/>
</g>
<!-- Node36 -->
<g id="node36" class="node"><title>Node36</title>
<polygon fill="white" stroke="#bfbfbf" points="559.5,-392.5 559.5,-411.5 618.5,-411.5 618.5,-392.5 559.5,-392.5"/>
<text text-anchor="middle" x="589" y="-399.5" font-family="Helvetica,sans-Serif" font-size="10.00">heapbuf.h</text>
</g>
<!-- Node4&#45;&gt;Node36 -->
<g id="edge78" class="edge"><title>Node4&#45;&gt;Node36</title>
<path fill="none" stroke="midnightblue" d="M540.319,-448.324C548.893,-440.341 561.812,-428.313 572.188,-418.653"/>
<polygon fill="midnightblue" stroke="midnightblue" points="574.578,-421.21 579.512,-411.834 569.808,-416.086 574.578,-421.21"/>
</g>
<!-- Node37 -->
<g id="node37" class="node"><title>Node37</title>
<polygon fill="white" stroke="#bfbfbf" points="637,-392.5 637,-411.5 689,-411.5 689,-392.5 637,-392.5"/>
<text text-anchor="middle" x="663" y="-399.5" font-family="Helvetica,sans-Serif" font-size="10.00">memory</text>
</g>
<!-- Node4&#45;&gt;Node37 -->
<g id="edge80" class="edge"><title>Node4&#45;&gt;Node37</title>
<path fill="none" stroke="midnightblue" d="M551.916,-448.444C573.736,-439.517 608.15,-425.439 632.892,-415.317"/>
<polygon fill="midnightblue" stroke="midnightblue" points="634.252,-418.542 642.182,-411.516 631.601,-412.063 634.252,-418.542"/>
</g>
<!-- Node6&#45;&gt;Node5 -->
<g id="edge15" class="edge"><title>Node6&#45;&gt;Node5</title>
<path fill="none" stroke="midnightblue" d="M1514.72,-177.364C1565.9,-176.265 1657.46,-168.719 1725,-132 1745.94,-120.614 1763.77,-99.3982 1774.64,-84.3032"/>
<polygon fill="midnightblue" stroke="midnightblue" points="1777.69,-86.0568 1780.48,-75.8381 1771.92,-82.0816 1777.69,-86.0568"/>
</g>
<!-- Node7 -->
<g id="node7" class="node"><title>Node7</title>
<polygon fill="white" stroke="#bfbfbf" points="1145.5,-56.5 1145.5,-75.5 1188.5,-75.5 1188.5,-56.5 1145.5,-56.5"/>
<text text-anchor="middle" x="1167" y="-63.5" font-family="Helvetica,sans-Serif" font-size="10.00">cstdio</text>
</g>
<!-- Node6&#45;&gt;Node7 -->
<g id="edge6" class="edge"><title>Node6&#45;&gt;Node7</title>
<path fill="none" stroke="midnightblue" d="M1470.35,-168.167C1460.69,-153.843 1439.53,-125.769 1414,-112 1343.77,-74.122 1247.67,-67.4056 1198.62,-66.6531"/>
<polygon fill="midnightblue" stroke="midnightblue" points="1198.64,-63.1532 1188.61,-66.5738 1198.58,-70.153 1198.64,-63.1532"/>
</g>
<!-- Node8 -->
<g id="node8" class="node"><title>Node8</title>
<polygon fill="white" stroke="#bfbfbf" points="1355,-56.5 1355,-75.5 1401,-75.5 1401,-56.5 1355,-56.5"/>
<text text-anchor="middle" x="1378" y="-63.5" font-family="Helvetica,sans-Serif" font-size="10.00">cctype</text>
</g>
<!-- Node6&#45;&gt;Node8 -->
<g id="edge7" class="edge"><title>Node6&#45;&gt;Node8</title>
<path fill="none" stroke="midnightblue" d="M1474.63,-168.082C1472.18,-154.622 1465.92,-128.898 1452,-112 1440.63,-98.1958 1423.85,-87.5047 1409.14,-80.0138"/>
<polygon fill="midnightblue" stroke="midnightblue" points="1410.38,-76.7274 1399.85,-75.5528 1407.35,-83.0373 1410.38,-76.7274"/>
</g>
<!-- Node9 -->
<g id="node9" class="node"><title>Node9</title>
<polygon fill="white" stroke="#bfbfbf" points="1504.5,-112.5 1504.5,-131.5 1553.5,-131.5 1553.5,-112.5 1504.5,-112.5"/>
<text text-anchor="middle" x="1529" y="-119.5" font-family="Helvetica,sans-Serif" font-size="10.00">cstdarg</text>
</g>
<!-- Node6&#45;&gt;Node9 -->
<g id="edge8" class="edge"><title>Node6&#45;&gt;Node9</title>
<path fill="none" stroke="midnightblue" d="M1484.75,-168.083C1492.47,-160.22 1503.9,-148.569 1513.22,-139.081"/>
<polygon fill="midnightblue" stroke="midnightblue" points="1515.9,-141.34 1520.41,-131.751 1510.91,-136.436 1515.9,-141.34"/>
</g>
<!-- Node10 -->
<g id="node10" class="node"><title>Node10</title>
<polygon fill="white" stroke="#bfbfbf" points="1326,-112.5 1326,-131.5 1372,-131.5 1372,-112.5 1326,-112.5"/>
<text text-anchor="middle" x="1349" y="-119.5" font-family="Helvetica,sans-Serif" font-size="10.00">cstdint</text>
</g>
<!-- Node6&#45;&gt;Node10 -->
<g id="edge9" class="edge"><title>Node6&#45;&gt;Node10</title>
<path fill="none" stroke="midnightblue" d="M1455.88,-168.444C1434.98,-159.557 1402.07,-145.563 1378.28,-135.451"/>
<polygon fill="midnightblue" stroke="midnightblue" points="1379.6,-132.208 1369.03,-131.516 1376.86,-138.65 1379.6,-132.208"/>
</g>
<!-- Node11 -->
<g id="node11" class="node"><title>Node11</title>
<polygon fill="white" stroke="#bfbfbf" points="1150,-0.5 1150,-19.5 1196,-19.5 1196,-0.5 1150,-0.5"/>
<text text-anchor="middle" x="1173" y="-7.5" font-family="Helvetica,sans-Serif" font-size="10.00">cstring</text>
</g>
<!-- Node6&#45;&gt;Node11 -->
<g id="edge10" class="edge"><title>Node6&#45;&gt;Node11</title>
<path fill="none" stroke="midnightblue" d="M1514.66,-174.637C1570.66,-170.317 1670.07,-158.971 1692,-132 1697.61,-125.103 1697.64,-118.87 1692,-112 1629.91,-36.3668 1311.26,-16.6586 1206.46,-12.183"/>
<polygon fill="midnightblue" stroke="midnightblue" points="1206.29,-8.67334 1196.15,-11.7633 1206,-15.6675 1206.29,-8.67334"/>
</g>
<!-- Node12 -->
<g id="node12" class="node"><title>Node12</title>
<polygon fill="white" stroke="#bfbfbf" points="1571.5,-112.5 1571.5,-131.5 1612.5,-131.5 1612.5,-112.5 1571.5,-112.5"/>
<text text-anchor="middle" x="1592" y="-119.5" font-family="Helvetica,sans-Serif" font-size="10.00">ctime</text>
</g>
<!-- Node6&#45;&gt;Node12 -->
<g id="edge11" class="edge"><title>Node6&#45;&gt;Node12</title>
<path fill="none" stroke="midnightblue" d="M1494.38,-168.444C1513.22,-159.675 1542.73,-145.935 1564.38,-135.858"/>
<polygon fill="midnightblue" stroke="midnightblue" points="1566.12,-138.91 1573.71,-131.516 1563.16,-132.564 1566.12,-138.91"/>
</g>
<!-- Node13 -->
<g id="node13" class="node"><title>Node13</title>
<polygon fill="white" stroke="#bfbfbf" points="1258.5,-112.5 1258.5,-131.5 1307.5,-131.5 1307.5,-112.5 1258.5,-112.5"/>
<text text-anchor="middle" x="1283" y="-119.5" font-family="Helvetica,sans-Serif" font-size="10.00">cassert</text>
</g>
<!-- Node6&#45;&gt;Node13 -->
<g id="edge12" class="edge"><title>Node6&#45;&gt;Node13</title>
<path fill="none" stroke="midnightblue" d="M1445.42,-168.444C1410.54,-158.685 1353.65,-142.768 1317.3,-132.596"/>
<polygon fill="midnightblue" stroke="midnightblue" points="1318.19,-129.213 1307.62,-129.889 1316.31,-135.954 1318.19,-129.213"/>
</g>
<!-- Node14 -->
<g id="node14" class="node"><title>Node14</title>
<polygon fill="white" stroke="#bfbfbf" points="965,-56.5 965,-75.5 1029,-75.5 1029,-56.5 965,-56.5"/>
<text text-anchor="middle" x="997" y="-63.5" font-family="Helvetica,sans-Serif" font-size="10.00">wdlstring.h</text>
</g>
<!-- Node6&#45;&gt;Node14 -->
<g id="edge13" class="edge"><title>Node6&#45;&gt;Node14</title>
<path fill="none" stroke="midnightblue" d="M1463.94,-168.269C1440.47,-151.342 1390.12,-115.417 1381,-112 1319.22,-88.8637 1125.95,-74.7277 1039.51,-69.41"/>
<polygon fill="midnightblue" stroke="midnightblue" points="1039.46,-65.9008 1029.27,-68.7906 1039.04,-72.8881 1039.46,-65.9008"/>
</g>
<!-- Node15 -->
<g id="node15" class="node"><title>Node15</title>
<polygon fill="white" stroke="#bfbfbf" points="1631,-112.5 1631,-131.5 1683,-131.5 1683,-112.5 1631,-112.5"/>
<text text-anchor="middle" x="1657" y="-119.5" font-family="Helvetica,sans-Serif" font-size="10.00">mutex.h</text>
</g>
<!-- Node6&#45;&gt;Node15 -->
<g id="edge14" class="edge"><title>Node6&#45;&gt;Node15</title>
<path fill="none" stroke="midnightblue" d="M1504.68,-168.444C1536.25,-159.024 1587.05,-143.868 1621.21,-133.677"/>
<polygon fill="midnightblue" stroke="midnightblue" points="1622.22,-137.028 1630.8,-130.815 1620.22,-130.32 1622.22,-137.028"/>
</g>
<!-- Node16 -->
<g id="node16" class="node"><title>Node16</title>
<g id="a_node16"><a xlink:href="_i_plug_utilities_8h.html" target="_top" xlink:title="Utility functions and macros. ">
<polygon fill="white" stroke="black" points="1046,-112.5 1046,-131.5 1126,-131.5 1126,-112.5 1046,-112.5"/>
<text text-anchor="middle" x="1086" y="-119.5" font-family="Helvetica,sans-Serif" font-size="10.00">IPlugUtilities.h</text>
</a>
</g>
</g>
<!-- Node6&#45;&gt;Node16 -->
<g id="edge16" class="edge"><title>Node6&#45;&gt;Node16</title>
<path fill="none" stroke="midnightblue" d="M1437.18,-171.625C1366.1,-161.783 1215.11,-140.877 1136.28,-129.962"/>
<polygon fill="midnightblue" stroke="midnightblue" points="1136.5,-126.459 1126.12,-128.555 1135.54,-133.393 1136.5,-126.459"/>
</g>
<!-- Node16&#45;&gt;Node2 -->
<g id="edge17" class="edge"><title>Node16&#45;&gt;Node2</title>
<path fill="none" stroke="midnightblue" d="M1045.96,-117.528C974.731,-111.103 821.395,-96.1544 693,-76 690.676,-75.6351 688.289,-75.2347 685.885,-74.8117"/>
<polygon fill="midnightblue" stroke="midnightblue" points="686.492,-71.3647 676.021,-72.9796 685.214,-78.247 686.492,-71.3647"/>
</g>
<!-- Node16&#45;&gt;Node5 -->
<g id="edge24" class="edge"><title>Node16&#45;&gt;Node5</title>
<path fill="none" stroke="midnightblue" d="M1126.15,-117.903C1244.5,-108.773 1592.27,-81.9452 1729.44,-71.3634"/>
<polygon fill="midnightblue" stroke="midnightblue" points="1730.02,-74.8289 1739.72,-70.57 1729.48,-67.8496 1730.02,-74.8289"/>
</g>
<!-- Node16&#45;&gt;Node7 -->
<g id="edge19" class="edge"><title>Node16&#45;&gt;Node7</title>
<path fill="none" stroke="midnightblue" d="M1099.01,-112.324C1111.53,-103.979 1130.68,-91.2122 1145.47,-81.3524"/>
<polygon fill="midnightblue" stroke="midnightblue" points="1147.64,-84.1137 1154.02,-75.6545 1143.76,-78.2894 1147.64,-84.1137"/>
</g>
<!-- Node16&#45;&gt;Node8 -->
<g id="edge22" class="edge"><title>Node16&#45;&gt;Node8</title>
<path fill="none" stroke="midnightblue" d="M1126.29,-113.548C1184.38,-102.807 1290.57,-83.1691 1344.56,-73.1839"/>
<polygon fill="midnightblue" stroke="midnightblue" points="1345.44,-76.5812 1354.63,-71.321 1344.16,-69.6979 1345.44,-76.5812"/>
</g>
<!-- Node16&#45;&gt;Node11 -->
<g id="edge21" class="edge"><title>Node16&#45;&gt;Node11</title>
<path fill="none" stroke="midnightblue" d="M1092.7,-112.098C1102.21,-99.5109 1120.22,-75.8335 1136,-56 1143.65,-46.3824 1152.37,-35.7576 1159.43,-27.248"/>
<polygon fill="midnightblue" stroke="midnightblue" points="1162.12,-29.4852 1165.82,-19.5592 1156.74,-25.0084 1162.12,-29.4852"/>
</g>
<!-- Node16&#45;&gt;Node14 -->
<g id="edge23" class="edge"><title>Node16&#45;&gt;Node14</title>
<path fill="none" stroke="midnightblue" d="M1071.7,-112.324C1057.82,-103.9 1036.51,-90.9709 1020.2,-81.0741"/>
<polygon fill="midnightblue" stroke="midnightblue" points="1021.63,-77.8495 1011.26,-75.6545 1018,-83.8341 1021.63,-77.8495"/>
</g>
<!-- Node17 -->
<g id="node17" class="node"><title>Node17</title>
<polygon fill="white" stroke="#bfbfbf" points="702,-56.5 702,-75.5 746,-75.5 746,-56.5 702,-56.5"/>
<text text-anchor="middle" x="724" y="-63.5" font-family="Helvetica,sans-Serif" font-size="10.00">cmath</text>
</g>
<!-- Node16&#45;&gt;Node17 -->
<g id="edge18" class="edge"><title>Node16&#45;&gt;Node17</title>
<path fill="none" stroke="midnightblue" d="M1045.88,-115.015C973.51,-104.22 822.517,-81.6959 756.298,-71.818"/>
<polygon fill="midnightblue" stroke="midnightblue" points="756.462,-68.3038 746.055,-70.29 755.429,-75.2272 756.462,-68.3038"/>
</g>
<!-- Node18 -->
<g id="node18" class="node"><title>Node18</title>
<polygon fill="white" stroke="#bfbfbf" points="832.5,-0.5 832.5,-19.5 877.5,-19.5 877.5,-0.5 832.5,-0.5"/>
<text text-anchor="middle" x="855" y="-7.5" font-family="Helvetica,sans-Serif" font-size="10.00">cstdlib</text>
</g>
<!-- Node16&#45;&gt;Node18 -->
<g id="edge20" class="edge"><title>Node16&#45;&gt;Node18</title>
<path fill="none" stroke="midnightblue" d="M1082.07,-112.324C1075.21,-98.2272 1059.71,-70.4716 1038,-56 991.839,-25.2319 926.546,-15.4804 887.715,-12.4031"/>
<polygon fill="midnightblue" stroke="midnightblue" points="887.719,-8.89516 877.502,-11.7002 887.238,-15.8786 887.719,-8.89516"/>
</g>
<!-- Node19 -->
<g id="node19" class="node"><title>Node19</title>
<g id="a_node19"><a xlink:href="_i_plug_platform_8h.html" target="_top" xlink:title="Include to get consistently named preprocessor macros for different platforms and logging functionali...">
<polygon fill="white" stroke="black" points="471,-56.5 471,-75.5 555,-75.5 555,-56.5 471,-56.5"/>
<text text-anchor="middle" x="513" y="-63.5" font-family="Helvetica,sans-Serif" font-size="10.00">IPlugPlatform.h</text>
</a>
</g>
</g>
<!-- Node16&#45;&gt;Node19 -->
<g id="edge25" class="edge"><title>Node16&#45;&gt;Node19</title>
<path fill="none" stroke="midnightblue" d="M1045.71,-117.203C944.303,-107.646 678.566,-82.6031 565.327,-71.9313"/>
<polygon fill="midnightblue" stroke="midnightblue" points="565.461,-68.4286 555.177,-70.9748 564.804,-75.3977 565.461,-68.4286"/>
</g>
<!-- Node19&#45;&gt;Node11 -->
<g id="edge26" class="edge"><title>Node19&#45;&gt;Node11</title>
<path fill="none" stroke="midnightblue" d="M555.44,-60.9935C572.677,-59.3947 592.786,-57.5655 611,-56 811.809,-38.7402 1053.18,-20.1325 1139.94,-13.5117"/>
<polygon fill="midnightblue" stroke="midnightblue" points="1140.27,-16.9968 1149.97,-12.7468 1139.74,-10.0171 1140.27,-16.9968"/>
</g>
<!-- Node19&#45;&gt;Node18 -->
<g id="edge27" class="edge"><title>Node19&#45;&gt;Node18</title>
<path fill="none" stroke="midnightblue" d="M555.279,-58.3244C624.376,-47.4143 760.03,-25.9953 822.319,-16.1602"/>
<polygon fill="midnightblue" stroke="midnightblue" points="823.034,-19.5907 832.366,-14.5739 821.942,-12.6764 823.034,-19.5907"/>
</g>
<!-- Node20&#45;&gt;Node19 -->
<g id="edge29" class="edge"><title>Node20&#45;&gt;Node19</title>
<path fill="none" stroke="midnightblue" d="M192.034,-112.974C264.663,-102.571 390.345,-84.5686 460.964,-74.4535"/>
<polygon fill="midnightblue" stroke="midnightblue" points="461.568,-77.9028 470.97,-73.0202 460.575,-70.9735 461.568,-77.9028"/>
</g>
<!-- Node21&#45;&gt;Node2 -->
<g id="edge34" class="edge"><title>Node21&#45;&gt;Node2</title>
<path fill="none" stroke="midnightblue" d="M389.684,-168.313C410.046,-154.695 451.64,-128.206 490,-112 529.591,-95.2737 577.319,-82.6466 609.886,-75.0884"/>
<polygon fill="midnightblue" stroke="midnightblue" points="610.921,-78.4424 619.897,-72.8138 609.37,-71.6164 610.921,-78.4424"/>
</g>
<!-- Node21&#45;&gt;Node13 -->
<g id="edge32" class="edge"><title>Node21&#45;&gt;Node13</title>
<path fill="none" stroke="midnightblue" d="M426.22,-174.103C546.973,-166.989 867.54,-148.071 1135,-132 1173.68,-129.676 1218.03,-126.974 1248.02,-125.141"/>
<polygon fill="midnightblue" stroke="midnightblue" points="1248.62,-128.612 1258.38,-124.508 1248.19,-121.625 1248.62,-128.612"/>
</g>
<!-- Node21&#45;&gt;Node14 -->
<g id="edge37" class="edge"><title>Node21&#45;&gt;Node14</title>
<path fill="none" stroke="midnightblue" d="M396.425,-168.409C429.501,-154.176 499.19,-125.901 561,-112 702.814,-80.1071 875.739,-70.7547 954.394,-68.0616"/>
<polygon fill="midnightblue" stroke="midnightblue" points="954.972,-71.5449 964.853,-67.7242 954.746,-64.5485 954.972,-71.5449"/>
</g>
<!-- Node21&#45;&gt;Node17 -->
<g id="edge31" class="edge"><title>Node21&#45;&gt;Node17</title>
<path fill="none" stroke="midnightblue" d="M341.682,-168.43C304.218,-157.752 253.441,-137.735 277,-112 307.655,-78.5138 639.144,-82.9983 684,-76 686.523,-75.6064 689.125,-75.1463 691.733,-74.6462"/>
<polygon fill="midnightblue" stroke="midnightblue" points="692.6,-78.0408 701.676,-72.5744 691.172,-71.188 692.6,-78.0408"/>
</g>
<!-- Node21&#45;&gt;Node19 -->
<g id="edge40" class="edge"><title>Node21&#45;&gt;Node19</title>
<path fill="none" stroke="midnightblue" d="M327.704,-170.391C279.389,-161.904 216.683,-144.266 244,-112 271.173,-79.9034 390.149,-70.683 460.447,-68.0457"/>
<polygon fill="midnightblue" stroke="midnightblue" points="460.994,-71.5291 470.869,-67.6894 460.755,-64.5332 460.994,-71.5291"/>
</g>
<!-- Node21&#45;&gt;Node20 -->
<g id="edge41" class="edge"><title>Node21&#45;&gt;Node20</title>
<path fill="none" stroke="midnightblue" d="M338.813,-168.444C296.859,-159.043 229.406,-143.929 183.929,-133.739"/>
<polygon fill="midnightblue" stroke="midnightblue" points="184.532,-130.288 174.009,-131.516 183.001,-137.118 184.532,-130.288"/>
</g>
<!-- Node22 -->
<g id="node22" class="node"><title>Node22</title>
<polygon fill="white" stroke="#bfbfbf" points="752.5,-112.5 752.5,-131.5 811.5,-131.5 811.5,-112.5 752.5,-112.5"/>
<text text-anchor="middle" x="782" y="-119.5" font-family="Helvetica,sans-Serif" font-size="10.00">functional</text>
</g>
<!-- Node21&#45;&gt;Node22 -->
<g id="edge33" class="edge"><title>Node21&#45;&gt;Node22</title>
<path fill="none" stroke="midnightblue" d="M426.256,-170.433C507.329,-159.623 667.324,-138.29 741.935,-128.342"/>
<polygon fill="midnightblue" stroke="midnightblue" points="742.854,-131.751 752.304,-126.96 741.929,-124.812 742.854,-131.751"/>
</g>
<!-- Node23 -->
<g id="node23" class="node"><title>Node23</title>
<polygon fill="white" stroke="#bfbfbf" points="286.5,-112.5 286.5,-131.5 335.5,-131.5 335.5,-112.5 286.5,-112.5"/>
<text text-anchor="middle" x="311" y="-119.5" font-family="Helvetica,sans-Serif" font-size="10.00">random</text>
</g>
<!-- Node21&#45;&gt;Node23 -->
<g id="edge35" class="edge"><title>Node21&#45;&gt;Node23</title>
<path fill="none" stroke="midnightblue" d="M366.396,-168.324C356.544,-160.263 341.649,-148.077 329.785,-138.369"/>
<polygon fill="midnightblue" stroke="midnightblue" points="331.753,-135.457 321.797,-131.834 327.32,-140.875 331.753,-135.457"/>
</g>
<!-- Node24 -->
<g id="node24" class="node"><title>Node24</title>
<polygon fill="white" stroke="#bfbfbf" points="354,-112.5 354,-131.5 400,-131.5 400,-112.5 354,-112.5"/>
<text text-anchor="middle" x="377" y="-119.5" font-family="Helvetica,sans-Serif" font-size="10.00">chrono</text>
</g>
<!-- Node21&#45;&gt;Node24 -->
<g id="edge36" class="edge"><title>Node21&#45;&gt;Node24</title>
<path fill="none" stroke="midnightblue" d="M377,-168.083C377,-161.006 377,-150.861 377,-141.986"/>
<polygon fill="midnightblue" stroke="midnightblue" points="380.5,-141.751 377,-131.751 373.5,-141.751 380.5,-141.751"/>
</g>
<!-- Node25 -->
<g id="node25" class="node"><title>Node25</title>
<polygon fill="white" stroke="#bfbfbf" points="570.5,-112.5 570.5,-131.5 619.5,-131.5 619.5,-112.5 570.5,-112.5"/>
<text text-anchor="middle" x="595" y="-119.5" font-family="Helvetica,sans-Serif" font-size="10.00">ptrlist.h</text>
</g>
<!-- Node21&#45;&gt;Node25 -->
<g id="edge38" class="edge"><title>Node21&#45;&gt;Node25</title>
<path fill="none" stroke="midnightblue" d="M411.543,-168.444C452.383,-158.327 519.938,-141.593 560.681,-131.501"/>
<polygon fill="midnightblue" stroke="midnightblue" points="561.564,-134.888 570.429,-129.086 559.881,-128.094 561.564,-134.888"/>
</g>
<!-- Node21&#45;&gt;Node26 -->
<g id="edge39" class="edge"><title>Node21&#45;&gt;Node26</title>
<path fill="none" stroke="midnightblue" d="M327.789,-170.924C269.183,-163.429 168.135,-149.696 72.2552,-132.123"/>
<polygon fill="midnightblue" stroke="midnightblue" points="72.8667,-128.677 62.3968,-130.299 71.5931,-135.56 72.8667,-128.677"/>
</g>
<!-- Node27&#45;&gt;Node20 -->
<g id="edge43" class="edge"><title>Node27&#45;&gt;Node20</title>
<path fill="none" stroke="midnightblue" d="M332.544,-224.1C322.009,-210.19 299.795,-183.308 275,-168 249.068,-151.989 216.859,-141.095 189.978,-134.041"/>
<polygon fill="midnightblue" stroke="midnightblue" points="190.512,-130.567 179.96,-131.523 188.805,-137.356 190.512,-130.567"/>
</g>
<!-- Node27&#45;&gt;Node21 -->
<g id="edge44" class="edge"><title>Node27&#45;&gt;Node21</title>
<path fill="none" stroke="midnightblue" d="M345.275,-224.083C350.642,-216.455 358.518,-205.264 365.079,-195.941"/>
<polygon fill="midnightblue" stroke="midnightblue" points="367.949,-197.943 370.842,-187.751 362.225,-193.915 367.949,-197.943"/>
</g>
<!-- Node28&#45;&gt;Node7 -->
<g id="edge48" class="edge"><title>Node28&#45;&gt;Node7</title>
<path fill="none" stroke="midnightblue" d="M879.515,-169.209C969.378,-157.345 1129.86,-135.731 1135,-132 1150.24,-120.945 1158.6,-100.598 1162.91,-85.6037"/>
<polygon fill="midnightblue" stroke="midnightblue" points="1166.32,-86.3933 1165.38,-75.8405 1159.53,-84.6781 1166.32,-86.3933"/>
</g>
<!-- Node28&#45;&gt;Node11 -->
<g id="edge47" class="edge"><title>Node28&#45;&gt;Node11</title>
<path fill="none" stroke="midnightblue" d="M824.876,-168.192C832.556,-154.875 848.511,-129.335 867,-112 901.093,-80.0353 912.653,-73.467 956,-56 1018.15,-30.9583 1096.16,-19.1626 1139.69,-14.1795"/>
<polygon fill="midnightblue" stroke="midnightblue" points="1140.17,-17.6483 1149.73,-13.0822 1139.41,-10.6898 1140.17,-17.6483"/>
</g>
<!-- Node28&#45;&gt;Node13 -->
<g id="edge49" class="edge"><title>Node28&#45;&gt;Node13</title>
<path fill="none" stroke="midnightblue" d="M879.832,-169.136C882.932,-168.748 886.002,-168.367 889,-168 1021.33,-151.814 1178.9,-134.367 1247.81,-126.828"/>
<polygon fill="midnightblue" stroke="midnightblue" points="1248.53,-130.27 1258.09,-125.705 1247.77,-123.312 1248.53,-130.27"/>
</g>
<!-- Node28&#45;&gt;Node14 -->
<g id="edge50" class="edge"><title>Node28&#45;&gt;Node14</title>
<path fill="none" stroke="midnightblue" d="M828.828,-168.099C842.505,-154.662 870.057,-128.966 897,-112 918.044,-98.7488 943.648,-87.3044 963.68,-79.273"/>
<polygon fill="midnightblue" stroke="midnightblue" points="964.989,-82.5194 973.022,-75.6115 962.434,-76.0021 964.989,-82.5194"/>
</g>
<!-- Node28&#45;&gt;Node17 -->
<g id="edge46" class="edge"><title>Node28&#45;&gt;Node17</title>
<path fill="none" stroke="midnightblue" d="M795.843,-168.485C778.746,-161.277 756.535,-149.327 743,-132 732.606,-118.694 727.894,-99.862 725.761,-85.8908"/>
<polygon fill="midnightblue" stroke="midnightblue" points="729.23,-85.4283 724.543,-75.9268 722.282,-86.2775 729.23,-85.4283"/>
</g>
<!-- Node28&#45;&gt;Node25 -->
<g id="edge51" class="edge"><title>Node28&#45;&gt;Node25</title>
<path fill="none" stroke="midnightblue" d="M784.348,-168.444C741.878,-158.251 671.418,-141.34 629.474,-131.274"/>
<polygon fill="midnightblue" stroke="midnightblue" points="630.252,-127.861 619.712,-128.931 628.619,-134.668 630.252,-127.861"/>
</g>
<!-- Node30 -->
<g id="node30" class="node"><title>Node30</title>
<g id="a_node30"><a xlink:href="_i_plug_editor_delegate_8h.html" target="_top" xlink:title="This pure virtual interface delegates communication in both directions between a UI editor and someth...">
<polygon fill="white" stroke="black" points="996,-336.5 996,-355.5 1108,-355.5 1108,-336.5 996,-336.5"/>
<text text-anchor="middle" x="1052" y="-343.5" font-family="Helvetica,sans-Serif" font-size="10.00">IPlugEditorDelegate.h</text>
</a>
</g>
</g>
<!-- Node29&#45;&gt;Node30 -->
<g id="edge53" class="edge"><title>Node29&#45;&gt;Node30</title>
<path fill="none" stroke="midnightblue" d="M920.719,-392.444C946.848,-383.399 988.259,-369.064 1017.58,-358.916"/>
<polygon fill="midnightblue" stroke="midnightblue" points="1019.09,-362.095 1027.4,-355.516 1016.8,-355.48 1019.09,-362.095"/>
</g>
<!-- Node30&#45;&gt;Node11 -->
<g id="edge55" class="edge"><title>Node30&#45;&gt;Node11</title>
<path fill="none" stroke="midnightblue" d="M1106.71,-336.474C1274.81,-308.88 1776.36,-215.62 1841,-76 1844.73,-67.9337 1847.07,-62.4932 1841,-56 1797.33,-9.28722 1335.12,-9.63237 1206.21,-10.6498"/>
<polygon fill="midnightblue" stroke="midnightblue" points="1206.12,-7.15037 1196.15,-10.7362 1206.18,-14.1501 1206.12,-7.15037"/>
</g>
<!-- Node30&#45;&gt;Node13 -->
<g id="edge54" class="edge"><title>Node30&#45;&gt;Node13</title>
<path fill="none" stroke="midnightblue" d="M1084.61,-336.478C1109.66,-329.078 1144.51,-316.883 1172,-300 1203.36,-280.741 1211.92,-274.166 1233,-244 1255.92,-211.203 1270.96,-166.295 1278.12,-141.441"/>
<polygon fill="midnightblue" stroke="midnightblue" points="1281.57,-142.119 1280.86,-131.548 1274.82,-140.254 1281.57,-142.119"/>
</g>
<!-- Node30&#45;&gt;Node25 -->
<g id="edge57" class="edge"><title>Node30&#45;&gt;Node25</title>
<path fill="none" stroke="midnightblue" d="M995.971,-342.238C900.937,-334.376 708.677,-304.15 608,-188 597.056,-175.374 594.344,-156.163 594.047,-141.896"/>
<polygon fill="midnightblue" stroke="midnightblue" points="597.549,-141.792 594.215,-131.736 590.55,-141.676 597.549,-141.792"/>
</g>
<!-- Node31 -->
<g id="node31" class="node"><title>Node31</title>
<polygon fill="white" stroke="#bfbfbf" points="1114.5,-280.5 1114.5,-299.5 1163.5,-299.5 1163.5,-280.5 1114.5,-280.5"/>
<text text-anchor="middle" x="1139" y="-287.5" font-family="Helvetica,sans-Serif" font-size="10.00">stdint.h</text>
</g>
<!-- Node30&#45;&gt;Node31 -->
<g id="edge56" class="edge"><title>Node30&#45;&gt;Node31</title>
<path fill="none" stroke="midnightblue" d="M1065.98,-336.324C1079.55,-327.9 1100.38,-314.971 1116.32,-305.074"/>
<polygon fill="midnightblue" stroke="midnightblue" points="1118.41,-307.902 1125.06,-299.655 1114.71,-301.954 1118.41,-307.902"/>
</g>
<!-- Node32 -->
<g id="node32" class="node"><title>Node32</title>
<g id="a_node32"><a xlink:href="_i_plug_parameter_8h.html" target="_top" xlink:title="IPlug&#39;s parameter class. ">
<polygon fill="white" stroke="black" points="898,-168.5 898,-187.5 990,-187.5 990,-168.5 898,-168.5"/>
<text text-anchor="middle" x="944" y="-175.5" font-family="Helvetica,sans-Serif" font-size="10.00">IPlugParameter.h</text>
</a>
</g>
</g>
<!-- Node30&#45;&gt;Node32 -->
<g id="edge58" class="edge"><title>Node30&#45;&gt;Node32</title>
<path fill="none" stroke="midnightblue" d="M1023.15,-336.403C1004.89,-329.477 982.292,-317.896 969,-300 946.372,-269.537 943.08,-223.394 943.205,-197.79"/>
<polygon fill="midnightblue" stroke="midnightblue" points="946.708,-197.681 943.446,-187.601 939.71,-197.515 946.708,-197.681"/>
</g>
<!-- Node34 -->
<g id="node34" class="node"><title>Node34</title>
<g id="a_node34"><a xlink:href="_i_plug_midi_8h.html" target="_top" xlink:title="MIDI and sysex structs/utilites. ">
<polygon fill="white" stroke="black" points="1159.5,-224.5 1159.5,-243.5 1224.5,-243.5 1224.5,-224.5 1159.5,-224.5"/>
<text text-anchor="middle" x="1192" y="-231.5" font-family="Helvetica,sans-Serif" font-size="10.00">IPlugMidi.h</text>
</a>
</g>
</g>
<!-- Node30&#45;&gt;Node34 -->
<g id="edge64" class="edge"><title>Node30&#45;&gt;Node34</title>
<path fill="none" stroke="midnightblue" d="M1057.28,-336.475C1065.92,-323.079 1084.2,-296.889 1105,-280 1121.6,-266.523 1142.87,-255.431 1160.23,-247.63"/>
<polygon fill="midnightblue" stroke="midnightblue" points="1161.64,-250.835 1169.42,-243.642 1158.85,-244.414 1161.64,-250.835"/>
</g>
<!-- Node35 -->
<g id="node35" class="node"><title>Node35</title>
<g id="a_node35"><a xlink:href="_i_plug_structs_8h_source.html" target="_top" xlink:title="IPlugStructs.h">
<polygon fill="white" stroke="black" points="978.5,-280.5 978.5,-299.5 1057.5,-299.5 1057.5,-280.5 978.5,-280.5"/>
<text text-anchor="middle" x="1018" y="-287.5" font-family="Helvetica,sans-Serif" font-size="10.00">IPlugStructs.h</text>
</a>
</g>
</g>
<!-- Node30&#45;&gt;Node35 -->
<g id="edge70" class="edge"><title>Node30&#45;&gt;Node35</title>
<path fill="none" stroke="midnightblue" d="M1046.39,-336.083C1041.63,-328.534 1034.68,-317.495 1028.85,-308.23"/>
<polygon fill="midnightblue" stroke="midnightblue" points="1031.8,-306.349 1023.51,-299.751 1025.88,-310.078 1031.8,-306.349"/>
</g>
<!-- Node32&#45;&gt;Node11 -->
<g id="edge60" class="edge"><title>Node32&#45;&gt;Node11</title>
<path fill="none" stroke="midnightblue" d="M990.344,-176.91C1036.42,-174.73 1107.35,-165.536 1158,-132 1183.29,-115.255 1187.92,-104.938 1197,-76 1202.16,-59.5607 1194.03,-41.169 1185.87,-28.156"/>
<polygon fill="midnightblue" stroke="midnightblue" points="1188.65,-26.0139 1180.11,-19.7359 1182.87,-29.9659 1188.65,-26.0139"/>
</g>
<!-- Node32&#45;&gt;Node14 -->
<g id="edge62" class="edge"><title>Node32&#45;&gt;Node14</title>
<path fill="none" stroke="midnightblue" d="M948.159,-168.368C956.828,-150.376 976.98,-108.55 988.507,-84.6267"/>
<polygon fill="midnightblue" stroke="midnightblue" points="991.673,-86.1195 992.86,-75.5914 985.367,-83.081 991.673,-86.1195"/>
</g>
<!-- Node32&#45;&gt;Node16 -->
<g id="edge63" class="edge"><title>Node32&#45;&gt;Node16</title>
<path fill="none" stroke="midnightblue" d="M966.5,-168.444C990.077,-159.478 1027.32,-145.314 1053.96,-135.183"/>
<polygon fill="midnightblue" stroke="midnightblue" points="1055.5,-138.342 1063.6,-131.516 1053.01,-131.8 1055.5,-138.342"/>
</g>
<!-- Node32&#45;&gt;Node22 -->
<g id="edge61" class="edge"><title>Node32&#45;&gt;Node22</title>
<path fill="none" stroke="midnightblue" d="M918.331,-168.444C891.077,-159.359 847.816,-144.939 817.349,-134.783"/>
<polygon fill="midnightblue" stroke="midnightblue" points="818.143,-131.358 807.549,-131.516 815.929,-137.999 818.143,-131.358"/>
</g>
<!-- Node33 -->
<g id="node33" class="node"><title>Node33</title>
<polygon fill="white" stroke="#bfbfbf" points="906,-112.5 906,-131.5 952,-131.5 952,-112.5 906,-112.5"/>
<text text-anchor="middle" x="929" y="-119.5" font-family="Helvetica,sans-Serif" font-size="10.00">atomic</text>
</g>
<!-- Node32&#45;&gt;Node33 -->
<g id="edge59" class="edge"><title>Node32&#45;&gt;Node33</title>
<path fill="none" stroke="midnightblue" d="M941.523,-168.083C939.514,-160.849 936.614,-150.409 934.11,-141.397"/>
<polygon fill="midnightblue" stroke="midnightblue" points="937.48,-140.449 931.431,-131.751 930.735,-142.323 937.48,-140.449"/>
</g>
<!-- Node34&#45;&gt;Node2 -->
<g id="edge68" class="edge"><title>Node34&#45;&gt;Node2</title>
<path fill="none" stroke="midnightblue" d="M1159.42,-232.78C1069.89,-231.695 822.029,-225.307 751,-188 705.973,-164.35 672.381,-112.01 657.106,-84.568"/>
<polygon fill="midnightblue" stroke="midnightblue" points="660.144,-82.8273 652.319,-75.6834 653.981,-86.1472 660.144,-82.8273"/>
</g>
<!-- Node34&#45;&gt;Node6 -->
<g id="edge69" class="edge"><title>Node34&#45;&gt;Node6</title>
<path fill="none" stroke="midnightblue" d="M1224.58,-226.806C1274.33,-217.345 1369.57,-199.237 1427.48,-188.226"/>
<polygon fill="midnightblue" stroke="midnightblue" points="1428.32,-191.629 1437.49,-186.323 1427.01,-184.753 1428.32,-191.629"/>
</g>
<!-- Node34&#45;&gt;Node7 -->
<g id="edge67" class="edge"><title>Node34&#45;&gt;Node7</title>
<path fill="none" stroke="midnightblue" d="M1190.66,-224.075C1186.72,-197.945 1175.16,-121.211 1169.8,-85.577"/>
<polygon fill="midnightblue" stroke="midnightblue" points="1173.24,-84.9353 1168.29,-75.5681 1166.32,-85.9779 1173.24,-84.9353"/>
</g>
<!-- Node34&#45;&gt;Node10 -->
<g id="edge66" class="edge"><title>Node34&#45;&gt;Node10</title>
<path fill="none" stroke="midnightblue" d="M1204.32,-224.368C1231.15,-205.573 1295.09,-160.768 1328.26,-137.533"/>
<polygon fill="midnightblue" stroke="midnightblue" points="1330.56,-140.196 1336.74,-131.591 1326.54,-134.463 1330.56,-140.196"/>
</g>
<!-- Node34&#45;&gt;Node13 -->
<g id="edge65" class="edge"><title>Node34&#45;&gt;Node13</title>
<path fill="none" stroke="midnightblue" d="M1199.14,-224.368C1214.29,-206.055 1249.87,-163.049 1269.46,-139.362"/>
<polygon fill="midnightblue" stroke="midnightblue" points="1272.22,-141.528 1275.89,-131.591 1266.82,-137.066 1272.22,-141.528"/>
</g>
<!-- Node35&#45;&gt;Node2 -->
<g id="edge71" class="edge"><title>Node35&#45;&gt;Node2</title>
<path fill="none" stroke="midnightblue" d="M978.413,-282.414C918.399,-270.997 802.648,-243.262 720,-188 692.508,-169.618 687.703,-160.543 671,-132 662.498,-117.472 656.396,-99.2909 652.623,-85.8544"/>
<polygon fill="midnightblue" stroke="midnightblue" points="655.926,-84.6506 650,-75.8679 649.156,-86.429 655.926,-84.6506"/>
</g>
<!-- Node35&#45;&gt;Node5 -->
<g id="edge74" class="edge"><title>Node35&#45;&gt;Node5</title>
<path fill="none" stroke="midnightblue" d="M1057.57,-285.103C1193.79,-271.007 1641.07,-218.872 1752,-132 1767.01,-120.248 1776.09,-100.019 1781.04,-85.2429"/>
<polygon fill="midnightblue" stroke="midnightblue" points="1784.4,-86.2313 1783.95,-75.6462 1777.7,-84.2037 1784.4,-86.2313"/>
</g>
<!-- Node35&#45;&gt;Node14 -->
<g id="edge72" class="edge"><title>Node35&#45;&gt;Node14</title>
<path fill="none" stroke="midnightblue" d="M1017.18,-280.297C1014.09,-247.633 1003.14,-131.866 998.793,-85.9573"/>
<polygon fill="midnightblue" stroke="midnightblue" points="1002.27,-85.5097 997.84,-75.8837 995.298,-86.1689 1002.27,-85.5097"/>
</g>
<!-- Node35&#45;&gt;Node16 -->
<g id="edge77" class="edge"><title>Node35&#45;&gt;Node16</title>
<path fill="none" stroke="midnightblue" d="M1021.66,-280.075C1032.41,-253.832 1064.07,-176.545 1078.58,-141.117"/>
<polygon fill="midnightblue" stroke="midnightblue" points="1081.94,-142.149 1082.49,-131.568 1075.46,-139.495 1081.94,-142.149"/>
</g>
<!-- Node35&#45;&gt;Node19 -->
<g id="edge75" class="edge"><title>Node35&#45;&gt;Node19</title>
<path fill="none" stroke="midnightblue" d="M978.249,-288.175C893.71,-285.793 699.205,-276.808 643,-244 578.267,-206.213 536.29,-122.079 520.295,-85.0662"/>
<polygon fill="midnightblue" stroke="midnightblue" points="523.411,-83.4454 516.32,-75.5727 516.954,-86.1486 523.411,-83.4454"/>
</g>
<!-- Node35&#45;&gt;Node25 -->
<g id="edge73" class="edge"><title>Node35&#45;&gt;Node25</title>
<path fill="none" stroke="midnightblue" d="M978.367,-288.128C898.036,-285.688 719.368,-276.646 669,-244 631.406,-219.634 609.872,-168.788 600.558,-141.406"/>
<polygon fill="midnightblue" stroke="midnightblue" points="603.785,-140.006 597.394,-131.555 597.12,-142.146 603.785,-140.006"/>
</g>
<!-- Node35&#45;&gt;Node34 -->
<g id="edge76" class="edge"><title>Node35&#45;&gt;Node34</title>
<path fill="none" stroke="midnightblue" d="M1045.57,-280.444C1075.1,-271.28 1122.12,-256.688 1154.88,-246.519"/>
<polygon fill="midnightblue" stroke="midnightblue" points="1156.04,-249.823 1164.56,-243.516 1153.97,-243.138 1156.04,-249.823"/>
</g>
</g>
</svg>
