<?xml version="1.0" encoding="UTF-8" standalone="no"?>
<!DOCTYPE svg PUBLIC "-//W3C//DTD SVG 1.1//EN"
 "http://www.w3.org/Graphics/SVG/1.1/DTD/svg11.dtd">
<!-- Generated by graphviz version 2.36.0 (20140111.2315)
 -->
<!-- Title: IGraphics.h Pages: 1 -->
<svg width="1833pt" height="476pt"
 viewBox="0.00 0.00 1833.00 476.00" xmlns="http://www.w3.org/2000/svg" xmlns:xlink="http://www.w3.org/1999/xlink">
<g id="graph0" class="graph" transform="scale(1 1) rotate(0) translate(4 472)">
<title>IGraphics.h</title>
<polygon fill="white" stroke="none" points="-4,4 -4,-472 1829,-472 1829,4 -4,4"/>
<!-- Node1 -->
<g id="node1" class="node"><title>Node1</title>
<polygon fill="#bfbfbf" stroke="black" points="1354.5,-448.5 1354.5,-467.5 1421.5,-467.5 1421.5,-448.5 1354.5,-448.5"/>
<text text-anchor="middle" x="1388" y="-455.5" font-family="Helvetica,sans-Serif" font-size="10.00">IGraphics.h</text>
</g>
<!-- Node2 -->
<g id="node2" class="node"><title>Node2</title>
<g id="a_node2"><a xlink:href="_i_plug_constants_8h.html" target="_top" xlink:title="IPlug Constant definitions, Types, magic numbers. ">
<polygon fill="white" stroke="black" points="68,-56.5 68,-75.5 160,-75.5 160,-56.5 68,-56.5"/>
<text text-anchor="middle" x="114" y="-63.5" font-family="Helvetica,sans-Serif" font-size="10.00">IPlugConstants.h</text>
</a>
</g>
</g>
<!-- Node1&#45;&gt;Node2 -->
<g id="edge1" class="edge"><title>Node1&#45;&gt;Node2</title>
<path fill="none" stroke="midnightblue" d="M1354.46,-456.414C1194.43,-453.496 507.47,-439.564 295,-412 161.86,-394.728 0,-481.256 0,-347 0,-347 0,-347 0,-177 0,-130.115 50.5515,-96.8944 84.3292,-79.9302"/>
<polygon fill="midnightblue" stroke="midnightblue" points="85.8676,-83.0742 93.3555,-75.5787 82.8277,-76.7687 85.8676,-83.0742"/>
</g>
<!-- Node3 -->
<g id="node3" class="node"><title>Node3</title>
<g id="a_node3"><a xlink:href="_i_plug_logger_8h.html" target="_top" xlink:title="IPlug logging a.k.a tracing functionality. ">
<polygon fill="white" stroke="black" points="344.5,-168.5 344.5,-187.5 421.5,-187.5 421.5,-168.5 344.5,-168.5"/>
<text text-anchor="middle" x="383" y="-175.5" font-family="Helvetica,sans-Serif" font-size="10.00">IPlugLogger.h</text>
</a>
</g>
</g>
<!-- Node1&#45;&gt;Node3 -->
<g id="edge2" class="edge"><title>Node1&#45;&gt;Node3</title>
<path fill="none" stroke="midnightblue" d="M1354.25,-455.903C1152.44,-449.126 114,-411.138 114,-347 114,-347 114,-347 114,-289 114,-241.92 256.953,-205.025 334.437,-188.485"/>
<polygon fill="midnightblue" stroke="midnightblue" points="335.391,-191.861 344.459,-186.381 333.953,-185.01 335.391,-191.861"/>
</g>
<!-- Node18 -->
<g id="node18" class="node"><title>Node18</title>
<g id="a_node18"><a xlink:href="_i_graphics_constants_8h_source.html" target="_top" xlink:title="IGraphicsConstants.h">
<polygon fill="white" stroke="black" points="1713,-112.5 1713,-131.5 1825,-131.5 1825,-112.5 1713,-112.5"/>
<text text-anchor="middle" x="1769" y="-119.5" font-family="Helvetica,sans-Serif" font-size="10.00">IGraphicsConstants.h</text>
</a>
</g>
</g>
<!-- Node1&#45;&gt;Node18 -->
<g id="edge25" class="edge"><title>Node1&#45;&gt;Node18</title>
<path fill="none" stroke="midnightblue" d="M1397.8,-448.408C1448.96,-403.561 1685.51,-196.192 1751.73,-138.14"/>
<polygon fill="midnightblue" stroke="midnightblue" points="1754.05,-140.759 1759.26,-131.535 1749.44,-135.495 1754.05,-140.759"/>
</g>
<!-- Node19 -->
<g id="node19" class="node"><title>Node19</title>
<g id="a_node19"><a xlink:href="_i_graphics_structs_8h_source.html" target="_top" xlink:title="IGraphicsStructs.h">
<polygon fill="white" stroke="black" points="1351,-168.5 1351,-187.5 1449,-187.5 1449,-168.5 1351,-168.5"/>
<text text-anchor="middle" x="1400" y="-175.5" font-family="Helvetica,sans-Serif" font-size="10.00">IGraphicsStructs.h</text>
</a>
</g>
</g>
<!-- Node1&#45;&gt;Node19 -->
<g id="edge27" class="edge"><title>Node1&#45;&gt;Node19</title>
<path fill="none" stroke="midnightblue" d="M1384.09,-448.365C1376.17,-430.073 1359,-385.907 1359,-347 1359,-347 1359,-347 1359,-289 1359,-254.515 1376.91,-217.562 1389.06,-196.468"/>
<polygon fill="midnightblue" stroke="midnightblue" points="1392.16,-198.09 1394.3,-187.712 1386.16,-194.494 1392.16,-198.09"/>
</g>
<!-- Node25 -->
<g id="node25" class="node"><title>Node25</title>
<g id="a_node25"><a xlink:href="_i_graphics_utilities_8h_source.html" target="_top" xlink:title="IGraphicsUtilities.h">
<polygon fill="white" stroke="black" points="1387,-224.5 1387,-243.5 1487,-243.5 1487,-224.5 1387,-224.5"/>
<text text-anchor="middle" x="1437" y="-231.5" font-family="Helvetica,sans-Serif" font-size="10.00">IGraphicsUtilities.h</text>
</a>
</g>
</g>
<!-- Node1&#45;&gt;Node25 -->
<g id="edge39" class="edge"><title>Node1&#45;&gt;Node25</title>
<path fill="none" stroke="midnightblue" d="M1389.92,-448.297C1397.15,-415.563 1422.79,-299.375 1432.88,-253.666"/>
<polygon fill="midnightblue" stroke="midnightblue" points="1436.3,-254.403 1435.04,-243.884 1429.47,-252.894 1436.3,-254.403"/>
</g>
<!-- Node26 -->
<g id="node26" class="node"><title>Node26</title>
<g id="a_node26"><a xlink:href="_i_graphics_popup_menu_8h.html" target="_top" xlink:title="A class for setting the contents of a pop up menu. ">
<polygon fill="white" stroke="black" points="718.5,-168.5 718.5,-187.5 837.5,-187.5 837.5,-168.5 718.5,-168.5"/>
<text text-anchor="middle" x="778" y="-175.5" font-family="Helvetica,sans-Serif" font-size="10.00">IGraphicsPopupMenu.h</text>
</a>
</g>
</g>
<!-- Node1&#45;&gt;Node26 -->
<g id="edge42" class="edge"><title>Node1&#45;&gt;Node26</title>
<path fill="none" stroke="midnightblue" d="M1354.24,-455.455C1211.89,-448.503 668,-417.338 668,-347 668,-347 668,-347 668,-289 668,-258.902 667.657,-247.059 687,-224 699.806,-208.733 719.051,-198.174 736.549,-191.142"/>
<polygon fill="midnightblue" stroke="midnightblue" points="737.899,-194.374 746.038,-187.591 735.446,-187.818 737.899,-194.374"/>
</g>
<!-- Node27 -->
<g id="node27" class="node"><title>Node27</title>
<g id="a_node27"><a xlink:href="_i_graphics_editor_delegate_8h.html" target="_top" xlink:title="An editor delgate base class for a SOMETHING that uses IGraphics for it&#39;s UI. ">
<polygon fill="white" stroke="black" points="1053.5,-392.5 1053.5,-411.5 1184.5,-411.5 1184.5,-392.5 1053.5,-392.5"/>
<text text-anchor="middle" x="1119" y="-399.5" font-family="Helvetica,sans-Serif" font-size="10.00">IGraphicsEditorDelegate.h</text>
</a>
</g>
</g>
<!-- Node1&#45;&gt;Node27 -->
<g id="edge49" class="edge"><title>Node1&#45;&gt;Node27</title>
<path fill="none" stroke="midnightblue" d="M1354.47,-450.27C1308.56,-441.053 1225.66,-424.411 1171.48,-413.534"/>
<polygon fill="midnightblue" stroke="midnightblue" points="1171.87,-410.044 1161.38,-411.507 1170.49,-416.907 1171.87,-410.044"/>
</g>
<!-- Node34 -->
<g id="node34" class="node"><title>Node34</title>
<polygon fill="white" stroke="#bfbfbf" points="1488.5,-392.5 1488.5,-411.5 1547.5,-411.5 1547.5,-392.5 1488.5,-392.5"/>
<text text-anchor="middle" x="1518" y="-399.5" font-family="Helvetica,sans-Serif" font-size="10.00">heapbuf.h</text>
</g>
<!-- Node1&#45;&gt;Node34 -->
<g id="edge75" class="edge"><title>Node1&#45;&gt;Node34</title>
<path fill="none" stroke="midnightblue" d="M1408.6,-448.444C1429.99,-439.557 1463.68,-425.563 1488.02,-415.451"/>
<polygon fill="midnightblue" stroke="midnightblue" points="1489.61,-418.585 1497.5,-411.516 1486.92,-412.12 1489.61,-418.585"/>
</g>
<!-- Node35 -->
<g id="node35" class="node"><title>Node35</title>
<polygon fill="white" stroke="#bfbfbf" points="1565.5,-392.5 1565.5,-411.5 1606.5,-411.5 1606.5,-392.5 1565.5,-392.5"/>
<text text-anchor="middle" x="1586" y="-399.5" font-family="Helvetica,sans-Serif" font-size="10.00">stack</text>
</g>
<!-- Node1&#45;&gt;Node35 -->
<g id="edge76" class="edge"><title>Node1&#45;&gt;Node35</title>
<path fill="none" stroke="midnightblue" d="M1420.91,-448.493C1452.85,-440.169 1502.93,-426.941 1555.52,-412.072"/>
<polygon fill="midnightblue" stroke="midnightblue" points="1556.7,-415.375 1565.37,-409.278 1554.79,-408.641 1556.7,-415.375"/>
</g>
<!-- Node36 -->
<g id="node36" class="node"><title>Node36</title>
<polygon fill="white" stroke="#bfbfbf" points="1625,-392.5 1625,-411.5 1677,-411.5 1677,-392.5 1625,-392.5"/>
<text text-anchor="middle" x="1651" y="-399.5" font-family="Helvetica,sans-Serif" font-size="10.00">memory</text>
</g>
<!-- Node1&#45;&gt;Node36 -->
<g id="edge77" class="edge"><title>Node1&#45;&gt;Node36</title>
<path fill="none" stroke="midnightblue" d="M1421.57,-450.88C1464.06,-443.018 1539.73,-428.628 1614.61,-411.991"/>
<polygon fill="midnightblue" stroke="midnightblue" points="1615.69,-415.335 1624.69,-409.737 1614.17,-408.504 1615.69,-415.335"/>
</g>
<!-- Node3&#45;&gt;Node2 -->
<g id="edge12" class="edge"><title>Node3&#45;&gt;Node2</title>
<path fill="none" stroke="midnightblue" d="M344.367,-175.336C300.898,-171.994 229.395,-161.975 176,-132 155.054,-120.241 136.868,-99.1009 125.704,-84.1256"/>
<polygon fill="midnightblue" stroke="midnightblue" points="128.365,-81.8306 119.698,-75.737 122.674,-85.9055 128.365,-81.8306"/>
</g>
<!-- Node4 -->
<g id="node4" class="node"><title>Node4</title>
<polygon fill="white" stroke="#bfbfbf" points="343.5,-56.5 343.5,-75.5 386.5,-75.5 386.5,-56.5 343.5,-56.5"/>
<text text-anchor="middle" x="365" y="-63.5" font-family="Helvetica,sans-Serif" font-size="10.00">cstdio</text>
</g>
<!-- Node3&#45;&gt;Node4 -->
<g id="edge3" class="edge"><title>Node3&#45;&gt;Node4</title>
<path fill="none" stroke="midnightblue" d="M344.23,-175.862C312.357,-172.627 268.992,-162.441 247,-132 222.39,-97.9341 290.46,-79.667 333.232,-71.8032"/>
<polygon fill="midnightblue" stroke="midnightblue" points="333.976,-75.2264 343.229,-70.0672 332.778,-68.3296 333.976,-75.2264"/>
</g>
<!-- Node5 -->
<g id="node5" class="node"><title>Node5</title>
<polygon fill="white" stroke="#bfbfbf" points="420,-56.5 420,-75.5 466,-75.5 466,-56.5 420,-56.5"/>
<text text-anchor="middle" x="443" y="-63.5" font-family="Helvetica,sans-Serif" font-size="10.00">cctype</text>
</g>
<!-- Node3&#45;&gt;Node5 -->
<g id="edge4" class="edge"><title>Node3&#45;&gt;Node5</title>
<path fill="none" stroke="midnightblue" d="M373.528,-168.247C360.848,-155.434 341.239,-131.03 353,-112 365.414,-91.9143 389.808,-80.4939 410.071,-74.1878"/>
<polygon fill="midnightblue" stroke="midnightblue" points="411.236,-77.4959 419.91,-71.4124 409.336,-70.7588 411.236,-77.4959"/>
</g>
<!-- Node6 -->
<g id="node6" class="node"><title>Node6</title>
<polygon fill="white" stroke="#bfbfbf" points="256.5,-112.5 256.5,-131.5 305.5,-131.5 305.5,-112.5 256.5,-112.5"/>
<text text-anchor="middle" x="281" y="-119.5" font-family="Helvetica,sans-Serif" font-size="10.00">cstdarg</text>
</g>
<!-- Node3&#45;&gt;Node6 -->
<g id="edge5" class="edge"><title>Node3&#45;&gt;Node6</title>
<path fill="none" stroke="midnightblue" d="M366.612,-168.324C350.329,-159.703 325.133,-146.364 306.284,-136.386"/>
<polygon fill="midnightblue" stroke="midnightblue" points="307.823,-133.24 297.347,-131.655 304.548,-139.427 307.823,-133.24"/>
</g>
<!-- Node7 -->
<g id="node7" class="node"><title>Node7</title>
<polygon fill="white" stroke="#bfbfbf" points="492,-112.5 492,-131.5 538,-131.5 538,-112.5 492,-112.5"/>
<text text-anchor="middle" x="515" y="-119.5" font-family="Helvetica,sans-Serif" font-size="10.00">cstdint</text>
</g>
<!-- Node3&#45;&gt;Node7 -->
<g id="edge6" class="edge"><title>Node3&#45;&gt;Node7</title>
<path fill="none" stroke="midnightblue" d="M403.916,-168.444C425.736,-159.517 460.15,-145.439 484.892,-135.317"/>
<polygon fill="midnightblue" stroke="midnightblue" points="486.252,-138.542 494.182,-131.516 483.601,-132.063 486.252,-138.542"/>
</g>
<!-- Node8 -->
<g id="node8" class="node"><title>Node8</title>
<polygon fill="white" stroke="#bfbfbf" points="607,-0.5 607,-19.5 653,-19.5 653,-0.5 607,-0.5"/>
<text text-anchor="middle" x="630" y="-7.5" font-family="Helvetica,sans-Serif" font-size="10.00">cstring</text>
</g>
<!-- Node3&#45;&gt;Node8 -->
<g id="edge7" class="edge"><title>Node3&#45;&gt;Node8</title>
<path fill="none" stroke="midnightblue" d="M344.436,-174.476C293.646,-169.456 213.474,-154.701 238,-112 262.602,-69.1672 287.424,-72.4482 334,-56 425.4,-23.7226 540.707,-14.5914 596.592,-12.0123"/>
<polygon fill="midnightblue" stroke="midnightblue" points="596.789,-15.5072 606.634,-11.5909 596.496,-8.51336 596.789,-15.5072"/>
</g>
<!-- Node9 -->
<g id="node9" class="node"><title>Node9</title>
<polygon fill="white" stroke="#bfbfbf" points="362.5,-112.5 362.5,-131.5 403.5,-131.5 403.5,-112.5 362.5,-112.5"/>
<text text-anchor="middle" x="383" y="-119.5" font-family="Helvetica,sans-Serif" font-size="10.00">ctime</text>
</g>
<!-- Node3&#45;&gt;Node9 -->
<g id="edge8" class="edge"><title>Node3&#45;&gt;Node9</title>
<path fill="none" stroke="midnightblue" d="M383,-168.083C383,-161.006 383,-150.861 383,-141.986"/>
<polygon fill="midnightblue" stroke="midnightblue" points="386.5,-141.751 383,-131.751 379.5,-141.751 386.5,-141.751"/>
</g>
<!-- Node10 -->
<g id="node10" class="node"><title>Node10</title>
<polygon fill="white" stroke="#bfbfbf" points="844.5,-112.5 844.5,-131.5 893.5,-131.5 893.5,-112.5 844.5,-112.5"/>
<text text-anchor="middle" x="869" y="-119.5" font-family="Helvetica,sans-Serif" font-size="10.00">cassert</text>
</g>
<!-- Node3&#45;&gt;Node10 -->
<g id="edge9" class="edge"><title>Node3&#45;&gt;Node10</title>
<path fill="none" stroke="midnightblue" d="M421.542,-172.718C513.771,-162.47 746.056,-136.66 834.277,-126.858"/>
<polygon fill="midnightblue" stroke="midnightblue" points="834.75,-130.327 844.302,-125.744 833.977,-123.37 834.75,-130.327"/>
</g>
<!-- Node11 -->
<g id="node11" class="node"><title>Node11</title>
<polygon fill="white" stroke="#bfbfbf" points="854,-56.5 854,-75.5 918,-75.5 918,-56.5 854,-56.5"/>
<text text-anchor="middle" x="886" y="-63.5" font-family="Helvetica,sans-Serif" font-size="10.00">wdlstring.h</text>
</g>
<!-- Node3&#45;&gt;Node11 -->
<g id="edge10" class="edge"><title>Node3&#45;&gt;Node11</title>
<path fill="none" stroke="midnightblue" d="M421.599,-174.915C484.985,-170.815 614.705,-159.574 721,-132 771.235,-118.969 826.852,-94.9172 858.984,-80.0078"/>
<polygon fill="midnightblue" stroke="midnightblue" points="860.604,-83.1137 868.17,-75.6966 857.63,-76.7769 860.604,-83.1137"/>
</g>
<!-- Node12 -->
<g id="node12" class="node"><title>Node12</title>
<polygon fill="white" stroke="#bfbfbf" points="422,-112.5 422,-131.5 474,-131.5 474,-112.5 422,-112.5"/>
<text text-anchor="middle" x="448" y="-119.5" font-family="Helvetica,sans-Serif" font-size="10.00">mutex.h</text>
</g>
<!-- Node3&#45;&gt;Node12 -->
<g id="edge11" class="edge"><title>Node3&#45;&gt;Node12</title>
<path fill="none" stroke="midnightblue" d="M393.443,-168.324C403.146,-160.263 417.815,-148.077 429.5,-138.369"/>
<polygon fill="midnightblue" stroke="midnightblue" points="431.911,-140.916 437.367,-131.834 427.438,-135.532 431.911,-140.916"/>
</g>
<!-- Node13 -->
<g id="node13" class="node"><title>Node13</title>
<g id="a_node13"><a xlink:href="_i_plug_utilities_8h.html" target="_top" xlink:title="Utility functions and macros. ">
<polygon fill="white" stroke="black" points="632,-112.5 632,-131.5 712,-131.5 712,-112.5 632,-112.5"/>
<text text-anchor="middle" x="672" y="-119.5" font-family="Helvetica,sans-Serif" font-size="10.00">IPlugUtilities.h</text>
</a>
</g>
</g>
<!-- Node3&#45;&gt;Node13 -->
<g id="edge13" class="edge"><title>Node3&#45;&gt;Node13</title>
<path fill="none" stroke="midnightblue" d="M421.676,-169.773C473.33,-160.122 564.922,-143.008 621.834,-132.373"/>
<polygon fill="midnightblue" stroke="midnightblue" points="622.508,-135.808 631.695,-130.531 621.222,-128.927 622.508,-135.808"/>
</g>
<!-- Node13&#45;&gt;Node2 -->
<g id="edge21" class="edge"><title>Node13&#45;&gt;Node2</title>
<path fill="none" stroke="midnightblue" d="M631.87,-117.116C534.091,-107.654 283.304,-83.3843 170.482,-72.466"/>
<polygon fill="midnightblue" stroke="midnightblue" points="170.619,-68.963 160.328,-71.4833 169.944,-75.9304 170.619,-68.963"/>
</g>
<!-- Node13&#45;&gt;Node4 -->
<g id="edge16" class="edge"><title>Node13&#45;&gt;Node4</title>
<path fill="none" stroke="midnightblue" d="M631.709,-114.342C580.393,-105.796 489.008,-90.3541 411,-76 406.373,-75.1486 401.49,-74.2228 396.703,-73.2995"/>
<polygon fill="midnightblue" stroke="midnightblue" points="396.996,-69.7909 386.511,-71.3125 395.656,-76.6615 396.996,-69.7909"/>
</g>
<!-- Node13&#45;&gt;Node5 -->
<g id="edge19" class="edge"><title>Node13&#45;&gt;Node5</title>
<path fill="none" stroke="midnightblue" d="M635.714,-112.444C591.79,-102.086 518.45,-84.7916 476.038,-74.7907"/>
<polygon fill="midnightblue" stroke="midnightblue" points="476.749,-71.3622 466.212,-72.4736 475.142,-78.1754 476.749,-71.3622"/>
</g>
<!-- Node13&#45;&gt;Node8 -->
<g id="edge18" class="edge"><title>Node13&#45;&gt;Node8</title>
<path fill="none" stroke="midnightblue" d="M668.704,-112.368C661.865,-94.4563 646.007,-52.9233 636.853,-28.9482"/>
<polygon fill="midnightblue" stroke="midnightblue" points="640.117,-27.6851 633.28,-19.5914 633.578,-30.1821 640.117,-27.6851"/>
</g>
<!-- Node13&#45;&gt;Node11 -->
<g id="edge20" class="edge"><title>Node13&#45;&gt;Node11</title>
<path fill="none" stroke="midnightblue" d="M705.909,-112.444C743.393,-102.985 803.8,-87.7421 844.187,-77.551"/>
<polygon fill="midnightblue" stroke="midnightblue" points="845.158,-80.9158 853.997,-75.0755 843.445,-74.1286 845.158,-80.9158"/>
</g>
<!-- Node14 -->
<g id="node14" class="node"><title>Node14</title>
<polygon fill="white" stroke="#bfbfbf" points="1091,-56.5 1091,-75.5 1147,-75.5 1147,-56.5 1091,-56.5"/>
<text text-anchor="middle" x="1119" y="-63.5" font-family="Helvetica,sans-Serif" font-size="10.00">algorithm</text>
</g>
<!-- Node13&#45;&gt;Node14 -->
<g id="edge14" class="edge"><title>Node13&#45;&gt;Node14</title>
<path fill="none" stroke="midnightblue" d="M712.062,-116.16C797.55,-105.833 996.875,-81.7533 1080.74,-71.6222"/>
<polygon fill="midnightblue" stroke="midnightblue" points="1081.34,-75.0751 1090.85,-70.401 1080.5,-68.1256 1081.34,-75.0751"/>
</g>
<!-- Node15 -->
<g id="node15" class="node"><title>Node15</title>
<polygon fill="white" stroke="#bfbfbf" points="756,-56.5 756,-75.5 800,-75.5 800,-56.5 756,-56.5"/>
<text text-anchor="middle" x="778" y="-63.5" font-family="Helvetica,sans-Serif" font-size="10.00">cmath</text>
</g>
<!-- Node13&#45;&gt;Node15 -->
<g id="edge15" class="edge"><title>Node13&#45;&gt;Node15</title>
<path fill="none" stroke="midnightblue" d="M689.031,-112.324C706.03,-103.664 732.376,-90.2424 751.993,-80.249"/>
<polygon fill="midnightblue" stroke="midnightblue" points="753.69,-83.3125 761.012,-75.6545 750.512,-77.0752 753.69,-83.3125"/>
</g>
<!-- Node16 -->
<g id="node16" class="node"><title>Node16</title>
<polygon fill="white" stroke="#bfbfbf" points="969.5,-0.5 969.5,-19.5 1014.5,-19.5 1014.5,-0.5 969.5,-0.5"/>
<text text-anchor="middle" x="992" y="-7.5" font-family="Helvetica,sans-Serif" font-size="10.00">cstdlib</text>
</g>
<!-- Node13&#45;&gt;Node16 -->
<g id="edge17" class="edge"><title>Node13&#45;&gt;Node16</title>
<path fill="none" stroke="midnightblue" d="M679.277,-112.191C691.61,-97.9029 718.112,-69.8785 747,-56 817.306,-22.223 910.155,-13.7035 958.886,-11.6178"/>
<polygon fill="midnightblue" stroke="midnightblue" points="959.289,-15.1056 969.156,-11.2468 959.037,-8.11016 959.289,-15.1056"/>
</g>
<!-- Node17 -->
<g id="node17" class="node"><title>Node17</title>
<g id="a_node17"><a xlink:href="_i_plug_platform_8h.html" target="_top" xlink:title="Include to get consistently named preprocessor macros for different platforms and logging functionali...">
<polygon fill="white" stroke="black" points="1231,-56.5 1231,-75.5 1315,-75.5 1315,-56.5 1231,-56.5"/>
<text text-anchor="middle" x="1273" y="-63.5" font-family="Helvetica,sans-Serif" font-size="10.00">IPlugPlatform.h</text>
</a>
</g>
</g>
<!-- Node13&#45;&gt;Node17 -->
<g id="edge22" class="edge"><title>Node13&#45;&gt;Node17</title>
<path fill="none" stroke="midnightblue" d="M712.367,-117.373C818.006,-107.881 1102.57,-82.3131 1220.6,-71.7085"/>
<polygon fill="midnightblue" stroke="midnightblue" points="1221.17,-75.171 1230.82,-70.79 1220.55,-68.1991 1221.17,-75.171"/>
</g>
<!-- Node17&#45;&gt;Node8 -->
<g id="edge23" class="edge"><title>Node17&#45;&gt;Node8</title>
<path fill="none" stroke="midnightblue" d="M1230.81,-61.4569C1111.15,-51.4075 771.27,-22.864 663.332,-13.7993"/>
<polygon fill="midnightblue" stroke="midnightblue" points="663.308,-10.2851 653.051,-12.9358 662.723,-17.2605 663.308,-10.2851"/>
</g>
<!-- Node17&#45;&gt;Node16 -->
<g id="edge24" class="edge"><title>Node17&#45;&gt;Node16</title>
<path fill="none" stroke="midnightblue" d="M1230.93,-56.9157C1174.5,-46.0705 1075.48,-27.0427 1024.45,-17.2352"/>
<polygon fill="midnightblue" stroke="midnightblue" points="1025.09,-13.7953 1014.61,-15.3452 1023.77,-20.6695 1025.09,-13.7953"/>
</g>
<!-- Node18&#45;&gt;Node17 -->
<g id="edge26" class="edge"><title>Node18&#45;&gt;Node17</title>
<path fill="none" stroke="midnightblue" d="M1712.85,-113.667C1708.17,-113.09 1703.5,-112.527 1699,-112 1564.51,-96.2529 1405.83,-80.1422 1325.41,-72.1508"/>
<polygon fill="midnightblue" stroke="midnightblue" points="1325.36,-68.6284 1315.06,-71.1243 1324.66,-75.5942 1325.36,-68.6284"/>
</g>
<!-- Node19&#45;&gt;Node10 -->
<g id="edge29" class="edge"><title>Node19&#45;&gt;Node10</title>
<path fill="none" stroke="midnightblue" d="M1351,-172.017C1244.8,-161.217 995.62,-135.877 903.784,-126.537"/>
<polygon fill="midnightblue" stroke="midnightblue" points="903.937,-123.035 893.634,-125.505 903.229,-129.999 903.937,-123.035"/>
</g>
<!-- Node19&#45;&gt;Node11 -->
<g id="edge34" class="edge"><title>Node19&#45;&gt;Node11</title>
<path fill="none" stroke="midnightblue" d="M1399.15,-168.1C1397.26,-153.682 1391.3,-125.475 1373,-112 1355.18,-98.8807 1043.37,-77.2831 928.251,-69.7187"/>
<polygon fill="midnightblue" stroke="midnightblue" points="928.267,-66.2124 918.059,-69.052 927.81,-73.1974 928.267,-66.2124"/>
</g>
<!-- Node19&#45;&gt;Node14 -->
<g id="edge31" class="edge"><title>Node19&#45;&gt;Node14</title>
<path fill="none" stroke="midnightblue" d="M1405.37,-168.261C1413.03,-154.571 1424.71,-127.985 1411,-112 1394.65,-92.9428 1232.51,-76.7139 1157.15,-70.1342"/>
<polygon fill="midnightblue" stroke="midnightblue" points="1157.37,-66.6411 1147.11,-69.2705 1156.77,-73.6153 1157.37,-66.6411"/>
</g>
<!-- Node19&#45;&gt;Node15 -->
<g id="edge28" class="edge"><title>Node19&#45;&gt;Node15</title>
<path fill="none" stroke="midnightblue" d="M1390.5,-168.328C1373.82,-153.707 1337.57,-124.521 1301,-112 1108.66,-46.1459 1047.15,-97.5408 845,-76 833.68,-74.7937 821.319,-73.2095 810.331,-71.7068"/>
<polygon fill="midnightblue" stroke="midnightblue" points="810.684,-68.2223 800.296,-70.3062 809.717,-75.155 810.684,-68.2223"/>
</g>
<!-- Node19&#45;&gt;Node17 -->
<g id="edge37" class="edge"><title>Node19&#45;&gt;Node17</title>
<path fill="none" stroke="midnightblue" d="M1449.04,-169.487C1524.68,-157.787 1661.52,-136.122 1665,-132 1670.74,-125.209 1670.92,-118.634 1665,-112 1642.77,-87.0694 1426.85,-74.0056 1325.3,-69.1982"/>
<polygon fill="midnightblue" stroke="midnightblue" points="1325.4,-65.6994 1315.25,-68.732 1325.08,-72.6919 1325.4,-65.6994"/>
</g>
<!-- Node19&#45;&gt;Node18 -->
<g id="edge38" class="edge"><title>Node19&#45;&gt;Node18</title>
<path fill="none" stroke="midnightblue" d="M1449,-169.829C1514.25,-160.28 1629.9,-143.356 1702.85,-132.681"/>
<polygon fill="midnightblue" stroke="midnightblue" points="1703.46,-136.129 1712.85,-131.218 1702.44,-129.203 1703.46,-136.129"/>
</g>
<!-- Node20 -->
<g id="node20" class="node"><title>Node20</title>
<polygon fill="white" stroke="#bfbfbf" points="1233.5,-112.5 1233.5,-131.5 1292.5,-131.5 1292.5,-112.5 1233.5,-112.5"/>
<text text-anchor="middle" x="1263" y="-119.5" font-family="Helvetica,sans-Serif" font-size="10.00">functional</text>
</g>
<!-- Node19&#45;&gt;Node20 -->
<g id="edge30" class="edge"><title>Node19&#45;&gt;Node20</title>
<path fill="none" stroke="midnightblue" d="M1378.29,-168.444C1355.65,-159.517 1319.93,-145.439 1294.25,-135.317"/>
<polygon fill="midnightblue" stroke="midnightblue" points="1295.19,-131.927 1284.61,-131.516 1292.63,-138.44 1295.19,-131.927"/>
</g>
<!-- Node21 -->
<g id="node21" class="node"><title>Node21</title>
<polygon fill="white" stroke="#bfbfbf" points="1463.5,-112.5 1463.5,-131.5 1512.5,-131.5 1512.5,-112.5 1463.5,-112.5"/>
<text text-anchor="middle" x="1488" y="-119.5" font-family="Helvetica,sans-Serif" font-size="10.00">random</text>
</g>
<!-- Node19&#45;&gt;Node21 -->
<g id="edge32" class="edge"><title>Node19&#45;&gt;Node21</title>
<path fill="none" stroke="midnightblue" d="M1414.14,-168.324C1427.87,-159.9 1448.94,-146.971 1465.06,-137.074"/>
<polygon fill="midnightblue" stroke="midnightblue" points="1467.2,-139.868 1473.9,-131.655 1463.54,-133.902 1467.2,-139.868"/>
</g>
<!-- Node22 -->
<g id="node22" class="node"><title>Node22</title>
<polygon fill="white" stroke="#bfbfbf" points="1531,-112.5 1531,-131.5 1577,-131.5 1577,-112.5 1531,-112.5"/>
<text text-anchor="middle" x="1554" y="-119.5" font-family="Helvetica,sans-Serif" font-size="10.00">chrono</text>
</g>
<!-- Node19&#45;&gt;Node22 -->
<g id="edge33" class="edge"><title>Node19&#45;&gt;Node22</title>
<path fill="none" stroke="midnightblue" d="M1424.4,-168.444C1450.5,-159.292 1492.04,-144.726 1521.03,-134.559"/>
<polygon fill="midnightblue" stroke="midnightblue" points="1522.44,-137.775 1530.72,-131.163 1520.13,-131.169 1522.44,-137.775"/>
</g>
<!-- Node23 -->
<g id="node23" class="node"><title>Node23</title>
<polygon fill="white" stroke="#bfbfbf" points="1166.5,-112.5 1166.5,-131.5 1215.5,-131.5 1215.5,-112.5 1166.5,-112.5"/>
<text text-anchor="middle" x="1191" y="-119.5" font-family="Helvetica,sans-Serif" font-size="10.00">ptrlist.h</text>
</g>
<!-- Node19&#45;&gt;Node23 -->
<g id="edge35" class="edge"><title>Node19&#45;&gt;Node23</title>
<path fill="none" stroke="midnightblue" d="M1366.43,-168.444C1333.19,-159.952 1280.56,-146.468 1225.46,-132.105"/>
<polygon fill="midnightblue" stroke="midnightblue" points="1226.07,-128.648 1215.51,-129.51 1224.3,-135.421 1226.07,-128.648"/>
</g>
<!-- Node24 -->
<g id="node24" class="node"><title>Node24</title>
<polygon fill="white" stroke="#bfbfbf" points="1595,-112.5 1595,-131.5 1657,-131.5 1657,-112.5 1595,-112.5"/>
<text text-anchor="middle" x="1626" y="-119.5" font-family="Helvetica,sans-Serif" font-size="10.00">nanosvg.h</text>
</g>
<!-- Node19&#45;&gt;Node24 -->
<g id="edge36" class="edge"><title>Node19&#45;&gt;Node24</title>
<path fill="none" stroke="midnightblue" d="M1435.81,-168.444C1476.37,-158.752 1542.35,-142.988 1584.95,-132.808"/>
<polygon fill="midnightblue" stroke="midnightblue" points="1585.81,-136.201 1594.72,-130.473 1584.18,-129.393 1585.81,-136.201"/>
</g>
<!-- Node25&#45;&gt;Node18 -->
<g id="edge40" class="edge"><title>Node25&#45;&gt;Node18</title>
<path fill="none" stroke="midnightblue" d="M1442.88,-224.128C1452.92,-209.748 1474.87,-181.596 1501,-168 1518.64,-158.823 1629.25,-142.22 1702.75,-131.95"/>
<polygon fill="midnightblue" stroke="midnightblue" points="1703.44,-135.388 1712.86,-130.544 1702.47,-128.454 1703.44,-135.388"/>
</g>
<!-- Node25&#45;&gt;Node19 -->
<g id="edge41" class="edge"><title>Node25&#45;&gt;Node19</title>
<path fill="none" stroke="midnightblue" d="M1430.89,-224.083C1425.72,-216.534 1418.15,-205.495 1411.81,-196.23"/>
<polygon fill="midnightblue" stroke="midnightblue" points="1414.54,-194.022 1406,-187.751 1408.76,-197.979 1414.54,-194.022"/>
</g>
<!-- Node26&#45;&gt;Node4 -->
<g id="edge45" class="edge"><title>Node26&#45;&gt;Node4</title>
<path fill="none" stroke="midnightblue" d="M730.897,-168.453C692.412,-160.825 636.907,-148.337 590,-132 570.096,-125.068 566.879,-119.007 547,-112 519.433,-102.284 440.966,-84.0517 396.587,-74.0351"/>
<polygon fill="midnightblue" stroke="midnightblue" points="397.139,-70.5719 386.615,-71.7931 395.604,-77.4014 397.139,-70.5719"/>
</g>
<!-- Node26&#45;&gt;Node8 -->
<g id="edge44" class="edge"><title>Node26&#45;&gt;Node8</title>
<path fill="none" stroke="midnightblue" d="M724.355,-168.43C684.639,-160.862 635.367,-148.469 623,-132 600.445,-101.966 612.747,-54.9876 622.263,-29.2963"/>
<polygon fill="midnightblue" stroke="midnightblue" points="625.635,-30.2867 626.06,-19.7004 619.126,-27.7107 625.635,-30.2867"/>
</g>
<!-- Node26&#45;&gt;Node10 -->
<g id="edge46" class="edge"><title>Node26&#45;&gt;Node10</title>
<path fill="none" stroke="midnightblue" d="M792.621,-168.324C806.949,-159.822 829.013,-146.729 845.749,-136.797"/>
<polygon fill="midnightblue" stroke="midnightblue" points="847.602,-139.768 854.416,-131.655 844.03,-133.748 847.602,-139.768"/>
</g>
<!-- Node26&#45;&gt;Node11 -->
<g id="edge47" class="edge"><title>Node26&#45;&gt;Node11</title>
<path fill="none" stroke="midnightblue" d="M785.045,-168.274C795.495,-155.495 815.926,-131.133 835,-112 845.421,-101.547 857.825,-90.5732 867.79,-82.0794"/>
<polygon fill="midnightblue" stroke="midnightblue" points="870.097,-84.7127 875.491,-75.5937 865.587,-79.3586 870.097,-84.7127"/>
</g>
<!-- Node26&#45;&gt;Node15 -->
<g id="edge43" class="edge"><title>Node26&#45;&gt;Node15</title>
<path fill="none" stroke="midnightblue" d="M778,-168.368C778,-150.617 778,-109.666 778,-85.5974"/>
<polygon fill="midnightblue" stroke="midnightblue" points="781.5,-85.5914 778,-75.5914 774.5,-85.5915 781.5,-85.5914"/>
</g>
<!-- Node26&#45;&gt;Node23 -->
<g id="edge48" class="edge"><title>Node26&#45;&gt;Node23</title>
<path fill="none" stroke="midnightblue" d="M837.613,-169.206C925.153,-157.76 1085.71,-136.766 1156.23,-127.546"/>
<polygon fill="midnightblue" stroke="midnightblue" points="1156.89,-130.989 1166.36,-126.222 1155.99,-124.048 1156.89,-130.989"/>
</g>
<!-- Node28 -->
<g id="node28" class="node"><title>Node28</title>
<g id="a_node28"><a xlink:href="_i_plug_editor_delegate_8h.html" target="_top" xlink:title="This pure virtual interface delegates communication in both directions between a UI editor and someth...">
<polygon fill="white" stroke="black" points="1026,-336.5 1026,-355.5 1138,-355.5 1138,-336.5 1026,-336.5"/>
<text text-anchor="middle" x="1082" y="-343.5" font-family="Helvetica,sans-Serif" font-size="10.00">IPlugEditorDelegate.h</text>
</a>
</g>
</g>
<!-- Node27&#45;&gt;Node28 -->
<g id="edge50" class="edge"><title>Node27&#45;&gt;Node28</title>
<path fill="none" stroke="midnightblue" d="M1112.89,-392.083C1107.72,-384.534 1100.15,-373.495 1093.81,-364.23"/>
<polygon fill="midnightblue" stroke="midnightblue" points="1096.54,-362.022 1088,-355.751 1090.76,-365.979 1096.54,-362.022"/>
</g>
<!-- Node28&#45;&gt;Node8 -->
<g id="edge52" class="edge"><title>Node28&#45;&gt;Node8</title>
<path fill="none" stroke="midnightblue" d="M1025.87,-342.063C809.021,-329.985 38,-279.94 38,-179 38,-179 38,-179 38,-121 38,-90.6408 35.1751,-74.8163 59,-56 101.283,-22.6059 481.241,-13.5016 596.805,-11.4944"/>
<polygon fill="midnightblue" stroke="midnightblue" points="596.896,-14.9934 606.836,-11.3266 596.779,-7.9944 596.896,-14.9934"/>
</g>
<!-- Node28&#45;&gt;Node10 -->
<g id="edge51" class="edge"><title>Node28&#45;&gt;Node10</title>
<path fill="none" stroke="midnightblue" d="M1035.75,-336.482C1010.95,-329.962 981.213,-318.78 960,-300 910.043,-255.773 883.675,-177.559 873.734,-141.795"/>
<polygon fill="midnightblue" stroke="midnightblue" points="877.022,-140.539 871.074,-131.772 870.256,-142.335 877.022,-140.539"/>
</g>
<!-- Node28&#45;&gt;Node23 -->
<g id="edge54" class="edge"><title>Node28&#45;&gt;Node23</title>
<path fill="none" stroke="midnightblue" d="M1091.74,-336.326C1115.55,-314.373 1176.37,-253.665 1198,-188 1202.99,-172.84 1200.39,-154.722 1197.03,-141.47"/>
<polygon fill="midnightblue" stroke="midnightblue" points="1200.33,-140.28 1194.17,-131.654 1193.6,-142.234 1200.33,-140.28"/>
</g>
<!-- Node29 -->
<g id="node29" class="node"><title>Node29</title>
<polygon fill="white" stroke="#bfbfbf" points="1280.5,-280.5 1280.5,-299.5 1329.5,-299.5 1329.5,-280.5 1280.5,-280.5"/>
<text text-anchor="middle" x="1305" y="-287.5" font-family="Helvetica,sans-Serif" font-size="10.00">stdint.h</text>
</g>
<!-- Node28&#45;&gt;Node29 -->
<g id="edge53" class="edge"><title>Node28&#45;&gt;Node29</title>
<path fill="none" stroke="midnightblue" d="M1117.34,-336.444C1159.23,-326.3 1228.59,-309.503 1270.23,-299.419"/>
<polygon fill="midnightblue" stroke="midnightblue" points="1271.29,-302.764 1280.19,-297.008 1269.64,-295.96 1271.29,-302.764"/>
</g>
<!-- Node30 -->
<g id="node30" class="node"><title>Node30</title>
<g id="a_node30"><a xlink:href="_i_plug_parameter_8h.html" target="_top" xlink:title="IPlug&#39;s parameter class. ">
<polygon fill="white" stroke="black" points="975,-168.5 975,-187.5 1067,-187.5 1067,-168.5 975,-168.5"/>
<text text-anchor="middle" x="1021" y="-175.5" font-family="Helvetica,sans-Serif" font-size="10.00">IPlugParameter.h</text>
</a>
</g>
</g>
<!-- Node28&#45;&gt;Node30 -->
<g id="edge55" class="edge"><title>Node28&#45;&gt;Node30</title>
<path fill="none" stroke="midnightblue" d="M1078.72,-336.075C1069.08,-309.832 1040.68,-232.545 1027.66,-197.117"/>
<polygon fill="midnightblue" stroke="midnightblue" points="1030.88,-195.747 1024.15,-187.568 1024.31,-198.162 1030.88,-195.747"/>
</g>
<!-- Node32 -->
<g id="node32" class="node"><title>Node32</title>
<g id="a_node32"><a xlink:href="_i_plug_midi_8h.html" target="_top" xlink:title="MIDI and sysex structs/utilites. ">
<polygon fill="white" stroke="black" points="696.5,-224.5 696.5,-243.5 761.5,-243.5 761.5,-224.5 696.5,-224.5"/>
<text text-anchor="middle" x="729" y="-231.5" font-family="Helvetica,sans-Serif" font-size="10.00">IPlugMidi.h</text>
</a>
</g>
</g>
<!-- Node28&#45;&gt;Node32 -->
<g id="edge61" class="edge"><title>Node28&#45;&gt;Node32</title>
<path fill="none" stroke="midnightblue" d="M1036.86,-336.461C997.609,-328.556 939.444,-315.673 890,-300 842.292,-284.877 788.746,-262.03 757.001,-247.838"/>
<polygon fill="midnightblue" stroke="midnightblue" points="758.051,-244.472 747.496,-243.556 755.175,-250.854 758.051,-244.472"/>
</g>
<!-- Node33 -->
<g id="node33" class="node"><title>Node33</title>
<g id="a_node33"><a xlink:href="_i_plug_structs_8h_source.html" target="_top" xlink:title="IPlugStructs.h">
<polygon fill="white" stroke="black" points="969.5,-280.5 969.5,-299.5 1048.5,-299.5 1048.5,-280.5 969.5,-280.5"/>
<text text-anchor="middle" x="1009" y="-287.5" font-family="Helvetica,sans-Serif" font-size="10.00">IPlugStructs.h</text>
</a>
</g>
</g>
<!-- Node28&#45;&gt;Node33 -->
<g id="edge67" class="edge"><title>Node28&#45;&gt;Node33</title>
<path fill="none" stroke="midnightblue" d="M1070.27,-336.324C1059.16,-328.107 1042.26,-315.602 1029.02,-305.807"/>
<polygon fill="midnightblue" stroke="midnightblue" points="1031.06,-302.967 1020.94,-299.834 1026.9,-308.595 1031.06,-302.967"/>
</g>
<!-- Node30&#45;&gt;Node8 -->
<g id="edge57" class="edge"><title>Node30&#45;&gt;Node8</title>
<path fill="none" stroke="midnightblue" d="M1017.21,-168.459C1006.64,-145.775 974.5,-83.8533 927,-56 882.803,-30.0834 731.487,-17.4407 663.523,-12.9632"/>
<polygon fill="midnightblue" stroke="midnightblue" points="663.563,-9.45873 653.36,-12.3139 663.117,-16.4445 663.563,-9.45873"/>
</g>
<!-- Node30&#45;&gt;Node11 -->
<g id="edge59" class="edge"><title>Node30&#45;&gt;Node11</title>
<path fill="none" stroke="midnightblue" d="M1010.41,-168.368C987.536,-149.733 933.29,-105.532 904.573,-82.1338"/>
<polygon fill="midnightblue" stroke="midnightblue" points="906.507,-79.1949 896.544,-75.5914 902.086,-84.6215 906.507,-79.1949"/>
</g>
<!-- Node30&#45;&gt;Node13 -->
<g id="edge60" class="edge"><title>Node30&#45;&gt;Node13</title>
<path fill="none" stroke="midnightblue" d="M974.655,-169.829C909.047,-159.678 789.573,-141.192 722.019,-130.739"/>
<polygon fill="midnightblue" stroke="midnightblue" points="722.458,-127.266 712.04,-129.195 721.387,-134.183 722.458,-127.266"/>
</g>
<!-- Node30&#45;&gt;Node20 -->
<g id="edge58" class="edge"><title>Node30&#45;&gt;Node20</title>
<path fill="none" stroke="midnightblue" d="M1059.94,-168.473C1098.74,-159.952 1160.31,-146.371 1223.11,-132.187"/>
<polygon fill="midnightblue" stroke="midnightblue" points="1224.21,-135.525 1233.2,-129.906 1222.67,-128.698 1224.21,-135.525"/>
</g>
<!-- Node31 -->
<g id="node31" class="node"><title>Node31</title>
<polygon fill="white" stroke="#bfbfbf" points="1026,-112.5 1026,-131.5 1072,-131.5 1072,-112.5 1026,-112.5"/>
<text text-anchor="middle" x="1049" y="-119.5" font-family="Helvetica,sans-Serif" font-size="10.00">atomic</text>
</g>
<!-- Node30&#45;&gt;Node31 -->
<g id="edge56" class="edge"><title>Node30&#45;&gt;Node31</title>
<path fill="none" stroke="midnightblue" d="M1025.62,-168.083C1029.46,-160.691 1035.02,-149.953 1039.76,-140.811"/>
<polygon fill="midnightblue" stroke="midnightblue" points="1042.97,-142.24 1044.46,-131.751 1036.75,-139.018 1042.97,-142.24"/>
</g>
<!-- Node32&#45;&gt;Node3 -->
<g id="edge66" class="edge"><title>Node32&#45;&gt;Node3</title>
<path fill="none" stroke="midnightblue" d="M696.449,-227.92C635.439,-218.398 503.593,-197.821 431.872,-186.627"/>
<polygon fill="midnightblue" stroke="midnightblue" points="432.162,-183.13 421.742,-185.046 431.082,-190.047 432.162,-183.13"/>
</g>
<!-- Node32&#45;&gt;Node4 -->
<g id="edge64" class="edge"><title>Node32&#45;&gt;Node4</title>
<path fill="none" stroke="midnightblue" d="M696.388,-233.702C627.688,-234.233 463.802,-230.49 335,-188 287.726,-172.405 262.89,-175.11 238,-132 215.528,-93.078 288.717,-76.676 333.248,-70.4239"/>
<polygon fill="midnightblue" stroke="midnightblue" points="333.877,-73.8717 343.341,-69.1096 332.973,-66.9303 333.877,-73.8717"/>
</g>
<!-- Node32&#45;&gt;Node7 -->
<g id="edge63" class="edge"><title>Node32&#45;&gt;Node7</title>
<path fill="none" stroke="midnightblue" d="M712.208,-224.368C674.938,-205.211 585.105,-159.036 540.713,-136.217"/>
<polygon fill="midnightblue" stroke="midnightblue" points="542.208,-133.05 531.714,-131.591 539.008,-139.276 542.208,-133.05"/>
</g>
<!-- Node32&#45;&gt;Node10 -->
<g id="edge62" class="edge"><title>Node32&#45;&gt;Node10</title>
<path fill="none" stroke="midnightblue" d="M761.642,-228.111C787.7,-222.593 823.459,-211.16 846,-188 858.122,-175.546 863.892,-156.311 866.616,-141.993"/>
<polygon fill="midnightblue" stroke="midnightblue" points="870.125,-142.208 868.211,-131.787 863.209,-141.127 870.125,-142.208"/>
</g>
<!-- Node32&#45;&gt;Node14 -->
<g id="edge65" class="edge"><title>Node32&#45;&gt;Node14</title>
<path fill="none" stroke="midnightblue" d="M761.575,-232.99C838.409,-232.319 1028.08,-226.682 1076,-188 1107.27,-162.758 1115.82,-113.075 1118.15,-85.883"/>
<polygon fill="midnightblue" stroke="midnightblue" points="1121.65,-85.95 1118.81,-75.743 1114.66,-85.4933 1121.65,-85.95"/>
</g>
<!-- Node33&#45;&gt;Node2 -->
<g id="edge71" class="edge"><title>Node33&#45;&gt;Node2</title>
<path fill="none" stroke="midnightblue" d="M969.083,-286.255C834.634,-276.59 399.541,-241.789 271,-188 211.448,-163.08 154.868,-109.708 128.883,-82.9637"/>
<polygon fill="midnightblue" stroke="midnightblue" points="131.269,-80.3945 121.831,-75.5797 126.207,-85.229 131.269,-80.3945"/>
</g>
<!-- Node33&#45;&gt;Node11 -->
<g id="edge69" class="edge"><title>Node33&#45;&gt;Node11</title>
<path fill="none" stroke="midnightblue" d="M1004.18,-280.297C985.927,-247.356 920.849,-129.898 895.865,-84.8052"/>
<polygon fill="midnightblue" stroke="midnightblue" points="898.83,-82.9346 890.922,-75.8837 892.707,-86.3272 898.83,-82.9346"/>
</g>
<!-- Node33&#45;&gt;Node13 -->
<g id="edge74" class="edge"><title>Node33&#45;&gt;Node13</title>
<path fill="none" stroke="midnightblue" d="M973.601,-280.466C903.557,-263.046 750.464,-222.154 709,-188 694.16,-175.776 684.109,-155.949 678.272,-141.403"/>
<polygon fill="midnightblue" stroke="midnightblue" points="681.517,-140.087 674.758,-131.928 674.954,-142.521 681.517,-140.087"/>
</g>
<!-- Node33&#45;&gt;Node14 -->
<g id="edge68" class="edge"><title>Node33&#45;&gt;Node14</title>
<path fill="none" stroke="midnightblue" d="M1019.91,-280.224C1045.77,-258.497 1109.71,-199.081 1124,-132 1127.28,-116.589 1125.52,-98.7165 1123.22,-85.6173"/>
<polygon fill="midnightblue" stroke="midnightblue" points="1126.59,-84.6261 1121.18,-75.5165 1119.73,-86.0114 1126.59,-84.6261"/>
</g>
<!-- Node33&#45;&gt;Node17 -->
<g id="edge72" class="edge"><title>Node33&#45;&gt;Node17</title>
<path fill="none" stroke="midnightblue" d="M1048.64,-283.276C1083.07,-277.131 1133.47,-265.252 1173,-244 1239.58,-208.203 1269.76,-200.837 1301,-132 1308.41,-115.662 1298.26,-96.8154 1288.17,-83.637"/>
<polygon fill="midnightblue" stroke="midnightblue" points="1290.81,-81.3392 1281.73,-75.8788 1285.42,-85.8093 1290.81,-81.3392"/>
</g>
<!-- Node33&#45;&gt;Node23 -->
<g id="edge70" class="edge"><title>Node33&#45;&gt;Node23</title>
<path fill="none" stroke="midnightblue" d="M1048.64,-286.309C1080.56,-282.087 1124.48,-271.326 1152,-244 1179.97,-216.227 1187.89,-168.324 1190.13,-141.888"/>
<polygon fill="midnightblue" stroke="midnightblue" points="1193.64,-141.904 1190.8,-131.697 1186.65,-141.448 1193.64,-141.904"/>
</g>
<!-- Node33&#45;&gt;Node32 -->
<g id="edge73" class="edge"><title>Node33&#45;&gt;Node32</title>
<path fill="none" stroke="midnightblue" d="M969.477,-281.378C917.219,-271.299 825.486,-253.608 771.689,-243.233"/>
<polygon fill="midnightblue" stroke="midnightblue" points="772.262,-239.779 761.78,-241.322 770.937,-246.652 772.262,-239.779"/>
</g>
</g>
</svg>
