<?xml version="1.0" encoding="UTF-8" standalone="no"?>
<!DOCTYPE svg PUBLIC "-//W3C//DTD SVG 1.1//EN"
 "http://www.w3.org/Graphics/SVG/1.1/DTD/svg11.dtd">
<!-- Generated by graphviz version 2.36.0 (20140111.2315)
 -->
<!-- Title: IPlugProcessor.cpp Pages: 1 -->
<svg width="421pt" height="84pt"
 viewBox="0.00 0.00 421.00 84.00" xmlns="http://www.w3.org/2000/svg" xmlns:xlink="http://www.w3.org/1999/xlink">
<g id="graph0" class="graph" transform="scale(1 1) rotate(0) translate(4 80)">
<title>IPlugProcessor.cpp</title>
<polygon fill="white" stroke="none" points="-4,4 -4,-80 417,-80 417,4 -4,4"/>
<!-- Node1 -->
<g id="node1" class="node"><title>Node1</title>
<polygon fill="#bfbfbf" stroke="black" points="124,-56.5 124,-75.5 226,-75.5 226,-56.5 124,-56.5"/>
<text text-anchor="middle" x="175" y="-63.5" font-family="Helvetica,sans-Serif" font-size="10.00">IPlugProcessor.cpp</text>
</g>
<!-- Node2 -->
<g id="node2" class="node"><title>Node2</title>
<polygon fill="white" stroke="#bfbfbf" points="0,-0.5 0,-19.5 44,-19.5 44,-0.5 0,-0.5"/>
<text text-anchor="middle" x="22" y="-7.5" font-family="Helvetica,sans-Serif" font-size="10.00">cmath</text>
</g>
<!-- Node1&#45;&gt;Node2 -->
<g id="edge1" class="edge"><title>Node1&#45;&gt;Node2</title>
<path fill="none" stroke="midnightblue" d="M150.757,-56.4435C124.526,-47.1858 82.5952,-32.3866 53.752,-22.2066"/>
<polygon fill="midnightblue" stroke="midnightblue" points="54.7376,-18.8429 44.1428,-18.8151 52.4078,-25.4438 54.7376,-18.8429"/>
</g>
<!-- Node3 -->
<g id="node3" class="node"><title>Node3</title>
<polygon fill="white" stroke="#bfbfbf" points="62.5,-0.5 62.5,-19.5 105.5,-19.5 105.5,-0.5 62.5,-0.5"/>
<text text-anchor="middle" x="84" y="-7.5" font-family="Helvetica,sans-Serif" font-size="10.00">cstdio</text>
</g>
<!-- Node1&#45;&gt;Node3 -->
<g id="edge2" class="edge"><title>Node1&#45;&gt;Node3</title>
<path fill="none" stroke="midnightblue" d="M160.379,-56.324C146.051,-47.8215 123.987,-34.7288 107.251,-24.7975"/>
<polygon fill="midnightblue" stroke="midnightblue" points="108.97,-21.7478 98.5844,-19.6545 105.398,-27.7677 108.97,-21.7478"/>
</g>
<!-- Node4 -->
<g id="node4" class="node"><title>Node4</title>
<polygon fill="white" stroke="#bfbfbf" points="123.5,-0.5 123.5,-19.5 164.5,-19.5 164.5,-0.5 123.5,-0.5"/>
<text text-anchor="middle" x="144" y="-7.5" font-family="Helvetica,sans-Serif" font-size="10.00">ctime</text>
</g>
<!-- Node1&#45;&gt;Node4 -->
<g id="edge3" class="edge"><title>Node1&#45;&gt;Node4</title>
<path fill="none" stroke="midnightblue" d="M169.881,-56.083C165.592,-48.6127 159.342,-37.7244 154.058,-28.5199"/>
<polygon fill="midnightblue" stroke="midnightblue" points="157.038,-26.6811 149.024,-19.7511 150.967,-30.1662 157.038,-26.6811"/>
</g>
<!-- Node5 -->
<g id="node5" class="node"><title>Node5</title>
<polygon fill="white" stroke="#bfbfbf" points="182.5,-0.5 182.5,-19.5 231.5,-19.5 231.5,-0.5 182.5,-0.5"/>
<text text-anchor="middle" x="207" y="-7.5" font-family="Helvetica,sans-Serif" font-size="10.00">cassert</text>
</g>
<!-- Node1&#45;&gt;Node5 -->
<g id="edge4" class="edge"><title>Node1&#45;&gt;Node5</title>
<path fill="none" stroke="midnightblue" d="M180.284,-56.083C184.711,-48.6127 191.163,-37.7244 196.618,-28.5199"/>
<polygon fill="midnightblue" stroke="midnightblue" points="199.727,-30.1383 201.814,-19.7511 193.705,-26.5697 199.727,-30.1383"/>
</g>
<!-- Node6 -->
<g id="node6" class="node"><title>Node6</title>
<polygon fill="white" stroke="#bfbfbf" points="250,-0.5 250,-19.5 318,-19.5 318,-0.5 250,-0.5"/>
<text text-anchor="middle" x="284" y="-7.5" font-family="Helvetica,sans-Serif" font-size="10.00">wdlendian.h</text>
</g>
<!-- Node1&#45;&gt;Node6 -->
<g id="edge5" class="edge"><title>Node1&#45;&gt;Node6</title>
<path fill="none" stroke="midnightblue" d="M192.513,-56.324C210.072,-47.6247 237.331,-34.1202 257.531,-24.113"/>
<polygon fill="midnightblue" stroke="midnightblue" points="259.124,-27.23 266.531,-19.6545 256.016,-20.9575 259.124,-27.23"/>
</g>
<!-- Node7 -->
<g id="node7" class="node"><title>Node7</title>
<polygon fill="white" stroke="#bfbfbf" points="336.5,-0.5 336.5,-19.5 413.5,-19.5 413.5,-0.5 336.5,-0.5"/>
<text text-anchor="middle" x="375" y="-7.5" font-family="Helvetica,sans-Serif" font-size="10.00">wdl_base64.h</text>
</g>
<!-- Node1&#45;&gt;Node7 -->
<g id="edge6" class="edge"><title>Node1&#45;&gt;Node7</title>
<path fill="none" stroke="midnightblue" d="M206.691,-56.4435C241.068,-47.1616 296.077,-32.3093 333.789,-22.127"/>
<polygon fill="midnightblue" stroke="midnightblue" points="334.716,-25.5022 343.458,-19.5164 332.891,-18.7442 334.716,-25.5022"/>
</g>
</g>
</svg>
