<?xml version="1.0" encoding="UTF-8" standalone="no"?>
<!DOCTYPE svg PUBLIC "-//W3C//DTD SVG 1.1//EN"
 "http://www.w3.org/Graphics/SVG/1.1/DTD/svg11.dtd">
<!-- Generated by graphviz version 2.36.0 (20140111.2315)
 -->
<!-- Title: IPlugEditorDelegate.h Pages: 1 -->
<svg width="4501pt" height="364pt"
 viewBox="0.00 0.00 4501.00 364.00" xmlns="http://www.w3.org/2000/svg" xmlns:xlink="http://www.w3.org/1999/xlink">
<g id="graph0" class="graph" transform="scale(1 1) rotate(0) translate(4 360)">
<title>IPlugEditorDelegate.h</title>
<polygon fill="white" stroke="none" points="-4,4 -4,-360 4497,-360 4497,4 -4,4"/>
<!-- Node1 -->
<g id="node1" class="node"><title>Node1</title>
<polygon fill="#bfbfbf" stroke="black" points="1053,-336.5 1053,-355.5 1165,-355.5 1165,-336.5 1053,-336.5"/>
<text text-anchor="middle" x="1109" y="-343.5" font-family="Helvetica,sans-Serif" font-size="10.00">IPlugEditorDelegate.h</text>
</g>
<!-- Node2 -->
<g id="node2" class="node"><title>Node2</title>
<g id="a_node2"><a xlink:href="_i_plug_delegate__select_8h.html" target="_top" xlink:title="Used for choosing an editor delegate. ">
<polygon fill="white" stroke="black" points="887,-280.5 887,-299.5 1005,-299.5 1005,-280.5 887,-280.5"/>
<text text-anchor="middle" x="946" y="-287.5" font-family="Helvetica,sans-Serif" font-size="10.00">IPlugDelegate_select.h</text>
</a>
</g>
</g>
<!-- Node1&#45;&gt;Node2 -->
<g id="edge1" class="edge"><title>Node1&#45;&gt;Node2</title>
<path fill="none" stroke="midnightblue" d="M1073.3,-333.172C1042.6,-323.004 999.081,-308.585 971.707,-299.516"/>
<polygon fill="midnightblue" stroke="midnightblue" points="1072.58,-336.621 1083.17,-336.444 1074.78,-329.976 1072.58,-336.621"/>
</g>
<!-- Node18 -->
<g id="node18" class="node"><title>Node18</title>
<g id="a_node18"><a xlink:href="_i_graphics_editor_delegate_8h.html" target="_top" xlink:title="An editor delgate base class for a SOMETHING that uses IGraphics for it&#39;s UI. ">
<polygon fill="white" stroke="black" points="1207.5,-280.5 1207.5,-299.5 1338.5,-299.5 1338.5,-280.5 1207.5,-280.5"/>
<text text-anchor="middle" x="1273" y="-287.5" font-family="Helvetica,sans-Serif" font-size="10.00">IGraphicsEditorDelegate.h</text>
</a>
</g>
</g>
<!-- Node1&#45;&gt;Node18 -->
<g id="edge18" class="edge"><title>Node1&#45;&gt;Node18</title>
<path fill="none" stroke="midnightblue" d="M1144.52,-333.304C1175.42,-323.129 1219.47,-308.625 1247.14,-299.516"/>
<polygon fill="midnightblue" stroke="midnightblue" points="1143.39,-329.992 1134.99,-336.444 1145.58,-336.64 1143.39,-329.992"/>
</g>
<!-- Node3 -->
<g id="node3" class="node"><title>Node3</title>
<g id="a_node3"><a xlink:href="_i_plug_plugin_base_8h.html" target="_top" xlink:title="Base class that contains plug&#45;in info and state manipulation methods. ">
<polygon fill="white" stroke="black" points="656.5,-224.5 656.5,-243.5 753.5,-243.5 753.5,-224.5 656.5,-224.5"/>
<text text-anchor="middle" x="705" y="-231.5" font-family="Helvetica,sans-Serif" font-size="10.00">IPlugPluginBase.h</text>
</a>
</g>
</g>
<!-- Node2&#45;&gt;Node3 -->
<g id="edge2" class="edge"><title>Node2&#45;&gt;Node3</title>
<path fill="none" stroke="midnightblue" d="M897.877,-278.217C852.338,-268.013 784.89,-252.901 743.009,-243.516"/>
<polygon fill="midnightblue" stroke="midnightblue" points="897.29,-281.672 907.813,-280.444 898.82,-274.842 897.29,-281.672"/>
</g>
<!-- Node4 -->
<g id="node4" class="node"><title>Node4</title>
<g id="a_node4"><a xlink:href="_i_plug_a_p_i_base_8h.html" target="_top" xlink:title="The base class of an IPlug plug&#45;in, which interacts with the different plug&#45;in APIs. ">
<polygon fill="white" stroke="black" points="662,-168.5 662,-187.5 748,-187.5 748,-168.5 662,-168.5"/>
<text text-anchor="middle" x="705" y="-175.5" font-family="Helvetica,sans-Serif" font-size="10.00">IPlugAPIBase.h</text>
</a>
</g>
</g>
<!-- Node3&#45;&gt;Node4 -->
<g id="edge3" class="edge"><title>Node3&#45;&gt;Node4</title>
<path fill="none" stroke="midnightblue" d="M705,-213.805C705,-204.91 705,-194.78 705,-187.751"/>
<polygon fill="midnightblue" stroke="midnightblue" points="701.5,-214.083 705,-224.083 708.5,-214.083 701.5,-214.083"/>
</g>
<!-- Node10 -->
<g id="node10" class="node"><title>Node10</title>
<g id="a_node10"><a xlink:href="_i_plug_v_s_t2_8cpp_source.html" target="_top" xlink:title="IPlugVST2.cpp">
<polygon fill="white" stroke="black" points="578.5,-56.5 578.5,-75.5 661.5,-75.5 661.5,-56.5 578.5,-56.5"/>
<text text-anchor="middle" x="620" y="-63.5" font-family="Helvetica,sans-Serif" font-size="10.00">IPlugVST2.cpp</text>
</a>
</g>
</g>
<!-- Node3&#45;&gt;Node10 -->
<g id="edge16" class="edge"><title>Node3&#45;&gt;Node10</title>
<path fill="none" stroke="midnightblue" d="M646.061,-231.328C517.056,-226.3 216.211,-206.651 154,-132 148.309,-125.171 148.024,-118.581 154,-112 182.277,-80.8611 469.507,-70.6576 578.426,-67.8923"/>
<polygon fill="midnightblue" stroke="midnightblue" points="646.032,-234.83 656.156,-231.706 646.294,-227.835 646.032,-234.83"/>
</g>
<!-- Node16 -->
<g id="node16" class="node"><title>Node16</title>
<g id="a_node16"><a xlink:href="_i_plug_plugin_base_8cpp.html" target="_top" xlink:title="IPluginBase implementation. ">
<polygon fill="white" stroke="black" points="-0.5,-168.5 -0.5,-187.5 106.5,-187.5 106.5,-168.5 -0.5,-168.5"/>
<text text-anchor="middle" x="53" y="-175.5" font-family="Helvetica,sans-Serif" font-size="10.00">IPlugPluginBase.cpp</text>
</a>
</g>
</g>
<!-- Node3&#45;&gt;Node16 -->
<g id="edge15" class="edge"><title>Node3&#45;&gt;Node16</title>
<path fill="none" stroke="midnightblue" d="M646.355,-229.546C541.014,-223.104 312.841,-208.071 121,-188 116.381,-187.517 111.591,-186.972 106.79,-186.395"/>
<polygon fill="midnightblue" stroke="midnightblue" points="646.27,-233.047 656.464,-230.161 646.695,-226.06 646.27,-233.047"/>
</g>
<!-- Node17 -->
<g id="node17" class="node"><title>Node17</title>
<g id="a_node17"><a xlink:href="_i_graphics_8cpp_source.html" target="_top" xlink:title="IGraphics.cpp">
<polygon fill="white" stroke="black" points="3556.5,-0.5 3556.5,-19.5 3633.5,-19.5 3633.5,-0.5 3556.5,-0.5"/>
<text text-anchor="middle" x="3595" y="-7.5" font-family="Helvetica,sans-Serif" font-size="10.00">IGraphics.cpp</text>
</a>
</g>
</g>
<!-- Node3&#45;&gt;Node17 -->
<g id="edge17" class="edge"><title>Node3&#45;&gt;Node17</title>
<path fill="none" stroke="midnightblue" d="M763.799,-224.873C851.103,-211.685 1019.29,-181.942 1155,-132 1172.91,-125.409 1174.87,-117.959 1193,-112 1350.58,-60.2071 1396.74,-70.3093 1562,-56 1970.44,-20.6346 3311.07,-12.4004 3556.3,-11.1769"/>
<polygon fill="midnightblue" stroke="midnightblue" points="763.191,-221.425 753.817,-226.362 764.224,-228.349 763.191,-221.425"/>
</g>
<!-- Node5 -->
<g id="node5" class="node"><title>Node5</title>
<g id="a_node5"><a xlink:href="_i_plug_a_a_x_8h.html" target="_top" xlink:title="AAX API base class for an IPlug plug&#45;in. ">
<polygon fill="white" stroke="red" points="902,-112.5 902,-131.5 970,-131.5 970,-112.5 902,-112.5"/>
<text text-anchor="middle" x="936" y="-119.5" font-family="Helvetica,sans-Serif" font-size="10.00">IPlugAAX.h</text>
</a>
</g>
</g>
<!-- Node4&#45;&gt;Node5 -->
<g id="edge4" class="edge"><title>Node4&#45;&gt;Node5</title>
<path fill="none" stroke="midnightblue" d="M751.582,-166.111C796.056,-155.714 862.023,-140.293 901.828,-130.988"/>
<polygon fill="midnightblue" stroke="midnightblue" points="750.543,-162.759 741.603,-168.444 752.137,-169.575 750.543,-162.759"/>
</g>
<!-- Node6 -->
<g id="node6" class="node"><title>Node6</title>
<g id="a_node6"><a xlink:href="_i_plug_a_p_p_8h.html" target="_top" xlink:title="Standalone application base class for an IPlug plug&#45;in. ">
<polygon fill="white" stroke="red" points="988,-112.5 988,-131.5 1056,-131.5 1056,-112.5 988,-112.5"/>
<text text-anchor="middle" x="1022" y="-119.5" font-family="Helvetica,sans-Serif" font-size="10.00">IPlugAPP.h</text>
</a>
</g>
</g>
<!-- Node4&#45;&gt;Node6 -->
<g id="edge5" class="edge"><title>Node4&#45;&gt;Node6</title>
<path fill="none" stroke="midnightblue" d="M758.209,-168.964C813.504,-160.448 902.491,-146.282 979,-132 981.849,-131.468 984.8,-130.896 987.759,-130.307"/>
<polygon fill="midnightblue" stroke="midnightblue" points="757.64,-165.51 748.287,-170.487 758.702,-172.429 757.64,-165.51"/>
</g>
<!-- Node7 -->
<g id="node7" class="node"><title>Node7</title>
<g id="a_node7"><a xlink:href="_i_plug_a_u_8h.html" target="_top" xlink:title="AudioUnit v2 API base class for an IPlug plug&#45;in. ">
<polygon fill="white" stroke="red" points="163,-112.5 163,-131.5 225,-131.5 225,-112.5 163,-112.5"/>
<text text-anchor="middle" x="194" y="-119.5" font-family="Helvetica,sans-Serif" font-size="10.00">IPlugAU.h</text>
</a>
</g>
</g>
<!-- Node4&#45;&gt;Node7 -->
<g id="edge6" class="edge"><title>Node4&#45;&gt;Node7</title>
<path fill="none" stroke="midnightblue" d="M651.564,-174.205C563.767,-169.098 383.692,-156.462 233,-132 230.394,-131.577 227.702,-131.081 225.007,-130.544"/>
<polygon fill="midnightblue" stroke="midnightblue" points="651.621,-177.714 661.805,-174.79 652.021,-170.725 651.621,-177.714"/>
</g>
<!-- Node8 -->
<g id="node8" class="node"><title>Node8</title>
<g id="a_node8"><a xlink:href="_i_plug_a_p_i_base_8cpp.html" target="_top" xlink:title="IPlugAPIBase implementation. ">
<polygon fill="white" stroke="black" points="242.5,-112.5 242.5,-131.5 339.5,-131.5 339.5,-112.5 242.5,-112.5"/>
<text text-anchor="middle" x="291" y="-119.5" font-family="Helvetica,sans-Serif" font-size="10.00">IPlugAPIBase.cpp</text>
</a>
</g>
</g>
<!-- Node4&#45;&gt;Node8 -->
<g id="edge7" class="edge"><title>Node4&#45;&gt;Node8</title>
<path fill="none" stroke="midnightblue" d="M651.653,-170.733C581.977,-162.438 456.232,-147.094 349,-132 345.973,-131.574 342.859,-131.124 339.719,-130.662"/>
<polygon fill="midnightblue" stroke="midnightblue" points="651.587,-174.249 661.93,-171.953 652.413,-167.298 651.587,-174.249"/>
</g>
<!-- Node9 -->
<g id="node9" class="node"><title>Node9</title>
<g id="a_node9"><a xlink:href="_i_plug_v_s_t2_8h.html" target="_top" xlink:title="IPlugVST2.h">
<polygon fill="white" stroke="red" points="1074,-112.5 1074,-131.5 1146,-131.5 1146,-112.5 1074,-112.5"/>
<text text-anchor="middle" x="1110" y="-119.5" font-family="Helvetica,sans-Serif" font-size="10.00">IPlugVST2.h</text>
</a>
</g>
</g>
<!-- Node4&#45;&gt;Node9 -->
<g id="edge8" class="edge"><title>Node4&#45;&gt;Node9</title>
<path fill="none" stroke="midnightblue" d="M758.047,-171.595C828.418,-164.145 956.408,-149.622 1065,-132 1067.83,-131.541 1070.76,-131.032 1073.69,-130.498"/>
<polygon fill="midnightblue" stroke="midnightblue" points="757.671,-168.115 748.092,-172.642 758.403,-175.077 757.671,-168.115"/>
</g>
<!-- Node11 -->
<g id="node11" class="node"><title>Node11</title>
<g id="a_node11"><a xlink:href="_i_plug_v_s_t3_8h.html" target="_top" xlink:title="VST3 base class for a non&#45;distributed IPlug VST3 plug&#45;in. ">
<polygon fill="white" stroke="red" points="358,-112.5 358,-131.5 430,-131.5 430,-112.5 358,-112.5"/>
<text text-anchor="middle" x="394" y="-119.5" font-family="Helvetica,sans-Serif" font-size="10.00">IPlugVST3.h</text>
</a>
</g>
</g>
<!-- Node4&#45;&gt;Node11 -->
<g id="edge10" class="edge"><title>Node4&#45;&gt;Node11</title>
<path fill="none" stroke="midnightblue" d="M651.63,-168.451C597.864,-159.726 512.559,-145.575 439,-132 436.179,-131.479 433.262,-130.927 430.331,-130.363"/>
<polygon fill="midnightblue" stroke="midnightblue" points="651.19,-171.925 661.621,-170.069 652.309,-165.015 651.19,-171.925"/>
</g>
<!-- Node12 -->
<g id="node12" class="node"><title>Node12</title>
<g id="a_node12"><a xlink:href="_i_plug_v_s_t3___controller_8h.html" target="_top" xlink:title="VST3 Controller base class for a distributed IPlug VST3 plug&#45;in. ">
<polygon fill="white" stroke="red" points="448.5,-112.5 448.5,-131.5 567.5,-131.5 567.5,-112.5 448.5,-112.5"/>
<text text-anchor="middle" x="508" y="-119.5" font-family="Helvetica,sans-Serif" font-size="10.00">IPlugVST3_Controller.h</text>
</a>
</g>
</g>
<!-- Node4&#45;&gt;Node12 -->
<g id="edge11" class="edge"><title>Node4&#45;&gt;Node12</title>
<path fill="none" stroke="midnightblue" d="M663.771,-165.699C626.591,-155.507 572.729,-140.743 539.069,-131.516"/>
<polygon fill="midnightblue" stroke="midnightblue" points="663.215,-169.175 673.785,-168.444 665.066,-162.424 663.215,-169.175"/>
</g>
<!-- Node13 -->
<g id="node13" class="node"><title>Node13</title>
<g id="a_node13"><a xlink:href="_i_plug_v_s_t3___processor_8h.html" target="_top" xlink:title="VST3 Processor base class for a distributed IPlug VST3 plug&#45;in. ">
<polygon fill="white" stroke="red" points="586,-112.5 586,-131.5 708,-131.5 708,-112.5 586,-112.5"/>
<text text-anchor="middle" x="647" y="-119.5" font-family="Helvetica,sans-Serif" font-size="10.00">IPlugVST3_Processor.h</text>
</a>
</g>
</g>
<!-- Node4&#45;&gt;Node13 -->
<g id="edge12" class="edge"><title>Node4&#45;&gt;Node13</title>
<path fill="none" stroke="midnightblue" d="M688.087,-161.253C677.797,-151.673 665.034,-139.791 656.488,-131.834"/>
<polygon fill="midnightblue" stroke="midnightblue" points="685.977,-164.071 695.681,-168.324 690.747,-158.948 685.977,-164.071"/>
</g>
<!-- Node14 -->
<g id="node14" class="node"><title>Node14</title>
<g id="a_node14"><a xlink:href="_i_plug_w_a_m_8h_source.html" target="_top" xlink:title="IPlugWAM.h">
<polygon fill="white" stroke="red" points="726,-112.5 726,-131.5 798,-131.5 798,-112.5 726,-112.5"/>
<text text-anchor="middle" x="762" y="-119.5" font-family="Helvetica,sans-Serif" font-size="10.00">IPlugWAM.h</text>
</a>
</g>
</g>
<!-- Node4&#45;&gt;Node14 -->
<g id="edge13" class="edge"><title>Node4&#45;&gt;Node14</title>
<path fill="none" stroke="midnightblue" d="M721.621,-161.253C731.734,-151.673 744.277,-139.791 752.675,-131.834"/>
<polygon fill="midnightblue" stroke="midnightblue" points="719.01,-158.906 714.158,-168.324 723.825,-163.987 719.01,-158.906"/>
</g>
<!-- Node15 -->
<g id="node15" class="node"><title>Node15</title>
<g id="a_node15"><a xlink:href="_i_plug_web_8h_source.html" target="_top" xlink:title="IPlugWeb.h">
<polygon fill="white" stroke="red" points="816,-112.5 816,-131.5 884,-131.5 884,-112.5 816,-112.5"/>
<text text-anchor="middle" x="850" y="-119.5" font-family="Helvetica,sans-Serif" font-size="10.00">IPlugWeb.h</text>
</a>
</g>
</g>
<!-- Node4&#45;&gt;Node15 -->
<g id="edge14" class="edge"><title>Node4&#45;&gt;Node15</title>
<path fill="none" stroke="midnightblue" d="M737.475,-164.906C764.736,-154.754 802.992,-140.506 827.132,-131.516"/>
<polygon fill="midnightblue" stroke="midnightblue" points="736.125,-161.674 727.976,-168.444 738.568,-168.233 736.125,-161.674"/>
</g>
<!-- Node9&#45;&gt;Node10 -->
<g id="edge9" class="edge"><title>Node9&#45;&gt;Node10</title>
<path fill="none" stroke="midnightblue" d="M1063.6,-111.92C909.818,-89.2176 738.814,-75.4549 661.579,-69.8566"/>
<polygon fill="midnightblue" stroke="midnightblue" points="1063.3,-115.413 1073.7,-113.428 1064.33,-108.49 1063.3,-115.413"/>
</g>
<!-- Node19 -->
<g id="node19" class="node"><title>Node19</title>
<g id="a_node19"><a xlink:href="_i_graphics_8h.html" target="_top" xlink:title="The lowest level base class of an IGraphics context. ">
<polygon fill="white" stroke="black" points="3266.5,-224.5 3266.5,-243.5 3333.5,-243.5 3333.5,-224.5 3266.5,-224.5"/>
<text text-anchor="middle" x="3300" y="-231.5" font-family="Helvetica,sans-Serif" font-size="10.00">IGraphics.h</text>
</a>
</g>
</g>
<!-- Node18&#45;&gt;Node19 -->
<g id="edge19" class="edge"><title>Node18&#45;&gt;Node19</title>
<path fill="none" stroke="midnightblue" d="M1348.84,-286.98C1685.22,-278.018 3035.94,-242.035 3266.46,-235.894"/>
<polygon fill="midnightblue" stroke="midnightblue" points="1348.62,-283.484 1338.72,-287.249 1348.81,-290.482 1348.62,-283.484"/>
</g>
<!-- Node49 -->
<g id="node49" class="node"><title>Node49</title>
<g id="a_node49"><a xlink:href="_i_graphics_editor_delegate_8cpp_source.html" target="_top" xlink:title="IGraphicsEditorDelegate.cpp">
<polygon fill="white" stroke="black" points="1202,-112.5 1202,-131.5 1344,-131.5 1344,-112.5 1202,-112.5"/>
<text text-anchor="middle" x="1273" y="-119.5" font-family="Helvetica,sans-Serif" font-size="10.00">IGraphicsEditorDelegate.cpp</text>
</a>
</g>
</g>
<!-- Node18&#45;&gt;Node49 -->
<g id="edge65" class="edge"><title>Node18&#45;&gt;Node49</title>
<path fill="none" stroke="midnightblue" d="M1273,-269.93C1273,-233.92 1273,-157.231 1273,-131.568"/>
<polygon fill="midnightblue" stroke="midnightblue" points="1269.5,-270.075 1273,-280.075 1276.5,-270.075 1269.5,-270.075"/>
</g>
<!-- Node19&#45;&gt;Node17 -->
<g id="edge62" class="edge"><title>Node19&#45;&gt;Node17</title>
<path fill="none" stroke="midnightblue" d="M3343.75,-232.026C3529.82,-227.442 4248.83,-205.078 4315,-132 4409.65,-27.4689 3795.88,-13.2382 3633.62,-11.3038"/>
<polygon fill="midnightblue" stroke="midnightblue" points="3343.44,-228.533 3333.53,-232.273 3343.61,-235.531 3343.44,-228.533"/>
</g>
<!-- Node20 -->
<g id="node20" class="node"><title>Node20</title>
<g id="a_node20"><a xlink:href="_i_graphics_lice_8h_source.html" target="_top" xlink:title="IGraphicsLice.h">
<polygon fill="white" stroke="black" points="3615.5,-168.5 3615.5,-187.5 3700.5,-187.5 3700.5,-168.5 3615.5,-168.5"/>
<text text-anchor="middle" x="3658" y="-175.5" font-family="Helvetica,sans-Serif" font-size="10.00">IGraphicsLice.h</text>
</a>
</g>
</g>
<!-- Node19&#45;&gt;Node20 -->
<g id="edge20" class="edge"><title>Node19&#45;&gt;Node20</title>
<path fill="none" stroke="midnightblue" d="M3343.81,-226.391C3413.04,-215.949 3546.87,-195.762 3615.36,-185.432"/>
<polygon fill="midnightblue" stroke="midnightblue" points="3343.05,-222.967 3333.68,-227.92 3344.09,-229.889 3343.05,-222.967"/>
</g>
<!-- Node22 -->
<g id="node22" class="node"><title>Node22</title>
<g id="a_node22"><a xlink:href="_i_control_8h.html" target="_top" xlink:title="This file contains the base IControl implementation, along with some base classes for specific types ...">
<polygon fill="white" stroke="red" points="2912.5,-168.5 2912.5,-187.5 2971.5,-187.5 2971.5,-168.5 2912.5,-168.5"/>
<text text-anchor="middle" x="2942" y="-175.5" font-family="Helvetica,sans-Serif" font-size="10.00">IControl.h</text>
</a>
</g>
</g>
<!-- Node19&#45;&gt;Node22 -->
<g id="edge22" class="edge"><title>Node19&#45;&gt;Node22</title>
<path fill="none" stroke="midnightblue" d="M3256.41,-226.426C3182.62,-215.294 3034.94,-193.019 2971.77,-183.491"/>
<polygon fill="midnightblue" stroke="midnightblue" points="3255.91,-229.889 3266.32,-227.92 3256.95,-222.967 3255.91,-229.889"/>
</g>
<!-- Node19&#45;&gt;Node49 -->
<g id="edge63" class="edge"><title>Node19&#45;&gt;Node49</title>
<path fill="none" stroke="midnightblue" d="M3256.38,-231.596C3046.22,-224.653 2117.17,-191.89 1358,-132 1353.56,-131.65 1349,-131.258 1344.4,-130.84"/>
<polygon fill="midnightblue" stroke="midnightblue" points="3256.29,-235.095 3266.4,-231.926 3256.52,-228.099 3256.29,-235.095"/>
</g>
<!-- Node50 -->
<g id="node50" class="node"><title>Node50</title>
<g id="a_node50"><a xlink:href="_i_graphics_path_base_8h.html" target="_top" xlink:title="A base class to share implementations of IGraphics.h functionality across different path based graphi...">
<polygon fill="white" stroke="red" points="4383,-168.5 4383,-187.5 4493,-187.5 4493,-168.5 4383,-168.5"/>
<text text-anchor="middle" x="4438" y="-175.5" font-family="Helvetica,sans-Serif" font-size="10.00">IGraphicsPathBase.h</text>
</a>
</g>
</g>
<!-- Node19&#45;&gt;Node50 -->
<g id="edge64" class="edge"><title>Node19&#45;&gt;Node50</title>
<path fill="none" stroke="midnightblue" d="M3344.11,-232.527C3490.31,-230.665 3972.24,-222.161 4369,-188 4373.45,-187.617 4378.06,-187.156 4382.68,-186.649"/>
<polygon fill="midnightblue" stroke="midnightblue" points="3343.73,-229.032 3333.77,-232.655 3343.81,-236.031 3343.73,-229.032"/>
</g>
<!-- Node21 -->
<g id="node21" class="node"><title>Node21</title>
<g id="a_node21"><a xlink:href="_i_graphics_lice_8cpp_source.html" target="_top" xlink:title="IGraphicsLice.cpp">
<polygon fill="white" stroke="black" points="4068.5,-56.5 4068.5,-75.5 4163.5,-75.5 4163.5,-56.5 4068.5,-56.5"/>
<text text-anchor="middle" x="4116" y="-63.5" font-family="Helvetica,sans-Serif" font-size="10.00">IGraphicsLice.cpp</text>
</a>
</g>
</g>
<!-- Node20&#45;&gt;Node21 -->
<g id="edge21" class="edge"><title>Node20&#45;&gt;Node21</title>
<path fill="none" stroke="midnightblue" d="M3710.73,-177.305C3856.61,-177.601 4257.38,-174.504 4297,-132 4338.32,-87.6698 4230.07,-73.5256 4163.56,-69.0476"/>
<polygon fill="midnightblue" stroke="midnightblue" points="3710.69,-173.805 3700.68,-177.278 3710.67,-180.805 3710.69,-173.805"/>
</g>
<!-- Node22&#45;&gt;Node17 -->
<g id="edge60" class="edge"><title>Node22&#45;&gt;Node17</title>
<path fill="none" stroke="midnightblue" d="M2902.26,-176.605C2662.5,-174.127 1418.14,-159.935 1391,-132 1384.81,-125.624 1384.86,-118.428 1391,-112 1468.89,-30.4638 3268.62,-13.4696 3556.36,-11.2707"/>
<polygon fill="midnightblue" stroke="midnightblue" points="2902.25,-180.104 2912.28,-176.707 2902.32,-173.105 2902.25,-180.104"/>
</g>
<!-- Node23 -->
<g id="node23" class="node"><title>Node23</title>
<g id="a_node23"><a xlink:href="_i_color_picker_control_8h.html" target="_top" xlink:title="A control for choosing a color. ">
<polygon fill="white" stroke="black" points="3415,-112.5 3415,-131.5 3525,-131.5 3525,-112.5 3415,-112.5"/>
<text text-anchor="middle" x="3470" y="-119.5" font-family="Helvetica,sans-Serif" font-size="10.00">IColorPickerControl.h</text>
</a>
</g>
</g>
<!-- Node22&#45;&gt;Node23 -->
<g id="edge23" class="edge"><title>Node22&#45;&gt;Node23</title>
<path fill="none" stroke="midnightblue" d="M2981.7,-173.69C3061.83,-166.887 3248.6,-150.42 3405,-132 3408.17,-131.627 3411.42,-131.228 3414.7,-130.813"/>
<polygon fill="midnightblue" stroke="midnightblue" points="2981.24,-170.217 2971.57,-174.547 2981.83,-177.192 2981.24,-170.217"/>
</g>
<!-- Node24 -->
<g id="node24" class="node"><title>Node24</title>
<g id="a_node24"><a xlink:href="_i_controls_8h.html" target="_top" xlink:title="A collection of IControls for common UI widgets, such as knobs, sliders, switches. ">
<polygon fill="white" stroke="red" points="3383.5,-56.5 3383.5,-75.5 3448.5,-75.5 3448.5,-56.5 3383.5,-56.5"/>
<text text-anchor="middle" x="3416" y="-63.5" font-family="Helvetica,sans-Serif" font-size="10.00">IControls.h</text>
</a>
</g>
</g>
<!-- Node22&#45;&gt;Node24 -->
<g id="edge26" class="edge"><title>Node22&#45;&gt;Node24</title>
<path fill="none" stroke="midnightblue" d="M2981.58,-177.029C3108.07,-176.716 3496.52,-172.441 3534,-132 3540.04,-125.481 3539.04,-119.32 3534,-112 3523.99,-97.4653 3479.9,-83.414 3448.55,-74.9869"/>
<polygon fill="midnightblue" stroke="midnightblue" points="2981.54,-173.529 2971.54,-177.047 2981.55,-180.529 2981.54,-173.529"/>
</g>
<!-- Node25 -->
<g id="node25" class="node"><title>Node25</title>
<g id="a_node25"><a xlink:href="_i_v_keyboard_control_8h.html" target="_top" xlink:title="Vectorial keyboard control. ">
<polygon fill="white" stroke="black" points="3581.5,-112.5 3581.5,-131.5 3688.5,-131.5 3688.5,-112.5 3581.5,-112.5"/>
<text text-anchor="middle" x="3635" y="-119.5" font-family="Helvetica,sans-Serif" font-size="10.00">IVKeyboardControl.h</text>
</a>
</g>
</g>
<!-- Node22&#45;&gt;Node25 -->
<g id="edge27" class="edge"><title>Node22&#45;&gt;Node25</title>
<path fill="none" stroke="midnightblue" d="M2981.82,-174.96C3080.89,-169.705 3346.41,-154.519 3567,-132 3571.62,-131.528 3576.41,-130.992 3581.21,-130.42"/>
<polygon fill="midnightblue" stroke="midnightblue" points="2981.46,-171.474 2971.66,-175.495 2981.83,-178.464 2981.46,-171.474"/>
</g>
<!-- Node26 -->
<g id="node26" class="node"><title>Node26</title>
<g id="a_node26"><a xlink:href="_i_v_meter_control_8h.html" target="_top" xlink:title="Vectorial multichannel capable meter control. ">
<polygon fill="white" stroke="black" points="1400.5,-112.5 1400.5,-131.5 1491.5,-131.5 1491.5,-112.5 1400.5,-112.5"/>
<text text-anchor="middle" x="1446" y="-119.5" font-family="Helvetica,sans-Serif" font-size="10.00">IVMeterControl.h</text>
</a>
</g>
</g>
<!-- Node22&#45;&gt;Node26 -->
<g id="edge29" class="edge"><title>Node22&#45;&gt;Node26</title>
<path fill="none" stroke="midnightblue" d="M2902.1,-176.461C2699.57,-173.62 1783.99,-159.453 1501,-132 1497.92,-131.701 1494.75,-131.336 1491.56,-130.927"/>
<polygon fill="midnightblue" stroke="midnightblue" points="2902.23,-179.963 2912.27,-176.603 2902.32,-172.964 2902.23,-179.963"/>
</g>
<!-- Node27 -->
<g id="node27" class="node"><title>Node27</title>
<g id="a_node27"><a xlink:href="_i_v_scope_control_8h.html" target="_top" xlink:title="Vectorial multichannel capable oscilloscope control. ">
<polygon fill="white" stroke="black" points="1510,-112.5 1510,-131.5 1604,-131.5 1604,-112.5 1510,-112.5"/>
<text text-anchor="middle" x="1557" y="-119.5" font-family="Helvetica,sans-Serif" font-size="10.00">IVScopeControl.h</text>
</a>
</g>
</g>
<!-- Node22&#45;&gt;Node27 -->
<g id="edge31" class="edge"><title>Node22&#45;&gt;Node27</title>
<path fill="none" stroke="midnightblue" d="M2902.17,-176.327C2709.46,-172.965 1872.63,-157.159 1613,-132 1610.16,-131.725 1607.24,-131.396 1604.3,-131.03"/>
<polygon fill="midnightblue" stroke="midnightblue" points="2902.34,-179.83 2912.4,-176.504 2902.46,-172.831 2902.34,-179.83"/>
</g>
<!-- Node28 -->
<g id="node28" class="node"><title>Node28</title>
<g id="a_node28"><a xlink:href="_i_v_multi_slider_control_8h.html" target="_top" xlink:title="A vectorial multi&#45;slider control. ">
<polygon fill="white" stroke="black" points="3285,-112.5 3285,-131.5 3397,-131.5 3397,-112.5 3285,-112.5"/>
<text text-anchor="middle" x="3341" y="-119.5" font-family="Helvetica,sans-Serif" font-size="10.00">IVMultiSliderControl.h</text>
</a>
</g>
</g>
<!-- Node22&#45;&gt;Node28 -->
<g id="edge33" class="edge"><title>Node22&#45;&gt;Node28</title>
<path fill="none" stroke="midnightblue" d="M2982.07,-171.601C3044.62,-163.17 3169.26,-146.354 3275,-132 3278.21,-131.564 3281.5,-131.116 3284.83,-130.664"/>
<polygon fill="midnightblue" stroke="midnightblue" points="2981.29,-168.174 2971.85,-172.978 2982.23,-175.111 2981.29,-168.174"/>
</g>
<!-- Node29 -->
<g id="node29" class="node"><title>Node29</title>
<g id="a_node29"><a xlink:href="_i_corner_resizer_control_8h.html" target="_top" xlink:title="A control for resizing the plug&#45;in window by clicking and dragging in the bottom right&#45;hand corner Th...">
<polygon fill="white" stroke="black" points="3467,-56.5 3467,-75.5 3589,-75.5 3589,-56.5 3467,-56.5"/>
<text text-anchor="middle" x="3528" y="-63.5" font-family="Helvetica,sans-Serif" font-size="10.00">ICornerResizerControl.h</text>
</a>
</g>
</g>
<!-- Node22&#45;&gt;Node29 -->
<g id="edge35" class="edge"><title>Node22&#45;&gt;Node29</title>
<path fill="none" stroke="midnightblue" d="M2982.2,-176.115C3134.99,-172.558 3672.3,-158.22 3697,-132 3703.1,-125.53 3702.42,-119.048 3697,-112 3683.68,-94.6669 3631.87,-82.5952 3589.09,-75.3502"/>
<polygon fill="midnightblue" stroke="midnightblue" points="2981.79,-172.623 2971.87,-176.352 2981.95,-179.621 2981.79,-172.623"/>
</g>
<!-- Node30 -->
<g id="node30" class="node"><title>Node30</title>
<g id="a_node30"><a xlink:href="_i_f_p_s_display_control_8h.html" target="_top" xlink:title="Performance display meter, based on code from NanoVG This is a special control that lives outside the...">
<polygon fill="white" stroke="black" points="3607,-56.5 3607,-75.5 3719,-75.5 3719,-56.5 3607,-56.5"/>
<text text-anchor="middle" x="3663" y="-63.5" font-family="Helvetica,sans-Serif" font-size="10.00">IFPSDisplayControl.h</text>
</a>
</g>
</g>
<!-- Node22&#45;&gt;Node30 -->
<g id="edge37" class="edge"><title>Node22&#45;&gt;Node30</title>
<path fill="none" stroke="midnightblue" d="M2982.06,-176.172C3136.88,-172.783 3688.67,-158.852 3714,-132 3731.82,-113.115 3698.94,-88.4418 3678.15,-75.6054"/>
<polygon fill="midnightblue" stroke="midnightblue" points="2981.54,-172.683 2971.62,-176.398 2981.69,-179.681 2981.54,-172.683"/>
</g>
<!-- Node31 -->
<g id="node31" class="node"><title>Node31</title>
<g id="a_node31"><a xlink:href="_i_popup_menu_control_8h.html" target="_top" xlink:title="A base control for a pop&#45;up menu/drop&#45;down list that stays within the bounds of the IGraphics context...">
<polygon fill="white" stroke="red" points="3737.5,-56.5 3737.5,-75.5 3848.5,-75.5 3848.5,-56.5 3737.5,-56.5"/>
<text text-anchor="middle" x="3793" y="-63.5" font-family="Helvetica,sans-Serif" font-size="10.00">IPopupMenuControl.h</text>
</a>
</g>
</g>
<!-- Node22&#45;&gt;Node31 -->
<g id="edge39" class="edge"><title>Node22&#45;&gt;Node31</title>
<path fill="none" stroke="midnightblue" d="M2981.91,-176.435C3132.73,-174.066 3662.74,-163.553 3731,-132 3757.61,-119.698 3778.58,-90.4097 3787.83,-75.7182"/>
<polygon fill="midnightblue" stroke="midnightblue" points="2981.67,-172.938 2971.72,-176.591 2981.78,-179.937 2981.67,-172.938"/>
</g>
<!-- Node32 -->
<g id="node32" class="node"><title>Node32</title>
<g id="a_node32"><a xlink:href="_i_text_entry_control_8h.html" target="_top" xlink:title="A Text entry widget drawn by IGraphics to optionally override platform text entries. ">
<polygon fill="white" stroke="red" points="3821,-112.5 3821,-131.5 3923,-131.5 3923,-112.5 3821,-112.5"/>
<text text-anchor="middle" x="3872" y="-119.5" font-family="Helvetica,sans-Serif" font-size="10.00">ITextEntryControl.h</text>
</a>
</g>
</g>
<!-- Node22&#45;&gt;Node32 -->
<g id="edge41" class="edge"><title>Node22&#45;&gt;Node32</title>
<path fill="none" stroke="midnightblue" d="M2981.63,-176.146C3104.44,-173.239 3489.53,-162.181 3807,-132 3811.54,-131.569 3816.24,-131.053 3820.95,-130.488"/>
<polygon fill="midnightblue" stroke="midnightblue" points="2981.48,-172.648 2971.57,-176.379 2981.65,-179.646 2981.48,-172.648"/>
</g>
<!-- Node33 -->
<g id="node33" class="node"><title>Node33</title>
<g id="a_node33"><a xlink:href="_test_animation_control_8h.html" target="_top" xlink:title="Control to test animation. ">
<polygon fill="white" stroke="red" points="3941.5,-112.5 3941.5,-131.5 4060.5,-131.5 4060.5,-112.5 3941.5,-112.5"/>
<text text-anchor="middle" x="4001" y="-119.5" font-family="Helvetica,sans-Serif" font-size="10.00">TestAnimationControl.h</text>
</a>
</g>
</g>
<!-- Node22&#45;&gt;Node33 -->
<g id="edge44" class="edge"><title>Node22&#45;&gt;Node33</title>
<path fill="none" stroke="midnightblue" d="M2981.78,-176.366C3115.79,-173.98 3562.97,-163.977 3931,-132 3934.42,-131.703 3937.93,-131.363 3941.46,-130.994"/>
<polygon fill="midnightblue" stroke="midnightblue" points="2981.53,-172.87 2971.59,-176.543 2981.65,-179.869 2981.53,-172.87"/>
</g>
<!-- Node34 -->
<g id="node34" class="node"><title>Node34</title>
<g id="a_node34"><a xlink:href="_test_arc_control_8h.html" target="_top" xlink:title="Control to test drawing arcs. ">
<polygon fill="white" stroke="red" points="4078.5,-112.5 4078.5,-131.5 4169.5,-131.5 4169.5,-112.5 4078.5,-112.5"/>
<text text-anchor="middle" x="4124" y="-119.5" font-family="Helvetica,sans-Serif" font-size="10.00">TestArcControl.h</text>
</a>
</g>
</g>
<!-- Node22&#45;&gt;Node34 -->
<g id="edge45" class="edge"><title>Node22&#45;&gt;Node34</title>
<path fill="none" stroke="midnightblue" d="M2981.94,-177.168C3127.78,-177.407 3645.17,-174.976 4069,-132 4072.08,-131.688 4075.25,-131.313 4078.44,-130.896"/>
<polygon fill="midnightblue" stroke="midnightblue" points="2981.7,-173.667 2971.7,-177.146 2981.69,-180.667 2981.7,-173.667"/>
</g>
<!-- Node35 -->
<g id="node35" class="node"><title>Node35</title>
<g id="a_node35"><a xlink:href="_test_blend_control_8h.html" target="_top" xlink:title="Control to test blend methods. ">
<polygon fill="white" stroke="red" points="4187.5,-112.5 4187.5,-131.5 4288.5,-131.5 4288.5,-112.5 4187.5,-112.5"/>
<text text-anchor="middle" x="4238" y="-119.5" font-family="Helvetica,sans-Serif" font-size="10.00">TestBlendControl.h</text>
</a>
</g>
</g>
<!-- Node22&#45;&gt;Node35 -->
<g id="edge46" class="edge"><title>Node22&#45;&gt;Node35</title>
<path fill="none" stroke="midnightblue" d="M2982.15,-177.177C3136.87,-177.511 3709.26,-175.549 4178,-132 4181.04,-131.717 4184.16,-131.383 4187.31,-131.013"/>
<polygon fill="midnightblue" stroke="midnightblue" points="2981.74,-173.676 2971.73,-177.149 2981.72,-180.676 2981.74,-173.676"/>
</g>
<!-- Node36 -->
<g id="node36" class="node"><title>Node36</title>
<g id="a_node36"><a xlink:href="_test_dir_browse_control_8h.html" target="_top" xlink:title="Control to test IDirBrowseControlBase. ">
<polygon fill="white" stroke="red" points="1622,-112.5 1622,-131.5 1744,-131.5 1744,-112.5 1622,-112.5"/>
<text text-anchor="middle" x="1683" y="-119.5" font-family="Helvetica,sans-Serif" font-size="10.00">TestDirBrowseControl.h</text>
</a>
</g>
</g>
<!-- Node22&#45;&gt;Node36 -->
<g id="edge47" class="edge"><title>Node22&#45;&gt;Node36</title>
<path fill="none" stroke="midnightblue" d="M2901.9,-176.791C2750.98,-175.725 2202.82,-169.353 1753,-132 1750.07,-131.757 1747.07,-131.48 1744.05,-131.178"/>
<polygon fill="midnightblue" stroke="midnightblue" points="2902.05,-180.292 2912.08,-176.859 2902.1,-173.292 2902.05,-180.292"/>
</g>
<!-- Node37 -->
<g id="node37" class="node"><title>Node37</title>
<g id="a_node37"><a xlink:href="_test_gradient_control_8h.html" target="_top" xlink:title="Control to test drawing gradients with path based drawing backends. ">
<polygon fill="white" stroke="red" points="1762.5,-112.5 1762.5,-131.5 1875.5,-131.5 1875.5,-112.5 1762.5,-112.5"/>
<text text-anchor="middle" x="1819" y="-119.5" font-family="Helvetica,sans-Serif" font-size="10.00">TestGradientControl.h</text>
</a>
</g>
</g>
<!-- Node22&#45;&gt;Node37 -->
<g id="edge48" class="edge"><title>Node22&#45;&gt;Node37</title>
<path fill="none" stroke="midnightblue" d="M2901.82,-176.634C2761.51,-175.069 2280.38,-167.297 1885,-132 1882.01,-131.733 1878.94,-131.427 1875.84,-131.093"/>
<polygon fill="midnightblue" stroke="midnightblue" points="2902.05,-180.136 2912.09,-176.744 2902.13,-173.137 2902.05,-180.136"/>
</g>
<!-- Node38 -->
<g id="node38" class="node"><title>Node38</title>
<g id="a_node38"><a xlink:href="_test_layer_control_8h.html" target="_top" xlink:title="Control to test IGraphics layers. ">
<polygon fill="white" stroke="red" points="1894,-112.5 1894,-131.5 1994,-131.5 1994,-112.5 1894,-112.5"/>
<text text-anchor="middle" x="1944" y="-119.5" font-family="Helvetica,sans-Serif" font-size="10.00">TestLayerControl.h</text>
</a>
</g>
</g>
<!-- Node22&#45;&gt;Node38 -->
<g id="edge49" class="edge"><title>Node22&#45;&gt;Node38</title>
<path fill="none" stroke="midnightblue" d="M2902.06,-176.563C2772.18,-174.825 2350.11,-166.698 2003,-132 2000.11,-131.711 1997.15,-131.378 1994.17,-131.014"/>
<polygon fill="midnightblue" stroke="midnightblue" points="2902.27,-180.066 2912.32,-176.695 2902.36,-173.066 2902.27,-180.066"/>
</g>
<!-- Node39 -->
<g id="node39" class="node"><title>Node39</title>
<g id="a_node39"><a xlink:href="_test_multi_path_control_8h.html" target="_top" xlink:title="Control to test drawing paths in path&#45;based drawing backends. ">
<polygon fill="white" stroke="red" points="2012.5,-112.5 2012.5,-131.5 2129.5,-131.5 2129.5,-112.5 2012.5,-112.5"/>
<text text-anchor="middle" x="2071" y="-119.5" font-family="Helvetica,sans-Serif" font-size="10.00">TestMultiPathControl.h</text>
</a>
</g>
</g>
<!-- Node22&#45;&gt;Node39 -->
<g id="edge50" class="edge"><title>Node22&#45;&gt;Node39</title>
<path fill="none" stroke="midnightblue" d="M2902.08,-175.863C2784.69,-172.282 2430.53,-159.792 2138,-132 2135.31,-131.745 2132.57,-131.463 2129.8,-131.161"/>
<polygon fill="midnightblue" stroke="midnightblue" points="2902.27,-179.37 2912.37,-176.172 2902.48,-172.373 2902.27,-179.37"/>
</g>
<!-- Node40 -->
<g id="node40" class="node"><title>Node40</title>
<g id="a_node40"><a xlink:href="_test_poly_control_8h.html" target="_top" xlink:title="Control to test drawing polygons. ">
<polygon fill="white" stroke="red" points="2147.5,-112.5 2147.5,-131.5 2242.5,-131.5 2242.5,-112.5 2147.5,-112.5"/>
<text text-anchor="middle" x="2195" y="-119.5" font-family="Helvetica,sans-Serif" font-size="10.00">TestPolyControl.h</text>
</a>
</g>
</g>
<!-- Node22&#45;&gt;Node40 -->
<g id="edge51" class="edge"><title>Node22&#45;&gt;Node40</title>
<path fill="none" stroke="midnightblue" d="M2902.02,-175.716C2795.76,-172.018 2497.59,-159.782 2251,-132 2248.26,-131.691 2245.45,-131.342 2242.62,-130.966"/>
<polygon fill="midnightblue" stroke="midnightblue" points="2902.16,-179.223 2912.28,-176.067 2902.4,-172.227 2902.16,-179.223"/>
</g>
<!-- Node41 -->
<g id="node41" class="node"><title>Node41</title>
<g id="a_node41"><a xlink:href="_test_text_control_8h.html" target="_top" xlink:title="Control to test drawing text. ">
<polygon fill="white" stroke="red" points="2260.5,-112.5 2260.5,-131.5 2355.5,-131.5 2355.5,-112.5 2260.5,-112.5"/>
<text text-anchor="middle" x="2308" y="-119.5" font-family="Helvetica,sans-Serif" font-size="10.00">TestTextControl.h</text>
</a>
</g>
</g>
<!-- Node22&#45;&gt;Node41 -->
<g id="edge52" class="edge"><title>Node22&#45;&gt;Node41</title>
<path fill="none" stroke="midnightblue" d="M2902.34,-174.986C2808.63,-169.993 2566.3,-155.704 2365,-132 2361.92,-131.637 2358.74,-131.23 2355.55,-130.794"/>
<polygon fill="midnightblue" stroke="midnightblue" points="2902.33,-178.49 2912.5,-175.522 2902.7,-171.5 2902.33,-178.49"/>
</g>
<!-- Node42 -->
<g id="node42" class="node"><title>Node42</title>
<g id="a_node42"><a xlink:href="_test_draw_context_control_8h.html" target="_top" xlink:title="Control to test obtaining a drawing API (NanoVG, LICE, Cairo, AGG etc) context and using that API wit...">
<polygon fill="white" stroke="red" points="2374,-112.5 2374,-131.5 2508,-131.5 2508,-112.5 2374,-112.5"/>
<text text-anchor="middle" x="2441" y="-119.5" font-family="Helvetica,sans-Serif" font-size="10.00">TestDrawContextControl.h</text>
</a>
</g>
</g>
<!-- Node22&#45;&gt;Node42 -->
<g id="edge53" class="edge"><title>Node22&#45;&gt;Node42</title>
<path fill="none" stroke="midnightblue" d="M2902.38,-172.971C2827.22,-165.289 2658.73,-147.894 2517,-132 2514.1,-131.674 2511.13,-131.338 2508.13,-130.995"/>
<polygon fill="midnightblue" stroke="midnightblue" points="2902.06,-176.455 2912.36,-173.989 2902.77,-169.492 2902.06,-176.455"/>
</g>
<!-- Node43 -->
<g id="node43" class="node"><title>Node43</title>
<g id="a_node43"><a xlink:href="_test_size_control_8h.html" target="_top" xlink:title="Control to display the size of a region. ">
<polygon fill="white" stroke="red" points="2526.5,-112.5 2526.5,-131.5 2621.5,-131.5 2621.5,-112.5 2526.5,-112.5"/>
<text text-anchor="middle" x="2574" y="-119.5" font-family="Helvetica,sans-Serif" font-size="10.00">TestSizeControl.h</text>
</a>
</g>
</g>
<!-- Node22&#45;&gt;Node43 -->
<g id="edge54" class="edge"><title>Node22&#45;&gt;Node43</title>
<path fill="none" stroke="midnightblue" d="M2902.23,-171.473C2842.9,-163.181 2727.74,-146.901 2630,-132 2627.27,-131.584 2624.48,-131.152 2621.65,-130.712"/>
<polygon fill="midnightblue" stroke="midnightblue" points="2901.91,-174.962 2912.29,-172.878 2902.87,-168.029 2901.91,-174.962"/>
</g>
<!-- Node44 -->
<g id="node44" class="node"><title>Node44</title>
<g id="a_node44"><a xlink:href="_test_s_v_g_control_8h.html" target="_top" xlink:title="Control to test drawing SVGs. ">
<polygon fill="white" stroke="red" points="2639.5,-112.5 2639.5,-131.5 2736.5,-131.5 2736.5,-112.5 2639.5,-112.5"/>
<text text-anchor="middle" x="2688" y="-119.5" font-family="Helvetica,sans-Serif" font-size="10.00">TestSVGControl.h</text>
</a>
</g>
</g>
<!-- Node22&#45;&gt;Node44 -->
<g id="edge55" class="edge"><title>Node22&#45;&gt;Node44</title>
<path fill="none" stroke="midnightblue" d="M2902.47,-168.595C2855.06,-158.517 2776.04,-141.716 2728.3,-131.567"/>
<polygon fill="midnightblue" stroke="midnightblue" points="2901.86,-172.044 2912.37,-170.7 2903.31,-165.197 2901.86,-172.044"/>
</g>
<!-- Node45 -->
<g id="node45" class="node"><title>Node45</title>
<g id="a_node45"><a xlink:href="_test_image_control_8h.html" target="_top" xlink:title="Control to test drawing bitmaps. ">
<polygon fill="white" stroke="red" points="2754.5,-112.5 2754.5,-131.5 2857.5,-131.5 2857.5,-112.5 2754.5,-112.5"/>
<text text-anchor="middle" x="2806" y="-119.5" font-family="Helvetica,sans-Serif" font-size="10.00">TestImageControl.h</text>
</a>
</g>
</g>
<!-- Node22&#45;&gt;Node45 -->
<g id="edge56" class="edge"><title>Node22&#45;&gt;Node45</title>
<path fill="none" stroke="midnightblue" d="M2910.87,-164.638C2885.34,-154.504 2849.89,-140.427 2827.45,-131.516"/>
<polygon fill="midnightblue" stroke="midnightblue" points="2909.86,-168.006 2920.45,-168.444 2912.45,-161.5 2909.86,-168.006"/>
</g>
<!-- Node46 -->
<g id="node46" class="node"><title>Node46</title>
<g id="a_node46"><a xlink:href="_test_drop_shadow_control_8h.html" target="_top" xlink:title="Control to test layer drop shadows. ">
<polygon fill="white" stroke="red" points="2876,-112.5 2876,-131.5 3008,-131.5 3008,-112.5 2876,-112.5"/>
<text text-anchor="middle" x="2942" y="-119.5" font-family="Helvetica,sans-Serif" font-size="10.00">TestDropShadowControl.h</text>
</a>
</g>
</g>
<!-- Node22&#45;&gt;Node46 -->
<g id="edge57" class="edge"><title>Node22&#45;&gt;Node46</title>
<path fill="none" stroke="midnightblue" d="M2942,-157.805C2942,-148.91 2942,-138.78 2942,-131.751"/>
<polygon fill="midnightblue" stroke="midnightblue" points="2938.5,-158.083 2942,-168.083 2945.5,-158.083 2938.5,-158.083"/>
</g>
<!-- Node47 -->
<g id="node47" class="node"><title>Node47</title>
<g id="a_node47"><a xlink:href="_test_cursor_control_8h.html" target="_top" xlink:title="Control to test changing the platform cursor. ">
<polygon fill="white" stroke="red" points="3026.5,-112.5 3026.5,-131.5 3131.5,-131.5 3131.5,-112.5 3026.5,-112.5"/>
<text text-anchor="middle" x="3079" y="-119.5" font-family="Helvetica,sans-Serif" font-size="10.00">TestCursorControl.h</text>
</a>
</g>
</g>
<!-- Node22&#45;&gt;Node47 -->
<g id="edge58" class="edge"><title>Node22&#45;&gt;Node47</title>
<path fill="none" stroke="midnightblue" d="M2973.02,-164.772C2998.76,-154.629 3034.69,-140.467 3057.39,-131.516"/>
<polygon fill="midnightblue" stroke="midnightblue" points="2971.73,-161.52 2963.71,-168.444 2974.29,-168.033 2971.73,-161.52"/>
</g>
<!-- Node48 -->
<g id="node48" class="node"><title>Node48</title>
<g id="a_node48"><a xlink:href="_test_keyboard_control_8h.html" target="_top" xlink:title="Control to test keyboard input. ">
<polygon fill="white" stroke="red" points="3149.5,-112.5 3149.5,-131.5 3266.5,-131.5 3266.5,-112.5 3149.5,-112.5"/>
<text text-anchor="middle" x="3208" y="-119.5" font-family="Helvetica,sans-Serif" font-size="10.00">TestKeyboardControl.h</text>
</a>
</g>
</g>
<!-- Node22&#45;&gt;Node48 -->
<g id="edge59" class="edge"><title>Node22&#45;&gt;Node48</title>
<path fill="none" stroke="midnightblue" d="M2981.74,-168.933C3031.18,-158.896 3115.24,-141.832 3165.8,-131.568"/>
<polygon fill="midnightblue" stroke="midnightblue" points="2980.84,-165.543 2971.74,-170.963 2982.24,-172.403 2980.84,-165.543"/>
</g>
<!-- Node22&#45;&gt;Node49 -->
<g id="edge61" class="edge"><title>Node22&#45;&gt;Node49</title>
<path fill="none" stroke="midnightblue" d="M2902.26,-176.998C2723.07,-176.753 1972.3,-173.186 1358,-132 1353.56,-131.702 1348.99,-131.351 1344.39,-130.962"/>
<polygon fill="midnightblue" stroke="midnightblue" points="2902.28,-180.498 2912.28,-177.009 2902.29,-173.498 2902.28,-180.498"/>
</g>
<!-- Node23&#45;&gt;Node24 -->
<g id="edge24" class="edge"><title>Node23&#45;&gt;Node24</title>
<path fill="none" stroke="midnightblue" d="M3454,-105.002C3444.43,-95.4329 3432.64,-83.6389 3424.75,-75.7511"/>
<polygon fill="midnightblue" stroke="midnightblue" points="3451.54,-107.487 3461.08,-112.083 3456.49,-102.537 3451.54,-107.487"/>
</g>
<!-- Node24&#45;&gt;Node17 -->
<g id="edge25" class="edge"><title>Node24&#45;&gt;Node17</title>
<path fill="none" stroke="midnightblue" d="M3454.33,-53.4363C3488.08,-43.2551 3536.45,-28.664 3566.77,-19.5164"/>
<polygon fill="midnightblue" stroke="midnightblue" points="3452.93,-50.2044 3444.36,-56.4435 3454.95,-56.9061 3452.93,-50.2044"/>
</g>
<!-- Node25&#45;&gt;Node24 -->
<g id="edge28" class="edge"><title>Node25&#45;&gt;Node24</title>
<path fill="none" stroke="midnightblue" d="M3590.33,-109.987C3548.31,-99.6243 3486.37,-84.3522 3448.75,-75.0755"/>
<polygon fill="midnightblue" stroke="midnightblue" points="3589.75,-113.448 3600.3,-112.444 3591.43,-106.651 3589.75,-113.448"/>
</g>
<!-- Node26&#45;&gt;Node24 -->
<g id="edge30" class="edge"><title>Node26&#45;&gt;Node24</title>
<path fill="none" stroke="midnightblue" d="M1501.6,-112.13C1908.67,-75.8746 3163.96,-68.2259 3383.18,-67.1475"/>
<polygon fill="midnightblue" stroke="midnightblue" points="1501.2,-108.652 1491.56,-113.046 1501.83,-115.623 1501.2,-108.652"/>
</g>
<!-- Node27&#45;&gt;Node24 -->
<g id="edge32" class="edge"><title>Node27&#45;&gt;Node24</title>
<path fill="none" stroke="midnightblue" d="M1614.29,-112.036C1996.96,-78.2792 3172.43,-68.6883 3383.41,-67.214"/>
<polygon fill="midnightblue" stroke="midnightblue" points="1613.94,-108.553 1604.3,-112.94 1614.57,-115.525 1613.94,-108.553"/>
</g>
<!-- Node28&#45;&gt;Node24 -->
<g id="edge34" class="edge"><title>Node28&#45;&gt;Node24</title>
<path fill="none" stroke="midnightblue" d="M3361.31,-106.38C3374.86,-96.6204 3392.24,-84.1057 3403.73,-75.8339"/>
<polygon fill="midnightblue" stroke="midnightblue" points="3359.12,-103.641 3353.05,-112.324 3363.21,-109.321 3359.12,-103.641"/>
</g>
<!-- Node29&#45;&gt;Node17 -->
<g id="edge36" class="edge"><title>Node29&#45;&gt;Node17</title>
<path fill="none" stroke="midnightblue" d="M3546.83,-49.8197C3558.84,-40.1452 3573.97,-27.9481 3584.04,-19.8339"/>
<polygon fill="midnightblue" stroke="midnightblue" points="3544.35,-47.3236 3538.76,-56.324 3548.75,-52.7738 3544.35,-47.3236"/>
</g>
<!-- Node30&#45;&gt;Node17 -->
<g id="edge38" class="edge"><title>Node30&#45;&gt;Node17</title>
<path fill="none" stroke="midnightblue" d="M3644.24,-50.1008C3632,-40.3824 3616.44,-28.0269 3606.12,-19.8339"/>
<polygon fill="midnightblue" stroke="midnightblue" points="3642.07,-52.846 3652.07,-56.324 3646.42,-47.3642 3642.07,-52.846"/>
</g>
<!-- Node31&#45;&gt;Node17 -->
<g id="edge40" class="edge"><title>Node31&#45;&gt;Node17</title>
<path fill="none" stroke="midnightblue" d="M3751.56,-53.6986C3714.19,-43.507 3660.06,-28.7429 3626.23,-19.5164"/>
<polygon fill="midnightblue" stroke="midnightblue" points="3751.06,-57.189 3761.63,-56.4435 3752.9,-50.4356 3751.06,-57.189"/>
</g>
<!-- Node32&#45;&gt;Node17 -->
<g id="edge43" class="edge"><title>Node32&#45;&gt;Node17</title>
<path fill="none" stroke="midnightblue" d="M3872.89,-101.972C3872.47,-87.326 3869.35,-67.6734 3857,-56 3825.42,-26.1659 3698.61,-15.8755 3633.7,-12.5184"/>
<polygon fill="midnightblue" stroke="midnightblue" points="3869.38,-102.355 3872.76,-112.396 3876.38,-102.439 3869.38,-102.355"/>
</g>
<!-- Node32&#45;&gt;Node21 -->
<g id="edge42" class="edge"><title>Node32&#45;&gt;Node21</title>
<path fill="none" stroke="midnightblue" d="M3920.43,-110.281C3966.54,-100.077 4035.03,-84.9203 4077.52,-75.5164"/>
<polygon fill="midnightblue" stroke="midnightblue" points="3919.67,-106.865 3910.66,-112.444 3921.18,-113.7 3919.67,-106.865"/>
</g>
</g>
</svg>
