<?xml version="1.0" encoding="UTF-8" standalone="no"?>
<!DOCTYPE svg PUBLIC "-//W3C//DTD SVG 1.1//EN"
 "http://www.w3.org/Graphics/SVG/1.1/DTD/svg11.dtd">
<!-- Generated by graphviz version 2.36.0 (20140111.2315)
 -->
<!-- Title: IPlugParameter.h Pages: 1 -->
<svg width="2777pt" height="420pt"
 viewBox="0.00 0.00 2777.00 420.00" xmlns="http://www.w3.org/2000/svg" xmlns:xlink="http://www.w3.org/1999/xlink">
<g id="graph0" class="graph" transform="scale(1 1) rotate(0) translate(4 416)">
<title>IPlugParameter.h</title>
<polygon fill="white" stroke="none" points="-4,4 -4,-416 2773,-416 2773,4 -4,4"/>
<!-- Node1 -->
<g id="node1" class="node"><title>Node1</title>
<polygon fill="#bfbfbf" stroke="black" points="1229,-392.5 1229,-411.5 1321,-411.5 1321,-392.5 1229,-392.5"/>
<text text-anchor="middle" x="1275" y="-399.5" font-family="Helvetica,sans-Serif" font-size="10.00">IPlugParameter.h</text>
</g>
<!-- Node2 -->
<g id="node2" class="node"><title>Node2</title>
<g id="a_node2"><a xlink:href="_i_plug_editor_delegate_8h.html" target="_top" xlink:title="This pure virtual interface delegates communication in both directions between a UI editor and someth...">
<polygon fill="white" stroke="black" points="1135,-336.5 1135,-355.5 1247,-355.5 1247,-336.5 1135,-336.5"/>
<text text-anchor="middle" x="1191" y="-343.5" font-family="Helvetica,sans-Serif" font-size="10.00">IPlugEditorDelegate.h</text>
</a>
</g>
</g>
<!-- Node1&#45;&gt;Node2 -->
<g id="edge1" class="edge"><title>Node1&#45;&gt;Node2</title>
<path fill="none" stroke="midnightblue" d="M1253.07,-386.901C1237.66,-376.999 1217.55,-364.071 1204.46,-355.655"/>
<polygon fill="midnightblue" stroke="midnightblue" points="1251.2,-389.86 1261.5,-392.324 1254.98,-383.972 1251.2,-389.86"/>
</g>
<!-- Node4 -->
<g id="node4" class="node"><title>Node4</title>
<g id="a_node4"><a xlink:href="_i_plug_plugin_base_8h.html" target="_top" xlink:title="Base class that contains plug&#45;in info and state manipulation methods. ">
<polygon fill="white" stroke="black" points="1085.5,-224.5 1085.5,-243.5 1182.5,-243.5 1182.5,-224.5 1085.5,-224.5"/>
<text text-anchor="middle" x="1134" y="-231.5" font-family="Helvetica,sans-Serif" font-size="10.00">IPlugPluginBase.h</text>
</a>
</g>
</g>
<!-- Node1&#45;&gt;Node4 -->
<g id="edge65" class="edge"><title>Node1&#45;&gt;Node4</title>
<path fill="none" stroke="midnightblue" d="M1218.49,-398.676C1186.45,-394.216 1148.41,-383.033 1126,-356 1098.46,-322.773 1120.16,-265.17 1129.89,-243.537"/>
<polygon fill="midnightblue" stroke="midnightblue" points="1218.31,-402.179 1228.66,-399.899 1219.15,-395.229 1218.31,-402.179"/>
</g>
<!-- Node5 -->
<g id="node5" class="node"><title>Node5</title>
<g id="a_node5"><a xlink:href="_i_plug_a_p_i_base_8h.html" target="_top" xlink:title="The base class of an IPlug plug&#45;in, which interacts with the different plug&#45;in APIs. ">
<polygon fill="white" stroke="black" points="579,-168.5 579,-187.5 665,-187.5 665,-168.5 579,-168.5"/>
<text text-anchor="middle" x="622" y="-175.5" font-family="Helvetica,sans-Serif" font-size="10.00">IPlugAPIBase.h</text>
</a>
</g>
</g>
<!-- Node1&#45;&gt;Node5 -->
<g id="edge66" class="edge"><title>Node1&#45;&gt;Node5</title>
<path fill="none" stroke="midnightblue" d="M1231.27,-389.91C1198.3,-381.309 1152.06,-368.743 1112,-356 928.84,-297.732 712.13,-214.24 643.77,-187.548"/>
<polygon fill="midnightblue" stroke="midnightblue" points="1230.5,-393.325 1241.06,-392.447 1232.26,-386.549 1230.5,-393.325"/>
</g>
<!-- Node31 -->
<g id="node31" class="node"><title>Node31</title>
<g id="a_node31"><a xlink:href="_i_graphics_8cpp_source.html" target="_top" xlink:title="IGraphics.cpp">
<polygon fill="white" stroke="black" points="1801.5,-0.5 1801.5,-19.5 1878.5,-19.5 1878.5,-0.5 1801.5,-0.5"/>
<text text-anchor="middle" x="1840" y="-7.5" font-family="Helvetica,sans-Serif" font-size="10.00">IGraphics.cpp</text>
</a>
</g>
</g>
<!-- Node1&#45;&gt;Node31 -->
<g id="edge69" class="edge"><title>Node1&#45;&gt;Node31</title>
<path fill="none" stroke="midnightblue" d="M1275,-382.251C1275,-360.357 1275,-323.052 1275,-291 1275,-291 1275,-291 1275,-121 1275,-13.5731 1673.52,-9.00269 1801.17,-10.2942"/>
<polygon fill="midnightblue" stroke="midnightblue" points="1271.5,-382.442 1275,-392.442 1278.5,-382.442 1271.5,-382.442"/>
</g>
<!-- Node46 -->
<g id="node46" class="node"><title>Node46</title>
<g id="a_node46"><a xlink:href="_i_graphics_win_8cpp_source.html" target="_top" xlink:title="IGraphicsWin.cpp">
<polygon fill="white" stroke="black" points="1957.5,-56.5 1957.5,-75.5 2052.5,-75.5 2052.5,-56.5 1957.5,-56.5"/>
<text text-anchor="middle" x="2005" y="-63.5" font-family="Helvetica,sans-Serif" font-size="10.00">IGraphicsWin.cpp</text>
</a>
</g>
</g>
<!-- Node1&#45;&gt;Node46 -->
<g id="edge70" class="edge"><title>Node1&#45;&gt;Node46</title>
<path fill="none" stroke="midnightblue" d="M1331.54,-400.962C1483.28,-400.313 1911.99,-394.888 2266,-356 2432.4,-337.721 2637,-458.4 2637,-291 2637,-291 2637,-291 2637,-177 2637,-146.902 2641.49,-130.821 2618,-112 2569.69,-73.2886 2123.53,-82.8348 2062,-76 2058.91,-75.6571 2055.74,-75.2653 2052.54,-74.8414"/>
<polygon fill="midnightblue" stroke="midnightblue" points="1331.08,-397.463 1321.1,-401.001 1331.11,-404.463 1331.08,-397.463"/>
</g>
<!-- Node47 -->
<g id="node47" class="node"><title>Node47</title>
<g id="a_node47"><a xlink:href="_i_control_8cpp_source.html" target="_top" xlink:title="IControl.cpp">
<polygon fill="white" stroke="black" points="2539,-112.5 2539,-131.5 2609,-131.5 2609,-112.5 2539,-112.5"/>
<text text-anchor="middle" x="2574" y="-119.5" font-family="Helvetica,sans-Serif" font-size="10.00">IControl.cpp</text>
</a>
</g>
</g>
<!-- Node1&#45;&gt;Node47 -->
<g id="edge68" class="edge"><title>Node1&#45;&gt;Node47</title>
<path fill="none" stroke="midnightblue" d="M1331.13,-399.057C1574.72,-390.262 2528,-351.951 2528,-291 2528,-291 2528,-291 2528,-233 2528,-192.428 2554.96,-149.502 2567.6,-131.609"/>
<polygon fill="midnightblue" stroke="midnightblue" points="1330.95,-395.561 1321.08,-399.418 1331.2,-402.557 1330.95,-395.561"/>
</g>
<!-- Node50 -->
<g id="node50" class="node"><title>Node50</title>
<g id="a_node50"><a xlink:href="_i_plug_parameter_8cpp.html" target="_top" xlink:title="IParam implementation. ">
<polygon fill="white" stroke="black" points="2665.5,-336.5 2665.5,-355.5 2768.5,-355.5 2768.5,-336.5 2665.5,-336.5"/>
<text text-anchor="middle" x="2717" y="-343.5" font-family="Helvetica,sans-Serif" font-size="10.00">IPlugParameter.cpp</text>
</a>
</g>
</g>
<!-- Node1&#45;&gt;Node50 -->
<g id="edge67" class="edge"><title>Node1&#45;&gt;Node50</title>
<path fill="none" stroke="midnightblue" d="M1331.3,-401.231C1518.93,-401.559 2139.96,-399.085 2651,-356 2655.61,-355.611 2660.39,-355.124 2665.17,-354.58"/>
<polygon fill="midnightblue" stroke="midnightblue" points="1331.14,-397.731 1321.13,-401.21 1331.12,-404.731 1331.14,-397.731"/>
</g>
<!-- Node3 -->
<g id="node3" class="node"><title>Node3</title>
<g id="a_node3"><a xlink:href="_i_plug_delegate__select_8h.html" target="_top" xlink:title="Used for choosing an editor delegate. ">
<polygon fill="white" stroke="black" points="1129,-280.5 1129,-299.5 1247,-299.5 1247,-280.5 1129,-280.5"/>
<text text-anchor="middle" x="1188" y="-287.5" font-family="Helvetica,sans-Serif" font-size="10.00">IPlugDelegate_select.h</text>
</a>
</g>
</g>
<!-- Node2&#45;&gt;Node3 -->
<g id="edge2" class="edge"><title>Node2&#45;&gt;Node3</title>
<path fill="none" stroke="midnightblue" d="M1189.93,-325.805C1189.44,-316.91 1188.88,-306.78 1188.49,-299.751"/>
<polygon fill="midnightblue" stroke="midnightblue" points="1186.46,-326.293 1190.5,-336.083 1193.44,-325.904 1186.46,-326.293"/>
</g>
<!-- Node32 -->
<g id="node32" class="node"><title>Node32</title>
<g id="a_node32"><a xlink:href="_i_graphics_editor_delegate_8h.html" target="_top" xlink:title="An editor delgate base class for a SOMETHING that uses IGraphics for it&#39;s UI. ">
<polygon fill="white" stroke="black" points="2137.5,-280.5 2137.5,-299.5 2268.5,-299.5 2268.5,-280.5 2137.5,-280.5"/>
<text text-anchor="middle" x="2203" y="-287.5" font-family="Helvetica,sans-Serif" font-size="10.00">IGraphicsEditorDelegate.h</text>
</a>
</g>
</g>
<!-- Node2&#45;&gt;Node32 -->
<g id="edge33" class="edge"><title>Node2&#45;&gt;Node32</title>
<path fill="none" stroke="midnightblue" d="M1257.27,-341.464C1440.88,-331.667 1954.62,-304.254 2137.41,-294.5"/>
<polygon fill="midnightblue" stroke="midnightblue" points="1257.01,-337.972 1247.21,-342 1257.39,-344.963 1257.01,-337.972"/>
</g>
<!-- Node3&#45;&gt;Node4 -->
<g id="edge3" class="edge"><title>Node3&#45;&gt;Node4</title>
<path fill="none" stroke="midnightblue" d="M1172,-273.002C1162.43,-263.433 1150.64,-251.639 1142.75,-243.751"/>
<polygon fill="midnightblue" stroke="midnightblue" points="1169.54,-275.487 1179.08,-280.083 1174.49,-270.537 1169.54,-275.487"/>
</g>
<!-- Node4&#45;&gt;Node5 -->
<g id="edge4" class="edge"><title>Node4&#45;&gt;Node5</title>
<path fill="none" stroke="midnightblue" d="M1075.36,-226.815C971.358,-215.846 756.946,-193.233 665.195,-183.556"/>
<polygon fill="midnightblue" stroke="midnightblue" points="1075.06,-230.303 1085.37,-227.871 1075.79,-223.341 1075.06,-230.303"/>
</g>
<!-- Node19 -->
<g id="node19" class="node"><title>Node19</title>
<g id="a_node19"><a xlink:href="_i_plug_v_s_t2_8cpp_source.html" target="_top" xlink:title="IPlugVST2.cpp">
<polygon fill="white" stroke="black" points="1125.5,-56.5 1125.5,-75.5 1208.5,-75.5 1208.5,-56.5 1125.5,-56.5"/>
<text text-anchor="middle" x="1167" y="-63.5" font-family="Helvetica,sans-Serif" font-size="10.00">IPlugVST2.cpp</text>
</a>
</g>
</g>
<!-- Node4&#45;&gt;Node19 -->
<g id="edge31" class="edge"><title>Node4&#45;&gt;Node19</title>
<path fill="none" stroke="midnightblue" d="M1139.76,-214.875C1142.22,-206.718 1144.98,-196.934 1147,-188 1156.44,-146.258 1163.39,-95.4712 1165.94,-75.5753"/>
<polygon fill="midnightblue" stroke="midnightblue" points="1136.41,-213.863 1136.8,-224.451 1143.1,-215.935 1136.41,-213.863"/>
</g>
<!-- Node30 -->
<g id="node30" class="node"><title>Node30</title>
<g id="a_node30"><a xlink:href="_i_plug_plugin_base_8cpp.html" target="_top" xlink:title="IPluginBase implementation. ">
<polygon fill="white" stroke="black" points="1031.5,-168.5 1031.5,-187.5 1138.5,-187.5 1138.5,-168.5 1031.5,-168.5"/>
<text text-anchor="middle" x="1085" y="-175.5" font-family="Helvetica,sans-Serif" font-size="10.00">IPlugPluginBase.cpp</text>
</a>
</g>
</g>
<!-- Node4&#45;&gt;Node30 -->
<g id="edge30" class="edge"><title>Node4&#45;&gt;Node30</title>
<path fill="none" stroke="midnightblue" d="M1118.97,-216.431C1110.38,-206.967 1099.96,-195.483 1092.94,-187.751"/>
<polygon fill="midnightblue" stroke="midnightblue" points="1116.6,-219.029 1125.91,-224.083 1121.78,-214.325 1116.6,-219.029"/>
</g>
<!-- Node4&#45;&gt;Node31 -->
<g id="edge32" class="edge"><title>Node4&#45;&gt;Node31</title>
<path fill="none" stroke="midnightblue" d="M1145.29,-215.564C1173.16,-172.799 1244.15,-65.4912 1261,-56 1307.89,-29.5886 1679.28,-15.9317 1801.3,-12.1252"/>
<polygon fill="midnightblue" stroke="midnightblue" points="1142.27,-213.797 1139.75,-224.089 1148.14,-217.612 1142.27,-213.797"/>
</g>
<!-- Node6 -->
<g id="node6" class="node"><title>Node6</title>
<g id="a_node6"><a xlink:href="_i_plug_a_a_x_8h.html" target="_top" xlink:title="AAX API base class for an IPlug plug&#45;in. ">
<polygon fill="white" stroke="black" points="544,-112.5 544,-131.5 612,-131.5 612,-112.5 544,-112.5"/>
<text text-anchor="middle" x="578" y="-119.5" font-family="Helvetica,sans-Serif" font-size="10.00">IPlugAAX.h</text>
</a>
</g>
</g>
<!-- Node5&#45;&gt;Node6 -->
<g id="edge5" class="edge"><title>Node5&#45;&gt;Node6</title>
<path fill="none" stroke="midnightblue" d="M608.265,-160.144C600.599,-150.736 591.367,-139.405 585.131,-131.751"/>
<polygon fill="midnightblue" stroke="midnightblue" points="605.704,-162.541 614.734,-168.083 611.131,-158.12 605.704,-162.541"/>
</g>
<!-- Node8 -->
<g id="node8" class="node"><title>Node8</title>
<g id="a_node8"><a xlink:href="_i_plug_a_p_p_8h.html" target="_top" xlink:title="Standalone application base class for an IPlug plug&#45;in. ">
<polygon fill="white" stroke="black" points="263,-112.5 263,-131.5 331,-131.5 331,-112.5 263,-112.5"/>
<text text-anchor="middle" x="297" y="-119.5" font-family="Helvetica,sans-Serif" font-size="10.00">IPlugAPP.h</text>
</a>
</g>
</g>
<!-- Node5&#45;&gt;Node8 -->
<g id="edge7" class="edge"><title>Node5&#45;&gt;Node8</title>
<path fill="none" stroke="midnightblue" d="M568.713,-169.277C511.913,-160.863 419.406,-146.637 340,-132 337.15,-131.475 334.198,-130.907 331.238,-130.321"/>
<polygon fill="midnightblue" stroke="midnightblue" points="568.488,-172.782 578.892,-170.779 569.51,-165.857 568.488,-172.782"/>
</g>
<!-- Node14 -->
<g id="node14" class="node"><title>Node14</title>
<g id="a_node14"><a xlink:href="_i_plug_a_u_8h.html" target="_top" xlink:title="AudioUnit v2 API base class for an IPlug plug&#45;in. ">
<polygon fill="white" stroke="black" points="349,-112.5 349,-131.5 411,-131.5 411,-112.5 349,-112.5"/>
<text text-anchor="middle" x="380" y="-119.5" font-family="Helvetica,sans-Serif" font-size="10.00">IPlugAU.h</text>
</a>
</g>
</g>
<!-- Node5&#45;&gt;Node14 -->
<g id="edge14" class="edge"><title>Node5&#45;&gt;Node14</title>
<path fill="none" stroke="midnightblue" d="M573.033,-166.27C531.9,-157.226 471.582,-143.895 419,-132 416.425,-131.417 413.754,-130.809 411.074,-130.196"/>
<polygon fill="midnightblue" stroke="midnightblue" points="572.543,-169.745 583.061,-168.473 574.045,-162.908 572.543,-169.745"/>
</g>
<!-- Node16 -->
<g id="node16" class="node"><title>Node16</title>
<g id="a_node16"><a xlink:href="_i_plug_a_p_i_base_8cpp.html" target="_top" xlink:title="IPlugAPIBase implementation. ">
<polygon fill="white" stroke="black" points="428.5,-112.5 428.5,-131.5 525.5,-131.5 525.5,-112.5 428.5,-112.5"/>
<text text-anchor="middle" x="477" y="-119.5" font-family="Helvetica,sans-Serif" font-size="10.00">IPlugAPIBase.cpp</text>
</a>
</g>
</g>
<!-- Node5&#45;&gt;Node16 -->
<g id="edge16" class="edge"><title>Node5&#45;&gt;Node16</title>
<path fill="none" stroke="midnightblue" d="M589.525,-164.906C562.264,-154.754 524.008,-140.506 499.868,-131.516"/>
<polygon fill="midnightblue" stroke="midnightblue" points="588.432,-168.233 599.024,-168.444 590.875,-161.674 588.432,-168.233"/>
</g>
<!-- Node17 -->
<g id="node17" class="node"><title>Node17</title>
<g id="a_node17"><a xlink:href="_i_plug_v_s_t2_8h.html" target="_top" xlink:title="IPlugVST2.h">
<polygon fill="white" stroke="black" points="1019,-112.5 1019,-131.5 1091,-131.5 1091,-112.5 1019,-112.5"/>
<text text-anchor="middle" x="1055" y="-119.5" font-family="Helvetica,sans-Serif" font-size="10.00">IPlugVST2.h</text>
</a>
</g>
</g>
<!-- Node5&#45;&gt;Node17 -->
<g id="edge17" class="edge"><title>Node5&#45;&gt;Node17</title>
<path fill="none" stroke="midnightblue" d="M675.347,-170.688C746.797,-162.182 877.506,-146.437 989,-132 998.634,-130.753 1009.05,-129.355 1018.7,-128.04"/>
<polygon fill="midnightblue" stroke="midnightblue" points="674.761,-167.233 665.244,-171.89 675.588,-174.184 674.761,-167.233"/>
</g>
<!-- Node20 -->
<g id="node20" class="node"><title>Node20</title>
<g id="a_node20"><a xlink:href="_i_plug_v_s_t3_8h.html" target="_top" xlink:title="VST3 base class for a non&#45;distributed IPlug VST3 plug&#45;in. ">
<polygon fill="white" stroke="black" points="630,-112.5 630,-131.5 702,-131.5 702,-112.5 630,-112.5"/>
<text text-anchor="middle" x="666" y="-119.5" font-family="Helvetica,sans-Serif" font-size="10.00">IPlugVST3.h</text>
</a>
</g>
</g>
<!-- Node5&#45;&gt;Node20 -->
<g id="edge20" class="edge"><title>Node5&#45;&gt;Node20</title>
<path fill="none" stroke="midnightblue" d="M635.735,-160.144C643.401,-150.736 652.633,-139.405 658.869,-131.751"/>
<polygon fill="midnightblue" stroke="midnightblue" points="632.869,-158.12 629.266,-168.083 638.296,-162.541 632.869,-158.12"/>
</g>
<!-- Node22 -->
<g id="node22" class="node"><title>Node22</title>
<g id="a_node22"><a xlink:href="_i_plug_v_s_t3___controller_8h.html" target="_top" xlink:title="VST3 Controller base class for a distributed IPlug VST3 plug&#45;in. ">
<polygon fill="white" stroke="black" points="720.5,-112.5 720.5,-131.5 839.5,-131.5 839.5,-112.5 720.5,-112.5"/>
<text text-anchor="middle" x="780" y="-119.5" font-family="Helvetica,sans-Serif" font-size="10.00">IPlugVST3_Controller.h</text>
</a>
</g>
</g>
<!-- Node5&#45;&gt;Node22 -->
<g id="edge22" class="edge"><title>Node5&#45;&gt;Node22</title>
<path fill="none" stroke="midnightblue" d="M656.608,-165.172C686.359,-155.004 728.547,-140.585 755.082,-131.516"/>
<polygon fill="midnightblue" stroke="midnightblue" points="655.366,-161.898 647.036,-168.444 657.63,-168.521 655.366,-161.898"/>
</g>
<!-- Node24 -->
<g id="node24" class="node"><title>Node24</title>
<g id="a_node24"><a xlink:href="_i_plug_v_s_t3___processor_8h.html" target="_top" xlink:title="VST3 Processor base class for a distributed IPlug VST3 plug&#45;in. ">
<polygon fill="white" stroke="black" points="858,-112.5 858,-131.5 980,-131.5 980,-112.5 858,-112.5"/>
<text text-anchor="middle" x="919" y="-119.5" font-family="Helvetica,sans-Serif" font-size="10.00">IPlugVST3_Processor.h</text>
</a>
</g>
</g>
<!-- Node5&#45;&gt;Node24 -->
<g id="edge24" class="edge"><title>Node5&#45;&gt;Node24</title>
<path fill="none" stroke="midnightblue" d="M675.252,-167.318C731.183,-157.148 818.303,-141.308 871.834,-131.576"/>
<polygon fill="midnightblue" stroke="midnightblue" points="674.399,-163.915 665.186,-169.148 675.651,-170.803 674.399,-163.915"/>
</g>
<!-- Node26 -->
<g id="node26" class="node"><title>Node26</title>
<g id="a_node26"><a xlink:href="_i_plug_w_a_m_8h_source.html" target="_top" xlink:title="IPlugWAM.h">
<polygon fill="white" stroke="black" points="73,-112.5 73,-131.5 145,-131.5 145,-112.5 73,-112.5"/>
<text text-anchor="middle" x="109" y="-119.5" font-family="Helvetica,sans-Serif" font-size="10.00">IPlugWAM.h</text>
</a>
</g>
</g>
<!-- Node5&#45;&gt;Node26 -->
<g id="edge26" class="edge"><title>Node5&#45;&gt;Node26</title>
<path fill="none" stroke="midnightblue" d="M568.701,-173.234C482.392,-166.819 306.79,-152.449 159,-132 154.544,-131.383 149.879,-130.655 145.266,-129.885"/>
<polygon fill="midnightblue" stroke="midnightblue" points="568.546,-176.732 578.776,-173.977 569.061,-169.751 568.546,-176.732"/>
</g>
<!-- Node28 -->
<g id="node28" class="node"><title>Node28</title>
<g id="a_node28"><a xlink:href="_i_plug_web_8h_source.html" target="_top" xlink:title="IPlugWeb.h">
<polygon fill="white" stroke="black" points="168,-112.5 168,-131.5 236,-131.5 236,-112.5 168,-112.5"/>
<text text-anchor="middle" x="202" y="-119.5" font-family="Helvetica,sans-Serif" font-size="10.00">IPlugWeb.h</text>
</a>
</g>
</g>
<!-- Node5&#45;&gt;Node28 -->
<g id="edge28" class="edge"><title>Node5&#45;&gt;Node28</title>
<path fill="none" stroke="midnightblue" d="M568.717,-171.325C497.043,-163.5 365.67,-148.481 254,-132 248.199,-131.144 242.049,-130.153 236.086,-129.149"/>
<polygon fill="midnightblue" stroke="midnightblue" points="568.529,-174.825 578.849,-172.427 569.286,-167.866 568.529,-174.825"/>
</g>
<!-- Node7 -->
<g id="node7" class="node"><title>Node7</title>
<g id="a_node7"><a xlink:href="_i_plug_a_a_x_8cpp_source.html" target="_top" xlink:title="IPlugAAX.cpp">
<polygon fill="white" stroke="black" points="507,-56.5 507,-75.5 585,-75.5 585,-56.5 507,-56.5"/>
<text text-anchor="middle" x="546" y="-63.5" font-family="Helvetica,sans-Serif" font-size="10.00">IPlugAAX.cpp</text>
</a>
</g>
</g>
<!-- Node6&#45;&gt;Node7 -->
<g id="edge6" class="edge"><title>Node6&#45;&gt;Node7</title>
<path fill="none" stroke="midnightblue" d="M567.496,-103.275C562.027,-94.0454 555.582,-83.1703 551.186,-75.7511"/>
<polygon fill="midnightblue" stroke="midnightblue" points="564.607,-105.264 572.716,-112.083 570.629,-101.696 564.607,-105.264"/>
</g>
<!-- Node9 -->
<g id="node9" class="node"><title>Node9</title>
<g id="a_node9"><a xlink:href="_i_plug_a_p_p_8cpp_source.html" target="_top" xlink:title="IPlugAPP.cpp">
<polygon fill="white" stroke="black" points="370,-0.5 370,-19.5 448,-19.5 448,-0.5 370,-0.5"/>
<text text-anchor="middle" x="409" y="-7.5" font-family="Helvetica,sans-Serif" font-size="10.00">IPlugAPP.cpp</text>
</a>
</g>
</g>
<!-- Node8&#45;&gt;Node9 -->
<g id="edge8" class="edge"><title>Node8&#45;&gt;Node9</title>
<path fill="none" stroke="midnightblue" d="M316.84,-106.061C327.608,-97.6392 340.939,-86.6887 352,-76 371.427,-57.2259 391.715,-32.7179 402.048,-19.8209"/>
<polygon fill="midnightblue" stroke="midnightblue" points="314.632,-103.345 308.847,-112.221 318.904,-108.889 314.632,-103.345"/>
</g>
<!-- Node10 -->
<g id="node10" class="node"><title>Node10</title>
<g id="a_node10"><a xlink:href="_i_plug_a_p_p__host_8h_source.html" target="_top" xlink:title="IPlugAPP_host.h">
<polygon fill="white" stroke="black" points="251,-56.5 251,-75.5 343,-75.5 343,-56.5 251,-56.5"/>
<text text-anchor="middle" x="297" y="-63.5" font-family="Helvetica,sans-Serif" font-size="10.00">IPlugAPP_host.h</text>
</a>
</g>
</g>
<!-- Node8&#45;&gt;Node10 -->
<g id="edge9" class="edge"><title>Node8&#45;&gt;Node10</title>
<path fill="none" stroke="midnightblue" d="M297,-101.805C297,-92.9102 297,-82.7798 297,-75.7511"/>
<polygon fill="midnightblue" stroke="midnightblue" points="293.5,-102.083 297,-112.083 300.5,-102.083 293.5,-102.083"/>
</g>
<!-- Node10&#45;&gt;Node9 -->
<g id="edge10" class="edge"><title>Node10&#45;&gt;Node9</title>
<path fill="none" stroke="midnightblue" d="M324.249,-51.8622C345.016,-41.8492 373.023,-28.3458 391.05,-19.6545"/>
<polygon fill="midnightblue" stroke="midnightblue" points="322.482,-48.8282 314.995,-56.324 325.523,-55.1336 322.482,-48.8282"/>
</g>
<!-- Node11 -->
<g id="node11" class="node"><title>Node11</title>
<g id="a_node11"><a xlink:href="_i_plug_a_p_p__dialog_8cpp_source.html" target="_top" xlink:title="IPlugAPP_dialog.cpp">
<polygon fill="white" stroke="black" points="242.5,-0.5 242.5,-19.5 351.5,-19.5 351.5,-0.5 242.5,-0.5"/>
<text text-anchor="middle" x="297" y="-7.5" font-family="Helvetica,sans-Serif" font-size="10.00">IPlugAPP_dialog.cpp</text>
</a>
</g>
</g>
<!-- Node10&#45;&gt;Node11 -->
<g id="edge11" class="edge"><title>Node10&#45;&gt;Node11</title>
<path fill="none" stroke="midnightblue" d="M297,-45.8045C297,-36.9102 297,-26.7798 297,-19.7511"/>
<polygon fill="midnightblue" stroke="midnightblue" points="293.5,-46.083 297,-56.083 300.5,-46.083 293.5,-46.083"/>
</g>
<!-- Node12 -->
<g id="node12" class="node"><title>Node12</title>
<g id="a_node12"><a xlink:href="_i_plug_a_p_p__host_8cpp_source.html" target="_top" xlink:title="IPlugAPP_host.cpp">
<polygon fill="white" stroke="black" points="0,-0.5 0,-19.5 102,-19.5 102,-0.5 0,-0.5"/>
<text text-anchor="middle" x="51" y="-7.5" font-family="Helvetica,sans-Serif" font-size="10.00">IPlugAPP_host.cpp</text>
</a>
</g>
</g>
<!-- Node10&#45;&gt;Node12 -->
<g id="edge12" class="edge"><title>Node10&#45;&gt;Node12</title>
<path fill="none" stroke="midnightblue" d="M248.171,-54.2815C201.684,-44.0769 132.637,-28.9203 89.7971,-19.5164"/>
<polygon fill="midnightblue" stroke="midnightblue" points="247.503,-57.718 258.021,-56.4435 249.004,-50.8808 247.503,-57.718"/>
</g>
<!-- Node13 -->
<g id="node13" class="node"><title>Node13</title>
<g id="a_node13"><a xlink:href="_i_plug_a_p_p__main_8cpp_source.html" target="_top" xlink:title="IPlugAPP_main.cpp">
<polygon fill="white" stroke="black" points="120,-0.5 120,-19.5 224,-19.5 224,-0.5 120,-0.5"/>
<text text-anchor="middle" x="172" y="-7.5" font-family="Helvetica,sans-Serif" font-size="10.00">IPlugAPP_main.cpp</text>
</a>
</g>
</g>
<!-- Node10&#45;&gt;Node13 -->
<g id="edge13" class="edge"><title>Node10&#45;&gt;Node13</title>
<path fill="none" stroke="midnightblue" d="M267.759,-52.3678C244.35,-42.2553 212.159,-28.3486 191.714,-19.5164"/>
<polygon fill="midnightblue" stroke="midnightblue" points="266.625,-55.6907 277.193,-56.4435 269.401,-49.2647 266.625,-55.6907"/>
</g>
<!-- Node15 -->
<g id="node15" class="node"><title>Node15</title>
<g id="a_node15"><a xlink:href="_i_plug_a_u_8cpp_source.html" target="_top" xlink:title="IPlugAU.cpp">
<polygon fill="white" stroke="black" points="399,-56.5 399,-75.5 471,-75.5 471,-56.5 399,-56.5"/>
<text text-anchor="middle" x="435" y="-63.5" font-family="Helvetica,sans-Serif" font-size="10.00">IPlugAU.cpp</text>
</a>
</g>
</g>
<!-- Node14&#45;&gt;Node15 -->
<g id="edge15" class="edge"><title>Node14&#45;&gt;Node15</title>
<path fill="none" stroke="midnightblue" d="M396.294,-105.002C406.041,-95.4329 418.053,-83.6389 426.087,-75.7511"/>
<polygon fill="midnightblue" stroke="midnightblue" points="393.766,-102.58 389.082,-112.083 398.67,-107.575 393.766,-102.58"/>
</g>
<!-- Node18 -->
<g id="node18" class="node"><title>Node18</title>
<g id="a_node18"><a xlink:href="_i_plug_reaper_v_s_t2_8h_source.html" target="_top" xlink:title="IPlugReaperVST2.h">
<polygon fill="white" stroke="black" points="1003,-56.5 1003,-75.5 1107,-75.5 1107,-56.5 1003,-56.5"/>
<text text-anchor="middle" x="1055" y="-63.5" font-family="Helvetica,sans-Serif" font-size="10.00">IPlugReaperVST2.h</text>
</a>
</g>
</g>
<!-- Node17&#45;&gt;Node18 -->
<g id="edge18" class="edge"><title>Node17&#45;&gt;Node18</title>
<path fill="none" stroke="midnightblue" d="M1055,-101.805C1055,-92.9102 1055,-82.7798 1055,-75.7511"/>
<polygon fill="midnightblue" stroke="midnightblue" points="1051.5,-102.083 1055,-112.083 1058.5,-102.083 1051.5,-102.083"/>
</g>
<!-- Node17&#45;&gt;Node19 -->
<g id="edge19" class="edge"><title>Node17&#45;&gt;Node19</title>
<path fill="none" stroke="midnightblue" d="M1082.25,-107.862C1103.02,-97.8492 1131.02,-84.3458 1149.05,-75.6545"/>
<polygon fill="midnightblue" stroke="midnightblue" points="1080.48,-104.828 1072.99,-112.324 1083.52,-111.134 1080.48,-104.828"/>
</g>
<!-- Node21 -->
<g id="node21" class="node"><title>Node21</title>
<g id="a_node21"><a xlink:href="_i_plug_v_s_t3_8cpp_source.html" target="_top" xlink:title="IPlugVST3.cpp">
<polygon fill="white" stroke="black" points="603.5,-56.5 603.5,-75.5 686.5,-75.5 686.5,-56.5 603.5,-56.5"/>
<text text-anchor="middle" x="645" y="-63.5" font-family="Helvetica,sans-Serif" font-size="10.00">IPlugVST3.cpp</text>
</a>
</g>
</g>
<!-- Node20&#45;&gt;Node21 -->
<g id="edge21" class="edge"><title>Node20&#45;&gt;Node21</title>
<path fill="none" stroke="midnightblue" d="M658.879,-102.69C655.34,-93.589 651.228,-83.0141 648.403,-75.7511"/>
<polygon fill="midnightblue" stroke="midnightblue" points="655.646,-104.032 662.532,-112.083 662.17,-101.494 655.646,-104.032"/>
</g>
<!-- Node23 -->
<g id="node23" class="node"><title>Node23</title>
<g id="a_node23"><a xlink:href="_i_plug_v_s_t3___controller_8cpp_source.html" target="_top" xlink:title="IPlugVST3_Controller.cpp">
<polygon fill="white" stroke="black" points="705,-56.5 705,-75.5 835,-75.5 835,-56.5 705,-56.5"/>
<text text-anchor="middle" x="770" y="-63.5" font-family="Helvetica,sans-Serif" font-size="10.00">IPlugVST3_Controller.cpp</text>
</a>
</g>
</g>
<!-- Node22&#45;&gt;Node23 -->
<g id="edge23" class="edge"><title>Node22&#45;&gt;Node23</title>
<path fill="none" stroke="midnightblue" d="M776.5,-102.101C774.84,-93.1357 772.937,-82.8579 771.621,-75.7511"/>
<polygon fill="midnightblue" stroke="midnightblue" points="773.086,-102.888 778.349,-112.083 779.969,-101.613 773.086,-102.888"/>
</g>
<!-- Node25 -->
<g id="node25" class="node"><title>Node25</title>
<g id="a_node25"><a xlink:href="_i_plug_v_s_t3___processor_8cpp_source.html" target="_top" xlink:title="IPlugVST3_Processor.cpp">
<polygon fill="white" stroke="black" points="853,-56.5 853,-75.5 985,-75.5 985,-56.5 853,-56.5"/>
<text text-anchor="middle" x="919" y="-63.5" font-family="Helvetica,sans-Serif" font-size="10.00">IPlugVST3_Processor.cpp</text>
</a>
</g>
</g>
<!-- Node24&#45;&gt;Node25 -->
<g id="edge25" class="edge"><title>Node24&#45;&gt;Node25</title>
<path fill="none" stroke="midnightblue" d="M919,-101.805C919,-92.9102 919,-82.7798 919,-75.7511"/>
<polygon fill="midnightblue" stroke="midnightblue" points="915.5,-102.083 919,-112.083 922.5,-102.083 915.5,-102.083"/>
</g>
<!-- Node27 -->
<g id="node27" class="node"><title>Node27</title>
<g id="a_node27"><a xlink:href="_i_plug_w_a_m_8cpp_source.html" target="_top" xlink:title="IPlugWAM.cpp">
<polygon fill="white" stroke="black" points="53.5,-56.5 53.5,-75.5 136.5,-75.5 136.5,-56.5 53.5,-56.5"/>
<text text-anchor="middle" x="95" y="-63.5" font-family="Helvetica,sans-Serif" font-size="10.00">IPlugWAM.cpp</text>
</a>
</g>
</g>
<!-- Node26&#45;&gt;Node27 -->
<g id="edge27" class="edge"><title>Node26&#45;&gt;Node27</title>
<path fill="none" stroke="midnightblue" d="M104.177,-102.396C101.835,-93.362 99.1316,-82.936 97.2688,-75.7511"/>
<polygon fill="midnightblue" stroke="midnightblue" points="100.79,-103.281 106.688,-112.083 107.566,-101.525 100.79,-103.281"/>
</g>
<!-- Node29 -->
<g id="node29" class="node"><title>Node29</title>
<g id="a_node29"><a xlink:href="_i_plug_web_8cpp_source.html" target="_top" xlink:title="IPlugWeb.cpp">
<polygon fill="white" stroke="black" points="155,-56.5 155,-75.5 233,-75.5 233,-56.5 155,-56.5"/>
<text text-anchor="middle" x="194" y="-63.5" font-family="Helvetica,sans-Serif" font-size="10.00">IPlugWeb.cpp</text>
</a>
</g>
</g>
<!-- Node28&#45;&gt;Node29 -->
<g id="edge29" class="edge"><title>Node28&#45;&gt;Node29</title>
<path fill="none" stroke="midnightblue" d="M199.2,-102.101C197.872,-93.1357 196.349,-82.8579 195.296,-75.7511"/>
<polygon fill="midnightblue" stroke="midnightblue" points="195.751,-102.704 200.679,-112.083 202.676,-101.678 195.751,-102.704"/>
</g>
<!-- Node33 -->
<g id="node33" class="node"><title>Node33</title>
<g id="a_node33"><a xlink:href="_i_graphics_8h.html" target="_top" xlink:title="The lowest level base class of an IGraphics context. ">
<polygon fill="white" stroke="black" points="2169.5,-224.5 2169.5,-243.5 2236.5,-243.5 2236.5,-224.5 2169.5,-224.5"/>
<text text-anchor="middle" x="2203" y="-231.5" font-family="Helvetica,sans-Serif" font-size="10.00">IGraphics.h</text>
</a>
</g>
</g>
<!-- Node32&#45;&gt;Node33 -->
<g id="edge34" class="edge"><title>Node32&#45;&gt;Node33</title>
<path fill="none" stroke="midnightblue" d="M2203,-269.805C2203,-260.91 2203,-250.78 2203,-243.751"/>
<polygon fill="midnightblue" stroke="midnightblue" points="2199.5,-270.083 2203,-280.083 2206.5,-270.083 2199.5,-270.083"/>
</g>
<!-- Node48 -->
<g id="node48" class="node"><title>Node48</title>
<g id="a_node48"><a xlink:href="_i_graphics_editor_delegate_8cpp_source.html" target="_top" xlink:title="IGraphicsEditorDelegate.cpp">
<polygon fill="white" stroke="black" points="2379,-112.5 2379,-131.5 2521,-131.5 2521,-112.5 2379,-112.5"/>
<text text-anchor="middle" x="2450" y="-119.5" font-family="Helvetica,sans-Serif" font-size="10.00">IGraphicsEditorDelegate.cpp</text>
</a>
</g>
</g>
<!-- Node32&#45;&gt;Node48 -->
<g id="edge64" class="edge"><title>Node32&#45;&gt;Node48</title>
<path fill="none" stroke="midnightblue" d="M2235.48,-276.674C2275.82,-260.368 2345.46,-228.853 2396,-188 2416.99,-171.029 2435.7,-144.875 2444.57,-131.505"/>
<polygon fill="midnightblue" stroke="midnightblue" points="2234.13,-273.446 2226.13,-280.394 2236.71,-279.95 2234.13,-273.446"/>
</g>
<!-- Node33&#45;&gt;Node31 -->
<g id="edge61" class="edge"><title>Node33&#45;&gt;Node31</title>
<path fill="none" stroke="midnightblue" d="M2226.65,-218.95C2276.13,-187.904 2381.91,-111.79 2331,-56 2300.67,-22.7645 1988.97,-13.7677 1878.53,-11.6135"/>
<polygon fill="midnightblue" stroke="midnightblue" points="2224.53,-216.15 2217.85,-224.374 2228.2,-222.111 2224.53,-216.15"/>
</g>
<!-- Node34 -->
<g id="node34" class="node"><title>Node34</title>
<g id="a_node34"><a xlink:href="_i_graphics_lice_8h_source.html" target="_top" xlink:title="IGraphicsLice.h">
<polygon fill="white" stroke="black" points="1638.5,-168.5 1638.5,-187.5 1723.5,-187.5 1723.5,-168.5 1638.5,-168.5"/>
<text text-anchor="middle" x="1681" y="-175.5" font-family="Helvetica,sans-Serif" font-size="10.00">IGraphicsLice.h</text>
</a>
</g>
</g>
<!-- Node33&#45;&gt;Node34 -->
<g id="edge35" class="edge"><title>Node33&#45;&gt;Node34</title>
<path fill="none" stroke="midnightblue" d="M2158.91,-228.439C2059.96,-218.203 1821.29,-193.513 1723.68,-183.416"/>
<polygon fill="midnightblue" stroke="midnightblue" points="2158.85,-231.951 2169.15,-229.499 2159.57,-224.988 2158.85,-231.951"/>
</g>
<!-- Node36 -->
<g id="node36" class="node"><title>Node36</title>
<g id="a_node36"><a xlink:href="_i_control_8h.html" target="_top" xlink:title="This file contains the base IControl implementation, along with some base classes for specific types ...">
<polygon fill="white" stroke="red" points="2037.5,-168.5 2037.5,-187.5 2096.5,-187.5 2096.5,-168.5 2037.5,-168.5"/>
<text text-anchor="middle" x="2067" y="-175.5" font-family="Helvetica,sans-Serif" font-size="10.00">IControl.h</text>
</a>
</g>
</g>
<!-- Node33&#45;&gt;Node36 -->
<g id="edge37" class="edge"><title>Node33&#45;&gt;Node36</title>
<path fill="none" stroke="midnightblue" d="M2171.87,-220.638C2146.34,-210.504 2110.89,-196.427 2088.45,-187.516"/>
<polygon fill="midnightblue" stroke="midnightblue" points="2170.86,-224.006 2181.45,-224.444 2173.45,-217.5 2170.86,-224.006"/>
</g>
<!-- Node33&#45;&gt;Node48 -->
<g id="edge62" class="edge"><title>Node33&#45;&gt;Node48</title>
<path fill="none" stroke="midnightblue" d="M2246.59,-225.595C2280.17,-218.794 2327.11,-206.862 2365,-188 2395.6,-172.767 2426.12,-145.852 2440.87,-131.918"/>
<polygon fill="midnightblue" stroke="midnightblue" points="2245.76,-222.19 2236.62,-227.542 2247.1,-229.06 2245.76,-222.19"/>
</g>
<!-- Node49 -->
<g id="node49" class="node"><title>Node49</title>
<g id="a_node49"><a xlink:href="_i_graphics_path_base_8h.html" target="_top" xlink:title="A base class to share implementations of IGraphics.h functionality across different path based graphi...">
<polygon fill="white" stroke="red" points="2148,-168.5 2148,-187.5 2258,-187.5 2258,-168.5 2148,-168.5"/>
<text text-anchor="middle" x="2203" y="-175.5" font-family="Helvetica,sans-Serif" font-size="10.00">IGraphicsPathBase.h</text>
</a>
</g>
</g>
<!-- Node33&#45;&gt;Node49 -->
<g id="edge63" class="edge"><title>Node33&#45;&gt;Node49</title>
<path fill="none" stroke="midnightblue" d="M2203,-213.805C2203,-204.91 2203,-194.78 2203,-187.751"/>
<polygon fill="midnightblue" stroke="midnightblue" points="2199.5,-214.083 2203,-224.083 2206.5,-214.083 2199.5,-214.083"/>
</g>
<!-- Node35 -->
<g id="node35" class="node"><title>Node35</title>
<g id="a_node35"><a xlink:href="_i_graphics_lice_8cpp_source.html" target="_top" xlink:title="IGraphicsLice.cpp">
<polygon fill="white" stroke="black" points="1303.5,-112.5 1303.5,-131.5 1398.5,-131.5 1398.5,-112.5 1303.5,-112.5"/>
<text text-anchor="middle" x="1351" y="-119.5" font-family="Helvetica,sans-Serif" font-size="10.00">IGraphicsLice.cpp</text>
</a>
</g>
</g>
<!-- Node34&#45;&gt;Node35 -->
<g id="edge36" class="edge"><title>Node34&#45;&gt;Node35</title>
<path fill="none" stroke="midnightblue" d="M1628.01,-168.329C1564.61,-157.955 1459.41,-140.74 1398.53,-130.778"/>
<polygon fill="midnightblue" stroke="midnightblue" points="1627.76,-171.835 1638.2,-169.996 1628.89,-164.927 1627.76,-171.835"/>
</g>
<!-- Node36&#45;&gt;Node31 -->
<g id="edge58" class="edge"><title>Node36&#45;&gt;Node31</title>
<path fill="none" stroke="midnightblue" d="M2027.08,-175.589C1892.96,-170.66 1465.85,-153.337 1446,-132 1342.32,-20.5315 1683.08,-10.7669 1801.18,-10.6492"/>
<polygon fill="midnightblue" stroke="midnightblue" points="2027.19,-179.096 2037.32,-175.962 2027.45,-172.101 2027.19,-179.096"/>
</g>
<!-- Node37 -->
<g id="node37" class="node"><title>Node37</title>
<g id="a_node37"><a xlink:href="_i_color_picker_control_8h.html" target="_top" xlink:title="A control for choosing a color. ">
<polygon fill="white" stroke="black" points="1735,-112.5 1735,-131.5 1845,-131.5 1845,-112.5 1735,-112.5"/>
<text text-anchor="middle" x="1790" y="-119.5" font-family="Helvetica,sans-Serif" font-size="10.00">IColorPickerControl.h</text>
</a>
</g>
</g>
<!-- Node36&#45;&gt;Node37 -->
<g id="edge38" class="edge"><title>Node36&#45;&gt;Node37</title>
<path fill="none" stroke="midnightblue" d="M2027.33,-169.266C1976.09,-159.277 1887.19,-141.946 1833.95,-131.568"/>
<polygon fill="midnightblue" stroke="midnightblue" points="2026.87,-172.743 2037.36,-171.221 2028.21,-165.872 2026.87,-172.743"/>
</g>
<!-- Node38 -->
<g id="node38" class="node"><title>Node38</title>
<g id="a_node38"><a xlink:href="_i_controls_8h.html" target="_top" xlink:title="A collection of IControls for common UI widgets, such as knobs, sliders, switches. ">
<polygon fill="white" stroke="red" points="1757.5,-56.5 1757.5,-75.5 1822.5,-75.5 1822.5,-56.5 1757.5,-56.5"/>
<text text-anchor="middle" x="1790" y="-63.5" font-family="Helvetica,sans-Serif" font-size="10.00">IControls.h</text>
</a>
</g>
</g>
<!-- Node36&#45;&gt;Node38 -->
<g id="edge41" class="edge"><title>Node36&#45;&gt;Node38</title>
<path fill="none" stroke="midnightblue" d="M2027.28,-174.659C1941.62,-169.204 1745.63,-154.387 1726,-132 1707.42,-110.803 1745.62,-87.6584 1770.62,-75.5222"/>
<polygon fill="midnightblue" stroke="midnightblue" points="2027.21,-178.161 2037.4,-175.292 2027.64,-171.174 2027.21,-178.161"/>
</g>
<!-- Node39 -->
<g id="node39" class="node"><title>Node39</title>
<g id="a_node39"><a xlink:href="_i_v_keyboard_control_8h.html" target="_top" xlink:title="Vectorial keyboard control. ">
<polygon fill="white" stroke="black" points="1863.5,-112.5 1863.5,-131.5 1970.5,-131.5 1970.5,-112.5 1863.5,-112.5"/>
<text text-anchor="middle" x="1917" y="-119.5" font-family="Helvetica,sans-Serif" font-size="10.00">IVKeyboardControl.h</text>
</a>
</g>
</g>
<!-- Node36&#45;&gt;Node39 -->
<g id="edge42" class="edge"><title>Node36&#45;&gt;Node39</title>
<path fill="none" stroke="midnightblue" d="M2033.78,-165.039C2005.55,-154.879 1965.74,-140.546 1940.66,-131.516"/>
<polygon fill="midnightblue" stroke="midnightblue" points="2032.64,-168.349 2043.23,-168.444 2035.01,-161.763 2032.64,-168.349"/>
</g>
<!-- Node40 -->
<g id="node40" class="node"><title>Node40</title>
<g id="a_node40"><a xlink:href="_i_v_meter_control_8h.html" target="_top" xlink:title="Vectorial multichannel capable meter control. ">
<polygon fill="white" stroke="black" points="1988.5,-112.5 1988.5,-131.5 2079.5,-131.5 2079.5,-112.5 1988.5,-112.5"/>
<text text-anchor="middle" x="2034" y="-119.5" font-family="Helvetica,sans-Serif" font-size="10.00">IVMeterControl.h</text>
</a>
</g>
</g>
<!-- Node36&#45;&gt;Node40 -->
<g id="edge44" class="edge"><title>Node36&#45;&gt;Node40</title>
<path fill="none" stroke="midnightblue" d="M2056.17,-159.275C2050.53,-150.045 2043.88,-139.17 2039.35,-131.751"/>
<polygon fill="midnightblue" stroke="midnightblue" points="2053.35,-161.375 2061.55,-168.083 2059.32,-157.725 2053.35,-161.375"/>
</g>
<!-- Node41 -->
<g id="node41" class="node"><title>Node41</title>
<g id="a_node41"><a xlink:href="_i_v_scope_control_8h.html" target="_top" xlink:title="Vectorial multichannel capable oscilloscope control. ">
<polygon fill="white" stroke="black" points="1455,-112.5 1455,-131.5 1549,-131.5 1549,-112.5 1455,-112.5"/>
<text text-anchor="middle" x="1502" y="-119.5" font-family="Helvetica,sans-Serif" font-size="10.00">IVScopeControl.h</text>
</a>
</g>
</g>
<!-- Node36&#45;&gt;Node41 -->
<g id="edge46" class="edge"><title>Node36&#45;&gt;Node41</title>
<path fill="none" stroke="midnightblue" d="M2027.29,-174.456C1941.45,-168.744 1732.3,-153.683 1558,-132 1555.07,-131.635 1552.06,-131.233 1549.02,-130.806"/>
<polygon fill="midnightblue" stroke="midnightblue" points="2027.17,-177.955 2037.37,-175.121 2027.63,-170.97 2027.17,-177.955"/>
</g>
<!-- Node42 -->
<g id="node42" class="node"><title>Node42</title>
<g id="a_node42"><a xlink:href="_i_v_multi_slider_control_8h.html" target="_top" xlink:title="A vectorial multi&#45;slider control. ">
<polygon fill="white" stroke="black" points="1567,-112.5 1567,-131.5 1679,-131.5 1679,-112.5 1567,-112.5"/>
<text text-anchor="middle" x="1623" y="-119.5" font-family="Helvetica,sans-Serif" font-size="10.00">IVMultiSliderControl.h</text>
</a>
</g>
</g>
<!-- Node36&#45;&gt;Node42 -->
<g id="edge48" class="edge"><title>Node36&#45;&gt;Node42</title>
<path fill="none" stroke="midnightblue" d="M2027.1,-172.307C1958.7,-164.238 1814.67,-147.141 1693,-132 1688.5,-131.44 1683.84,-130.854 1679.16,-130.261"/>
<polygon fill="midnightblue" stroke="midnightblue" points="2027.07,-175.828 2037.42,-173.523 2027.89,-168.876 2027.07,-175.828"/>
</g>
<!-- Node43 -->
<g id="node43" class="node"><title>Node43</title>
<g id="a_node43"><a xlink:href="_i_corner_resizer_control_8h.html" target="_top" xlink:title="A control for resizing the plug&#45;in window by clicking and dragging in the bottom right&#45;hand corner Th...">
<polygon fill="white" stroke="black" points="2071,-56.5 2071,-75.5 2193,-75.5 2193,-56.5 2071,-56.5"/>
<text text-anchor="middle" x="2132" y="-63.5" font-family="Helvetica,sans-Serif" font-size="10.00">ICornerResizerControl.h</text>
</a>
</g>
</g>
<!-- Node36&#45;&gt;Node43 -->
<g id="edge50" class="edge"><title>Node36&#45;&gt;Node43</title>
<path fill="none" stroke="midnightblue" d="M2106.81,-171.859C2151.14,-165.221 2218.61,-152.08 2234,-132 2254.94,-104.664 2207.19,-85.6764 2170.17,-75.5593"/>
<polygon fill="midnightblue" stroke="midnightblue" points="2106.03,-168.436 2096.63,-173.331 2107.03,-175.364 2106.03,-168.436"/>
</g>
<!-- Node44 -->
<g id="node44" class="node"><title>Node44</title>
<g id="a_node44"><a xlink:href="_i_f_p_s_display_control_8h.html" target="_top" xlink:title="Performance display meter, based on code from NanoVG This is a special control that lives outside the...">
<polygon fill="white" stroke="black" points="2211,-56.5 2211,-75.5 2323,-75.5 2323,-56.5 2211,-56.5"/>
<text text-anchor="middle" x="2267" y="-63.5" font-family="Helvetica,sans-Serif" font-size="10.00">IFPSDisplayControl.h</text>
</a>
</g>
</g>
<!-- Node36&#45;&gt;Node44 -->
<g id="edge52" class="edge"><title>Node36&#45;&gt;Node44</title>
<path fill="none" stroke="midnightblue" d="M2106.67,-172.14C2154.49,-165.483 2230.95,-152.024 2251,-132 2266.13,-116.891 2267.78,-89.922 2267.51,-75.9472"/>
<polygon fill="midnightblue" stroke="midnightblue" points="2106.08,-168.688 2096.64,-173.496 2107.02,-175.625 2106.08,-168.688"/>
</g>
<!-- Node45 -->
<g id="node45" class="node"><title>Node45</title>
<g id="a_node45"><a xlink:href="_i_popup_menu_control_8h.html" target="_top" xlink:title="A base control for a pop&#45;up menu/drop&#45;down list that stays within the bounds of the IGraphics context...">
<polygon fill="white" stroke="red" points="2097.5,-112.5 2097.5,-131.5 2208.5,-131.5 2208.5,-112.5 2097.5,-112.5"/>
<text text-anchor="middle" x="2153" y="-119.5" font-family="Helvetica,sans-Serif" font-size="10.00">IPopupMenuControl.h</text>
</a>
</g>
</g>
<!-- Node36&#45;&gt;Node45 -->
<g id="edge54" class="edge"><title>Node36&#45;&gt;Node45</title>
<path fill="none" stroke="midnightblue" d="M2089.45,-162.901C2105.22,-152.999 2125.81,-140.071 2139.22,-131.655"/>
<polygon fill="midnightblue" stroke="midnightblue" points="2087.43,-160.042 2080.82,-168.324 2091.15,-165.97 2087.43,-160.042"/>
</g>
<!-- Node36&#45;&gt;Node46 -->
<g id="edge60" class="edge"><title>Node36&#45;&gt;Node46</title>
<path fill="none" stroke="midnightblue" d="M2106.56,-170.576C2146.38,-163.207 2203.75,-149.809 2217,-132 2222.31,-124.869 2222.59,-118.907 2217,-112 2211.78,-105.559 2113.26,-86.6567 2052.38,-75.5051"/>
<polygon fill="midnightblue" stroke="midnightblue" points="2105.82,-167.151 2096.6,-172.362 2107.06,-174.042 2105.82,-167.151"/>
</g>
<!-- Node36&#45;&gt;Node47 -->
<g id="edge57" class="edge"><title>Node36&#45;&gt;Node47</title>
<path fill="none" stroke="midnightblue" d="M2106.87,-171.782C2117.31,-170.479 2128.57,-169.131 2139,-168 2312.49,-149.175 2357.36,-157.524 2530,-132 2532.93,-131.567 2535.96,-131.064 2539,-130.521"/>
<polygon fill="midnightblue" stroke="midnightblue" points="2106.23,-168.334 2096.75,-173.061 2107.11,-175.279 2106.23,-168.334"/>
</g>
<!-- Node36&#45;&gt;Node48 -->
<g id="edge59" class="edge"><title>Node36&#45;&gt;Node48</title>
<path fill="none" stroke="midnightblue" d="M2106.91,-171.373C2174.12,-161.896 2310.29,-142.697 2389.38,-131.548"/>
<polygon fill="midnightblue" stroke="midnightblue" points="2106.15,-167.946 2096.73,-172.808 2107.13,-174.877 2106.15,-167.946"/>
</g>
<!-- Node37&#45;&gt;Node38 -->
<g id="edge39" class="edge"><title>Node37&#45;&gt;Node38</title>
<path fill="none" stroke="midnightblue" d="M1790,-101.805C1790,-92.9102 1790,-82.7798 1790,-75.7511"/>
<polygon fill="midnightblue" stroke="midnightblue" points="1786.5,-102.083 1790,-112.083 1793.5,-102.083 1786.5,-102.083"/>
</g>
<!-- Node38&#45;&gt;Node31 -->
<g id="edge40" class="edge"><title>Node38&#45;&gt;Node31</title>
<path fill="none" stroke="midnightblue" d="M1805.08,-48.7175C1813.89,-39.1997 1824.67,-27.5608 1831.9,-19.7511"/>
<polygon fill="midnightblue" stroke="midnightblue" points="1802.48,-46.3674 1798.26,-56.083 1807.62,-51.1233 1802.48,-46.3674"/>
</g>
<!-- Node39&#45;&gt;Node38 -->
<g id="edge43" class="edge"><title>Node39&#45;&gt;Node38</title>
<path fill="none" stroke="midnightblue" d="M1887.61,-108.503C1863.8,-98.3795 1830.89,-84.388 1810.03,-75.5164"/>
<polygon fill="midnightblue" stroke="midnightblue" points="1886.3,-111.751 1896.88,-112.444 1889.04,-105.31 1886.3,-111.751"/>
</g>
<!-- Node40&#45;&gt;Node38 -->
<g id="edge45" class="edge"><title>Node40&#45;&gt;Node38</title>
<path fill="none" stroke="midnightblue" d="M1985.42,-110.249C1937.13,-99.5615 1864.39,-83.4645 1822.63,-74.2203"/>
<polygon fill="midnightblue" stroke="midnightblue" points="1984.82,-113.7 1995.34,-112.444 1986.33,-106.865 1984.82,-113.7"/>
</g>
<!-- Node41&#45;&gt;Node38 -->
<g id="edge47" class="edge"><title>Node41&#45;&gt;Node38</title>
<path fill="none" stroke="midnightblue" d="M1557.57,-110.581C1616.76,-99.4825 1708.49,-82.2838 1757.12,-73.1649"/>
<polygon fill="midnightblue" stroke="midnightblue" points="1556.82,-107.161 1547.63,-112.444 1558.11,-114.041 1556.82,-107.161"/>
</g>
<!-- Node42&#45;&gt;Node38 -->
<g id="edge49" class="edge"><title>Node42&#45;&gt;Node38</title>
<path fill="none" stroke="midnightblue" d="M1659.17,-109.304C1690.64,-99.1294 1735.49,-84.6246 1763.66,-75.5164"/>
<polygon fill="midnightblue" stroke="midnightblue" points="1657.9,-106.037 1649.46,-112.444 1660.05,-112.697 1657.9,-106.037"/>
</g>
<!-- Node43&#45;&gt;Node31 -->
<g id="edge51" class="edge"><title>Node43&#45;&gt;Node31</title>
<path fill="none" stroke="midnightblue" d="M2075.64,-54.5776C2017.7,-43.8615 1929.02,-27.462 1878.59,-18.1368"/>
<polygon fill="midnightblue" stroke="midnightblue" points="2075.26,-58.0666 2085.73,-56.4435 2076.53,-51.1833 2075.26,-58.0666"/>
</g>
<!-- Node44&#45;&gt;Node31 -->
<g id="edge53" class="edge"><title>Node44&#45;&gt;Node31</title>
<path fill="none" stroke="midnightblue" d="M2200.94,-55.8756C2076.96,-39.6447 1943.06,-23.3725 1878.6,-15.6191"/>
<polygon fill="midnightblue" stroke="midnightblue" points="2200.62,-59.3633 2210.99,-57.194 2201.53,-52.4228 2200.62,-59.3633"/>
</g>
<!-- Node45&#45;&gt;Node31 -->
<g id="edge55" class="edge"><title>Node45&#45;&gt;Node31</title>
<path fill="none" stroke="midnightblue" d="M2095.78,-110.595C2044.84,-100.942 1974.42,-86.5202 1948,-76 1910.18,-60.9424 1870.31,-33.4523 1851.33,-19.5445"/>
<polygon fill="midnightblue" stroke="midnightblue" points="2095.21,-114.05 2105.68,-112.46 2096.5,-107.171 2095.21,-114.05"/>
</g>
<!-- Node45&#45;&gt;Node46 -->
<g id="edge56" class="edge"><title>Node45&#45;&gt;Node46</title>
<path fill="none" stroke="midnightblue" d="M2119.85,-108.906C2092.03,-98.7536 2052.98,-84.5063 2028.34,-75.5164"/>
<polygon fill="midnightblue" stroke="midnightblue" points="2118.96,-112.304 2129.55,-112.444 2121.35,-105.728 2118.96,-112.304"/>
</g>
</g>
</svg>
