<?xml version="1.0" encoding="UTF-8" standalone="no"?>
<!DOCTYPE svg PUBLIC "-//W3C//DTD SVG 1.1//EN"
 "http://www.w3.org/Graphics/SVG/1.1/DTD/svg11.dtd">
<!-- Generated by graphviz version 2.36.0 (20140111.2315)
 -->
<!-- Title: IPlugProcessor.h Pages: 1 -->
<!--zoomable 364 -->
<svg id="main" version="1.1" xmlns="http://www.w3.org/2000/svg" xmlns:xlink="http://www.w3.org/1999/xlink" xml:space="preserve" onload="init(evt)">
<style type="text/css"><![CDATA[
.edge:hover path { stroke: red; }
.edge:hover polygon { stroke: red; fill: red; }
]]></style>
<script type="text/javascript"><![CDATA[
var edges = document.getElementsByTagName('g');
if (edges && edges.length) {
  for (var i=0;i<edges.length;i++) {
    if (edges[i].id.substr(0,4)=='edge') {
      edges[i].setAttribute('class','edge');
    }
  }
}
]]></script>
        <defs>
                <circle id="rim" cx="0" cy="0" r="7"/>
                <circle id="rim2" cx="0" cy="0" r="3.5"/>
                <g id="zoomPlus">
                        <use xlink:href="#rim" fill="#404040">
                                <set attributeName="fill" to="#808080" begin="zoomplus.mouseover" end="zoomplus.mouseout"/>
                        </use>
                        <path d="M-4,0h8M0,-4v8" fill="none" stroke="white" stroke-width="1.5" pointer-events="none"/>
                </g>
                <g id="zoomMin">
                        <use xlink:href="#rim" fill="#404040">
                                <set attributeName="fill" to="#808080" begin="zoomminus.mouseover" end="zoomminus.mouseout"/>
                        </use>
                        <path d="M-4,0h8" fill="none" stroke="white" stroke-width="1.5" pointer-events="none"/>
                </g>
                <g id="dirArrow">
                        <path fill="none" stroke="white" stroke-width="1.5" d="M0,-3.0v7 M-2.5,-0.5L0,-3.0L2.5,-0.5"/>
                </g>
               <g id="resetDef">
                       <use xlink:href="#rim2" fill="#404040">
                               <set attributeName="fill" to="#808080" begin="reset.mouseover" end="reset.mouseout"/>
                       </use>
               </g>
        </defs>

<script type="text/javascript">
var viewWidth = 1334;
var viewHeight = 364;
var sectionId = 'dynsection-0';
</script>
<script xlink:href="svgpan.js"/>
<svg id="graph" class="graph">
<g id="viewport">
<title>IPlugProcessor.h</title>
<polygon fill="white" stroke="none" points="-4,4 -4,-360 1330,-360 1330,4 -4,4"/>
<!-- Node1 -->
<g id="node1" class="node"><title>Node1</title>
<polygon fill="#bfbfbf" stroke="black" points="394,-336.5 394,-355.5 486,-355.5 486,-336.5 394,-336.5"/>
<text text-anchor="middle" x="440" y="-343.5" font-family="Helvetica,sans-Serif" font-size="10.00">IPlugProcessor.h</text>
</g>
<!-- Node2 -->
<g id="node2" class="node"><title>Node2</title>
<polygon fill="white" stroke="#bfbfbf" points="374,-0.5 374,-19.5 420,-19.5 420,-0.5 374,-0.5"/>
<text text-anchor="middle" x="397" y="-7.5" font-family="Helvetica,sans-Serif" font-size="10.00">cstring</text>
</g>
<!-- Node1&#45;&gt;Node2 -->
<g id="edge1" class="edge"><title>Node1&#45;&gt;Node2</title>
<path fill="none" stroke="midnightblue" d="M486.278,-343.357C653.552,-336.811 1217,-309.251 1217,-235 1217,-235 1217,-235 1217,-121 1217,-40.2572 584.394,-16.4909 430.461,-11.903"/>
<polygon fill="midnightblue" stroke="midnightblue" points="430.318,-8.39749 420.22,-11.6053 430.114,-15.3945 430.318,-8.39749"/>
</g>
<!-- Node3 -->
<g id="node3" class="node"><title>Node3</title>
<polygon fill="white" stroke="#bfbfbf" points="430,-112.5 430,-131.5 476,-131.5 476,-112.5 430,-112.5"/>
<text text-anchor="middle" x="453" y="-119.5" font-family="Helvetica,sans-Serif" font-size="10.00">cstdint</text>
</g>
<!-- Node1&#45;&gt;Node3 -->
<g id="edge2" class="edge"><title>Node1&#45;&gt;Node3</title>
<path fill="none" stroke="midnightblue" d="M440.51,-336.297C442.422,-303.633 449.202,-187.866 451.89,-141.957"/>
<polygon fill="midnightblue" stroke="midnightblue" points="455.389,-142.071 452.48,-131.884 448.401,-141.662 455.389,-142.071"/>
</g>
<!-- Node4 -->
<g id="node4" class="node"><title>Node4</title>
<polygon fill="white" stroke="#bfbfbf" points="558.5,-224.5 558.5,-243.5 607.5,-243.5 607.5,-224.5 558.5,-224.5"/>
<text text-anchor="middle" x="583" y="-231.5" font-family="Helvetica,sans-Serif" font-size="10.00">ptrlist.h</text>
</g>
<!-- Node1&#45;&gt;Node4 -->
<g id="edge3" class="edge"><title>Node1&#45;&gt;Node4</title>
<path fill="none" stroke="midnightblue" d="M451.221,-336.368C475.551,-317.653 533.404,-273.151 563.718,-249.832"/>
<polygon fill="midnightblue" stroke="midnightblue" points="566.039,-252.463 571.831,-243.591 561.771,-246.914 566.039,-252.463"/>
</g>
<!-- Node5 -->
<g id="node5" class="node"><title>Node5</title>
<g id="a_node5"><a xlink:href="_i_plug_platform_8h.html" target="_top" xlink:title="Include to get consistently named preprocessor macros for different platforms and logging functionali...">
<polygon fill="white" stroke="black" points="28,-56.5 28,-75.5 112,-75.5 112,-56.5 28,-56.5"/>
<text text-anchor="middle" x="70" y="-63.5" font-family="Helvetica,sans-Serif" font-size="10.00">IPlugPlatform.h</text>
</a>
</g>
</g>
<!-- Node1&#45;&gt;Node5 -->
<g id="edge4" class="edge"><title>Node1&#45;&gt;Node5</title>
<path fill="none" stroke="midnightblue" d="M393.744,-343.211C280.776,-337.587 0,-315.512 0,-235 0,-235 0,-235 0,-177 0,-138.232 31.3299,-102.104 52.0698,-82.4341"/>
<polygon fill="midnightblue" stroke="midnightblue" points="54.6397,-84.8274 59.6713,-75.5036 49.9235,-79.6547 54.6397,-84.8274"/>
</g>
<!-- Node7 -->
<g id="node7" class="node"><title>Node7</title>
<g id="a_node7"><a xlink:href="_i_plug_constants_8h.html" target="_top" xlink:title="IPlug Constant definitions, Types, magic numbers. ">
<polygon fill="white" stroke="black" points="362,-56.5 362,-75.5 454,-75.5 454,-56.5 362,-56.5"/>
<text text-anchor="middle" x="408" y="-63.5" font-family="Helvetica,sans-Serif" font-size="10.00">IPlugConstants.h</text>
</a>
</g>
</g>
<!-- Node1&#45;&gt;Node7 -->
<g id="edge7" class="edge"><title>Node1&#45;&gt;Node7</title>
<path fill="none" stroke="midnightblue" d="M434.716,-336.231C424.275,-318.043 402,-274.601 402,-235 402,-235 402,-235 402,-177 402,-144.9 404.579,-107.61 406.355,-85.7319"/>
<polygon fill="midnightblue" stroke="midnightblue" points="409.861,-85.8083 407.216,-75.5491 402.886,-85.2189 409.861,-85.8083"/>
</g>
<!-- Node8 -->
<g id="node8" class="node"><title>Node8</title>
<g id="a_node8"><a xlink:href="_i_plug_structs_8h_source.html" target="_top" xlink:title="IPlugStructs.h">
<polygon fill="white" stroke="black" points="284.5,-280.5 284.5,-299.5 363.5,-299.5 363.5,-280.5 284.5,-280.5"/>
<text text-anchor="middle" x="324" y="-287.5" font-family="Helvetica,sans-Serif" font-size="10.00">IPlugStructs.h</text>
</a>
</g>
</g>
<!-- Node1&#45;&gt;Node8 -->
<g id="edge8" class="edge"><title>Node1&#45;&gt;Node8</title>
<path fill="none" stroke="midnightblue" d="M421.619,-336.444C402.784,-327.675 373.269,-313.935 351.621,-303.858"/>
<polygon fill="midnightblue" stroke="midnightblue" points="352.838,-300.564 342.295,-299.516 349.883,-306.91 352.838,-300.564"/>
</g>
<!-- Node19 -->
<g id="node19" class="node"><title>Node19</title>
<g id="a_node19"><a xlink:href="_i_plug_utilities_8h.html" target="_top" xlink:title="Utility functions and macros. ">
<polygon fill="white" stroke="black" points="256,-112.5 256,-131.5 336,-131.5 336,-112.5 256,-112.5"/>
<text text-anchor="middle" x="296" y="-119.5" font-family="Helvetica,sans-Serif" font-size="10.00">IPlugUtilities.h</text>
</a>
</g>
</g>
<!-- Node1&#45;&gt;Node19 -->
<g id="edge41" class="edge"><title>Node1&#45;&gt;Node19</title>
<path fill="none" stroke="midnightblue" d="M393.876,-338.726C350.267,-331.736 289.418,-318.877 275,-300 238.586,-252.325 269.366,-175.352 286.453,-140.795"/>
<polygon fill="midnightblue" stroke="midnightblue" points="289.582,-142.365 291.035,-131.87 283.354,-139.168 289.582,-142.365"/>
</g>
<!-- Node21 -->
<g id="node21" class="node"><title>Node21</title>
<polygon fill="white" stroke="#bfbfbf" points="1245.5,-280.5 1245.5,-299.5 1326.5,-299.5 1326.5,-280.5 1245.5,-280.5"/>
<text text-anchor="middle" x="1286" y="-287.5" font-family="Helvetica,sans-Serif" font-size="10.00">NChanDelay.h</text>
</g>
<!-- Node1&#45;&gt;Node21 -->
<g id="edge42" class="edge"><title>Node1&#45;&gt;Node21</title>
<path fill="none" stroke="midnightblue" d="M486.059,-344.075C607.963,-341.261 949.006,-331.006 1231,-300 1232.3,-299.857 1233.61,-299.705 1234.94,-299.543"/>
<polygon fill="midnightblue" stroke="midnightblue" points="1235.77,-302.963 1245.22,-298.164 1234.84,-296.025 1235.77,-302.963"/>
</g>
<!-- Node22 -->
<g id="node22" class="node"><title>Node22</title>
<g id="a_node22"><a xlink:href="_i_plug_processor_8cpp.html" target="_top" xlink:title="IPlugProcessor implementation. ">
<polygon fill="white" stroke="black" points="947,-168.5 947,-187.5 1049,-187.5 1049,-168.5 947,-168.5"/>
<text text-anchor="middle" x="998" y="-175.5" font-family="Helvetica,sans-Serif" font-size="10.00">IPlugProcessor.cpp</text>
</a>
</g>
</g>
<!-- Node1&#45;&gt;Node22 -->
<g id="edge43" class="edge"><title>Node1&#45;&gt;Node22</title>
<path fill="none" stroke="midnightblue" d="M468.825,-336.425C561.898,-308.737 854.445,-221.706 959.753,-190.378"/>
<polygon fill="midnightblue" stroke="midnightblue" points="960.76,-193.73 969.347,-187.524 958.764,-187.021 960.76,-193.73"/>
</g>
<!-- Node5&#45;&gt;Node2 -->
<g id="edge5" class="edge"><title>Node5&#45;&gt;Node2</title>
<path fill="none" stroke="midnightblue" d="M112.017,-57.5404C115.056,-57.0146 118.075,-56.4965 121,-56 208.544,-41.1394 311.878,-24.5433 363.753,-16.2771"/>
<polygon fill="midnightblue" stroke="midnightblue" points="364.395,-19.7191 373.72,-14.6905 363.294,-12.8061 364.395,-19.7191"/>
</g>
<!-- Node6 -->
<g id="node6" class="node"><title>Node6</title>
<polygon fill="white" stroke="#bfbfbf" points="210.5,-0.5 210.5,-19.5 255.5,-19.5 255.5,-0.5 210.5,-0.5"/>
<text text-anchor="middle" x="233" y="-7.5" font-family="Helvetica,sans-Serif" font-size="10.00">cstdlib</text>
</g>
<!-- Node5&#45;&gt;Node6 -->
<g id="edge6" class="edge"><title>Node5&#45;&gt;Node6</title>
<path fill="none" stroke="midnightblue" d="M95.8278,-56.4435C124.217,-47.0385 169.87,-31.9142 200.629,-21.7242"/>
<polygon fill="midnightblue" stroke="midnightblue" points="202.051,-24.9403 210.443,-18.473 199.849,-18.2955 202.051,-24.9403"/>
</g>
<!-- Node8&#45;&gt;Node4 -->
<g id="edge11" class="edge"><title>Node8&#45;&gt;Node4</title>
<path fill="none" stroke="midnightblue" d="M363.583,-281.844C406.623,-273.896 477.648,-260.29 548.211,-244.069"/>
<polygon fill="midnightblue" stroke="midnightblue" points="549.21,-247.43 558.161,-241.763 547.629,-240.611 549.21,-247.43"/>
</g>
<!-- Node8&#45;&gt;Node5 -->
<g id="edge13" class="edge"><title>Node8&#45;&gt;Node5</title>
<path fill="none" stroke="midnightblue" d="M308.436,-280.373C293.629,-271.885 271.004,-258.171 253,-244 185.408,-190.799 114.827,-116.197 84.863,-83.4762"/>
<polygon fill="midnightblue" stroke="midnightblue" points="87.1534,-80.7928 77.8342,-75.7527 81.9763,-85.5043 87.1534,-80.7928"/>
</g>
<!-- Node8&#45;&gt;Node7 -->
<g id="edge12" class="edge"><title>Node8&#45;&gt;Node7</title>
<path fill="none" stroke="midnightblue" d="M326.851,-280.444C335.473,-254.729 362.26,-175.962 388,-112 391.636,-102.966 395.995,-93.0621 399.715,-84.8512"/>
<polygon fill="midnightblue" stroke="midnightblue" points="402.994,-86.0977 403.982,-75.549 396.631,-83.1792 402.994,-86.0977"/>
</g>
<!-- Node9 -->
<g id="node9" class="node"><title>Node9</title>
<polygon fill="white" stroke="#bfbfbf" points="130,-56.5 130,-75.5 186,-75.5 186,-56.5 130,-56.5"/>
<text text-anchor="middle" x="158" y="-63.5" font-family="Helvetica,sans-Serif" font-size="10.00">algorithm</text>
</g>
<!-- Node8&#45;&gt;Node9 -->
<g id="edge9" class="edge"><title>Node8&#45;&gt;Node9</title>
<path fill="none" stroke="midnightblue" d="M312.66,-280.475C301.759,-271.955 285.189,-258.124 273,-244 227.001,-190.699 185.274,-117.709 167.314,-84.6042"/>
<polygon fill="midnightblue" stroke="midnightblue" points="170.337,-82.8343 162.526,-75.6765 164.168,-86.1433 170.337,-82.8343"/>
</g>
<!-- Node10 -->
<g id="node10" class="node"><title>Node10</title>
<polygon fill="white" stroke="#bfbfbf" points="204,-56.5 204,-75.5 268,-75.5 268,-56.5 204,-56.5"/>
<text text-anchor="middle" x="236" y="-63.5" font-family="Helvetica,sans-Serif" font-size="10.00">wdlstring.h</text>
</g>
<!-- Node8&#45;&gt;Node10 -->
<g id="edge10" class="edge"><title>Node8&#45;&gt;Node10</title>
<path fill="none" stroke="midnightblue" d="M316.601,-280.216C298.035,-257.527 249.769,-194.369 233,-132 228.917,-116.812 230.162,-98.92 232.147,-85.7565"/>
<polygon fill="midnightblue" stroke="midnightblue" points="235.65,-86.0532 233.968,-75.5928 228.76,-84.8191 235.65,-86.0532"/>
</g>
<!-- Node11 -->
<g id="node11" class="node"><title>Node11</title>
<g id="a_node11"><a xlink:href="_i_plug_midi_8h.html" target="_top" xlink:title="MIDI and sysex structs/utilites. ">
<polygon fill="white" stroke="black" points="475.5,-224.5 475.5,-243.5 540.5,-243.5 540.5,-224.5 475.5,-224.5"/>
<text text-anchor="middle" x="508" y="-231.5" font-family="Helvetica,sans-Serif" font-size="10.00">IPlugMidi.h</text>
</a>
</g>
</g>
<!-- Node8&#45;&gt;Node11 -->
<g id="edge14" class="edge"><title>Node8&#45;&gt;Node11</title>
<path fill="none" stroke="midnightblue" d="M353.155,-280.444C384.513,-271.241 434.531,-256.562 469.197,-246.388"/>
<polygon fill="midnightblue" stroke="midnightblue" points="470.371,-249.691 478.981,-243.516 468.4,-242.974 470.371,-249.691"/>
</g>
<!-- Node8&#45;&gt;Node19 -->
<g id="edge40" class="edge"><title>Node8&#45;&gt;Node19</title>
<path fill="none" stroke="midnightblue" d="M322.495,-280.075C318.087,-253.945 305.144,-177.211 299.133,-141.577"/>
<polygon fill="midnightblue" stroke="midnightblue" points="302.56,-140.847 297.445,-131.568 295.657,-142.011 302.56,-140.847"/>
</g>
<!-- Node11&#45;&gt;Node3 -->
<g id="edge16" class="edge"><title>Node11&#45;&gt;Node3</title>
<path fill="none" stroke="midnightblue" d="M507.15,-224.127C505.621,-211.165 501.618,-186.577 492,-168 486.439,-157.258 477.815,-146.936 470.089,-138.893"/>
<polygon fill="midnightblue" stroke="midnightblue" points="472.376,-136.232 462.809,-131.679 467.449,-141.204 472.376,-136.232"/>
</g>
<!-- Node11&#45;&gt;Node9 -->
<g id="edge18" class="edge"><title>Node11&#45;&gt;Node9</title>
<path fill="none" stroke="midnightblue" d="M475.407,-225.147C422.147,-211.437 314.259,-179.943 233,-132 209.961,-118.407 187.282,-97.3953 173.001,-82.9623"/>
<polygon fill="midnightblue" stroke="midnightblue" points="175.451,-80.4611 165.981,-75.7096 170.421,-85.3294 175.451,-80.4611"/>
</g>
<!-- Node12 -->
<g id="node12" class="node"><title>Node12</title>
<polygon fill="white" stroke="#bfbfbf" points="784.5,-112.5 784.5,-131.5 833.5,-131.5 833.5,-112.5 784.5,-112.5"/>
<text text-anchor="middle" x="809" y="-119.5" font-family="Helvetica,sans-Serif" font-size="10.00">cassert</text>
</g>
<!-- Node11&#45;&gt;Node12 -->
<g id="edge15" class="edge"><title>Node11&#45;&gt;Node12</title>
<path fill="none" stroke="midnightblue" d="M538.046,-224.465C567.359,-215.938 613.093,-202.101 652,-188 697.549,-171.492 749.268,-149.414 780.497,-135.706"/>
<polygon fill="midnightblue" stroke="midnightblue" points="782.145,-138.805 789.882,-131.568 779.32,-132.4 782.145,-138.805"/>
</g>
<!-- Node13 -->
<g id="node13" class="node"><title>Node13</title>
<polygon fill="white" stroke="#bfbfbf" points="854.5,-56.5 854.5,-75.5 897.5,-75.5 897.5,-56.5 854.5,-56.5"/>
<text text-anchor="middle" x="876" y="-63.5" font-family="Helvetica,sans-Serif" font-size="10.00">cstdio</text>
</g>
<!-- Node11&#45;&gt;Node13 -->
<g id="edge17" class="edge"><title>Node11&#45;&gt;Node13</title>
<path fill="none" stroke="midnightblue" d="M540.744,-225.735C633.106,-205.092 889.739,-146.64 901,-132 912.111,-117.556 901.473,-97.5894 890.844,-83.6095"/>
<polygon fill="midnightblue" stroke="midnightblue" points="893.471,-81.2927 884.422,-75.7816 888.059,-85.7327 893.471,-81.2927"/>
</g>
<!-- Node14 -->
<g id="node14" class="node"><title>Node14</title>
<g id="a_node14"><a xlink:href="_i_plug_logger_8h.html" target="_top" xlink:title="IPlug logging a.k.a tracing functionality. ">
<polygon fill="white" stroke="black" points="566.5,-168.5 566.5,-187.5 643.5,-187.5 643.5,-168.5 566.5,-168.5"/>
<text text-anchor="middle" x="605" y="-175.5" font-family="Helvetica,sans-Serif" font-size="10.00">IPlugLogger.h</text>
</a>
</g>
</g>
<!-- Node11&#45;&gt;Node14 -->
<g id="edge19" class="edge"><title>Node11&#45;&gt;Node14</title>
<path fill="none" stroke="midnightblue" d="M523.585,-224.324C538.999,-215.743 562.812,-202.486 580.71,-192.522"/>
<polygon fill="midnightblue" stroke="midnightblue" points="582.419,-195.577 589.454,-187.655 579.014,-189.461 582.419,-195.577"/>
</g>
<!-- Node14&#45;&gt;Node2 -->
<g id="edge24" class="edge"><title>Node14&#45;&gt;Node2</title>
<path fill="none" stroke="midnightblue" d="M628.819,-168.371C654.029,-157.705 688.691,-137.763 677,-112 661.382,-77.5817 646.832,-72.851 613,-56 552.975,-26.1024 474.033,-16.0514 430.119,-12.6845"/>
<polygon fill="midnightblue" stroke="midnightblue" points="430.219,-9.18317 420,-11.9806 429.733,-16.1663 430.219,-9.18317"/>
</g>
<!-- Node14&#45;&gt;Node3 -->
<g id="edge23" class="edge"><title>Node14&#45;&gt;Node3</title>
<path fill="none" stroke="midnightblue" d="M580.915,-168.444C555.306,-159.345 514.631,-144.895 486.038,-134.737"/>
<polygon fill="midnightblue" stroke="midnightblue" points="487.067,-131.389 476.473,-131.339 484.724,-137.985 487.067,-131.389"/>
</g>
<!-- Node14&#45;&gt;Node7 -->
<g id="edge29" class="edge"><title>Node14&#45;&gt;Node7</title>
<path fill="none" stroke="midnightblue" d="M589.248,-168.432C572.715,-159.421 545.983,-144.801 523,-132 491.479,-114.444 455.268,-93.9173 432.037,-80.7018"/>
<polygon fill="midnightblue" stroke="midnightblue" points="433.642,-77.5881 423.22,-75.6826 430.179,-83.6715 433.642,-77.5881"/>
</g>
<!-- Node14&#45;&gt;Node10 -->
<g id="edge27" class="edge"><title>Node14&#45;&gt;Node10</title>
<path fill="none" stroke="midnightblue" d="M566.463,-173.395C476.325,-164.796 258.462,-142.984 247,-132 234.752,-120.263 232.999,-100.328 233.694,-85.6221"/>
<polygon fill="midnightblue" stroke="midnightblue" points="237.185,-85.8854 234.57,-75.6183 230.211,-85.275 237.185,-85.8854"/>
</g>
<!-- Node14&#45;&gt;Node12 -->
<g id="edge26" class="edge"><title>Node14&#45;&gt;Node12</title>
<path fill="none" stroke="midnightblue" d="M637.324,-168.444C674.761,-158.534 736.186,-142.274 774.517,-132.128"/>
<polygon fill="midnightblue" stroke="midnightblue" points="775.435,-135.506 784.206,-129.563 773.644,-128.739 775.435,-135.506"/>
</g>
<!-- Node14&#45;&gt;Node13 -->
<g id="edge20" class="edge"><title>Node14&#45;&gt;Node13</title>
<path fill="none" stroke="midnightblue" d="M631.517,-168.346C657.383,-159.731 697.727,-145.832 732,-132 751.92,-123.961 756.428,-120.852 776,-112 800.149,-101.078 827.607,-88.7268 847.633,-79.731"/>
<polygon fill="midnightblue" stroke="midnightblue" points="849.131,-82.8949 856.82,-75.6053 846.263,-76.5093 849.131,-82.8949"/>
</g>
<!-- Node15 -->
<g id="node15" class="node"><title>Node15</title>
<polygon fill="white" stroke="#bfbfbf" points="558,-56.5 558,-75.5 604,-75.5 604,-56.5 558,-56.5"/>
<text text-anchor="middle" x="581" y="-63.5" font-family="Helvetica,sans-Serif" font-size="10.00">cctype</text>
</g>
<!-- Node14&#45;&gt;Node15 -->
<g id="edge21" class="edge"><title>Node14&#45;&gt;Node15</title>
<path fill="none" stroke="midnightblue" d="M622.224,-168.354C643.159,-156.613 674.16,-134.501 661,-112 650.845,-94.6368 631.255,-83.4558 614.003,-76.5818"/>
<polygon fill="midnightblue" stroke="midnightblue" points="614.798,-73.1469 604.204,-73.0181 612.405,-79.7253 614.798,-73.1469"/>
</g>
<!-- Node16 -->
<g id="node16" class="node"><title>Node16</title>
<polygon fill="white" stroke="#bfbfbf" points="532.5,-112.5 532.5,-131.5 581.5,-131.5 581.5,-112.5 532.5,-112.5"/>
<text text-anchor="middle" x="557" y="-119.5" font-family="Helvetica,sans-Serif" font-size="10.00">cstdarg</text>
</g>
<!-- Node14&#45;&gt;Node16 -->
<g id="edge22" class="edge"><title>Node14&#45;&gt;Node16</title>
<path fill="none" stroke="midnightblue" d="M597.074,-168.083C590.154,-160.298 579.935,-148.801 571.548,-139.367"/>
<polygon fill="midnightblue" stroke="midnightblue" points="574.038,-136.9 564.779,-131.751 568.806,-141.55 574.038,-136.9"/>
</g>
<!-- Node17 -->
<g id="node17" class="node"><title>Node17</title>
<polygon fill="white" stroke="#bfbfbf" points="851.5,-112.5 851.5,-131.5 892.5,-131.5 892.5,-112.5 851.5,-112.5"/>
<text text-anchor="middle" x="872" y="-119.5" font-family="Helvetica,sans-Serif" font-size="10.00">ctime</text>
</g>
<!-- Node14&#45;&gt;Node17 -->
<g id="edge25" class="edge"><title>Node14&#45;&gt;Node17</title>
<path fill="none" stroke="midnightblue" d="M643.852,-170.896C688.991,-163.525 765.868,-150.109 841.275,-131.954"/>
<polygon fill="midnightblue" stroke="midnightblue" points="842.534,-135.25 851.42,-129.481 840.876,-128.449 842.534,-135.25"/>
</g>
<!-- Node18 -->
<g id="node18" class="node"><title>Node18</title>
<polygon fill="white" stroke="#bfbfbf" points="600,-112.5 600,-131.5 652,-131.5 652,-112.5 600,-112.5"/>
<text text-anchor="middle" x="626" y="-119.5" font-family="Helvetica,sans-Serif" font-size="10.00">mutex.h</text>
</g>
<!-- Node14&#45;&gt;Node18 -->
<g id="edge28" class="edge"><title>Node14&#45;&gt;Node18</title>
<path fill="none" stroke="midnightblue" d="M608.468,-168.083C611.312,-160.77 615.429,-150.181 618.96,-141.103"/>
<polygon fill="midnightblue" stroke="midnightblue" points="622.234,-142.34 622.597,-131.751 615.71,-139.803 622.234,-142.34"/>
</g>
<!-- Node14&#45;&gt;Node19 -->
<g id="edge30" class="edge"><title>Node14&#45;&gt;Node19</title>
<path fill="none" stroke="midnightblue" d="M566.49,-170.27C510.859,-160.548 407.949,-142.564 346.357,-131.8"/>
<polygon fill="midnightblue" stroke="midnightblue" points="346.923,-128.346 336.469,-130.072 345.718,-135.242 346.923,-128.346"/>
</g>
<!-- Node19&#45;&gt;Node2 -->
<g id="edge35" class="edge"><title>Node19&#45;&gt;Node2</title>
<path fill="none" stroke="midnightblue" d="M303.235,-112.456C313.921,-99.9043 334.643,-75.822 353,-56 362.095,-46.1794 372.56,-35.4535 381.003,-26.9373"/>
<polygon fill="midnightblue" stroke="midnightblue" points="383.509,-29.3805 388.089,-19.827 378.551,-24.439 383.509,-29.3805"/>
</g>
<!-- Node19&#45;&gt;Node5 -->
<g id="edge39" class="edge"><title>Node19&#45;&gt;Node5</title>
<path fill="none" stroke="midnightblue" d="M260.19,-112.444C221.012,-103.083 158.123,-88.0561 115.485,-77.868"/>
<polygon fill="midnightblue" stroke="midnightblue" points="116.182,-74.4363 105.643,-75.5164 114.556,-81.2446 116.182,-74.4363"/>
</g>
<!-- Node19&#45;&gt;Node6 -->
<g id="edge34" class="edge"><title>Node19&#45;&gt;Node6</title>
<path fill="none" stroke="midnightblue" d="M294.863,-112.476C292.849,-99.531 287.804,-74.4699 277,-56 270.495,-44.8797 260.649,-34.4572 251.919,-26.4485"/>
<polygon fill="midnightblue" stroke="midnightblue" points="254.174,-23.7712 244.343,-19.8215 249.565,-29.0399 254.174,-23.7712"/>
</g>
<!-- Node19&#45;&gt;Node7 -->
<g id="edge38" class="edge"><title>Node19&#45;&gt;Node7</title>
<path fill="none" stroke="midnightblue" d="M313.995,-112.324C332.038,-103.625 360.047,-90.1202 380.803,-80.113"/>
<polygon fill="midnightblue" stroke="midnightblue" points="382.562,-83.1502 390.05,-75.6545 379.522,-76.8449 382.562,-83.1502"/>
</g>
<!-- Node19&#45;&gt;Node9 -->
<g id="edge31" class="edge"><title>Node19&#45;&gt;Node9</title>
<path fill="none" stroke="midnightblue" d="M274.133,-112.444C251.221,-103.478 215.025,-89.314 189.134,-79.1827"/>
<polygon fill="midnightblue" stroke="midnightblue" points="190.352,-75.9011 179.764,-75.5164 187.801,-82.4198 190.352,-75.9011"/>
</g>
<!-- Node19&#45;&gt;Node10 -->
<g id="edge37" class="edge"><title>Node19&#45;&gt;Node10</title>
<path fill="none" stroke="midnightblue" d="M286.36,-112.324C277.49,-104.341 264.125,-92.3128 253.392,-82.6529"/>
<polygon fill="midnightblue" stroke="midnightblue" points="255.59,-79.922 245.815,-75.8339 250.907,-85.1251 255.59,-79.922"/>
</g>
<!-- Node19&#45;&gt;Node13 -->
<g id="edge33" class="edge"><title>Node19&#45;&gt;Node13</title>
<path fill="none" stroke="midnightblue" d="M336.013,-117.971C441.775,-109.9 727.043,-87.6966 821,-76 828.591,-75.055 836.739,-73.8352 844.377,-72.6006"/>
<polygon fill="midnightblue" stroke="midnightblue" points="845.086,-76.0307 854.374,-70.9322 843.934,-69.1261 845.086,-76.0307"/>
</g>
<!-- Node19&#45;&gt;Node15 -->
<g id="edge36" class="edge"><title>Node19&#45;&gt;Node15</title>
<path fill="none" stroke="midnightblue" d="M336.229,-113.378C392.931,-102.634 495.293,-83.2393 547.865,-73.2781"/>
<polygon fill="midnightblue" stroke="midnightblue" points="548.817,-76.6601 557.991,-71.3596 547.514,-69.7825 548.817,-76.6601"/>
</g>
<!-- Node20 -->
<g id="node20" class="node"><title>Node20</title>
<polygon fill="white" stroke="#bfbfbf" points="769,-56.5 769,-75.5 813,-75.5 813,-56.5 769,-56.5"/>
<text text-anchor="middle" x="791" y="-63.5" font-family="Helvetica,sans-Serif" font-size="10.00">cmath</text>
</g>
<!-- Node19&#45;&gt;Node20 -->
<g id="edge32" class="edge"><title>Node19&#45;&gt;Node20</title>
<path fill="none" stroke="midnightblue" d="M336.089,-116.627C431.758,-106.19 671.917,-79.9909 758.906,-70.5012"/>
<polygon fill="midnightblue" stroke="midnightblue" points="759.408,-73.9673 768.969,-69.4034 758.649,-67.0086 759.408,-73.9673"/>
</g>
<!-- Node22&#45;&gt;Node12 -->
<g id="edge47" class="edge"><title>Node22&#45;&gt;Node12</title>
<path fill="none" stroke="midnightblue" d="M968.052,-168.444C934.232,-158.78 879.28,-143.08 843.639,-132.897"/>
<polygon fill="midnightblue" stroke="midnightblue" points="844.265,-129.436 833.688,-130.054 842.342,-136.166 844.265,-129.436"/>
</g>
<!-- Node22&#45;&gt;Node13 -->
<g id="edge45" class="edge"><title>Node22&#45;&gt;Node13</title>
<path fill="none" stroke="midnightblue" d="M996.785,-168.324C994.461,-154.72 988.194,-128.25 973,-112 955.458,-93.2379 928.544,-81.6117 907.512,-74.8884"/>
<polygon fill="midnightblue" stroke="midnightblue" points="908.31,-71.4741 897.727,-71.972 906.31,-78.1825 908.31,-71.4741"/>
</g>
<!-- Node22&#45;&gt;Node17 -->
<g id="edge46" class="edge"><title>Node22&#45;&gt;Node17</title>
<path fill="none" stroke="midnightblue" d="M978.035,-168.444C957.391,-159.596 924.937,-145.687 901.368,-135.586"/>
<polygon fill="midnightblue" stroke="midnightblue" points="902.442,-132.239 891.872,-131.516 899.684,-138.673 902.442,-132.239"/>
</g>
<!-- Node22&#45;&gt;Node20 -->
<g id="edge44" class="edge"><title>Node22&#45;&gt;Node20</title>
<path fill="none" stroke="midnightblue" d="M986.823,-168.412C969.241,-155.16 933.743,-129.438 901,-112 875.573,-98.4589 845.163,-86.3031 822.767,-78.0492"/>
<polygon fill="midnightblue" stroke="midnightblue" points="823.682,-74.6582 813.088,-74.5406 821.297,-81.2391 823.682,-74.6582"/>
</g>
<!-- Node23 -->
<g id="node23" class="node"><title>Node23</title>
<polygon fill="white" stroke="#bfbfbf" points="1025,-112.5 1025,-131.5 1093,-131.5 1093,-112.5 1025,-112.5"/>
<text text-anchor="middle" x="1059" y="-119.5" font-family="Helvetica,sans-Serif" font-size="10.00">wdlendian.h</text>
</g>
<!-- Node22&#45;&gt;Node23 -->
<g id="edge48" class="edge"><title>Node22&#45;&gt;Node23</title>
<path fill="none" stroke="midnightblue" d="M1007.8,-168.324C1016.82,-160.341 1030.41,-148.313 1041.32,-138.653"/>
<polygon fill="midnightblue" stroke="midnightblue" points="1043.85,-141.083 1049.02,-131.834 1039.21,-135.842 1043.85,-141.083"/>
</g>
<!-- Node24 -->
<g id="node24" class="node"><title>Node24</title>
<polygon fill="white" stroke="#bfbfbf" points="1111.5,-112.5 1111.5,-131.5 1188.5,-131.5 1188.5,-112.5 1111.5,-112.5"/>
<text text-anchor="middle" x="1150" y="-119.5" font-family="Helvetica,sans-Serif" font-size="10.00">wdl_base64.h</text>
</g>
<!-- Node22&#45;&gt;Node24 -->
<g id="edge49" class="edge"><title>Node22&#45;&gt;Node24</title>
<path fill="none" stroke="midnightblue" d="M1022.08,-168.444C1047.54,-159.399 1087.89,-145.064 1116.46,-134.916"/>
<polygon fill="midnightblue" stroke="midnightblue" points="1117.78,-138.162 1126.03,-131.516 1115.43,-131.566 1117.78,-138.162"/>
</g>
</g>
</svg>
        <g id="navigator" transform="translate(0 0)" fill="#404254">
                <rect fill="#f2f5e9" fill-opacity="0.5" stroke="#606060" stroke-width=".5" x="0" y="0" width="60" height="60"/>
                <use id="zoomplus" xlink:href="#zoomPlus" x="17" y="9" onmousedown="handleZoom(evt,'in')"/>
                <use id="zoomminus" xlink:href="#zoomMin" x="42" y="9" onmousedown="handleZoom(evt,'out')"/>
                <use id="reset" xlink:href="#resetDef" x="30" y="36" onmousedown="handleReset()"/>
                <g id="arrowUp" xlink:href="#dirArrow" transform="translate(30 24)" onmousedown="handlePan(0,-1)">
                  <use xlink:href="#rim" fill="#404040">
                        <set attributeName="fill" to="#808080" begin="arrowUp.mouseover" end="arrowUp.mouseout"/>
                  </use>
                  <path fill="none" stroke="white" stroke-width="1.5" d="M0,-3.0v7 M-2.5,-0.5L0,-3.0L2.5,-0.5"/>
                </g>
                <g id="arrowRight" xlink:href="#dirArrow" transform="rotate(90) translate(36 -43)" onmousedown="handlePan(1,0)">
                  <use xlink:href="#rim" fill="#404040">
                        <set attributeName="fill" to="#808080" begin="arrowRight.mouseover" end="arrowRight.mouseout"/>
                  </use>
                  <path fill="none" stroke="white" stroke-width="1.5" d="M0,-3.0v7 M-2.5,-0.5L0,-3.0L2.5,-0.5"/>
                </g>
                <g id="arrowDown" xlink:href="#dirArrow" transform="rotate(180) translate(-30 -48)" onmousedown="handlePan(0,1)">
                  <use xlink:href="#rim" fill="#404040">
                        <set attributeName="fill" to="#808080" begin="arrowDown.mouseover" end="arrowDown.mouseout"/>
                  </use>
                  <path fill="none" stroke="white" stroke-width="1.5" d="M0,-3.0v7 M-2.5,-0.5L0,-3.0L2.5,-0.5"/>
                </g>
                <g id="arrowLeft" xlink:href="#dirArrow" transform="rotate(270) translate(-36 17)" onmousedown="handlePan(-1,0)">
                  <use xlink:href="#rim" fill="#404040">
                        <set attributeName="fill" to="#808080" begin="arrowLeft.mouseover" end="arrowLeft.mouseout"/>
                  </use>
                  <path fill="none" stroke="white" stroke-width="1.5" d="M0,-3.0v7 M-2.5,-0.5L0,-3.0L2.5,-0.5"/>
                </g>
        </g>
        <svg viewBox="0 0 15 15" width="100%" height="30px" preserveAspectRatio="xMaxYMin meet">
         <g id="arrow_out" transform="scale(0.3 0.3)">
          <a xlink:href="_i_plug_processor_8h__incl_org.svg" target="_base">
           <rect id="button" ry="5" rx="5" y="6" x="6" height="38" width="38"
                fill="#f2f5e9" fill-opacity="0.5" stroke="#606060" stroke-width="1.0"/>
           <path id="arrow"
             d="M 11.500037,31.436501 C 11.940474,20.09759 22.043105,11.32322 32.158766,21.979434 L 37.068811,17.246167 C 37.068811,17.246167 37.088388,32 37.088388,32 L 22.160133,31.978069 C 22.160133,31.978069 26.997745,27.140456 26.997745,27.140456 C 18.528582,18.264221 13.291696,25.230495 11.500037,31.436501 z"
             style="fill:#404040;"/>
          </a>
         </g>
        </svg>
</svg>
