<?xml version="1.0" encoding="UTF-8" standalone="no"?>
<!DOCTYPE svg PUBLIC "-//W3C//DTD SVG 1.1//EN"
 "http://www.w3.org/Graphics/SVG/1.1/DTD/svg11.dtd">
<!-- Generated by graphviz version 2.36.0 (20140111.2315)
 -->
<!-- Title: IPlugAPIBase.h Pages: 1 -->
<!--zoomable 532 -->
<svg id="main" version="1.1" xmlns="http://www.w3.org/2000/svg" xmlns:xlink="http://www.w3.org/1999/xlink" xml:space="preserve" onload="init(evt)">
<style type="text/css"><![CDATA[
.edge:hover path { stroke: red; }
.edge:hover polygon { stroke: red; fill: red; }
]]></style>
<script type="text/javascript"><![CDATA[
var edges = document.getElementsByTagName('g');
if (edges && edges.length) {
  for (var i=0;i<edges.length;i++) {
    if (edges[i].id.substr(0,4)=='edge') {
      edges[i].setAttribute('class','edge');
    }
  }
}
]]></script>
        <defs>
                <circle id="rim" cx="0" cy="0" r="7"/>
                <circle id="rim2" cx="0" cy="0" r="3.5"/>
                <g id="zoomPlus">
                        <use xlink:href="#rim" fill="#404040">
                                <set attributeName="fill" to="#808080" begin="zoomplus.mouseover" end="zoomplus.mouseout"/>
                        </use>
                        <path d="M-4,0h8M0,-4v8" fill="none" stroke="white" stroke-width="1.5" pointer-events="none"/>
                </g>
                <g id="zoomMin">
                        <use xlink:href="#rim" fill="#404040">
                                <set attributeName="fill" to="#808080" begin="zoomminus.mouseover" end="zoomminus.mouseout"/>
                        </use>
                        <path d="M-4,0h8" fill="none" stroke="white" stroke-width="1.5" pointer-events="none"/>
                </g>
                <g id="dirArrow">
                        <path fill="none" stroke="white" stroke-width="1.5" d="M0,-3.0v7 M-2.5,-0.5L0,-3.0L2.5,-0.5"/>
                </g>
               <g id="resetDef">
                       <use xlink:href="#rim2" fill="#404040">
                               <set attributeName="fill" to="#808080" begin="reset.mouseover" end="reset.mouseout"/>
                       </use>
               </g>
        </defs>

<script type="text/javascript">
var viewWidth = 1367;
var viewHeight = 532;
var sectionId = 'dynsection-0';
</script>
<script xlink:href="svgpan.js"/>
<svg id="graph" class="graph">
<g id="viewport">
<title>IPlugAPIBase.h</title>
<polygon fill="white" stroke="none" points="-4,4 -4,-528 1363,-528 1363,4 -4,4"/>
<!-- Node1 -->
<g id="node1" class="node"><title>Node1</title>
<polygon fill="#bfbfbf" stroke="black" points="725,-504.5 725,-523.5 811,-523.5 811,-504.5 725,-504.5"/>
<text text-anchor="middle" x="768" y="-511.5" font-family="Helvetica,sans-Serif" font-size="10.00">IPlugAPIBase.h</text>
</g>
<!-- Node2 -->
<g id="node2" class="node"><title>Node2</title>
<polygon fill="white" stroke="#bfbfbf" points="275,-0.5 275,-19.5 321,-19.5 321,-0.5 275,-0.5"/>
<text text-anchor="middle" x="298" y="-7.5" font-family="Helvetica,sans-Serif" font-size="10.00">cstring</text>
</g>
<!-- Node1&#45;&gt;Node2 -->
<g id="edge1" class="edge"><title>Node1&#45;&gt;Node2</title>
<path fill="none" stroke="midnightblue" d="M724.614,-511.316C606.03,-506.46 278.327,-491.271 173,-468 92.7973,-450.28 0,-485.137 0,-403 0,-403 0,-403 0,-121 0,-84.0042 20.2397,-74.973 52,-56 87.4397,-34.829 205.97,-20.2801 264.591,-14.1972"/>
<polygon fill="midnightblue" stroke="midnightblue" points="265.21,-17.6523 274.806,-13.1602 264.503,-10.6881 265.21,-17.6523"/>
</g>
<!-- Node3 -->
<g id="node3" class="node"><title>Node3</title>
<polygon fill="white" stroke="#bfbfbf" points="567,-112.5 567,-131.5 613,-131.5 613,-112.5 567,-112.5"/>
<text text-anchor="middle" x="590" y="-119.5" font-family="Helvetica,sans-Serif" font-size="10.00">cstdint</text>
</g>
<!-- Node1&#45;&gt;Node3 -->
<g id="edge2" class="edge"><title>Node1&#45;&gt;Node3</title>
<path fill="none" stroke="midnightblue" d="M724.769,-512.496C604.712,-509.938 276,-494.574 276,-403 276,-403 276,-403 276,-289 276,-257.142 480.629,-168.54 559.505,-135.571"/>
<polygon fill="midnightblue" stroke="midnightblue" points="561.024,-138.73 568.91,-131.655 558.333,-132.268 561.024,-138.73"/>
</g>
<!-- Node4 -->
<g id="node4" class="node"><title>Node4</title>
<polygon fill="white" stroke="#bfbfbf" points="1033.5,-224.5 1033.5,-243.5 1082.5,-243.5 1082.5,-224.5 1033.5,-224.5"/>
<text text-anchor="middle" x="1058" y="-231.5" font-family="Helvetica,sans-Serif" font-size="10.00">ptrlist.h</text>
</g>
<!-- Node1&#45;&gt;Node4 -->
<g id="edge3" class="edge"><title>Node1&#45;&gt;Node4</title>
<path fill="none" stroke="midnightblue" d="M811.016,-513.206C884.178,-511.056 1025,-494.97 1025,-403 1025,-403 1025,-403 1025,-345 1025,-311.245 1039.43,-274.028 1049.21,-252.691"/>
<polygon fill="midnightblue" stroke="midnightblue" points="1052.41,-254.11 1053.55,-243.576 1046.09,-251.099 1052.41,-254.11"/>
</g>
<!-- Node5 -->
<g id="node5" class="node"><title>Node5</title>
<polygon fill="white" stroke="#bfbfbf" points="66,-112.5 66,-131.5 118,-131.5 118,-112.5 66,-112.5"/>
<text text-anchor="middle" x="92" y="-119.5" font-family="Helvetica,sans-Serif" font-size="10.00">mutex.h</text>
</g>
<!-- Node1&#45;&gt;Node5 -->
<g id="edge4" class="edge"><title>Node1&#45;&gt;Node5</title>
<path fill="none" stroke="midnightblue" d="M724.974,-510.729C573.79,-502.183 76,-469.032 76,-403 76,-403 76,-403 76,-233 76,-200.626 82.8708,-163.445 87.6074,-141.659"/>
<polygon fill="midnightblue" stroke="midnightblue" points="91.0502,-142.303 89.8422,-131.777 84.2226,-140.759 91.0502,-142.303"/>
</g>
<!-- Node6 -->
<g id="node6" class="node"><title>Node6</title>
<g id="a_node6"><a xlink:href="_i_plug_platform_8h.html" target="_top" xlink:title="Include to get consistently named preprocessor macros for different platforms and logging functionali...">
<polygon fill="white" stroke="black" points="1245,-56.5 1245,-75.5 1329,-75.5 1329,-56.5 1245,-56.5"/>
<text text-anchor="middle" x="1287" y="-63.5" font-family="Helvetica,sans-Serif" font-size="10.00">IPlugPlatform.h</text>
</a>
</g>
</g>
<!-- Node1&#45;&gt;Node6 -->
<g id="edge5" class="edge"><title>Node1&#45;&gt;Node6</title>
<path fill="none" stroke="midnightblue" d="M811.458,-509.517C947.942,-498.004 1359,-458.705 1359,-403 1359,-403 1359,-403 1359,-177 1359,-137.939 1326.82,-101.944 1305.49,-82.3723"/>
<polygon fill="midnightblue" stroke="midnightblue" points="1307.75,-79.6969 1297.94,-75.7031 1303.12,-84.9449 1307.75,-79.6969"/>
</g>
<!-- Node8 -->
<g id="node8" class="node"><title>Node8</title>
<g id="a_node8"><a xlink:href="_i_plug_plugin_base_8h.html" target="_top" xlink:title="Base class that contains plug&#45;in info and state manipulation methods. ">
<polygon fill="white" stroke="black" points="489.5,-448.5 489.5,-467.5 586.5,-467.5 586.5,-448.5 489.5,-448.5"/>
<text text-anchor="middle" x="538" y="-455.5" font-family="Helvetica,sans-Serif" font-size="10.00">IPlugPluginBase.h</text>
</a>
</g>
</g>
<!-- Node1&#45;&gt;Node8 -->
<g id="edge8" class="edge"><title>Node1&#45;&gt;Node8</title>
<path fill="none" stroke="midnightblue" d="M731.556,-504.444C691.601,-495.063 627.413,-479.993 584.015,-469.804"/>
<polygon fill="midnightblue" stroke="midnightblue" points="584.809,-466.395 574.274,-467.516 583.209,-473.21 584.809,-466.395"/>
</g>
<!-- Node14 -->
<g id="node14" class="node"><title>Node14</title>
<g id="a_node14"><a xlink:href="_i_plug_parameter_8h.html" target="_top" xlink:title="IPlug&#39;s parameter class. ">
<polygon fill="white" stroke="black" points="382,-280.5 382,-299.5 474,-299.5 474,-280.5 382,-280.5"/>
<text text-anchor="middle" x="428" y="-287.5" font-family="Helvetica,sans-Serif" font-size="10.00">IPlugParameter.h</text>
</a>
</g>
</g>
<!-- Node1&#45;&gt;Node14 -->
<g id="edge62" class="edge"><title>Node1&#45;&gt;Node14</title>
<path fill="none" stroke="midnightblue" d="M724.929,-509.431C655.486,-503.155 522.288,-488.802 480,-468 447.559,-452.042 437.021,-444.41 421,-412 405.985,-381.626 410.251,-369.548 415,-336 416.268,-327.042 418.889,-317.372 421.448,-309.3"/>
<polygon fill="midnightblue" stroke="midnightblue" points="424.771,-310.398 424.656,-299.803 418.139,-308.157 424.771,-310.398"/>
</g>
<!-- Node18 -->
<g id="node18" class="node"><title>Node18</title>
<g id="a_node18"><a xlink:href="_i_plug_utilities_8h.html" target="_top" xlink:title="Utility functions and macros. ">
<polygon fill="white" stroke="black" points="737,-112.5 737,-131.5 817,-131.5 817,-112.5 737,-112.5"/>
<text text-anchor="middle" x="777" y="-119.5" font-family="Helvetica,sans-Serif" font-size="10.00">IPlugUtilities.h</text>
</a>
</g>
</g>
<!-- Node1&#45;&gt;Node18 -->
<g id="edge61" class="edge"><title>Node1&#45;&gt;Node18</title>
<path fill="none" stroke="midnightblue" d="M771.6,-504.222C775.056,-495.285 780.033,-480.942 782,-468 783.335,-459.212 782.068,-456.889 782,-448 781.104,-331.504 778.401,-191.539 777.389,-141.721"/>
<polygon fill="midnightblue" stroke="midnightblue" points="780.884,-141.462 777.18,-131.536 773.886,-141.606 780.884,-141.462"/>
</g>
<!-- Node23 -->
<g id="node23" class="node"><title>Node23</title>
<g id="a_node23"><a xlink:href="_i_plug_constants_8h.html" target="_top" xlink:title="IPlug Constant definitions, Types, magic numbers. ">
<polygon fill="white" stroke="black" points="805,-56.5 805,-75.5 897,-75.5 897,-56.5 805,-56.5"/>
<text text-anchor="middle" x="851" y="-63.5" font-family="Helvetica,sans-Serif" font-size="10.00">IPlugConstants.h</text>
</a>
</g>
</g>
<!-- Node1&#45;&gt;Node23 -->
<g id="edge59" class="edge"><title>Node1&#45;&gt;Node23</title>
<path fill="none" stroke="midnightblue" d="M811.094,-508.365C903.217,-497.258 1111,-465.301 1111,-403 1111,-403 1111,-403 1111,-177 1111,-132.146 978.093,-95.2003 902.328,-77.7833"/>
<polygon fill="midnightblue" stroke="midnightblue" points="903.011,-74.3496 892.485,-75.5565 901.466,-81.177 903.011,-74.3496"/>
</g>
<!-- Node28 -->
<g id="node28" class="node"><title>Node28</title>
<g id="a_node28"><a xlink:href="_i_plug_structs_8h_source.html" target="_top" xlink:title="IPlugStructs.h">
<polygon fill="white" stroke="black" points="807.5,-280.5 807.5,-299.5 886.5,-299.5 886.5,-280.5 807.5,-280.5"/>
<text text-anchor="middle" x="847" y="-287.5" font-family="Helvetica,sans-Serif" font-size="10.00">IPlugStructs.h</text>
</a>
</g>
</g>
<!-- Node1&#45;&gt;Node28 -->
<g id="edge60" class="edge"><title>Node1&#45;&gt;Node28</title>
<path fill="none" stroke="midnightblue" d="M780.945,-504.243C791.828,-496.154 806.874,-483.126 815,-468 843.027,-415.832 847.09,-343.824 847.314,-309.998"/>
<polygon fill="midnightblue" stroke="midnightblue" points="850.813,-309.704 847.266,-299.721 843.813,-309.737 850.813,-309.704"/>
</g>
<!-- Node29 -->
<g id="node29" class="node"><title>Node29</title>
<g id="a_node29"><a xlink:href="_i_plug_queue_8h.html" target="_top" xlink:title="A lock&#45;free SPSC queue used to transfer data between threads based on MLQueue.h by Randy Jones based ...">
<polygon fill="white" stroke="black" points="697,-448.5 697,-467.5 773,-467.5 773,-448.5 697,-448.5"/>
<text text-anchor="middle" x="735" y="-455.5" font-family="Helvetica,sans-Serif" font-size="10.00">IPlugQueue.h</text>
</a>
</g>
</g>
<!-- Node1&#45;&gt;Node29 -->
<g id="edge63" class="edge"><title>Node1&#45;&gt;Node29</title>
<path fill="none" stroke="midnightblue" d="M762.551,-504.083C757.986,-496.613 751.332,-485.724 745.707,-476.52"/>
<polygon fill="midnightblue" stroke="midnightblue" points="748.549,-474.459 740.348,-467.751 742.576,-478.109 748.549,-474.459"/>
</g>
<!-- Node31 -->
<g id="node31" class="node"><title>Node31</title>
<g id="a_node31"><a xlink:href="_i_plug_timer_8h.html" target="_top" xlink:title="This file includes classes for implementing timers &#45; in order to get a regular callback on the main t...">
<polygon fill="white" stroke="black" points="1139,-280.5 1139,-299.5 1211,-299.5 1211,-280.5 1139,-280.5"/>
<text text-anchor="middle" x="1175" y="-287.5" font-family="Helvetica,sans-Serif" font-size="10.00">IPlugTimer.h</text>
</a>
</g>
</g>
<!-- Node1&#45;&gt;Node31 -->
<g id="edge66" class="edge"><title>Node1&#45;&gt;Node31</title>
<path fill="none" stroke="midnightblue" d="M811.285,-513.319C895.859,-513.04 1078.83,-507.722 1125,-468 1171.96,-427.599 1176.46,-346.78 1175.89,-310.006"/>
<polygon fill="midnightblue" stroke="midnightblue" points="1179.38,-309.608 1175.57,-299.721 1172.38,-309.824 1179.38,-309.608"/>
</g>
<!-- Node6&#45;&gt;Node2 -->
<g id="edge6" class="edge"><title>Node6&#45;&gt;Node2</title>
<path fill="none" stroke="midnightblue" d="M1244.87,-57.7145C1240.2,-57.0604 1235.51,-56.4692 1231,-56 880.284,-19.474 452.254,-12.5319 331.259,-11.2692"/>
<polygon fill="midnightblue" stroke="midnightblue" points="331.188,-7.76845 321.154,-11.1698 331.119,-14.7681 331.188,-7.76845"/>
</g>
<!-- Node7 -->
<g id="node7" class="node"><title>Node7</title>
<polygon fill="white" stroke="#bfbfbf" points="1009.5,-0.5 1009.5,-19.5 1054.5,-19.5 1054.5,-0.5 1009.5,-0.5"/>
<text text-anchor="middle" x="1032" y="-7.5" font-family="Helvetica,sans-Serif" font-size="10.00">cstdlib</text>
</g>
<!-- Node6&#45;&gt;Node7 -->
<g id="edge7" class="edge"><title>Node6&#45;&gt;Node7</title>
<path fill="none" stroke="midnightblue" d="M1246.59,-56.4435C1196.2,-45.7713 1111.03,-27.7349 1064.58,-17.9002"/>
<polygon fill="midnightblue" stroke="midnightblue" points="1065.25,-14.464 1054.74,-15.8162 1063.8,-21.3121 1065.25,-14.464"/>
</g>
<!-- Node9 -->
<g id="node9" class="node"><title>Node9</title>
<polygon fill="white" stroke="#bfbfbf" points="443.5,-392.5 443.5,-411.5 492.5,-411.5 492.5,-392.5 443.5,-392.5"/>
<text text-anchor="middle" x="468" y="-399.5" font-family="Helvetica,sans-Serif" font-size="10.00">random</text>
</g>
<!-- Node8&#45;&gt;Node9 -->
<g id="edge9" class="edge"><title>Node8&#45;&gt;Node9</title>
<path fill="none" stroke="midnightblue" d="M526.753,-448.324C516.203,-440.185 500.199,-427.839 487.558,-418.087"/>
<polygon fill="midnightblue" stroke="midnightblue" points="489.507,-415.171 479.451,-411.834 485.231,-420.713 489.507,-415.171"/>
</g>
<!-- Node10 -->
<g id="node10" class="node"><title>Node10</title>
<g id="a_node10"><a xlink:href="_i_plug_delegate__select_8h.html" target="_top" xlink:title="Used for choosing an editor delegate. ">
<polygon fill="white" stroke="black" points="549,-392.5 549,-411.5 667,-411.5 667,-392.5 549,-392.5"/>
<text text-anchor="middle" x="608" y="-399.5" font-family="Helvetica,sans-Serif" font-size="10.00">IPlugDelegate_select.h</text>
</a>
</g>
</g>
<!-- Node8&#45;&gt;Node10 -->
<g id="edge10" class="edge"><title>Node8&#45;&gt;Node10</title>
<path fill="none" stroke="midnightblue" d="M549.247,-448.324C559.797,-440.185 575.801,-427.839 588.442,-418.087"/>
<polygon fill="midnightblue" stroke="midnightblue" points="590.769,-420.713 596.549,-411.834 586.493,-415.171 590.769,-420.713"/>
</g>
<!-- Node8&#45;&gt;Node14 -->
<g id="edge56" class="edge"><title>Node8&#45;&gt;Node14</title>
<path fill="none" stroke="midnightblue" d="M491.177,-448.421C470.156,-442.039 447.166,-431 434,-412 412.712,-381.279 418.087,-334.905 423.366,-309.411"/>
<polygon fill="midnightblue" stroke="midnightblue" points="426.796,-310.113 425.617,-299.584 419.973,-308.55 426.796,-310.113"/>
</g>
<!-- Node25 -->
<g id="node25" class="node"><title>Node25</title>
<g id="a_node25"><a xlink:href="_i_plug_logger_8h.html" target="_top" xlink:title="IPlug logging a.k.a tracing functionality. ">
<polygon fill="white" stroke="black" points="344.5,-168.5 344.5,-187.5 421.5,-187.5 421.5,-168.5 344.5,-168.5"/>
<text text-anchor="middle" x="383" y="-175.5" font-family="Helvetica,sans-Serif" font-size="10.00">IPlugLogger.h</text>
</a>
</g>
</g>
<!-- Node8&#45;&gt;Node25 -->
<g id="edge58" class="edge"><title>Node8&#45;&gt;Node25</title>
<path fill="none" stroke="midnightblue" d="M492.55,-448.455C468.723,-441.951 440.517,-430.794 421,-412 376.034,-368.699 369.921,-342.349 373,-280 374.423,-251.178 378.118,-217.898 380.596,-197.66"/>
<polygon fill="midnightblue" stroke="midnightblue" points="384.082,-197.984 381.856,-187.625 377.137,-197.111 384.082,-197.984"/>
</g>
<!-- Node8&#45;&gt;Node28 -->
<g id="edge57" class="edge"><title>Node8&#45;&gt;Node28</title>
<path fill="none" stroke="midnightblue" d="M574.038,-448.44C602.585,-440.914 643.01,-428.572 676,-412 736.636,-381.541 799.72,-331.206 829.474,-306.147"/>
<polygon fill="midnightblue" stroke="midnightblue" points="831.928,-308.655 837.276,-299.509 827.392,-303.323 831.928,-308.655"/>
</g>
<!-- Node11 -->
<g id="node11" class="node"><title>Node11</title>
<g id="a_node11"><a xlink:href="_i_plug_editor_delegate_8h.html" target="_top" xlink:title="This pure virtual interface delegates communication in both directions between a UI editor and someth...">
<polygon fill="white" stroke="black" points="559,-336.5 559,-355.5 671,-355.5 671,-336.5 559,-336.5"/>
<text text-anchor="middle" x="615" y="-343.5" font-family="Helvetica,sans-Serif" font-size="10.00">IPlugEditorDelegate.h</text>
</a>
</g>
</g>
<!-- Node10&#45;&gt;Node11 -->
<g id="edge11" class="edge"><title>Node10&#45;&gt;Node11</title>
<path fill="none" stroke="midnightblue" d="M609.156,-392.083C610.084,-384.927 611.418,-374.635 612.577,-365.691"/>
<polygon fill="midnightblue" stroke="midnightblue" points="616.051,-366.118 613.866,-355.751 609.109,-365.218 616.051,-366.118"/>
</g>
<!-- Node11&#45;&gt;Node2 -->
<g id="edge13" class="edge"><title>Node11&#45;&gt;Node2</title>
<path fill="none" stroke="midnightblue" d="M558.888,-340.875C413.891,-328.682 38,-286.69 38,-179 38,-179 38,-179 38,-121 38,-23.5657 194.785,-11.1231 264.854,-10.4276"/>
<polygon fill="midnightblue" stroke="midnightblue" points="264.935,-13.9275 274.927,-10.4034 264.918,-6.92752 264.935,-13.9275"/>
</g>
<!-- Node11&#45;&gt;Node4 -->
<g id="edge15" class="edge"><title>Node11&#45;&gt;Node4</title>
<path fill="none" stroke="midnightblue" d="M671.024,-339.666C728.109,-333.38 818.828,-321.032 895,-300 944.501,-286.332 999.484,-262.482 1031.27,-247.785"/>
<polygon fill="midnightblue" stroke="midnightblue" points="1032.78,-250.943 1040.36,-243.539 1029.81,-244.601 1032.78,-250.943"/>
</g>
<!-- Node12 -->
<g id="node12" class="node"><title>Node12</title>
<polygon fill="white" stroke="#bfbfbf" points="631.5,-112.5 631.5,-131.5 680.5,-131.5 680.5,-112.5 631.5,-112.5"/>
<text text-anchor="middle" x="656" y="-119.5" font-family="Helvetica,sans-Serif" font-size="10.00">cassert</text>
</g>
<!-- Node11&#45;&gt;Node12 -->
<g id="edge12" class="edge"><title>Node11&#45;&gt;Node12</title>
<path fill="none" stroke="midnightblue" d="M610.754,-336.358C601.487,-316.321 581.187,-265.258 593,-224 602.471,-190.92 626.272,-158.146 641.756,-139.273"/>
<polygon fill="midnightblue" stroke="midnightblue" points="644.432,-141.529 648.204,-131.629 639.081,-137.016 644.432,-141.529"/>
</g>
<!-- Node13 -->
<g id="node13" class="node"><title>Node13</title>
<polygon fill="white" stroke="#bfbfbf" points="1139.5,-224.5 1139.5,-243.5 1188.5,-243.5 1188.5,-224.5 1139.5,-224.5"/>
<text text-anchor="middle" x="1164" y="-231.5" font-family="Helvetica,sans-Serif" font-size="10.00">stdint.h</text>
</g>
<!-- Node11&#45;&gt;Node13 -->
<g id="edge14" class="edge"><title>Node11&#45;&gt;Node13</title>
<path fill="none" stroke="midnightblue" d="M671.034,-339.681C735.965,-332.95 845.959,-319.794 939,-300 1007.63,-285.4 1085.97,-260.95 1129.74,-246.562"/>
<polygon fill="midnightblue" stroke="midnightblue" points="1130.93,-249.856 1139.32,-243.392 1128.73,-243.21 1130.93,-249.856"/>
</g>
<!-- Node11&#45;&gt;Node14 -->
<g id="edge16" class="edge"><title>Node11&#45;&gt;Node14</title>
<path fill="none" stroke="midnightblue" d="M585.369,-336.444C553.5,-327.241 502.667,-312.562 467.436,-302.388"/>
<polygon fill="midnightblue" stroke="midnightblue" points="468.071,-298.928 457.492,-299.516 466.128,-305.653 468.071,-298.928"/>
</g>
<!-- Node24 -->
<g id="node24" class="node"><title>Node24</title>
<g id="a_node24"><a xlink:href="_i_plug_midi_8h.html" target="_top" xlink:title="MIDI and sysex structs/utilites. ">
<polygon fill="white" stroke="black" points="602.5,-224.5 602.5,-243.5 667.5,-243.5 667.5,-224.5 602.5,-224.5"/>
<text text-anchor="middle" x="635" y="-231.5" font-family="Helvetica,sans-Serif" font-size="10.00">IPlugMidi.h</text>
</a>
</g>
</g>
<!-- Node11&#45;&gt;Node24 -->
<g id="edge31" class="edge"><title>Node11&#45;&gt;Node24</title>
<path fill="none" stroke="midnightblue" d="M616.569,-336.368C619.797,-318.617 627.242,-277.666 631.619,-253.597"/>
<polygon fill="midnightblue" stroke="midnightblue" points="635.093,-254.056 633.438,-243.591 628.205,-252.804 635.093,-254.056"/>
</g>
<!-- Node11&#45;&gt;Node28 -->
<g id="edge48" class="edge"><title>Node11&#45;&gt;Node28</title>
<path fill="none" stroke="midnightblue" d="M651.761,-336.444C692.063,-327.063 756.809,-311.993 800.585,-301.804"/>
<polygon fill="midnightblue" stroke="midnightblue" points="801.465,-305.192 810.411,-299.516 799.878,-298.375 801.465,-305.192"/>
</g>
<!-- Node14&#45;&gt;Node2 -->
<g id="edge18" class="edge"><title>Node14&#45;&gt;Node2</title>
<path fill="none" stroke="midnightblue" d="M385.52,-280.49C336.849,-268.469 258.258,-241.705 215,-188 177.492,-141.433 155.751,-105.697 189,-56 205.809,-30.8749 239.49,-19.7628 264.988,-14.8572"/>
<polygon fill="midnightblue" stroke="midnightblue" points="265.72,-18.2832 274.995,-13.1627 264.551,-11.3814 265.72,-18.2832"/>
</g>
<!-- Node15 -->
<g id="node15" class="node"><title>Node15</title>
<polygon fill="white" stroke="#bfbfbf" points="418,-224.5 418,-243.5 464,-243.5 464,-224.5 418,-224.5"/>
<text text-anchor="middle" x="441" y="-231.5" font-family="Helvetica,sans-Serif" font-size="10.00">atomic</text>
</g>
<!-- Node14&#45;&gt;Node15 -->
<g id="edge17" class="edge"><title>Node14&#45;&gt;Node15</title>
<path fill="none" stroke="midnightblue" d="M430.147,-280.083C431.869,-272.927 434.347,-262.635 436.5,-253.691"/>
<polygon fill="midnightblue" stroke="midnightblue" points="439.955,-254.293 438.893,-243.751 433.15,-252.654 439.955,-254.293"/>
</g>
<!-- Node16 -->
<g id="node16" class="node"><title>Node16</title>
<polygon fill="white" stroke="#bfbfbf" points="917.5,-224.5 917.5,-243.5 976.5,-243.5 976.5,-224.5 917.5,-224.5"/>
<text text-anchor="middle" x="947" y="-231.5" font-family="Helvetica,sans-Serif" font-size="10.00">functional</text>
</g>
<!-- Node14&#45;&gt;Node16 -->
<g id="edge19" class="edge"><title>Node14&#45;&gt;Node16</title>
<path fill="none" stroke="midnightblue" d="M474.058,-284.208C574.727,-273.734 812.9,-248.953 907.383,-239.122"/>
<polygon fill="midnightblue" stroke="midnightblue" points="907.805,-242.597 917.389,-238.081 907.08,-235.635 907.805,-242.597"/>
</g>
<!-- Node17 -->
<g id="node17" class="node"><title>Node17</title>
<polygon fill="white" stroke="#bfbfbf" points="198,-56.5 198,-75.5 262,-75.5 262,-56.5 198,-56.5"/>
<text text-anchor="middle" x="230" y="-63.5" font-family="Helvetica,sans-Serif" font-size="10.00">wdlstring.h</text>
</g>
<!-- Node14&#45;&gt;Node17 -->
<g id="edge20" class="edge"><title>Node14&#45;&gt;Node17</title>
<path fill="none" stroke="midnightblue" d="M422.197,-280.444C412.305,-266.519 390.825,-239.004 366,-224 316.156,-193.874 285.832,-223.937 240,-188 211.159,-165.386 199.739,-147.707 208,-112 210.23,-102.363 214.821,-92.4052 219.236,-84.3149"/>
<polygon fill="midnightblue" stroke="midnightblue" points="222.351,-85.9216 224.362,-75.5194 216.303,-82.3968 222.351,-85.9216"/>
</g>
<!-- Node14&#45;&gt;Node18 -->
<g id="edge21" class="edge"><title>Node14&#45;&gt;Node18</title>
<path fill="none" stroke="midnightblue" d="M474.185,-289.8C526.555,-288.721 612.852,-280.777 676,-244 719.192,-218.845 752.168,-167.984 767.517,-140.907"/>
<polygon fill="midnightblue" stroke="midnightblue" points="770.774,-142.248 772.521,-131.798 764.639,-138.877 770.774,-142.248"/>
</g>
<!-- Node18&#45;&gt;Node2 -->
<g id="edge26" class="edge"><title>Node18&#45;&gt;Node2</title>
<path fill="none" stroke="midnightblue" d="M761.358,-112.254C730.328,-94.9321 663.489,-57.7712 658,-56 542.165,-18.6208 396.078,-12.0321 331.414,-11.048"/>
<polygon fill="midnightblue" stroke="midnightblue" points="331.43,-7.54809 321.39,-10.9314 331.349,-14.5476 331.43,-7.54809"/>
</g>
<!-- Node18&#45;&gt;Node6 -->
<g id="edge30" class="edge"><title>Node18&#45;&gt;Node6</title>
<path fill="none" stroke="midnightblue" d="M817.019,-116.763C908.396,-107.088 1132.36,-83.3739 1234.58,-72.55"/>
<polygon fill="midnightblue" stroke="midnightblue" points="1235.1,-76.0151 1244.67,-71.4815 1234.36,-69.054 1235.1,-76.0151"/>
</g>
<!-- Node18&#45;&gt;Node7 -->
<g id="edge25" class="edge"><title>Node18&#45;&gt;Node7</title>
<path fill="none" stroke="midnightblue" d="M776.854,-112.376C777.118,-98.354 779.813,-70.7035 796,-56 825.429,-29.2682 941.897,-17.3952 999.455,-13.0748"/>
<polygon fill="midnightblue" stroke="midnightblue" points="999.759,-16.5621 1009.48,-12.3541 999.257,-9.58007 999.759,-16.5621"/>
</g>
<!-- Node18&#45;&gt;Node17 -->
<g id="edge28" class="edge"><title>Node18&#45;&gt;Node17</title>
<path fill="none" stroke="midnightblue" d="M736.699,-116.843C721.723,-115.307 704.587,-113.561 689,-112 535.552,-96.6313 353.188,-78.9164 272.275,-71.0848"/>
<polygon fill="midnightblue" stroke="midnightblue" points="272.292,-67.5703 262.002,-70.0909 271.618,-74.5377 272.292,-67.5703"/>
</g>
<!-- Node19 -->
<g id="node19" class="node"><title>Node19</title>
<polygon fill="white" stroke="#bfbfbf" points="915,-56.5 915,-75.5 971,-75.5 971,-56.5 915,-56.5"/>
<text text-anchor="middle" x="943" y="-63.5" font-family="Helvetica,sans-Serif" font-size="10.00">algorithm</text>
</g>
<!-- Node18&#45;&gt;Node19 -->
<g id="edge22" class="edge"><title>Node18&#45;&gt;Node19</title>
<path fill="none" stroke="midnightblue" d="M803.303,-112.444C831.351,-103.32 875.944,-88.8133 907.184,-78.6509"/>
<polygon fill="midnightblue" stroke="midnightblue" points="908.393,-81.9383 916.82,-75.5164 906.228,-75.2816 908.393,-81.9383"/>
</g>
<!-- Node20 -->
<g id="node20" class="node"><title>Node20</title>
<polygon fill="white" stroke="#bfbfbf" points="705,-56.5 705,-75.5 749,-75.5 749,-56.5 705,-56.5"/>
<text text-anchor="middle" x="727" y="-63.5" font-family="Helvetica,sans-Serif" font-size="10.00">cmath</text>
</g>
<!-- Node18&#45;&gt;Node20 -->
<g id="edge23" class="edge"><title>Node18&#45;&gt;Node20</title>
<path fill="none" stroke="midnightblue" d="M768.744,-112.083C761.535,-104.298 750.89,-92.8015 742.154,-83.3665"/>
<polygon fill="midnightblue" stroke="midnightblue" points="744.465,-80.7108 735.103,-75.7511 739.329,-85.4666 744.465,-80.7108"/>
</g>
<!-- Node21 -->
<g id="node21" class="node"><title>Node21</title>
<polygon fill="white" stroke="#bfbfbf" points="541.5,-56.5 541.5,-75.5 584.5,-75.5 584.5,-56.5 541.5,-56.5"/>
<text text-anchor="middle" x="563" y="-63.5" font-family="Helvetica,sans-Serif" font-size="10.00">cstdio</text>
</g>
<!-- Node18&#45;&gt;Node21 -->
<g id="edge24" class="edge"><title>Node18&#45;&gt;Node21</title>
<path fill="none" stroke="midnightblue" d="M740.429,-112.478C705.432,-104.219 650.934,-91.0862 594.465,-76.0391"/>
<polygon fill="midnightblue" stroke="midnightblue" points="595.213,-72.6162 584.648,-73.4089 593.402,-79.3777 595.213,-72.6162"/>
</g>
<!-- Node22 -->
<g id="node22" class="node"><title>Node22</title>
<polygon fill="white" stroke="#bfbfbf" points="603,-56.5 603,-75.5 649,-75.5 649,-56.5 603,-56.5"/>
<text text-anchor="middle" x="626" y="-63.5" font-family="Helvetica,sans-Serif" font-size="10.00">cctype</text>
</g>
<!-- Node18&#45;&gt;Node22 -->
<g id="edge27" class="edge"><title>Node18&#45;&gt;Node22</title>
<path fill="none" stroke="midnightblue" d="M753.074,-112.444C727.632,-103.345 687.226,-88.8952 658.821,-78.7372"/>
<polygon fill="midnightblue" stroke="midnightblue" points="659.913,-75.4108 649.318,-75.339 657.556,-82.002 659.913,-75.4108"/>
</g>
<!-- Node18&#45;&gt;Node23 -->
<g id="edge29" class="edge"><title>Node18&#45;&gt;Node23</title>
<path fill="none" stroke="midnightblue" d="M788.889,-112.324C800.15,-104.107 817.287,-91.6017 830.709,-81.8069"/>
<polygon fill="midnightblue" stroke="midnightblue" points="832.88,-84.5559 838.894,-75.8339 828.753,-78.9014 832.88,-84.5559"/>
</g>
<!-- Node24&#45;&gt;Node3 -->
<g id="edge33" class="edge"><title>Node24&#45;&gt;Node3</title>
<path fill="none" stroke="midnightblue" d="M631.469,-224.368C624.141,-206.456 607.15,-164.923 597.342,-140.948"/>
<polygon fill="midnightblue" stroke="midnightblue" points="600.54,-139.522 593.515,-131.591 594.062,-142.172 600.54,-139.522"/>
</g>
<!-- Node24&#45;&gt;Node12 -->
<g id="edge32" class="edge"><title>Node24&#45;&gt;Node12</title>
<path fill="none" stroke="midnightblue" d="M636.648,-224.368C640.037,-206.617 647.855,-165.666 652.45,-141.597"/>
<polygon fill="midnightblue" stroke="midnightblue" points="655.922,-142.07 654.36,-131.591 649.047,-140.758 655.922,-142.07"/>
</g>
<!-- Node24&#45;&gt;Node19 -->
<g id="edge35" class="edge"><title>Node24&#45;&gt;Node19</title>
<path fill="none" stroke="midnightblue" d="M651.412,-224.467C684.534,-207.214 761.696,-166.859 826,-132 858.318,-114.48 895.374,-93.7909 918.971,-80.54"/>
<polygon fill="midnightblue" stroke="midnightblue" points="920.908,-83.466 927.91,-75.5144 917.478,-77.3643 920.908,-83.466"/>
</g>
<!-- Node24&#45;&gt;Node21 -->
<g id="edge34" class="edge"><title>Node24&#45;&gt;Node21</title>
<path fill="none" stroke="midnightblue" d="M644.444,-224.497C666.183,-203.89 715.9,-150.172 689,-112 683.337,-103.964 630.064,-86.8779 594.625,-76.2251"/>
<polygon fill="midnightblue" stroke="midnightblue" points="595.298,-72.7735 584.715,-73.2733 593.3,-79.4822 595.298,-72.7735"/>
</g>
<!-- Node24&#45;&gt;Node25 -->
<g id="edge36" class="edge"><title>Node24&#45;&gt;Node25</title>
<path fill="none" stroke="midnightblue" d="M602.314,-225.996C558.956,-216.705 482.061,-200.227 431.811,-189.46"/>
<polygon fill="midnightblue" stroke="midnightblue" points="432.336,-185.993 421.825,-187.32 430.87,-192.837 432.336,-185.993"/>
</g>
<!-- Node25&#45;&gt;Node2 -->
<g id="edge41" class="edge"><title>Node25&#45;&gt;Node2</title>
<path fill="none" stroke="midnightblue" d="M362.286,-168.388C347.225,-161.005 327.677,-148.877 317,-132 296.987,-100.365 295.514,-55.0212 296.546,-29.7812"/>
<polygon fill="midnightblue" stroke="midnightblue" points="300.044,-29.9093 297.138,-19.7207 293.056,-29.4974 300.044,-29.9093"/>
</g>
<!-- Node25&#45;&gt;Node3 -->
<g id="edge40" class="edge"><title>Node25&#45;&gt;Node3</title>
<path fill="none" stroke="midnightblue" d="M415.8,-168.444C454.52,-158.343 518.528,-141.645 557.234,-131.548"/>
<polygon fill="midnightblue" stroke="midnightblue" points="558.175,-134.919 566.968,-129.008 556.408,-128.146 558.175,-134.919"/>
</g>
<!-- Node25&#45;&gt;Node5 -->
<g id="edge45" class="edge"><title>Node25&#45;&gt;Node5</title>
<path fill="none" stroke="midnightblue" d="M344.357,-169.829C287.858,-159.345 183.447,-139.97 128.304,-129.737"/>
<polygon fill="midnightblue" stroke="midnightblue" points="128.753,-126.26 118.282,-127.877 127.476,-133.143 128.753,-126.26"/>
</g>
<!-- Node25&#45;&gt;Node12 -->
<g id="edge43" class="edge"><title>Node25&#45;&gt;Node12</title>
<path fill="none" stroke="midnightblue" d="M421.674,-170.609C467.139,-162.899 545.06,-149.075 621.387,-132.004"/>
<polygon fill="midnightblue" stroke="midnightblue" points="622.185,-135.412 631.169,-129.796 620.644,-128.584 622.185,-135.412"/>
</g>
<!-- Node25&#45;&gt;Node17 -->
<g id="edge44" class="edge"><title>Node25&#45;&gt;Node17</title>
<path fill="none" stroke="midnightblue" d="M356.008,-168.48C335.028,-161.012 305.909,-148.728 284,-132 266.4,-118.562 250.782,-98.3741 240.927,-84.0674"/>
<polygon fill="midnightblue" stroke="midnightblue" points="243.775,-82.0299 235.32,-75.6452 237.948,-85.9089 243.775,-82.0299"/>
</g>
<!-- Node25&#45;&gt;Node18 -->
<g id="edge47" class="edge"><title>Node25&#45;&gt;Node18</title>
<path fill="none" stroke="midnightblue" d="M421.857,-171.674C493.668,-161.832 647.079,-140.806 726.707,-129.893"/>
<polygon fill="midnightblue" stroke="midnightblue" points="727.54,-133.312 736.972,-128.486 726.589,-126.376 727.54,-133.312"/>
</g>
<!-- Node25&#45;&gt;Node21 -->
<g id="edge37" class="edge"><title>Node25&#45;&gt;Node21</title>
<path fill="none" stroke="midnightblue" d="M396.399,-168.482C416.144,-155.963 454.259,-131.921 487,-112 504.574,-101.307 524.6,-89.4634 539.683,-80.6114"/>
<polygon fill="midnightblue" stroke="midnightblue" points="541.509,-83.598 548.368,-75.5234 537.971,-77.558 541.509,-83.598"/>
</g>
<!-- Node25&#45;&gt;Node22 -->
<g id="edge38" class="edge"><title>Node25&#45;&gt;Node22</title>
<path fill="none" stroke="midnightblue" d="M403.689,-168.406C424.608,-159.613 457.79,-145.38 486,-132 503.6,-123.652 507.43,-120.411 525,-112 548.807,-100.602 576.178,-88.4664 596.415,-79.6733"/>
<polygon fill="midnightblue" stroke="midnightblue" points="597.942,-82.8262 605.73,-75.6431 595.163,-76.4018 597.942,-82.8262"/>
</g>
<!-- Node25&#45;&gt;Node23 -->
<g id="edge46" class="edge"><title>Node25&#45;&gt;Node23</title>
<path fill="none" stroke="midnightblue" d="M414.01,-168.427C442.136,-160.274 484.503,-147.046 520,-132 537.572,-124.552 539.874,-117.975 558,-112 600.801,-97.8905 722.172,-82.025 794.577,-73.4099"/>
<polygon fill="midnightblue" stroke="midnightblue" points="795.369,-76.8408 804.89,-72.1925 794.548,-69.8891 795.369,-76.8408"/>
</g>
<!-- Node26 -->
<g id="node26" class="node"><title>Node26</title>
<polygon fill="white" stroke="#bfbfbf" points="326.5,-112.5 326.5,-131.5 375.5,-131.5 375.5,-112.5 326.5,-112.5"/>
<text text-anchor="middle" x="351" y="-119.5" font-family="Helvetica,sans-Serif" font-size="10.00">cstdarg</text>
</g>
<!-- Node25&#45;&gt;Node26 -->
<g id="edge39" class="edge"><title>Node25&#45;&gt;Node26</title>
<path fill="none" stroke="midnightblue" d="M377.716,-168.083C373.289,-160.613 366.837,-149.724 361.382,-140.52"/>
<polygon fill="midnightblue" stroke="midnightblue" points="364.295,-138.57 356.186,-131.751 358.273,-142.138 364.295,-138.57"/>
</g>
<!-- Node27 -->
<g id="node27" class="node"><title>Node27</title>
<polygon fill="white" stroke="#bfbfbf" points="393.5,-112.5 393.5,-131.5 434.5,-131.5 434.5,-112.5 393.5,-112.5"/>
<text text-anchor="middle" x="414" y="-119.5" font-family="Helvetica,sans-Serif" font-size="10.00">ctime</text>
</g>
<!-- Node25&#45;&gt;Node27 -->
<g id="edge42" class="edge"><title>Node25&#45;&gt;Node27</title>
<path fill="none" stroke="midnightblue" d="M388.119,-168.083C392.408,-160.613 398.658,-149.724 403.942,-140.52"/>
<polygon fill="midnightblue" stroke="midnightblue" points="407.033,-142.166 408.976,-131.751 400.962,-138.681 407.033,-142.166"/>
</g>
<!-- Node28&#45;&gt;Node4 -->
<g id="edge51" class="edge"><title>Node28&#45;&gt;Node4</title>
<path fill="none" stroke="midnightblue" d="M880.434,-280.444C919.558,-270.431 984.013,-253.935 1023.56,-243.813"/>
<polygon fill="midnightblue" stroke="midnightblue" points="1024.47,-247.193 1033.29,-241.323 1022.74,-240.412 1024.47,-247.193"/>
</g>
<!-- Node28&#45;&gt;Node6 -->
<g id="edge53" class="edge"><title>Node28&#45;&gt;Node6</title>
<path fill="none" stroke="midnightblue" d="M879.806,-280.455C908.243,-272.545 950.182,-259.661 985,-244 1014.05,-230.932 1198.13,-120.52 1263.78,-80.9994"/>
<polygon fill="midnightblue" stroke="midnightblue" points="1265.81,-83.8604 1272.57,-75.7029 1262.2,-77.864 1265.81,-83.8604"/>
</g>
<!-- Node28&#45;&gt;Node17 -->
<g id="edge50" class="edge"><title>Node28&#45;&gt;Node17</title>
<path fill="none" stroke="midnightblue" d="M807.137,-282.23C694.333,-262.92 378.233,-207.699 335,-188 297.145,-170.751 286.188,-164.323 260,-132 248.764,-118.132 240.694,-99.3679 235.773,-85.5654"/>
<polygon fill="midnightblue" stroke="midnightblue" points="238.983,-84.1287 232.501,-75.748 232.342,-86.3416 238.983,-84.1287"/>
</g>
<!-- Node28&#45;&gt;Node18 -->
<g id="edge55" class="edge"><title>Node28&#45;&gt;Node18</title>
<path fill="none" stroke="midnightblue" d="M844.131,-280.339C837.389,-260.263 819.692,-209.123 801,-168 796.832,-158.831 791.63,-148.926 787.135,-140.749"/>
<polygon fill="midnightblue" stroke="midnightblue" points="790.062,-138.811 782.121,-131.797 783.955,-142.232 790.062,-138.811"/>
</g>
<!-- Node28&#45;&gt;Node19 -->
<g id="edge49" class="edge"><title>Node28&#45;&gt;Node19</title>
<path fill="none" stroke="midnightblue" d="M850.763,-280.297C864.978,-247.425 915.588,-130.391 935.177,-85.0904"/>
<polygon fill="midnightblue" stroke="midnightblue" points="938.402,-86.4515 939.158,-75.8837 931.977,-83.6731 938.402,-86.4515"/>
</g>
<!-- Node28&#45;&gt;Node23 -->
<g id="edge52" class="edge"><title>Node28&#45;&gt;Node23</title>
<path fill="none" stroke="midnightblue" d="M847.157,-280.297C847.745,-247.633 849.831,-131.866 850.658,-85.9573"/>
<polygon fill="midnightblue" stroke="midnightblue" points="854.159,-85.9452 850.84,-75.8837 847.16,-85.819 854.159,-85.9452"/>
</g>
<!-- Node28&#45;&gt;Node24 -->
<g id="edge54" class="edge"><title>Node28&#45;&gt;Node24</title>
<path fill="none" stroke="midnightblue" d="M813.408,-280.444C776.597,-271.067 717.471,-256.007 677.471,-245.818"/>
<polygon fill="midnightblue" stroke="midnightblue" points="678.293,-242.416 667.738,-243.339 676.565,-249.199 678.293,-242.416"/>
</g>
<!-- Node29&#45;&gt;Node15 -->
<g id="edge64" class="edge"><title>Node29&#45;&gt;Node15</title>
<path fill="none" stroke="midnightblue" d="M696.653,-452.299C646.845,-445.506 563.483,-431.579 540,-412 490.919,-371.079 517.982,-333.477 483,-280 475.995,-269.292 466.355,-258.757 458.077,-250.575"/>
<polygon fill="midnightblue" stroke="midnightblue" points="460.339,-247.895 450.689,-243.523 455.506,-252.959 460.339,-247.895"/>
</g>
<!-- Node30 -->
<g id="node30" class="node"><title>Node30</title>
<polygon fill="white" stroke="#bfbfbf" points="723.5,-392.5 723.5,-411.5 772.5,-411.5 772.5,-392.5 723.5,-392.5"/>
<text text-anchor="middle" x="748" y="-399.5" font-family="Helvetica,sans-Serif" font-size="10.00">cstddef</text>
</g>
<!-- Node29&#45;&gt;Node30 -->
<g id="edge65" class="edge"><title>Node29&#45;&gt;Node30</title>
<path fill="none" stroke="midnightblue" d="M737.147,-448.083C738.869,-440.927 741.347,-430.635 743.5,-421.691"/>
<polygon fill="midnightblue" stroke="midnightblue" points="746.955,-422.293 745.893,-411.751 740.15,-420.654 746.955,-422.293"/>
</g>
<!-- Node31&#45;&gt;Node2 -->
<g id="edge67" class="edge"><title>Node31&#45;&gt;Node2</title>
<path fill="none" stroke="midnightblue" d="M1180.84,-280.308C1192.38,-262.261 1217,-219.066 1217,-179 1217,-179 1217,-179 1217,-121 1217,-29.9019 495.875,-13.8823 331.205,-11.4118"/>
<polygon fill="midnightblue" stroke="midnightblue" points="331.226,-7.91181 321.177,-11.268 331.125,-14.9111 331.226,-7.91181"/>
</g>
<!-- Node31&#45;&gt;Node4 -->
<g id="edge70" class="edge"><title>Node31&#45;&gt;Node4</title>
<path fill="none" stroke="midnightblue" d="M1156.46,-280.444C1137.38,-271.636 1107.43,-257.812 1085.56,-247.722"/>
<polygon fill="midnightblue" stroke="midnightblue" points="1087,-244.529 1076.45,-243.516 1084.07,-250.885 1087,-244.529"/>
</g>
<!-- Node31&#45;&gt;Node6 -->
<g id="edge71" class="edge"><title>Node31&#45;&gt;Node6</title>
<path fill="none" stroke="midnightblue" d="M1211.01,-286.969C1240.59,-283.175 1280.8,-272.671 1301,-244 1335.28,-195.362 1309.9,-119.438 1295.35,-85.0303"/>
<polygon fill="midnightblue" stroke="midnightblue" points="1298.49,-83.4957 1291.25,-75.7612 1292.09,-86.3229 1298.49,-83.4957"/>
</g>
<!-- Node31&#45;&gt;Node13 -->
<g id="edge68" class="edge"><title>Node31&#45;&gt;Node13</title>
<path fill="none" stroke="midnightblue" d="M1173.18,-280.083C1171.73,-272.927 1169.63,-262.635 1167.81,-253.691"/>
<polygon fill="midnightblue" stroke="midnightblue" points="1171.21,-252.851 1165.78,-243.751 1164.35,-254.248 1171.21,-252.851"/>
</g>
<!-- Node31&#45;&gt;Node16 -->
<g id="edge69" class="edge"><title>Node31&#45;&gt;Node16</title>
<path fill="none" stroke="midnightblue" d="M1138.87,-280.444C1097.37,-270.615 1029.5,-254.539 986.594,-244.377"/>
<polygon fill="midnightblue" stroke="midnightblue" points="987.32,-240.953 976.782,-242.054 985.706,-247.764 987.32,-240.953"/>
</g>
<!-- Node32 -->
<g id="node32" class="node"><title>Node32</title>
<polygon fill="white" stroke="#bfbfbf" points="1245.5,-224.5 1245.5,-243.5 1292.5,-243.5 1292.5,-224.5 1245.5,-224.5"/>
<text text-anchor="middle" x="1269" y="-231.5" font-family="Helvetica,sans-Serif" font-size="10.00">swell.h</text>
</g>
<!-- Node31&#45;&gt;Node32 -->
<g id="edge72" class="edge"><title>Node31&#45;&gt;Node32</title>
<path fill="none" stroke="midnightblue" d="M1190.1,-280.324C1204.9,-271.822 1227.69,-258.729 1244.98,-248.797"/>
<polygon fill="midnightblue" stroke="midnightblue" points="1247.01,-251.671 1253.93,-243.655 1243.52,-245.601 1247.01,-251.671"/>
</g>
</g>
</svg>
        <g id="navigator" transform="translate(0 0)" fill="#404254">
                <rect fill="#f2f5e9" fill-opacity="0.5" stroke="#606060" stroke-width=".5" x="0" y="0" width="60" height="60"/>
                <use id="zoomplus" xlink:href="#zoomPlus" x="17" y="9" onmousedown="handleZoom(evt,'in')"/>
                <use id="zoomminus" xlink:href="#zoomMin" x="42" y="9" onmousedown="handleZoom(evt,'out')"/>
                <use id="reset" xlink:href="#resetDef" x="30" y="36" onmousedown="handleReset()"/>
                <g id="arrowUp" xlink:href="#dirArrow" transform="translate(30 24)" onmousedown="handlePan(0,-1)">
                  <use xlink:href="#rim" fill="#404040">
                        <set attributeName="fill" to="#808080" begin="arrowUp.mouseover" end="arrowUp.mouseout"/>
                  </use>
                  <path fill="none" stroke="white" stroke-width="1.5" d="M0,-3.0v7 M-2.5,-0.5L0,-3.0L2.5,-0.5"/>
                </g>
                <g id="arrowRight" xlink:href="#dirArrow" transform="rotate(90) translate(36 -43)" onmousedown="handlePan(1,0)">
                  <use xlink:href="#rim" fill="#404040">
                        <set attributeName="fill" to="#808080" begin="arrowRight.mouseover" end="arrowRight.mouseout"/>
                  </use>
                  <path fill="none" stroke="white" stroke-width="1.5" d="M0,-3.0v7 M-2.5,-0.5L0,-3.0L2.5,-0.5"/>
                </g>
                <g id="arrowDown" xlink:href="#dirArrow" transform="rotate(180) translate(-30 -48)" onmousedown="handlePan(0,1)">
                  <use xlink:href="#rim" fill="#404040">
                        <set attributeName="fill" to="#808080" begin="arrowDown.mouseover" end="arrowDown.mouseout"/>
                  </use>
                  <path fill="none" stroke="white" stroke-width="1.5" d="M0,-3.0v7 M-2.5,-0.5L0,-3.0L2.5,-0.5"/>
                </g>
                <g id="arrowLeft" xlink:href="#dirArrow" transform="rotate(270) translate(-36 17)" onmousedown="handlePan(-1,0)">
                  <use xlink:href="#rim" fill="#404040">
                        <set attributeName="fill" to="#808080" begin="arrowLeft.mouseover" end="arrowLeft.mouseout"/>
                  </use>
                  <path fill="none" stroke="white" stroke-width="1.5" d="M0,-3.0v7 M-2.5,-0.5L0,-3.0L2.5,-0.5"/>
                </g>
        </g>
        <svg viewBox="0 0 15 15" width="100%" height="30px" preserveAspectRatio="xMaxYMin meet">
         <g id="arrow_out" transform="scale(0.3 0.3)">
          <a xlink:href="_i_plug_a_p_i_base_8h__incl_org.svg" target="_base">
           <rect id="button" ry="5" rx="5" y="6" x="6" height="38" width="38"
                fill="#f2f5e9" fill-opacity="0.5" stroke="#606060" stroke-width="1.0"/>
           <path id="arrow"
             d="M 11.500037,31.436501 C 11.940474,20.09759 22.043105,11.32322 32.158766,21.979434 L 37.068811,17.246167 C 37.068811,17.246167 37.088388,32 37.088388,32 L 22.160133,31.978069 C 22.160133,31.978069 26.997745,27.140456 26.997745,27.140456 C 18.528582,18.264221 13.291696,25.230495 11.500037,31.436501 z"
             style="fill:#404040;"/>
          </a>
         </g>
        </svg>
</svg>
