<?xml version="1.0" encoding="UTF-8" standalone="no"?>
<!DOCTYPE svg PUBLIC "-//W3C//DTD SVG 1.1//EN"
 "http://www.w3.org/Graphics/SVG/1.1/DTD/svg11.dtd">
<!-- Generated by graphviz version 2.36.0 (20140111.2315)
 -->
<!-- Title: IPlugAPIBase.cpp Pages: 1 -->
<svg width="1465pt" height="588pt"
 viewBox="0.00 0.00 1465.00 588.00" xmlns="http://www.w3.org/2000/svg" xmlns:xlink="http://www.w3.org/1999/xlink">
<g id="graph0" class="graph" transform="scale(1 1) rotate(0) translate(4 584)">
<title>IPlugAPIBase.cpp</title>
<polygon fill="white" stroke="none" points="-4,4 -4,-584 1461,-584 1461,4 -4,4"/>
<!-- Node1 -->
<g id="node1" class="node"><title>Node1</title>
<polygon fill="#bfbfbf" stroke="black" points="1255.5,-560.5 1255.5,-579.5 1352.5,-579.5 1352.5,-560.5 1255.5,-560.5"/>
<text text-anchor="middle" x="1304" y="-567.5" font-family="Helvetica,sans-Serif" font-size="10.00">IPlugAPIBase.cpp</text>
</g>
<!-- Node2 -->
<g id="node2" class="node"><title>Node2</title>
<polygon fill="white" stroke="#bfbfbf" points="11,-56.5 11,-75.5 55,-75.5 55,-56.5 11,-56.5"/>
<text text-anchor="middle" x="33" y="-63.5" font-family="Helvetica,sans-Serif" font-size="10.00">cmath</text>
</g>
<!-- Node1&#45;&gt;Node2 -->
<g id="edge1" class="edge"><title>Node1&#45;&gt;Node2</title>
<path fill="none" stroke="midnightblue" d="M1255.26,-567.492C1018.53,-559.853 0,-523.253 0,-459 0,-459 0,-459 0,-177 0,-143.245 14.4322,-106.028 24.2081,-84.6908"/>
<polygon fill="midnightblue" stroke="midnightblue" points="27.409,-86.1095 28.5495,-75.5762 21.0893,-83.0993 27.409,-86.1095"/>
</g>
<!-- Node3 -->
<g id="node3" class="node"><title>Node3</title>
<polygon fill="white" stroke="#bfbfbf" points="1091.5,-56.5 1091.5,-75.5 1134.5,-75.5 1134.5,-56.5 1091.5,-56.5"/>
<text text-anchor="middle" x="1113" y="-63.5" font-family="Helvetica,sans-Serif" font-size="10.00">cstdio</text>
</g>
<!-- Node1&#45;&gt;Node3 -->
<g id="edge2" class="edge"><title>Node1&#45;&gt;Node3</title>
<path fill="none" stroke="midnightblue" d="M1312.17,-560.384C1327.93,-542.812 1361,-500.942 1361,-459 1361,-459 1361,-459 1361,-177 1361,-146.775 1363.45,-132.237 1341,-112 1312.49,-86.3047 1200.45,-73.9485 1144.76,-69.296"/>
<polygon fill="midnightblue" stroke="midnightblue" points="1144.98,-65.8026 1134.74,-68.4909 1144.42,-72.7802 1144.98,-65.8026"/>
</g>
<!-- Node4 -->
<g id="node4" class="node"><title>Node4</title>
<polygon fill="white" stroke="#bfbfbf" points="1291.5,-112.5 1291.5,-131.5 1332.5,-131.5 1332.5,-112.5 1291.5,-112.5"/>
<text text-anchor="middle" x="1312" y="-119.5" font-family="Helvetica,sans-Serif" font-size="10.00">ctime</text>
</g>
<!-- Node1&#45;&gt;Node4 -->
<g id="edge3" class="edge"><title>Node1&#45;&gt;Node4</title>
<path fill="none" stroke="midnightblue" d="M1306.56,-560.249C1311.75,-541.738 1323,-497.179 1323,-459 1323,-459 1323,-459 1323,-233 1323,-200.788 1318.27,-163.532 1315.02,-141.692"/>
<polygon fill="midnightblue" stroke="midnightblue" points="1318.43,-140.874 1313.44,-131.529 1311.51,-141.947 1318.43,-140.874"/>
</g>
<!-- Node5 -->
<g id="node5" class="node"><title>Node5</title>
<polygon fill="white" stroke="#bfbfbf" points="1224.5,-112.5 1224.5,-131.5 1273.5,-131.5 1273.5,-112.5 1224.5,-112.5"/>
<text text-anchor="middle" x="1249" y="-119.5" font-family="Helvetica,sans-Serif" font-size="10.00">cassert</text>
</g>
<!-- Node1&#45;&gt;Node5 -->
<g id="edge4" class="edge"><title>Node1&#45;&gt;Node5</title>
<path fill="none" stroke="midnightblue" d="M1301.44,-560.249C1296.25,-541.738 1285,-497.179 1285,-459 1285,-459 1285,-459 1285,-233 1285,-198.982 1269.26,-161.85 1258.59,-140.6"/>
<polygon fill="midnightblue" stroke="midnightblue" points="1261.59,-138.772 1253.86,-131.527 1255.38,-142.012 1261.59,-138.772"/>
</g>
<!-- Node6 -->
<g id="node6" class="node"><title>Node6</title>
<polygon fill="white" stroke="#bfbfbf" points="1389,-504.5 1389,-523.5 1457,-523.5 1457,-504.5 1389,-504.5"/>
<text text-anchor="middle" x="1423" y="-511.5" font-family="Helvetica,sans-Serif" font-size="10.00">wdlendian.h</text>
</g>
<!-- Node1&#45;&gt;Node6 -->
<g id="edge5" class="edge"><title>Node1&#45;&gt;Node6</title>
<path fill="none" stroke="midnightblue" d="M1322.86,-560.444C1342.27,-551.636 1372.73,-537.812 1394.96,-527.722"/>
<polygon fill="midnightblue" stroke="midnightblue" points="1396.57,-530.836 1404.23,-523.516 1393.68,-524.462 1396.57,-530.836"/>
</g>
<!-- Node7 -->
<g id="node7" class="node"><title>Node7</title>
<g id="a_node7"><a xlink:href="_i_plug_a_p_i_base_8h.html" target="_top" xlink:title="The base class of an IPlug plug&#45;in, which interacts with the different plug&#45;in APIs. ">
<polygon fill="white" stroke="black" points="529,-504.5 529,-523.5 615,-523.5 615,-504.5 529,-504.5"/>
<text text-anchor="middle" x="572" y="-511.5" font-family="Helvetica,sans-Serif" font-size="10.00">IPlugAPIBase.h</text>
</a>
</g>
</g>
<!-- Node1&#45;&gt;Node7 -->
<g id="edge6" class="edge"><title>Node1&#45;&gt;Node7</title>
<path fill="none" stroke="midnightblue" d="M1255.4,-565.415C1124.08,-555.727 762.752,-529.072 625.683,-518.96"/>
<polygon fill="midnightblue" stroke="midnightblue" points="625.665,-515.449 615.435,-518.204 625.15,-522.431 625.665,-515.449"/>
</g>
<!-- Node8 -->
<g id="node8" class="node"><title>Node8</title>
<polygon fill="white" stroke="#bfbfbf" points="813,-0.5 813,-19.5 859,-19.5 859,-0.5 813,-0.5"/>
<text text-anchor="middle" x="836" y="-7.5" font-family="Helvetica,sans-Serif" font-size="10.00">cstring</text>
</g>
<!-- Node7&#45;&gt;Node8 -->
<g id="edge7" class="edge"><title>Node7&#45;&gt;Node8</title>
<path fill="none" stroke="midnightblue" d="M615.061,-513.373C703.842,-513.238 913.146,-508.235 1083,-468 1159.29,-449.928 1247,-481.405 1247,-403 1247,-403 1247,-403 1247,-289 1247,-199.928 1394.73,-183.039 1341,-112 1283.57,-36.0697 972.21,-16.5746 869.148,-12.1658"/>
<polygon fill="midnightblue" stroke="midnightblue" points="869.144,-8.66281 859.009,-11.7526 868.859,-15.657 869.144,-8.66281"/>
</g>
<!-- Node9 -->
<g id="node9" class="node"><title>Node9</title>
<polygon fill="white" stroke="#bfbfbf" points="1160,-112.5 1160,-131.5 1206,-131.5 1206,-112.5 1160,-112.5"/>
<text text-anchor="middle" x="1183" y="-119.5" font-family="Helvetica,sans-Serif" font-size="10.00">cstdint</text>
</g>
<!-- Node7&#45;&gt;Node9 -->
<g id="edge8" class="edge"><title>Node7&#45;&gt;Node9</title>
<path fill="none" stroke="midnightblue" d="M615.283,-510.116C758.655,-499.994 1209,-463.392 1209,-403 1209,-403 1209,-403 1209,-289 1209,-234.939 1195.37,-172.156 1187.85,-141.61"/>
<polygon fill="midnightblue" stroke="midnightblue" points="1191.16,-140.401 1185.31,-131.566 1184.37,-142.12 1191.16,-140.401"/>
</g>
<!-- Node10 -->
<g id="node10" class="node"><title>Node10</title>
<polygon fill="white" stroke="#bfbfbf" points="389.5,-224.5 389.5,-243.5 438.5,-243.5 438.5,-224.5 389.5,-224.5"/>
<text text-anchor="middle" x="414" y="-231.5" font-family="Helvetica,sans-Serif" font-size="10.00">ptrlist.h</text>
</g>
<!-- Node7&#45;&gt;Node10 -->
<g id="edge9" class="edge"><title>Node7&#45;&gt;Node10</title>
<path fill="none" stroke="midnightblue" d="M528.843,-513.201C453.316,-512.531 302.04,-506.309 269,-468 204.742,-393.494 338.503,-287.578 392.629,-249.406"/>
<polygon fill="midnightblue" stroke="midnightblue" points="394.661,-252.256 400.88,-243.678 390.669,-246.506 394.661,-252.256"/>
</g>
<!-- Node11 -->
<g id="node11" class="node"><title>Node11</title>
<polygon fill="white" stroke="#bfbfbf" points="468,-112.5 468,-131.5 520,-131.5 520,-112.5 468,-112.5"/>
<text text-anchor="middle" x="494" y="-119.5" font-family="Helvetica,sans-Serif" font-size="10.00">mutex.h</text>
</g>
<!-- Node7&#45;&gt;Node11 -->
<g id="edge10" class="edge"><title>Node7&#45;&gt;Node11</title>
<path fill="none" stroke="midnightblue" d="M541.028,-504.423C514.932,-496.619 477.002,-483.903 446,-468 355.069,-421.356 308.016,-400.411 289,-300 284.779,-277.71 296.984,-224.023 297,-224 335.795,-169.597 412.752,-142.505 458.147,-130.72"/>
<polygon fill="midnightblue" stroke="midnightblue" points="459.014,-134.111 467.875,-128.303 457.326,-127.318 459.014,-134.111"/>
</g>
<!-- Node12 -->
<g id="node12" class="node"><title>Node12</title>
<g id="a_node12"><a xlink:href="_i_plug_platform_8h.html" target="_top" xlink:title="Include to get consistently named preprocessor macros for different platforms and logging functionali...">
<polygon fill="white" stroke="black" points="106,-56.5 106,-75.5 190,-75.5 190,-56.5 106,-56.5"/>
<text text-anchor="middle" x="148" y="-63.5" font-family="Helvetica,sans-Serif" font-size="10.00">IPlugPlatform.h</text>
</a>
</g>
</g>
<!-- Node7&#45;&gt;Node12 -->
<g id="edge11" class="edge"><title>Node7&#45;&gt;Node12</title>
<path fill="none" stroke="midnightblue" d="M528.989,-512.364C428.598,-510.32 181.688,-501.894 107,-468 68.6348,-450.59 38,-445.131 38,-403 38,-403 38,-403 38,-177 38,-130.91 86.8818,-97.3874 119.474,-80.158"/>
<polygon fill="midnightblue" stroke="midnightblue" points="121.252,-83.1807 128.587,-75.5356 118.086,-76.9379 121.252,-83.1807"/>
</g>
<!-- Node14 -->
<g id="node14" class="node"><title>Node14</title>
<g id="a_node14"><a xlink:href="_i_plug_plugin_base_8h.html" target="_top" xlink:title="Base class that contains plug&#45;in info and state manipulation methods. ">
<polygon fill="white" stroke="black" points="812.5,-448.5 812.5,-467.5 909.5,-467.5 909.5,-448.5 812.5,-448.5"/>
<text text-anchor="middle" x="861" y="-455.5" font-family="Helvetica,sans-Serif" font-size="10.00">IPlugPluginBase.h</text>
</a>
</g>
</g>
<!-- Node7&#45;&gt;Node14 -->
<g id="edge14" class="edge"><title>Node7&#45;&gt;Node14</title>
<path fill="none" stroke="midnightblue" d="M615.266,-504.916C665.815,-495.471 749.579,-479.819 805.035,-469.457"/>
<polygon fill="midnightblue" stroke="midnightblue" points="805.859,-472.864 815.046,-467.587 804.573,-465.983 805.859,-472.864"/>
</g>
<!-- Node19 -->
<g id="node19" class="node"><title>Node19</title>
<g id="a_node19"><a xlink:href="_i_plug_parameter_8h.html" target="_top" xlink:title="IPlug&#39;s parameter class. ">
<polygon fill="white" stroke="black" points="752,-280.5 752,-299.5 844,-299.5 844,-280.5 752,-280.5"/>
<text text-anchor="middle" x="798" y="-287.5" font-family="Helvetica,sans-Serif" font-size="10.00">IPlugParameter.h</text>
</a>
</g>
</g>
<!-- Node7&#45;&gt;Node19 -->
<g id="edge68" class="edge"><title>Node7&#45;&gt;Node19</title>
<path fill="none" stroke="midnightblue" d="M609.407,-504.441C633.029,-497.599 663.11,-486.096 685,-468 739.495,-422.951 776.274,-344.575 790.905,-309.221"/>
<polygon fill="midnightblue" stroke="midnightblue" points="794.244,-310.299 794.729,-299.715 787.749,-307.686 794.244,-310.299"/>
</g>
<!-- Node23 -->
<g id="node23" class="node"><title>Node23</title>
<g id="a_node23"><a xlink:href="_i_plug_utilities_8h.html" target="_top" xlink:title="Utility functions and macros. ">
<polygon fill="white" stroke="black" points="538,-112.5 538,-131.5 618,-131.5 618,-112.5 538,-112.5"/>
<text text-anchor="middle" x="578" y="-119.5" font-family="Helvetica,sans-Serif" font-size="10.00">IPlugUtilities.h</text>
</a>
</g>
</g>
<!-- Node7&#45;&gt;Node23 -->
<g id="edge67" class="edge"><title>Node7&#45;&gt;Node23</title>
<path fill="none" stroke="midnightblue" d="M553.01,-504.5C479.044,-470.282 218.876,-338.938 313,-224 364.414,-161.217 417.998,-221.3 492,-188 519.033,-175.836 545.536,-153.841 561.816,-138.838"/>
<polygon fill="midnightblue" stroke="midnightblue" points="564.485,-141.131 569.347,-131.718 559.676,-136.045 564.485,-141.131"/>
</g>
<!-- Node26 -->
<g id="node26" class="node"><title>Node26</title>
<g id="a_node26"><a xlink:href="_i_plug_constants_8h.html" target="_top" xlink:title="IPlug Constant definitions, Types, magic numbers. ">
<polygon fill="white" stroke="black" points="399,-56.5 399,-75.5 491,-75.5 491,-56.5 399,-56.5"/>
<text text-anchor="middle" x="445" y="-63.5" font-family="Helvetica,sans-Serif" font-size="10.00">IPlugConstants.h</text>
</a>
</g>
</g>
<!-- Node7&#45;&gt;Node26 -->
<g id="edge65" class="edge"><title>Node7&#45;&gt;Node26</title>
<path fill="none" stroke="midnightblue" d="M528.851,-512.576C408.177,-510.233 76,-495.393 76,-403 76,-403 76,-403 76,-289 76,-144.836 285.358,-91.896 388.682,-74.5472"/>
<polygon fill="midnightblue" stroke="midnightblue" points="389.33,-77.988 398.64,-72.9304 388.208,-71.0785 389.33,-77.988"/>
</g>
<!-- Node30 -->
<g id="node30" class="node"><title>Node30</title>
<g id="a_node30"><a xlink:href="_i_plug_structs_8h_source.html" target="_top" xlink:title="IPlugStructs.h">
<polygon fill="white" stroke="black" points="597.5,-280.5 597.5,-299.5 676.5,-299.5 676.5,-280.5 597.5,-280.5"/>
<text text-anchor="middle" x="637" y="-287.5" font-family="Helvetica,sans-Serif" font-size="10.00">IPlugStructs.h</text>
</a>
</g>
</g>
<!-- Node7&#45;&gt;Node30 -->
<g id="edge66" class="edge"><title>Node7&#45;&gt;Node30</title>
<path fill="none" stroke="midnightblue" d="M573.256,-504.365C576.283,-484.343 584.654,-433.31 597,-392 605.881,-362.285 619.858,-329.07 628.719,-309.113"/>
<polygon fill="midnightblue" stroke="midnightblue" points="632.027,-310.29 632.941,-299.734 625.644,-307.416 632.027,-310.29"/>
</g>
<!-- Node31 -->
<g id="node31" class="node"><title>Node31</title>
<g id="a_node31"><a xlink:href="_i_plug_queue_8h.html" target="_top" xlink:title="A lock&#45;free SPSC queue used to transfer data between threads based on MLQueue.h by Randy Jones based ...">
<polygon fill="white" stroke="black" points="600,-448.5 600,-467.5 676,-467.5 676,-448.5 600,-448.5"/>
<text text-anchor="middle" x="638" y="-455.5" font-family="Helvetica,sans-Serif" font-size="10.00">IPlugQueue.h</text>
</a>
</g>
</g>
<!-- Node7&#45;&gt;Node31 -->
<g id="edge69" class="edge"><title>Node7&#45;&gt;Node31</title>
<path fill="none" stroke="midnightblue" d="M582.604,-504.324C592.456,-496.263 607.351,-484.077 619.215,-474.369"/>
<polygon fill="midnightblue" stroke="midnightblue" points="621.68,-476.875 627.203,-467.834 617.247,-471.457 621.68,-476.875"/>
</g>
<!-- Node33 -->
<g id="node33" class="node"><title>Node33</title>
<g id="a_node33"><a xlink:href="_i_plug_timer_8h.html" target="_top" xlink:title="This file includes classes for implementing timers &#45; in order to get a regular callback on the main t...">
<polygon fill="white" stroke="black" points="171,-280.5 171,-299.5 243,-299.5 243,-280.5 171,-280.5"/>
<text text-anchor="middle" x="207" y="-287.5" font-family="Helvetica,sans-Serif" font-size="10.00">IPlugTimer.h</text>
</a>
</g>
</g>
<!-- Node7&#45;&gt;Node33 -->
<g id="edge72" class="edge"><title>Node7&#45;&gt;Node33</title>
<path fill="none" stroke="midnightblue" d="M528.904,-513.554C446.704,-513.646 272.031,-508.885 231,-468 188.384,-425.535 196.576,-345.781 203.043,-309.643"/>
<polygon fill="midnightblue" stroke="midnightblue" points="206.533,-310.03 205.015,-299.545 199.663,-308.688 206.533,-310.03"/>
</g>
<!-- Node12&#45;&gt;Node8 -->
<g id="edge12" class="edge"><title>Node12&#45;&gt;Node8</title>
<path fill="none" stroke="midnightblue" d="M190.142,-57.8186C194.81,-57.1449 199.5,-56.5207 204,-56 432.318,-29.5768 708.957,-16.3086 802.936,-12.3239"/>
<polygon fill="midnightblue" stroke="midnightblue" points="803.13,-15.8189 812.975,-11.9043 802.838,-8.82505 803.13,-15.8189"/>
</g>
<!-- Node13 -->
<g id="node13" class="node"><title>Node13</title>
<polygon fill="white" stroke="#bfbfbf" points="320.5,-0.5 320.5,-19.5 365.5,-19.5 365.5,-0.5 320.5,-0.5"/>
<text text-anchor="middle" x="343" y="-7.5" font-family="Helvetica,sans-Serif" font-size="10.00">cstdlib</text>
</g>
<!-- Node12&#45;&gt;Node13 -->
<g id="edge13" class="edge"><title>Node12&#45;&gt;Node13</title>
<path fill="none" stroke="midnightblue" d="M178.898,-56.4435C214.924,-46.4672 274.188,-30.0556 310.774,-19.9242"/>
<polygon fill="midnightblue" stroke="midnightblue" points="311.75,-23.2857 320.453,-17.2437 309.882,-16.5395 311.75,-23.2857"/>
</g>
<!-- Node15 -->
<g id="node15" class="node"><title>Node15</title>
<polygon fill="white" stroke="#bfbfbf" points="1048.5,-392.5 1048.5,-411.5 1097.5,-411.5 1097.5,-392.5 1048.5,-392.5"/>
<text text-anchor="middle" x="1073" y="-399.5" font-family="Helvetica,sans-Serif" font-size="10.00">random</text>
</g>
<!-- Node14&#45;&gt;Node15 -->
<g id="edge15" class="edge"><title>Node14&#45;&gt;Node15</title>
<path fill="none" stroke="midnightblue" d="M894.592,-448.444C934.01,-438.403 999.016,-421.845 1038.73,-411.73"/>
<polygon fill="midnightblue" stroke="midnightblue" points="1039.66,-415.104 1048.49,-409.244 1037.93,-408.32 1039.66,-415.104"/>
</g>
<!-- Node16 -->
<g id="node16" class="node"><title>Node16</title>
<g id="a_node16"><a xlink:href="_i_plug_delegate__select_8h.html" target="_top" xlink:title="Used for choosing an editor delegate. ">
<polygon fill="white" stroke="black" points="826,-392.5 826,-411.5 944,-411.5 944,-392.5 826,-392.5"/>
<text text-anchor="middle" x="885" y="-399.5" font-family="Helvetica,sans-Serif" font-size="10.00">IPlugDelegate_select.h</text>
</a>
</g>
</g>
<!-- Node14&#45;&gt;Node16 -->
<g id="edge16" class="edge"><title>Node14&#45;&gt;Node16</title>
<path fill="none" stroke="midnightblue" d="M864.963,-448.083C868.213,-440.77 872.919,-430.181 876.954,-421.103"/>
<polygon fill="midnightblue" stroke="midnightblue" points="880.248,-422.311 881.111,-411.751 873.851,-419.468 880.248,-422.311"/>
</g>
<!-- Node14&#45;&gt;Node19 -->
<g id="edge62" class="edge"><title>Node14&#45;&gt;Node19</title>
<path fill="none" stroke="midnightblue" d="M849.204,-448.424C838.935,-440.27 824.545,-427.04 817,-412 800.373,-378.855 797.582,-334.72 797.492,-309.948"/>
<polygon fill="midnightblue" stroke="midnightblue" points="800.994,-309.795 797.609,-299.755 793.995,-309.715 800.994,-309.795"/>
</g>
<!-- Node28 -->
<g id="node28" class="node"><title>Node28</title>
<g id="a_node28"><a xlink:href="_i_plug_logger_8h.html" target="_top" xlink:title="IPlug logging a.k.a tracing functionality. ">
<polygon fill="white" stroke="black" points="957.5,-168.5 957.5,-187.5 1034.5,-187.5 1034.5,-168.5 957.5,-168.5"/>
<text text-anchor="middle" x="996" y="-175.5" font-family="Helvetica,sans-Serif" font-size="10.00">IPlugLogger.h</text>
</a>
</g>
</g>
<!-- Node14&#45;&gt;Node28 -->
<g id="edge64" class="edge"><title>Node14&#45;&gt;Node28</title>
<path fill="none" stroke="midnightblue" d="M895.767,-448.409C915.52,-441.729 939.026,-430.413 953,-412 1002.89,-346.268 1000.99,-240.477 997.838,-197.773"/>
<polygon fill="midnightblue" stroke="midnightblue" points="1001.32,-197.364 996.978,-187.698 994.342,-197.959 1001.32,-197.364"/>
</g>
<!-- Node14&#45;&gt;Node30 -->
<g id="edge63" class="edge"><title>Node14&#45;&gt;Node30</title>
<path fill="none" stroke="midnightblue" d="M849.272,-448.309C812.983,-421.416 702.246,-339.352 656.791,-305.666"/>
<polygon fill="midnightblue" stroke="midnightblue" points="658.73,-302.747 648.612,-299.605 654.562,-308.371 658.73,-302.747"/>
</g>
<!-- Node17 -->
<g id="node17" class="node"><title>Node17</title>
<g id="a_node17"><a xlink:href="_i_plug_editor_delegate_8h.html" target="_top" xlink:title="This pure virtual interface delegates communication in both directions between a UI editor and someth...">
<polygon fill="white" stroke="black" points="826,-336.5 826,-355.5 938,-355.5 938,-336.5 826,-336.5"/>
<text text-anchor="middle" x="882" y="-343.5" font-family="Helvetica,sans-Serif" font-size="10.00">IPlugEditorDelegate.h</text>
</a>
</g>
</g>
<!-- Node16&#45;&gt;Node17 -->
<g id="edge17" class="edge"><title>Node16&#45;&gt;Node17</title>
<path fill="none" stroke="midnightblue" d="M884.505,-392.083C884.111,-385.006 883.548,-374.861 883.055,-365.986"/>
<polygon fill="midnightblue" stroke="midnightblue" points="886.536,-365.542 882.486,-355.751 879.546,-365.93 886.536,-365.542"/>
</g>
<!-- Node17&#45;&gt;Node5 -->
<g id="edge18" class="edge"><title>Node17&#45;&gt;Node5</title>
<path fill="none" stroke="midnightblue" d="M907.875,-336.415C951.522,-321.319 1041.69,-287.459 1110,-244 1159.47,-212.522 1209.36,-164.096 1233.7,-139.124"/>
<polygon fill="midnightblue" stroke="midnightblue" points="1236.52,-141.241 1240.94,-131.612 1231.48,-136.383 1236.52,-141.241"/>
</g>
<!-- Node17&#45;&gt;Node8 -->
<g id="edge19" class="edge"><title>Node17&#45;&gt;Node8</title>
<path fill="none" stroke="midnightblue" d="M881.546,-336.408C879.58,-301.302 870.895,-165.435 849,-56 847.203,-47.0181 844.471,-37.2282 841.974,-29.0803"/>
<polygon fill="midnightblue" stroke="midnightblue" points="845.298,-27.9851 838.926,-19.521 838.629,-30.1117 845.298,-27.9851"/>
</g>
<!-- Node17&#45;&gt;Node10 -->
<g id="edge21" class="edge"><title>Node17&#45;&gt;Node10</title>
<path fill="none" stroke="midnightblue" d="M825.764,-339.866C766.073,-333.613 669.327,-321.173 588,-300 535.17,-286.246 476.121,-262.258 442.181,-247.586"/>
<polygon fill="midnightblue" stroke="midnightblue" points="443.46,-244.325 432.895,-243.532 440.659,-250.741 443.46,-244.325"/>
</g>
<!-- Node18 -->
<g id="node18" class="node"><title>Node18</title>
<polygon fill="white" stroke="#bfbfbf" points="322.5,-224.5 322.5,-243.5 371.5,-243.5 371.5,-224.5 322.5,-224.5"/>
<text text-anchor="middle" x="347" y="-231.5" font-family="Helvetica,sans-Serif" font-size="10.00">stdint.h</text>
</g>
<!-- Node17&#45;&gt;Node18 -->
<g id="edge20" class="edge"><title>Node17&#45;&gt;Node18</title>
<path fill="none" stroke="midnightblue" d="M825.917,-342.072C754.301,-337.412 626.96,-326.016 521,-300 467.841,-286.948 408.678,-262.627 374.845,-247.72"/>
<polygon fill="midnightblue" stroke="midnightblue" points="376.155,-244.472 365.596,-243.6 373.306,-250.866 376.155,-244.472"/>
</g>
<!-- Node17&#45;&gt;Node19 -->
<g id="edge22" class="edge"><title>Node17&#45;&gt;Node19</title>
<path fill="none" stroke="midnightblue" d="M868.504,-336.324C855.4,-327.9 835.288,-314.971 819.893,-305.074"/>
<polygon fill="midnightblue" stroke="midnightblue" points="821.767,-302.118 811.463,-299.655 817.982,-308.006 821.767,-302.118"/>
</g>
<!-- Node27 -->
<g id="node27" class="node"><title>Node27</title>
<g id="a_node27"><a xlink:href="_i_plug_midi_8h.html" target="_top" xlink:title="MIDI and sysex structs/utilites. ">
<polygon fill="white" stroke="black" points="1036.5,-224.5 1036.5,-243.5 1101.5,-243.5 1101.5,-224.5 1036.5,-224.5"/>
<text text-anchor="middle" x="1069" y="-231.5" font-family="Helvetica,sans-Serif" font-size="10.00">IPlugMidi.h</text>
</a>
</g>
</g>
<!-- Node17&#45;&gt;Node27 -->
<g id="edge37" class="edge"><title>Node17&#45;&gt;Node27</title>
<path fill="none" stroke="midnightblue" d="M891.796,-336.405C907.232,-323.143 938.505,-297.408 968,-280 989.879,-267.087 1016.13,-255.499 1036.38,-247.317"/>
<polygon fill="midnightblue" stroke="midnightblue" points="1037.79,-250.523 1045.8,-243.583 1035.21,-244.015 1037.79,-250.523"/>
</g>
<!-- Node17&#45;&gt;Node30 -->
<g id="edge54" class="edge"><title>Node17&#45;&gt;Node30</title>
<path fill="none" stroke="midnightblue" d="M843.179,-336.444C800.439,-327.023 731.668,-311.866 685.434,-301.675"/>
<polygon fill="midnightblue" stroke="midnightblue" points="686.158,-298.251 675.639,-299.516 684.652,-305.087 686.158,-298.251"/>
</g>
<!-- Node19&#45;&gt;Node8 -->
<g id="edge24" class="edge"><title>Node19&#45;&gt;Node8</title>
<path fill="none" stroke="midnightblue" d="M801.853,-280.226C805.599,-271.293 811.132,-256.953 814,-244 831.346,-165.649 835.022,-69.5091 835.796,-29.6641"/>
<polygon fill="midnightblue" stroke="midnightblue" points="839.297,-29.634 835.951,-19.5814 832.298,-29.5265 839.297,-29.634"/>
</g>
<!-- Node20 -->
<g id="node20" class="node"><title>Node20</title>
<polygon fill="white" stroke="#bfbfbf" points="724,-224.5 724,-243.5 770,-243.5 770,-224.5 724,-224.5"/>
<text text-anchor="middle" x="747" y="-231.5" font-family="Helvetica,sans-Serif" font-size="10.00">atomic</text>
</g>
<!-- Node19&#45;&gt;Node20 -->
<g id="edge23" class="edge"><title>Node19&#45;&gt;Node20</title>
<path fill="none" stroke="midnightblue" d="M789.578,-280.083C782.152,-272.22 771.148,-260.569 762.188,-251.081"/>
<polygon fill="midnightblue" stroke="midnightblue" points="764.676,-248.618 755.265,-243.751 759.587,-253.424 764.676,-248.618"/>
</g>
<!-- Node21 -->
<g id="node21" class="node"><title>Node21</title>
<polygon fill="white" stroke="#bfbfbf" points="456.5,-224.5 456.5,-243.5 515.5,-243.5 515.5,-224.5 456.5,-224.5"/>
<text text-anchor="middle" x="486" y="-231.5" font-family="Helvetica,sans-Serif" font-size="10.00">functional</text>
</g>
<!-- Node19&#45;&gt;Node21 -->
<g id="edge25" class="edge"><title>Node19&#45;&gt;Node21</title>
<path fill="none" stroke="midnightblue" d="M751.963,-281.032C690.719,-270.432 583.468,-251.869 525.64,-241.861"/>
<polygon fill="midnightblue" stroke="midnightblue" points="526.229,-238.411 515.779,-240.154 525.036,-245.308 526.229,-238.411"/>
</g>
<!-- Node22 -->
<g id="node22" class="node"><title>Node22</title>
<polygon fill="white" stroke="#bfbfbf" points="718,-56.5 718,-75.5 782,-75.5 782,-56.5 718,-56.5"/>
<text text-anchor="middle" x="750" y="-63.5" font-family="Helvetica,sans-Serif" font-size="10.00">wdlstring.h</text>
</g>
<!-- Node19&#45;&gt;Node22 -->
<g id="edge26" class="edge"><title>Node19&#45;&gt;Node22</title>
<path fill="none" stroke="midnightblue" d="M799.065,-280.105C800.361,-267.527 802.027,-243.86 799,-224 791.103,-172.188 769.34,-113.963 757.655,-85.1568"/>
<polygon fill="midnightblue" stroke="midnightblue" points="760.773,-83.5376 753.719,-75.6317 754.303,-86.2105 760.773,-83.5376"/>
</g>
<!-- Node19&#45;&gt;Node23 -->
<g id="edge27" class="edge"><title>Node19&#45;&gt;Node23</title>
<path fill="none" stroke="midnightblue" d="M797.623,-280.411C796.606,-266.927 792.85,-240.618 779,-224 738.702,-175.646 669.474,-148.144 623.717,-134.404"/>
<polygon fill="midnightblue" stroke="midnightblue" points="624.624,-131.023 614.045,-131.599 622.674,-137.746 624.624,-131.023"/>
</g>
<!-- Node23&#45;&gt;Node2 -->
<g id="edge29" class="edge"><title>Node23&#45;&gt;Node2</title>
<path fill="none" stroke="midnightblue" d="M537.94,-113.31C534.92,-112.832 531.915,-112.388 529,-112 338.021,-86.5665 288.471,-97.4234 97,-76 86.655,-74.8425 75.4028,-73.342 65.2595,-71.8991"/>
<polygon fill="midnightblue" stroke="midnightblue" points="65.5746,-68.4082 55.1751,-70.433 64.5675,-75.3353 65.5746,-68.4082"/>
</g>
<!-- Node23&#45;&gt;Node3 -->
<g id="edge30" class="edge"><title>Node23&#45;&gt;Node3</title>
<path fill="none" stroke="midnightblue" d="M618.094,-118.693C701.809,-113.571 901.173,-99.7898 1067,-76 1071.56,-75.3453 1076.36,-74.5396 1081.06,-73.6817"/>
<polygon fill="midnightblue" stroke="midnightblue" points="1081.92,-77.0809 1091.08,-71.7589 1080.6,-70.2064 1081.92,-77.0809"/>
</g>
<!-- Node23&#45;&gt;Node8 -->
<g id="edge32" class="edge"><title>Node23&#45;&gt;Node8</title>
<path fill="none" stroke="midnightblue" d="M579.568,-112.279C582.595,-98.1177 590.64,-70.2713 609,-56 638.8,-32.8364 747.137,-19.434 802.674,-13.9421"/>
<polygon fill="midnightblue" stroke="midnightblue" points="803.099,-17.4175 812.719,-12.9783 802.43,-10.4495 803.099,-17.4175"/>
</g>
<!-- Node23&#45;&gt;Node12 -->
<g id="edge36" class="edge"><title>Node23&#45;&gt;Node12</title>
<path fill="none" stroke="midnightblue" d="M537.924,-113.423C534.908,-112.919 531.908,-112.438 529,-112 412.083,-94.3767 274.11,-79.5562 200.503,-72.1257"/>
<polygon fill="midnightblue" stroke="midnightblue" points="200.419,-68.5998 190.12,-71.0835 199.72,-75.5648 200.419,-68.5998"/>
</g>
<!-- Node23&#45;&gt;Node13 -->
<g id="edge31" class="edge"><title>Node23&#45;&gt;Node13</title>
<path fill="none" stroke="midnightblue" d="M569.763,-112.069C556.419,-98.116 528.664,-71.1767 500,-56 459.864,-34.7496 408.495,-22.4752 375.659,-16.2632"/>
<polygon fill="midnightblue" stroke="midnightblue" points="376.151,-12.7954 365.687,-14.4557 374.902,-19.6832 376.151,-12.7954"/>
</g>
<!-- Node23&#45;&gt;Node22 -->
<g id="edge34" class="edge"><title>Node23&#45;&gt;Node22</title>
<path fill="none" stroke="midnightblue" d="M605.254,-112.444C634.441,-103.28 680.921,-88.6876 713.309,-78.5192"/>
<polygon fill="midnightblue" stroke="midnightblue" points="714.381,-81.8512 722.874,-75.5164 712.284,-75.1726 714.381,-81.8512"/>
</g>
<!-- Node24 -->
<g id="node24" class="node"><title>Node24</title>
<polygon fill="white" stroke="#bfbfbf" points="618,-56.5 618,-75.5 674,-75.5 674,-56.5 618,-56.5"/>
<text text-anchor="middle" x="646" y="-63.5" font-family="Helvetica,sans-Serif" font-size="10.00">algorithm</text>
</g>
<!-- Node23&#45;&gt;Node24 -->
<g id="edge28" class="edge"><title>Node23&#45;&gt;Node24</title>
<path fill="none" stroke="midnightblue" d="M588.925,-112.324C599.175,-104.185 614.721,-91.8395 627.001,-82.0874"/>
<polygon fill="midnightblue" stroke="midnightblue" points="629.221,-84.7937 634.876,-75.8339 624.868,-79.3119 629.221,-84.7937"/>
</g>
<!-- Node25 -->
<g id="node25" class="node"><title>Node25</title>
<polygon fill="white" stroke="#bfbfbf" points="1012,-56.5 1012,-75.5 1058,-75.5 1058,-56.5 1012,-56.5"/>
<text text-anchor="middle" x="1035" y="-63.5" font-family="Helvetica,sans-Serif" font-size="10.00">cctype</text>
</g>
<!-- Node23&#45;&gt;Node25 -->
<g id="edge33" class="edge"><title>Node23&#45;&gt;Node25</title>
<path fill="none" stroke="midnightblue" d="M618.155,-116.255C707.148,-105.74 919.571,-80.6394 1001.75,-70.9292"/>
<polygon fill="midnightblue" stroke="midnightblue" points="1002.26,-74.393 1011.78,-69.7436 1001.44,-67.4413 1002.26,-74.393"/>
</g>
<!-- Node23&#45;&gt;Node26 -->
<g id="edge35" class="edge"><title>Node23&#45;&gt;Node26</title>
<path fill="none" stroke="midnightblue" d="M556.926,-112.444C534.94,-103.517 500.266,-89.4387 475.336,-79.3168"/>
<polygon fill="midnightblue" stroke="midnightblue" points="476.558,-76.0355 465.976,-75.5164 473.924,-82.5213 476.558,-76.0355"/>
</g>
<!-- Node27&#45;&gt;Node3 -->
<g id="edge40" class="edge"><title>Node27&#45;&gt;Node3</title>
<path fill="none" stroke="midnightblue" d="M1071.37,-224.075C1078.29,-197.945 1098.63,-121.211 1108.08,-85.577"/>
<polygon fill="midnightblue" stroke="midnightblue" points="1111.55,-86.1311 1110.73,-75.5681 1104.78,-84.3375 1111.55,-86.1311"/>
</g>
<!-- Node27&#45;&gt;Node5 -->
<g id="edge38" class="edge"><title>Node27&#45;&gt;Node5</title>
<path fill="none" stroke="midnightblue" d="M1080.56,-224.314C1098,-211.375 1132.26,-186.573 1163,-168 1182.17,-156.417 1204.62,-144.731 1221.77,-136.172"/>
<polygon fill="midnightblue" stroke="midnightblue" points="1223.78,-139.084 1231.19,-131.518 1220.68,-132.808 1223.78,-139.084"/>
</g>
<!-- Node27&#45;&gt;Node9 -->
<g id="edge39" class="edge"><title>Node27&#45;&gt;Node9</title>
<path fill="none" stroke="midnightblue" d="M1075.74,-224.098C1085.77,-211.099 1105.56,-186.466 1125,-168 1136.63,-156.948 1150.85,-145.882 1162.3,-137.49"/>
<polygon fill="midnightblue" stroke="midnightblue" points="1164.36,-140.322 1170.43,-131.637 1160.27,-134.642 1164.36,-140.322"/>
</g>
<!-- Node27&#45;&gt;Node24 -->
<g id="edge41" class="edge"><title>Node27&#45;&gt;Node24</title>
<path fill="none" stroke="midnightblue" d="M1045.28,-224.379C1020.84,-215.447 981.661,-201 948,-188 848.052,-149.399 730.407,-101.567 676.17,-79.3785"/>
<polygon fill="midnightblue" stroke="midnightblue" points="677.379,-76.0918 666.799,-75.5419 674.727,-82.5699 677.379,-76.0918"/>
</g>
<!-- Node27&#45;&gt;Node28 -->
<g id="edge42" class="edge"><title>Node27&#45;&gt;Node28</title>
<path fill="none" stroke="midnightblue" d="M1057.27,-224.324C1046.16,-216.107 1029.26,-203.602 1016.02,-193.807"/>
<polygon fill="midnightblue" stroke="midnightblue" points="1018.06,-190.967 1007.94,-187.834 1013.9,-196.595 1018.06,-190.967"/>
</g>
<!-- Node28&#45;&gt;Node3 -->
<g id="edge43" class="edge"><title>Node28&#45;&gt;Node3</title>
<path fill="none" stroke="midnightblue" d="M1007.54,-168.482C1019.14,-159.747 1037.36,-145.559 1052,-132 1068.93,-116.326 1086.82,-96.8672 1098.82,-83.3454"/>
<polygon fill="midnightblue" stroke="midnightblue" points="1101.5,-85.6028 1105.47,-75.7804 1096.24,-80.9824 1101.5,-85.6028"/>
</g>
<!-- Node28&#45;&gt;Node4 -->
<g id="edge48" class="edge"><title>Node28&#45;&gt;Node4</title>
<path fill="none" stroke="midnightblue" d="M1034.71,-172.598C1088.09,-166.16 1187.43,-152.859 1281.48,-131.829"/>
<polygon fill="midnightblue" stroke="midnightblue" points="1282.46,-135.195 1291.44,-129.567 1280.91,-128.368 1282.46,-135.195"/>
</g>
<!-- Node28&#45;&gt;Node5 -->
<g id="edge49" class="edge"><title>Node28&#45;&gt;Node5</title>
<path fill="none" stroke="midnightblue" d="M1034.52,-169.764C1076.31,-161.762 1145.24,-148.133 1214.02,-132.126"/>
<polygon fill="midnightblue" stroke="midnightblue" points="1215.22,-135.439 1224.16,-129.748 1213.62,-128.623 1215.22,-135.439"/>
</g>
<!-- Node28&#45;&gt;Node8 -->
<g id="edge47" class="edge"><title>Node28&#45;&gt;Node8</title>
<path fill="none" stroke="midnightblue" d="M989.021,-168.447C972.34,-148.174 928.526,-95.9097 888,-56 877.367,-45.5287 864.72,-34.5544 854.561,-26.0649"/>
<polygon fill="midnightblue" stroke="midnightblue" points="856.651,-23.2518 846.711,-19.5838 852.194,-28.6496 856.651,-23.2518"/>
</g>
<!-- Node28&#45;&gt;Node9 -->
<g id="edge46" class="edge"><title>Node28&#45;&gt;Node9</title>
<path fill="none" stroke="midnightblue" d="M1025.63,-168.444C1059.56,-158.645 1114.99,-142.639 1150.2,-132.472"/>
<polygon fill="midnightblue" stroke="midnightblue" points="1151.36,-135.781 1159.99,-129.644 1149.41,-129.056 1151.36,-135.781"/>
</g>
<!-- Node28&#45;&gt;Node11 -->
<g id="edge51" class="edge"><title>Node28&#45;&gt;Node11</title>
<path fill="none" stroke="midnightblue" d="M957.285,-175.31C878.585,-171.436 694.206,-160.131 530.53,-132.013"/>
<polygon fill="midnightblue" stroke="midnightblue" points="530.73,-128.495 520.278,-130.225 529.527,-135.391 530.73,-128.495"/>
</g>
<!-- Node28&#45;&gt;Node22 -->
<g id="edge50" class="edge"><title>Node28&#45;&gt;Node22</title>
<path fill="none" stroke="midnightblue" d="M976.697,-168.368C933.585,-149.091 829.287,-102.454 778.602,-79.7894"/>
<polygon fill="midnightblue" stroke="midnightblue" points="779.771,-76.4784 769.214,-75.5914 776.914,-82.8686 779.771,-76.4784"/>
</g>
<!-- Node28&#45;&gt;Node23 -->
<g id="edge53" class="edge"><title>Node28&#45;&gt;Node23</title>
<path fill="none" stroke="midnightblue" d="M957.425,-172.017C881.467,-162.204 712.585,-140.387 628.124,-129.475"/>
<polygon fill="midnightblue" stroke="midnightblue" points="628.375,-125.979 618.009,-128.169 627.478,-132.921 628.375,-125.979"/>
</g>
<!-- Node28&#45;&gt;Node25 -->
<g id="edge44" class="edge"><title>Node28&#45;&gt;Node25</title>
<path fill="none" stroke="midnightblue" d="M1007.27,-168.427C1016.97,-160.275 1030.28,-147.046 1036,-132 1041.64,-117.165 1040.78,-99.0146 1038.86,-85.6676"/>
<polygon fill="midnightblue" stroke="midnightblue" points="1042.3,-85.0065 1037.12,-75.7641 1035.41,-86.2193 1042.3,-85.0065"/>
</g>
<!-- Node28&#45;&gt;Node26 -->
<g id="edge52" class="edge"><title>Node28&#45;&gt;Node26</title>
<path fill="none" stroke="midnightblue" d="M957.255,-169.265C860.456,-149.94 607.936,-99.528 497.728,-77.5266"/>
<polygon fill="midnightblue" stroke="midnightblue" points="498.324,-74.0764 487.832,-75.5509 496.953,-80.941 498.324,-74.0764"/>
</g>
<!-- Node29 -->
<g id="node29" class="node"><title>Node29</title>
<polygon fill="white" stroke="#bfbfbf" points="978.5,-112.5 978.5,-131.5 1027.5,-131.5 1027.5,-112.5 978.5,-112.5"/>
<text text-anchor="middle" x="1003" y="-119.5" font-family="Helvetica,sans-Serif" font-size="10.00">cstdarg</text>
</g>
<!-- Node28&#45;&gt;Node29 -->
<g id="edge45" class="edge"><title>Node28&#45;&gt;Node29</title>
<path fill="none" stroke="midnightblue" d="M997.156,-168.083C998.084,-160.927 999.418,-150.635 1000.58,-141.691"/>
<polygon fill="midnightblue" stroke="midnightblue" points="1004.05,-142.118 1001.87,-131.751 997.109,-141.218 1004.05,-142.118"/>
</g>
<!-- Node30&#45;&gt;Node10 -->
<g id="edge57" class="edge"><title>Node30&#45;&gt;Node10</title>
<path fill="none" stroke="midnightblue" d="M599.416,-280.492C563.12,-272.188 506.36,-258.974 448.831,-244.412"/>
<polygon fill="midnightblue" stroke="midnightblue" points="449.397,-240.944 438.843,-241.872 447.671,-247.728 449.397,-240.944"/>
</g>
<!-- Node30&#45;&gt;Node12 -->
<g id="edge59" class="edge"><title>Node30&#45;&gt;Node12</title>
<path fill="none" stroke="midnightblue" d="M621.819,-280.436C605.887,-271.428 580.13,-256.811 558,-244 542.827,-235.217 539.681,-231.84 524,-224 400.927,-162.465 247.805,-103.801 181.352,-79.1704"/>
<polygon fill="midnightblue" stroke="midnightblue" points="182.412,-75.8309 171.818,-75.6505 179.987,-82.3976 182.412,-75.8309"/>
</g>
<!-- Node30&#45;&gt;Node22 -->
<g id="edge56" class="edge"><title>Node30&#45;&gt;Node22</title>
<path fill="none" stroke="midnightblue" d="M641.43,-280.297C658.197,-247.356 717.984,-129.898 740.937,-84.8052"/>
<polygon fill="midnightblue" stroke="midnightblue" points="744.061,-86.3834 745.478,-75.8837 737.823,-83.208 744.061,-86.3834"/>
</g>
<!-- Node30&#45;&gt;Node23 -->
<g id="edge61" class="edge"><title>Node30&#45;&gt;Node23</title>
<path fill="none" stroke="midnightblue" d="M633.828,-280.075C624.501,-253.832 597.031,-176.545 584.439,-141.117"/>
<polygon fill="midnightblue" stroke="midnightblue" points="587.692,-139.818 581.045,-131.568 581.096,-142.163 587.692,-139.818"/>
</g>
<!-- Node30&#45;&gt;Node24 -->
<g id="edge55" class="edge"><title>Node30&#45;&gt;Node24</title>
<path fill="none" stroke="midnightblue" d="M637.353,-280.297C638.677,-247.633 643.37,-131.866 645.231,-85.9573"/>
<polygon fill="midnightblue" stroke="midnightblue" points="648.732,-86.0173 645.64,-75.8837 641.738,-85.7337 648.732,-86.0173"/>
</g>
<!-- Node30&#45;&gt;Node26 -->
<g id="edge58" class="edge"><title>Node30&#45;&gt;Node26</title>
<path fill="none" stroke="midnightblue" d="M626.145,-280.105C589.236,-249.77 470.25,-151.198 459,-132 450.701,-117.839 447.302,-99.3567 445.92,-85.7219"/>
<polygon fill="midnightblue" stroke="midnightblue" points="449.4,-85.3238 445.17,-75.61 442.42,-85.8415 449.4,-85.3238"/>
</g>
<!-- Node30&#45;&gt;Node27 -->
<g id="edge60" class="edge"><title>Node30&#45;&gt;Node27</title>
<path fill="none" stroke="midnightblue" d="M676.867,-284.017C758.193,-273.851 942.592,-250.801 1026.27,-240.341"/>
<polygon fill="midnightblue" stroke="midnightblue" points="1026.95,-243.783 1036.44,-239.07 1026.08,-236.837 1026.95,-243.783"/>
</g>
<!-- Node31&#45;&gt;Node20 -->
<g id="edge70" class="edge"><title>Node31&#45;&gt;Node20</title>
<path fill="none" stroke="midnightblue" d="M643.206,-448.495C648.62,-439.536 657.235,-424.957 664,-412 693.779,-354.966 724.968,-285.342 739.15,-253.049"/>
<polygon fill="midnightblue" stroke="midnightblue" points="742.481,-254.165 743.28,-243.6 736.068,-251.361 742.481,-254.165"/>
</g>
<!-- Node32 -->
<g id="node32" class="node"><title>Node32</title>
<polygon fill="white" stroke="#bfbfbf" points="606.5,-392.5 606.5,-411.5 655.5,-411.5 655.5,-392.5 606.5,-392.5"/>
<text text-anchor="middle" x="631" y="-399.5" font-family="Helvetica,sans-Serif" font-size="10.00">cstddef</text>
</g>
<!-- Node31&#45;&gt;Node32 -->
<g id="edge71" class="edge"><title>Node31&#45;&gt;Node32</title>
<path fill="none" stroke="midnightblue" d="M636.844,-448.083C635.916,-440.927 634.582,-430.635 633.423,-421.691"/>
<polygon fill="midnightblue" stroke="midnightblue" points="636.891,-421.218 632.134,-411.751 629.949,-422.118 636.891,-421.218"/>
</g>
<!-- Node33&#45;&gt;Node8 -->
<g id="edge73" class="edge"><title>Node33&#45;&gt;Node8</title>
<path fill="none" stroke="midnightblue" d="M208.438,-280.471C211.42,-262.022 218,-217.001 218,-179 218,-179 218,-179 218,-121 218,-39.279 310.448,-74.7051 390,-56 541.273,-20.431 727.906,-12.9716 802.703,-11.4111"/>
<polygon fill="midnightblue" stroke="midnightblue" points="802.977,-14.9067 812.91,-11.221 802.846,-7.90788 802.977,-14.9067"/>
</g>
<!-- Node33&#45;&gt;Node10 -->
<g id="edge76" class="edge"><title>Node33&#45;&gt;Node10</title>
<path fill="none" stroke="midnightblue" d="M239.854,-280.499C272.69,-271.993 324.884,-258.445 379.608,-244.094"/>
<polygon fill="midnightblue" stroke="midnightblue" points="380.705,-247.425 389.489,-241.502 378.928,-240.654 380.705,-247.425"/>
</g>
<!-- Node33&#45;&gt;Node12 -->
<g id="edge77" class="edge"><title>Node33&#45;&gt;Node12</title>
<path fill="none" stroke="midnightblue" d="M180.071,-280.356C163.281,-273.411 143.022,-261.825 133,-244 104.086,-192.577 126.76,-119.171 140.069,-85.3503"/>
<polygon fill="midnightblue" stroke="midnightblue" points="143.414,-86.4179 143.983,-75.8384 136.941,-83.7538 143.414,-86.4179"/>
</g>
<!-- Node33&#45;&gt;Node18 -->
<g id="edge74" class="edge"><title>Node33&#45;&gt;Node18</title>
<path fill="none" stroke="midnightblue" d="M229.183,-280.444C252.428,-271.478 289.149,-257.314 315.415,-247.183"/>
<polygon fill="midnightblue" stroke="midnightblue" points="316.85,-250.381 324.92,-243.516 314.331,-243.85 316.85,-250.381"/>
</g>
<!-- Node33&#45;&gt;Node21 -->
<g id="edge75" class="edge"><title>Node33&#45;&gt;Node21</title>
<path fill="none" stroke="midnightblue" d="M243.279,-282.681C288.428,-274.711 368.124,-260.295 446.21,-244.095"/>
<polygon fill="midnightblue" stroke="midnightblue" points="447.143,-247.475 456.218,-242.007 445.713,-240.623 447.143,-247.475"/>
</g>
<!-- Node34 -->
<g id="node34" class="node"><title>Node34</title>
<polygon fill="white" stroke="#bfbfbf" points="142.5,-224.5 142.5,-243.5 189.5,-243.5 189.5,-224.5 142.5,-224.5"/>
<text text-anchor="middle" x="166" y="-231.5" font-family="Helvetica,sans-Serif" font-size="10.00">swell.h</text>
</g>
<!-- Node33&#45;&gt;Node34 -->
<g id="edge78" class="edge"><title>Node33&#45;&gt;Node34</title>
<path fill="none" stroke="midnightblue" d="M200.23,-280.083C194.438,-272.455 185.942,-261.264 178.862,-251.941"/>
<polygon fill="midnightblue" stroke="midnightblue" points="181.479,-249.599 172.644,-243.751 175.904,-253.832 181.479,-249.599"/>
</g>
</g>
</svg>
