<?xml version="1.0" encoding="UTF-8" standalone="no"?>
<!DOCTYPE svg PUBLIC "-//W3C//DTD SVG 1.1//EN"
 "http://www.w3.org/Graphics/SVG/1.1/DTD/svg11.dtd">
<!-- Generated by graphviz version 2.36.0 (20140111.2315)
 -->
<!-- Title: IPlugTimer.h Pages: 1 -->
<svg width="382pt" height="140pt"
 viewBox="0.00 0.00 381.83 140.00" xmlns="http://www.w3.org/2000/svg" xmlns:xlink="http://www.w3.org/1999/xlink">
<g id="graph0" class="graph" transform="scale(1 1) rotate(0) translate(4 136)">
<title>IPlugTimer.h</title>
<polygon fill="white" stroke="none" points="-4,4 -4,-136 377.835,-136 377.835,4 -4,4"/>
<!-- Node1 -->
<g id="node1" class="node"><title>Node1</title>
<polygon fill="#bfbfbf" stroke="black" points="110.835,-112.5 110.835,-131.5 182.835,-131.5 182.835,-112.5 110.835,-112.5"/>
<text text-anchor="middle" x="146.835" y="-119.5" font-family="Helvetica,sans-Serif" font-size="10.00">IPlugTimer.h</text>
</g>
<!-- Node2 -->
<g id="node2" class="node"><title>Node2</title>
<polygon fill="white" stroke="#bfbfbf" points="70.8347,-0.5 70.8347,-19.5 116.835,-19.5 116.835,-0.5 70.8347,-0.5"/>
<text text-anchor="middle" x="93.8347" y="-7.5" font-family="Helvetica,sans-Serif" font-size="10.00">cstring</text>
</g>
<!-- Node1&#45;&gt;Node2 -->
<g id="edge1" class="edge"><title>Node1&#45;&gt;Node2</title>
<path fill="none" stroke="midnightblue" d="M110.631,-120.737C77.0992,-118.324 28.8955,-108.865 4.83475,-76 -13.8074,-50.5364 28.5166,-30.9027 60.9859,-20.1567"/>
<polygon fill="midnightblue" stroke="midnightblue" points="62.1793,-23.4504 70.6678,-17.1104 60.0783,-16.7731 62.1793,-23.4504"/>
</g>
<!-- Node3 -->
<g id="node3" class="node"><title>Node3</title>
<polygon fill="white" stroke="#bfbfbf" points="14.3347,-56.5 14.3347,-75.5 63.3347,-75.5 63.3347,-56.5 14.3347,-56.5"/>
<text text-anchor="middle" x="38.8347" y="-63.5" font-family="Helvetica,sans-Serif" font-size="10.00">stdint.h</text>
</g>
<!-- Node1&#45;&gt;Node3 -->
<g id="edge2" class="edge"><title>Node1&#45;&gt;Node3</title>
<path fill="none" stroke="midnightblue" d="M129.483,-112.324C112.163,-103.664 85.3195,-90.2424 65.3328,-80.249"/>
<polygon fill="midnightblue" stroke="midnightblue" points="66.6533,-76.9962 56.1438,-75.6545 63.5228,-83.2572 66.6533,-76.9962"/>
</g>
<!-- Node4 -->
<g id="node4" class="node"><title>Node4</title>
<polygon fill="white" stroke="#bfbfbf" points="81.3347,-56.5 81.3347,-75.5 140.335,-75.5 140.335,-56.5 81.3347,-56.5"/>
<text text-anchor="middle" x="110.835" y="-63.5" font-family="Helvetica,sans-Serif" font-size="10.00">functional</text>
</g>
<!-- Node1&#45;&gt;Node4 -->
<g id="edge3" class="edge"><title>Node1&#45;&gt;Node4</title>
<path fill="none" stroke="midnightblue" d="M140.89,-112.083C135.857,-104.534 128.498,-93.4948 122.321,-84.2298"/>
<polygon fill="midnightblue" stroke="midnightblue" points="125.128,-82.1301 116.669,-75.7511 119.304,-86.0131 125.128,-82.1301"/>
</g>
<!-- Node5 -->
<g id="node5" class="node"><title>Node5</title>
<polygon fill="white" stroke="#bfbfbf" points="158.335,-56.5 158.335,-75.5 207.335,-75.5 207.335,-56.5 158.335,-56.5"/>
<text text-anchor="middle" x="182.835" y="-63.5" font-family="Helvetica,sans-Serif" font-size="10.00">ptrlist.h</text>
</g>
<!-- Node1&#45;&gt;Node5 -->
<g id="edge4" class="edge"><title>Node1&#45;&gt;Node5</title>
<path fill="none" stroke="midnightblue" d="M152.779,-112.083C157.812,-104.534 165.172,-93.4948 171.348,-84.2298"/>
<polygon fill="midnightblue" stroke="midnightblue" points="174.366,-86.0131 177.001,-75.7511 168.541,-82.1301 174.366,-86.0131"/>
</g>
<!-- Node6 -->
<g id="node6" class="node"><title>Node6</title>
<g id="a_node6"><a xlink:href="_i_plug_platform_8h.html" target="_top" xlink:title="Include to get consistently named preprocessor macros for different platforms and logging functionali...">
<polygon fill="white" stroke="black" points="224.835,-56.5 224.835,-75.5 308.835,-75.5 308.835,-56.5 224.835,-56.5"/>
<text text-anchor="middle" x="266.835" y="-63.5" font-family="Helvetica,sans-Serif" font-size="10.00">IPlugPlatform.h</text>
</a>
</g>
</g>
<!-- Node1&#45;&gt;Node6 -->
<g id="edge5" class="edge"><title>Node1&#45;&gt;Node6</title>
<path fill="none" stroke="midnightblue" d="M165.849,-112.444C185.422,-103.636 216.142,-89.8116 238.564,-79.722"/>
<polygon fill="midnightblue" stroke="midnightblue" points="240.226,-82.8119 247.909,-75.5164 237.354,-76.4284 240.226,-82.8119"/>
</g>
<!-- Node8 -->
<g id="node8" class="node"><title>Node8</title>
<polygon fill="white" stroke="#bfbfbf" points="327.335,-56.5 327.335,-75.5 374.335,-75.5 374.335,-56.5 327.335,-56.5"/>
<text text-anchor="middle" x="350.835" y="-63.5" font-family="Helvetica,sans-Serif" font-size="10.00">swell.h</text>
</g>
<!-- Node1&#45;&gt;Node8 -->
<g id="edge8" class="edge"><title>Node1&#45;&gt;Node8</title>
<path fill="none" stroke="midnightblue" d="M179.159,-112.444C216.848,-102.467 278.847,-86.0556 317.121,-75.9242"/>
<polygon fill="midnightblue" stroke="midnightblue" points="318.476,-79.1862 327.247,-73.2437 316.685,-72.4193 318.476,-79.1862"/>
</g>
<!-- Node6&#45;&gt;Node2 -->
<g id="edge6" class="edge"><title>Node6&#45;&gt;Node2</title>
<path fill="none" stroke="midnightblue" d="M239.422,-56.4435C208.77,-46.8758 159.156,-31.3894 126.513,-21.2001"/>
<polygon fill="midnightblue" stroke="midnightblue" points="127.555,-17.859 116.966,-18.2203 125.469,-24.541 127.555,-17.859"/>
</g>
<!-- Node7 -->
<g id="node7" class="node"><title>Node7</title>
<polygon fill="white" stroke="#bfbfbf" points="244.335,-0.5 244.335,-19.5 289.335,-19.5 289.335,-0.5 244.335,-0.5"/>
<text text-anchor="middle" x="266.835" y="-7.5" font-family="Helvetica,sans-Serif" font-size="10.00">cstdlib</text>
</g>
<!-- Node6&#45;&gt;Node7 -->
<g id="edge7" class="edge"><title>Node6&#45;&gt;Node7</title>
<path fill="none" stroke="midnightblue" d="M266.835,-56.083C266.835,-49.0059 266.835,-38.8611 266.835,-29.9865"/>
<polygon fill="midnightblue" stroke="midnightblue" points="270.335,-29.751 266.835,-19.7511 263.335,-29.7511 270.335,-29.751"/>
</g>
</g>
</svg>
