<?xml version="1.0" encoding="UTF-8" standalone="no"?>
<!DOCTYPE svg PUBLIC "-//W3C//DTD SVG 1.1//EN"
 "http://www.w3.org/Graphics/SVG/1.1/DTD/svg11.dtd">
<!-- Generated by graphviz version 2.36.0 (20140111.2315)
 -->
<!-- Title: IPlugAPP.h Pages: 1 -->
<svg width="1712pt" height="588pt"
 viewBox="0.00 0.00 1712.00 588.00" xmlns="http://www.w3.org/2000/svg" xmlns:xlink="http://www.w3.org/1999/xlink">
<g id="graph0" class="graph" transform="scale(1 1) rotate(0) translate(4 584)">
<title>IPlugAPP.h</title>
<polygon fill="white" stroke="none" points="-4,4 -4,-584 1708,-584 1708,4 -4,4"/>
<!-- Node1 -->
<g id="node1" class="node"><title>Node1</title>
<polygon fill="#bfbfbf" stroke="black" points="1268,-560.5 1268,-579.5 1336,-579.5 1336,-560.5 1268,-560.5"/>
<text text-anchor="middle" x="1302" y="-567.5" font-family="Helvetica,sans-Serif" font-size="10.00">IPlugAPP.h</text>
</g>
<!-- Node2 -->
<g id="node2" class="node"><title>Node2</title>
<g id="a_node2"><a xlink:href="_i_plug_platform_8h.html" target="_top" xlink:title="Include to get consistently named preprocessor macros for different platforms and logging functionali...">
<polygon fill="white" stroke="black" points="1529,-56.5 1529,-75.5 1613,-75.5 1613,-56.5 1529,-56.5"/>
<text text-anchor="middle" x="1571" y="-63.5" font-family="Helvetica,sans-Serif" font-size="10.00">IPlugPlatform.h</text>
</a>
</g>
</g>
<!-- Node1&#45;&gt;Node2 -->
<g id="edge1" class="edge"><title>Node1&#45;&gt;Node2</title>
<path fill="none" stroke="midnightblue" d="M1336.27,-566.981C1433.49,-560.324 1704,-534.975 1704,-459 1704,-459 1704,-459 1704,-177 1704,-126.725 1646.87,-95.1005 1607.5,-79.2746"/>
<polygon fill="midnightblue" stroke="midnightblue" points="1608.5,-75.9123 1597.91,-75.5897 1605.99,-82.4459 1608.5,-75.9123"/>
</g>
<!-- Node5 -->
<g id="node5" class="node"><title>Node5</title>
<g id="a_node5"><a xlink:href="_i_plug_a_p_i_base_8h.html" target="_top" xlink:title="The base class of an IPlug plug&#45;in, which interacts with the different plug&#45;in APIs. ">
<polygon fill="white" stroke="black" points="765,-504.5 765,-523.5 851,-523.5 851,-504.5 765,-504.5"/>
<text text-anchor="middle" x="808" y="-511.5" font-family="Helvetica,sans-Serif" font-size="10.00">IPlugAPIBase.h</text>
</a>
</g>
</g>
<!-- Node1&#45;&gt;Node5 -->
<g id="edge4" class="edge"><title>Node1&#45;&gt;Node5</title>
<path fill="none" stroke="midnightblue" d="M1267.66,-565.246C1182.83,-555.973 962.92,-531.935 861.132,-520.808"/>
<polygon fill="midnightblue" stroke="midnightblue" points="861.395,-517.316 851.073,-519.708 860.634,-524.274 861.395,-517.316"/>
</g>
<!-- Node34 -->
<g id="node34" class="node"><title>Node34</title>
<g id="a_node34"><a xlink:href="_i_plug_processor_8h.html" target="_top" xlink:title="The base class for IPlug Audio Processing. ">
<polygon fill="white" stroke="black" points="1256,-336.5 1256,-355.5 1348,-355.5 1348,-336.5 1256,-336.5"/>
<text text-anchor="middle" x="1302" y="-343.5" font-family="Helvetica,sans-Serif" font-size="10.00">IPlugProcessor.h</text>
</a>
</g>
</g>
<!-- Node1&#45;&gt;Node34 -->
<g id="edge75" class="edge"><title>Node1&#45;&gt;Node34</title>
<path fill="none" stroke="midnightblue" d="M1302,-560.297C1302,-527.633 1302,-411.866 1302,-365.957"/>
<polygon fill="midnightblue" stroke="midnightblue" points="1305.5,-365.884 1302,-355.884 1298.5,-365.884 1305.5,-365.884"/>
</g>
<!-- Node3 -->
<g id="node3" class="node"><title>Node3</title>
<polygon fill="white" stroke="#bfbfbf" points="684,-0.5 684,-19.5 730,-19.5 730,-0.5 684,-0.5"/>
<text text-anchor="middle" x="707" y="-7.5" font-family="Helvetica,sans-Serif" font-size="10.00">cstring</text>
</g>
<!-- Node2&#45;&gt;Node3 -->
<g id="edge2" class="edge"><title>Node2&#45;&gt;Node3</title>
<path fill="none" stroke="midnightblue" d="M1528.74,-62.3589C1378.98,-52.999 875.321,-21.5201 740.456,-13.091"/>
<polygon fill="midnightblue" stroke="midnightblue" points="740.524,-9.58849 730.325,-12.4578 740.087,-16.5749 740.524,-9.58849"/>
</g>
<!-- Node4 -->
<g id="node4" class="node"><title>Node4</title>
<polygon fill="white" stroke="#bfbfbf" points="1144.5,-0.5 1144.5,-19.5 1189.5,-19.5 1189.5,-0.5 1144.5,-0.5"/>
<text text-anchor="middle" x="1167" y="-7.5" font-family="Helvetica,sans-Serif" font-size="10.00">cstdlib</text>
</g>
<!-- Node2&#45;&gt;Node4 -->
<g id="edge3" class="edge"><title>Node2&#45;&gt;Node4</title>
<path fill="none" stroke="midnightblue" d="M1528.91,-59.3739C1448.01,-48.5602 1272.38,-25.0849 1199.6,-15.3576"/>
<polygon fill="midnightblue" stroke="midnightblue" points="1200.01,-11.8812 1189.63,-14.0254 1199.08,-18.8195 1200.01,-11.8812"/>
</g>
<!-- Node5&#45;&gt;Node2 -->
<g id="edge9" class="edge"><title>Node5&#45;&gt;Node2</title>
<path fill="none" stroke="midnightblue" d="M851.136,-512.061C1025.12,-507.715 1666,-486.067 1666,-403 1666,-403 1666,-403 1666,-177 1666,-133.739 1623.39,-99.0862 1595.25,-80.9149"/>
<polygon fill="midnightblue" stroke="midnightblue" points="1597.03,-77.9032 1586.69,-75.6042 1593.34,-83.851 1597.03,-77.9032"/>
</g>
<!-- Node5&#45;&gt;Node3 -->
<g id="edge5" class="edge"><title>Node5&#45;&gt;Node3</title>
<path fill="none" stroke="midnightblue" d="M764.965,-511.441C642.375,-506.758 292.983,-491.659 181,-468 97.3716,-450.332 0,-488.474 0,-403 0,-403 0,-403 0,-121 0,-65.3574 54.0161,-72.9944 107,-56 213.851,-21.7279 563.95,-13.2863 673.751,-11.4578"/>
<polygon fill="midnightblue" stroke="midnightblue" points="673.96,-14.955 683.903,-11.2965 673.849,-7.95593 673.96,-14.955"/>
</g>
<!-- Node6 -->
<g id="node6" class="node"><title>Node6</title>
<polygon fill="white" stroke="#bfbfbf" points="470,-112.5 470,-131.5 516,-131.5 516,-112.5 470,-112.5"/>
<text text-anchor="middle" x="493" y="-119.5" font-family="Helvetica,sans-Serif" font-size="10.00">cstdint</text>
</g>
<!-- Node5&#45;&gt;Node6 -->
<g id="edge6" class="edge"><title>Node5&#45;&gt;Node6</title>
<path fill="none" stroke="midnightblue" d="M764.875,-510.3C684.13,-504.777 513.384,-490.757 459,-468 415.777,-449.914 376,-449.855 376,-403 376,-403 376,-403 376,-289 376,-222.649 439.222,-164.147 472.718,-137.807"/>
<polygon fill="midnightblue" stroke="midnightblue" points="475.103,-140.389 480.92,-131.534 470.85,-134.829 475.103,-140.389"/>
</g>
<!-- Node7 -->
<g id="node7" class="node"><title>Node7</title>
<polygon fill="white" stroke="#bfbfbf" points="970.5,-224.5 970.5,-243.5 1019.5,-243.5 1019.5,-224.5 970.5,-224.5"/>
<text text-anchor="middle" x="995" y="-231.5" font-family="Helvetica,sans-Serif" font-size="10.00">ptrlist.h</text>
</g>
<!-- Node5&#45;&gt;Node7 -->
<g id="edge7" class="edge"><title>Node5&#45;&gt;Node7</title>
<path fill="none" stroke="midnightblue" d="M851.331,-505.907C904.306,-494.476 987,-466.467 987,-403 987,-403 987,-403 987,-345 987,-312.863 990.439,-275.584 992.807,-253.719"/>
<polygon fill="midnightblue" stroke="midnightblue" points="996.312,-253.872 993.954,-243.542 989.356,-253.087 996.312,-253.872"/>
</g>
<!-- Node8 -->
<g id="node8" class="node"><title>Node8</title>
<polygon fill="white" stroke="#bfbfbf" points="66,-112.5 66,-131.5 118,-131.5 118,-112.5 66,-112.5"/>
<text text-anchor="middle" x="92" y="-119.5" font-family="Helvetica,sans-Serif" font-size="10.00">mutex.h</text>
</g>
<!-- Node5&#45;&gt;Node8 -->
<g id="edge8" class="edge"><title>Node5&#45;&gt;Node8</title>
<path fill="none" stroke="midnightblue" d="M764.799,-510.913C610.538,-502.895 96,-471.05 96,-403 96,-403 96,-403 96,-233 96,-200.927 94.2807,-163.628 93.0965,-141.741"/>
<polygon fill="midnightblue" stroke="midnightblue" points="96.5796,-141.341 92.5229,-131.554 89.5907,-141.735 96.5796,-141.341"/>
</g>
<!-- Node9 -->
<g id="node9" class="node"><title>Node9</title>
<g id="a_node9"><a xlink:href="_i_plug_plugin_base_8h.html" target="_top" xlink:title="Base class that contains plug&#45;in info and state manipulation methods. ">
<polygon fill="white" stroke="black" points="601.5,-448.5 601.5,-467.5 698.5,-467.5 698.5,-448.5 601.5,-448.5"/>
<text text-anchor="middle" x="650" y="-455.5" font-family="Helvetica,sans-Serif" font-size="10.00">IPlugPluginBase.h</text>
</a>
</g>
</g>
<!-- Node5&#45;&gt;Node9 -->
<g id="edge10" class="edge"><title>Node5&#45;&gt;Node9</title>
<path fill="none" stroke="midnightblue" d="M782.964,-504.444C756.384,-495.359 714.191,-480.939 684.477,-470.783"/>
<polygon fill="midnightblue" stroke="midnightblue" points="685.513,-467.439 674.918,-467.516 683.249,-474.062 685.513,-467.439"/>
</g>
<!-- Node15 -->
<g id="node15" class="node"><title>Node15</title>
<g id="a_node15"><a xlink:href="_i_plug_parameter_8h.html" target="_top" xlink:title="IPlug&#39;s parameter class. ">
<polygon fill="white" stroke="black" points="746,-280.5 746,-299.5 838,-299.5 838,-280.5 746,-280.5"/>
<text text-anchor="middle" x="792" y="-287.5" font-family="Helvetica,sans-Serif" font-size="10.00">IPlugParameter.h</text>
</a>
</g>
</g>
<!-- Node5&#45;&gt;Node15 -->
<g id="edge64" class="edge"><title>Node5&#45;&gt;Node15</title>
<path fill="none" stroke="midnightblue" d="M807.373,-504.297C805.019,-471.633 796.675,-355.866 793.366,-309.957"/>
<polygon fill="midnightblue" stroke="midnightblue" points="796.85,-309.606 792.64,-299.884 789.868,-310.11 796.85,-309.606"/>
</g>
<!-- Node19 -->
<g id="node19" class="node"><title>Node19</title>
<g id="a_node19"><a xlink:href="_i_plug_utilities_8h.html" target="_top" xlink:title="Utility functions and macros. ">
<polygon fill="white" stroke="black" points="716,-112.5 716,-131.5 796,-131.5 796,-112.5 716,-112.5"/>
<text text-anchor="middle" x="756" y="-119.5" font-family="Helvetica,sans-Serif" font-size="10.00">IPlugUtilities.h</text>
</a>
</g>
</g>
<!-- Node5&#45;&gt;Node19 -->
<g id="edge63" class="edge"><title>Node5&#45;&gt;Node19</title>
<path fill="none" stroke="midnightblue" d="M764.844,-509.871C664.119,-501.385 422,-473.64 422,-403 422,-403 422,-403 422,-345 422,-272.323 644.114,-170.547 726.082,-135.462"/>
<polygon fill="midnightblue" stroke="midnightblue" points="727.524,-138.653 735.359,-131.521 724.786,-132.21 727.524,-138.653"/>
</g>
<!-- Node24 -->
<g id="node24" class="node"><title>Node24</title>
<g id="a_node24"><a xlink:href="_i_plug_constants_8h.html" target="_top" xlink:title="IPlug Constant definitions, Types, magic numbers. ">
<polygon fill="white" stroke="black" points="874,-56.5 874,-75.5 966,-75.5 966,-56.5 874,-56.5"/>
<text text-anchor="middle" x="920" y="-63.5" font-family="Helvetica,sans-Serif" font-size="10.00">IPlugConstants.h</text>
</a>
</g>
</g>
<!-- Node5&#45;&gt;Node24 -->
<g id="edge61" class="edge"><title>Node5&#45;&gt;Node24</title>
<path fill="none" stroke="midnightblue" d="M851.267,-509.893C952.254,-501.455 1195,-473.809 1195,-403 1195,-403 1195,-403 1195,-345 1195,-288.075 1267.02,-272.367 1237,-224 1179.85,-131.926 1050.88,-92.1904 976.251,-76.3861"/>
<polygon fill="midnightblue" stroke="midnightblue" points="976.591,-72.8835 966.093,-74.3119 975.191,-79.742 976.591,-72.8835"/>
</g>
<!-- Node29 -->
<g id="node29" class="node"><title>Node29</title>
<g id="a_node29"><a xlink:href="_i_plug_structs_8h_source.html" target="_top" xlink:title="IPlugStructs.h">
<polygon fill="white" stroke="black" points="648.5,-280.5 648.5,-299.5 727.5,-299.5 727.5,-280.5 648.5,-280.5"/>
<text text-anchor="middle" x="688" y="-287.5" font-family="Helvetica,sans-Serif" font-size="10.00">IPlugStructs.h</text>
</a>
</g>
</g>
<!-- Node5&#45;&gt;Node29 -->
<g id="edge62" class="edge"><title>Node5&#45;&gt;Node29</title>
<path fill="none" stroke="midnightblue" d="M803.296,-504.297C785.49,-471.356 721.999,-353.898 697.624,-308.805"/>
<polygon fill="midnightblue" stroke="midnightblue" points="700.636,-307.016 692.802,-299.884 694.478,-310.345 700.636,-307.016"/>
</g>
<!-- Node30 -->
<g id="node30" class="node"><title>Node30</title>
<g id="a_node30"><a xlink:href="_i_plug_queue_8h.html" target="_top" xlink:title="A lock&#45;free SPSC queue used to transfer data between threads based on MLQueue.h by Randy Jones based ...">
<polygon fill="white" stroke="black" points="841,-448.5 841,-467.5 917,-467.5 917,-448.5 841,-448.5"/>
<text text-anchor="middle" x="879" y="-455.5" font-family="Helvetica,sans-Serif" font-size="10.00">IPlugQueue.h</text>
</a>
</g>
</g>
<!-- Node5&#45;&gt;Node30 -->
<g id="edge65" class="edge"><title>Node5&#45;&gt;Node30</title>
<path fill="none" stroke="midnightblue" d="M819.407,-504.324C830.109,-496.185 846.341,-483.839 859.163,-474.087"/>
<polygon fill="midnightblue" stroke="midnightblue" points="861.544,-476.673 867.385,-467.834 857.307,-471.102 861.544,-476.673"/>
</g>
<!-- Node32 -->
<g id="node32" class="node"><title>Node32</title>
<g id="a_node32"><a xlink:href="_i_plug_timer_8h.html" target="_top" xlink:title="This file includes classes for implementing timers &#45; in order to get a regular callback on the main t...">
<polygon fill="white" stroke="black" points="1095,-280.5 1095,-299.5 1167,-299.5 1167,-280.5 1095,-280.5"/>
<text text-anchor="middle" x="1131" y="-287.5" font-family="Helvetica,sans-Serif" font-size="10.00">IPlugTimer.h</text>
</a>
</g>
</g>
<!-- Node5&#45;&gt;Node32 -->
<g id="edge68" class="edge"><title>Node5&#45;&gt;Node32</title>
<path fill="none" stroke="midnightblue" d="M851.247,-511.426C892.742,-508.061 955.624,-497.936 1001,-468 1063.28,-426.914 1106.3,-345.22 1123.12,-309.005"/>
<polygon fill="midnightblue" stroke="midnightblue" points="1126.4,-310.246 1127.33,-299.692 1120.02,-307.364 1126.4,-310.246"/>
</g>
<!-- Node10 -->
<g id="node10" class="node"><title>Node10</title>
<polygon fill="white" stroke="#bfbfbf" points="480.5,-392.5 480.5,-411.5 529.5,-411.5 529.5,-392.5 480.5,-392.5"/>
<text text-anchor="middle" x="505" y="-399.5" font-family="Helvetica,sans-Serif" font-size="10.00">random</text>
</g>
<!-- Node9&#45;&gt;Node10 -->
<g id="edge11" class="edge"><title>Node9&#45;&gt;Node10</title>
<path fill="none" stroke="midnightblue" d="M627.024,-448.444C602.843,-439.438 564.582,-425.189 537.354,-415.049"/>
<polygon fill="midnightblue" stroke="midnightblue" points="538.461,-411.727 527.868,-411.516 536.018,-418.286 538.461,-411.727"/>
</g>
<!-- Node11 -->
<g id="node11" class="node"><title>Node11</title>
<g id="a_node11"><a xlink:href="_i_plug_delegate__select_8h.html" target="_top" xlink:title="Used for choosing an editor delegate. ">
<polygon fill="white" stroke="black" points="548,-392.5 548,-411.5 666,-411.5 666,-392.5 548,-392.5"/>
<text text-anchor="middle" x="607" y="-399.5" font-family="Helvetica,sans-Serif" font-size="10.00">IPlugDelegate_select.h</text>
</a>
</g>
</g>
<!-- Node9&#45;&gt;Node11 -->
<g id="edge12" class="edge"><title>Node9&#45;&gt;Node11</title>
<path fill="none" stroke="midnightblue" d="M642.899,-448.083C636.763,-440.377 627.73,-429.033 620.261,-419.653"/>
<polygon fill="midnightblue" stroke="midnightblue" points="622.936,-417.394 613.968,-411.751 617.46,-421.754 622.936,-417.394"/>
</g>
<!-- Node9&#45;&gt;Node15 -->
<g id="edge58" class="edge"><title>Node9&#45;&gt;Node15</title>
<path fill="none" stroke="midnightblue" d="M658.528,-448.181C667.13,-439.213 680.715,-424.846 692,-412 724.057,-375.509 759.948,-331.179 778.796,-307.612"/>
<polygon fill="midnightblue" stroke="midnightblue" points="781.643,-309.657 785.142,-299.657 776.17,-305.292 781.643,-309.657"/>
</g>
<!-- Node26 -->
<g id="node26" class="node"><title>Node26</title>
<g id="a_node26"><a xlink:href="_i_plug_logger_8h.html" target="_top" xlink:title="IPlug logging a.k.a tracing functionality. ">
<polygon fill="white" stroke="black" points="291.5,-168.5 291.5,-187.5 368.5,-187.5 368.5,-168.5 291.5,-168.5"/>
<text text-anchor="middle" x="330" y="-175.5" font-family="Helvetica,sans-Serif" font-size="10.00">IPlugLogger.h</text>
</a>
</g>
</g>
<!-- Node9&#45;&gt;Node26 -->
<g id="edge60" class="edge"><title>Node9&#45;&gt;Node26</title>
<path fill="none" stroke="midnightblue" d="M601.334,-451.992C505.164,-440.74 300,-409.42 300,-347 300,-347 300,-347 300,-289 300,-255.64 313.001,-218.532 321.886,-197.067"/>
<polygon fill="midnightblue" stroke="midnightblue" points="325.213,-198.19 325.954,-187.621 318.784,-195.421 325.213,-198.19"/>
</g>
<!-- Node9&#45;&gt;Node29 -->
<g id="edge59" class="edge"><title>Node9&#45;&gt;Node29</title>
<path fill="none" stroke="midnightblue" d="M656.31,-448.183C662.209,-439.447 670.732,-425.46 675,-412 686.031,-377.212 688.094,-334.281 688.27,-310.034"/>
<polygon fill="midnightblue" stroke="midnightblue" points="691.769,-309.738 688.235,-299.75 684.769,-309.762 691.769,-309.738"/>
</g>
<!-- Node12 -->
<g id="node12" class="node"><title>Node12</title>
<g id="a_node12"><a xlink:href="_i_plug_editor_delegate_8h.html" target="_top" xlink:title="This pure virtual interface delegates communication in both directions between a UI editor and someth...">
<polygon fill="white" stroke="black" points="553,-336.5 553,-355.5 665,-355.5 665,-336.5 553,-336.5"/>
<text text-anchor="middle" x="609" y="-343.5" font-family="Helvetica,sans-Serif" font-size="10.00">IPlugEditorDelegate.h</text>
</a>
</g>
</g>
<!-- Node11&#45;&gt;Node12 -->
<g id="edge13" class="edge"><title>Node11&#45;&gt;Node12</title>
<path fill="none" stroke="midnightblue" d="M607.33,-392.083C607.592,-385.006 607.968,-374.861 608.297,-365.986"/>
<polygon fill="midnightblue" stroke="midnightblue" points="611.803,-365.874 608.676,-355.751 604.808,-365.615 611.803,-365.874"/>
</g>
<!-- Node12&#45;&gt;Node3 -->
<g id="edge15" class="edge"><title>Node12&#45;&gt;Node3</title>
<path fill="none" stroke="midnightblue" d="M552.91,-341.954C387.171,-330.932 -80.3817,-284.17 57,-112 134.698,-14.6263 552.035,-9.86581 673.696,-10.5855"/>
<polygon fill="midnightblue" stroke="midnightblue" points="673.859,-14.0868 683.886,-10.6633 673.913,-7.087 673.859,-14.0868"/>
</g>
<!-- Node12&#45;&gt;Node7 -->
<g id="edge17" class="edge"><title>Node12&#45;&gt;Node7</title>
<path fill="none" stroke="midnightblue" d="M665.279,-338.376C714.132,-331.682 786.35,-319.502 847,-300 867.065,-293.548 870.756,-288.597 890,-280 915.168,-268.757 943.958,-256.458 965.018,-247.563"/>
<polygon fill="midnightblue" stroke="midnightblue" points="966.541,-250.719 974.397,-243.611 963.823,-244.269 966.541,-250.719"/>
</g>
<!-- Node13 -->
<g id="node13" class="node"><title>Node13</title>
<polygon fill="white" stroke="#bfbfbf" points="534.5,-112.5 534.5,-131.5 583.5,-131.5 583.5,-112.5 534.5,-112.5"/>
<text text-anchor="middle" x="559" y="-119.5" font-family="Helvetica,sans-Serif" font-size="10.00">cassert</text>
</g>
<!-- Node12&#45;&gt;Node13 -->
<g id="edge14" class="edge"><title>Node12&#45;&gt;Node13</title>
<path fill="none" stroke="midnightblue" d="M594.362,-336.392C582.631,-328.569 567.014,-315.842 560,-300 536.408,-246.713 547.221,-175.244 554.411,-141.772"/>
<polygon fill="midnightblue" stroke="midnightblue" points="557.918,-142.139 556.741,-131.61 551.095,-140.575 557.918,-142.139"/>
</g>
<!-- Node14 -->
<g id="node14" class="node"><title>Node14</title>
<polygon fill="white" stroke="#bfbfbf" points="1114.5,-224.5 1114.5,-243.5 1163.5,-243.5 1163.5,-224.5 1114.5,-224.5"/>
<text text-anchor="middle" x="1139" y="-231.5" font-family="Helvetica,sans-Serif" font-size="10.00">stdint.h</text>
</g>
<!-- Node12&#45;&gt;Node14 -->
<g id="edge16" class="edge"><title>Node12&#45;&gt;Node14</title>
<path fill="none" stroke="midnightblue" d="M665.143,-337.194C720.708,-329.137 808.073,-315.574 883,-300 979.515,-279.939 1004.92,-270.089 1104.61,-244.09"/>
<polygon fill="midnightblue" stroke="midnightblue" points="1105.7,-247.425 1114.49,-241.523 1103.94,-240.649 1105.7,-247.425"/>
</g>
<!-- Node12&#45;&gt;Node15 -->
<g id="edge18" class="edge"><title>Node12&#45;&gt;Node15</title>
<path fill="none" stroke="midnightblue" d="M637.997,-336.444C669.185,-327.241 718.93,-312.562 753.408,-302.388"/>
<polygon fill="midnightblue" stroke="midnightblue" points="754.538,-305.704 763.139,-299.516 752.557,-298.99 754.538,-305.704"/>
</g>
<!-- Node25 -->
<g id="node25" class="node"><title>Node25</title>
<g id="a_node25"><a xlink:href="_i_plug_midi_8h.html" target="_top" xlink:title="MIDI and sysex structs/utilites. ">
<polygon fill="white" stroke="black" points="404.5,-224.5 404.5,-243.5 469.5,-243.5 469.5,-224.5 404.5,-224.5"/>
<text text-anchor="middle" x="437" y="-231.5" font-family="Helvetica,sans-Serif" font-size="10.00">IPlugMidi.h</text>
</a>
</g>
</g>
<!-- Node12&#45;&gt;Node25 -->
<g id="edge33" class="edge"><title>Node12&#45;&gt;Node25</title>
<path fill="none" stroke="midnightblue" d="M590.146,-336.43C572.161,-327.983 544.547,-314.297 522,-300 497.684,-284.582 471.656,-264.009 454.902,-250.173"/>
<polygon fill="midnightblue" stroke="midnightblue" points="456.964,-247.335 447.043,-243.615 452.478,-252.71 456.964,-247.335"/>
</g>
<!-- Node12&#45;&gt;Node29 -->
<g id="edge50" class="edge"><title>Node12&#45;&gt;Node29</title>
<path fill="none" stroke="midnightblue" d="M621.693,-336.324C633.901,-327.979 652.578,-315.212 667.003,-305.352"/>
<polygon fill="midnightblue" stroke="midnightblue" points="669.058,-308.187 675.339,-299.655 665.108,-302.408 669.058,-308.187"/>
</g>
<!-- Node15&#45;&gt;Node3 -->
<g id="edge20" class="edge"><title>Node15&#45;&gt;Node3</title>
<path fill="none" stroke="midnightblue" d="M785.334,-280.456C768.164,-257.839 722.68,-193.895 707,-132 698.089,-96.8249 701.203,-54.0294 704.172,-29.9116"/>
<polygon fill="midnightblue" stroke="midnightblue" points="707.683,-30.0684 705.564,-19.6876 700.747,-29.1239 707.683,-30.0684"/>
</g>
<!-- Node16 -->
<g id="node16" class="node"><title>Node16</title>
<polygon fill="white" stroke="#bfbfbf" points="906,-224.5 906,-243.5 952,-243.5 952,-224.5 906,-224.5"/>
<text text-anchor="middle" x="929" y="-231.5" font-family="Helvetica,sans-Serif" font-size="10.00">atomic</text>
</g>
<!-- Node15&#45;&gt;Node16 -->
<g id="edge19" class="edge"><title>Node15&#45;&gt;Node16</title>
<path fill="none" stroke="midnightblue" d="M813.708,-280.444C836.355,-271.517 872.072,-257.439 897.752,-247.317"/>
<polygon fill="midnightblue" stroke="midnightblue" points="899.374,-250.44 907.394,-243.516 896.807,-243.927 899.374,-250.44"/>
</g>
<!-- Node17 -->
<g id="node17" class="node"><title>Node17</title>
<polygon fill="white" stroke="#bfbfbf" points="1037.5,-224.5 1037.5,-243.5 1096.5,-243.5 1096.5,-224.5 1037.5,-224.5"/>
<text text-anchor="middle" x="1067" y="-231.5" font-family="Helvetica,sans-Serif" font-size="10.00">functional</text>
</g>
<!-- Node15&#45;&gt;Node17 -->
<g id="edge21" class="edge"><title>Node15&#45;&gt;Node17</title>
<path fill="none" stroke="midnightblue" d="M838.231,-280.727C883.745,-272.46 955.482,-259.109 1027.11,-244.122"/>
<polygon fill="midnightblue" stroke="midnightblue" points="1028.15,-247.481 1037.22,-241.997 1026.71,-240.631 1028.15,-247.481"/>
</g>
<!-- Node18 -->
<g id="node18" class="node"><title>Node18</title>
<polygon fill="white" stroke="#bfbfbf" points="792,-56.5 792,-75.5 856,-75.5 856,-56.5 792,-56.5"/>
<text text-anchor="middle" x="824" y="-63.5" font-family="Helvetica,sans-Serif" font-size="10.00">wdlstring.h</text>
</g>
<!-- Node15&#45;&gt;Node18 -->
<g id="edge22" class="edge"><title>Node15&#45;&gt;Node18</title>
<path fill="none" stroke="midnightblue" d="M795.785,-280.378C805.745,-257.052 832.307,-190.518 838,-132 838.861,-123.153 839.335,-120.788 838,-112 836.632,-103.001 833.81,-93.3251 831.055,-85.2601"/>
<polygon fill="midnightblue" stroke="midnightblue" points="834.312,-83.9759 827.6,-75.7782 827.735,-86.3722 834.312,-83.9759"/>
</g>
<!-- Node15&#45;&gt;Node19 -->
<g id="edge23" class="edge"><title>Node15&#45;&gt;Node19</title>
<path fill="none" stroke="midnightblue" d="M790.064,-280.075C784.398,-253.945 767.757,-177.211 760.029,-141.577"/>
<polygon fill="midnightblue" stroke="midnightblue" points="763.398,-140.599 757.858,-131.568 756.557,-142.083 763.398,-140.599"/>
</g>
<!-- Node19&#45;&gt;Node2 -->
<g id="edge32" class="edge"><title>Node19&#45;&gt;Node2</title>
<path fill="none" stroke="midnightblue" d="M796.138,-118.341C930.833,-109.416 1366.76,-80.5324 1518.41,-70.4842"/>
<polygon fill="midnightblue" stroke="midnightblue" points="1519.09,-73.9474 1528.83,-69.7938 1518.62,-66.9627 1519.09,-73.9474"/>
</g>
<!-- Node19&#45;&gt;Node3 -->
<g id="edge28" class="edge"><title>Node19&#45;&gt;Node3</title>
<path fill="none" stroke="midnightblue" d="M752.155,-112.368C744.176,-94.4563 725.675,-52.9233 714.995,-28.9482"/>
<polygon fill="midnightblue" stroke="midnightblue" points="718.093,-27.3019 710.827,-19.5914 711.699,-30.1503 718.093,-27.3019"/>
</g>
<!-- Node19&#45;&gt;Node4 -->
<g id="edge27" class="edge"><title>Node19&#45;&gt;Node4</title>
<path fill="none" stroke="midnightblue" d="M756.884,-112.151C758.828,-97.8043 764.863,-69.6983 783,-56 837.969,-14.4827 1051.64,-10.6125 1134.19,-10.7095"/>
<polygon fill="midnightblue" stroke="midnightblue" points="1134.26,-14.2096 1144.27,-10.7423 1134.28,-7.20967 1134.26,-14.2096"/>
</g>
<!-- Node19&#45;&gt;Node18 -->
<g id="edge30" class="edge"><title>Node19&#45;&gt;Node18</title>
<path fill="none" stroke="midnightblue" d="M766.925,-112.324C777.175,-104.185 792.721,-91.8395 805.001,-82.0874"/>
<polygon fill="midnightblue" stroke="midnightblue" points="807.221,-84.7937 812.876,-75.8339 802.868,-79.3119 807.221,-84.7937"/>
</g>
<!-- Node20 -->
<g id="node20" class="node"><title>Node20</title>
<polygon fill="white" stroke="#bfbfbf" points="540,-56.5 540,-75.5 596,-75.5 596,-56.5 540,-56.5"/>
<text text-anchor="middle" x="568" y="-63.5" font-family="Helvetica,sans-Serif" font-size="10.00">algorithm</text>
</g>
<!-- Node19&#45;&gt;Node20 -->
<g id="edge24" class="edge"><title>Node19&#45;&gt;Node20</title>
<path fill="none" stroke="midnightblue" d="M726.211,-112.444C693.7,-103.105 641.559,-88.1287 606.095,-77.9421"/>
<polygon fill="midnightblue" stroke="midnightblue" points="606.692,-74.4723 596.115,-75.0755 604.76,-81.2002 606.692,-74.4723"/>
</g>
<!-- Node21 -->
<g id="node21" class="node"><title>Node21</title>
<polygon fill="white" stroke="#bfbfbf" points="1374,-56.5 1374,-75.5 1418,-75.5 1418,-56.5 1374,-56.5"/>
<text text-anchor="middle" x="1396" y="-63.5" font-family="Helvetica,sans-Serif" font-size="10.00">cmath</text>
</g>
<!-- Node19&#45;&gt;Node21 -->
<g id="edge25" class="edge"><title>Node19&#45;&gt;Node21</title>
<path fill="none" stroke="midnightblue" d="M796.035,-117.622C913.636,-107.699 1256.49,-78.771 1363.62,-69.7318"/>
<polygon fill="midnightblue" stroke="midnightblue" points="1364.14,-73.2009 1373.81,-68.8724 1363.55,-66.2256 1364.14,-73.2009"/>
</g>
<!-- Node22 -->
<g id="node22" class="node"><title>Node22</title>
<polygon fill="white" stroke="#bfbfbf" points="358.5,-56.5 358.5,-75.5 401.5,-75.5 401.5,-56.5 358.5,-56.5"/>
<text text-anchor="middle" x="380" y="-63.5" font-family="Helvetica,sans-Serif" font-size="10.00">cstdio</text>
</g>
<!-- Node19&#45;&gt;Node22 -->
<g id="edge26" class="edge"><title>Node19&#45;&gt;Node22</title>
<path fill="none" stroke="midnightblue" d="M715.761,-115.221C640.593,-104.426 480.288,-81.4031 411.941,-71.5873"/>
<polygon fill="midnightblue" stroke="midnightblue" points="412.185,-68.0865 401.789,-70.1293 411.19,-75.0154 412.185,-68.0865"/>
</g>
<!-- Node23 -->
<g id="node23" class="node"><title>Node23</title>
<polygon fill="white" stroke="#bfbfbf" points="614,-56.5 614,-75.5 660,-75.5 660,-56.5 614,-56.5"/>
<text text-anchor="middle" x="637" y="-63.5" font-family="Helvetica,sans-Serif" font-size="10.00">cctype</text>
</g>
<!-- Node19&#45;&gt;Node23 -->
<g id="edge29" class="edge"><title>Node19&#45;&gt;Node23</title>
<path fill="none" stroke="midnightblue" d="M737.144,-112.444C717.734,-103.636 687.27,-89.8116 665.035,-79.722"/>
<polygon fill="midnightblue" stroke="midnightblue" points="666.32,-76.4615 655.768,-75.5164 663.428,-82.836 666.32,-76.4615"/>
</g>
<!-- Node19&#45;&gt;Node24 -->
<g id="edge31" class="edge"><title>Node19&#45;&gt;Node24</title>
<path fill="none" stroke="midnightblue" d="M781.986,-112.444C809.696,-103.32 853.752,-88.8133 884.616,-78.6509"/>
<polygon fill="midnightblue" stroke="midnightblue" points="885.732,-81.9684 894.135,-75.5164 883.542,-75.3196 885.732,-81.9684"/>
</g>
<!-- Node25&#45;&gt;Node6 -->
<g id="edge35" class="edge"><title>Node25&#45;&gt;Node6</title>
<path fill="none" stroke="midnightblue" d="M441.394,-224.368C450.554,-206.376 471.847,-164.55 484.026,-140.627"/>
<polygon fill="midnightblue" stroke="midnightblue" points="487.208,-142.091 488.626,-131.591 480.97,-138.915 487.208,-142.091"/>
</g>
<!-- Node25&#45;&gt;Node13 -->
<g id="edge34" class="edge"><title>Node25&#45;&gt;Node13</title>
<path fill="none" stroke="midnightblue" d="M446.573,-224.368C467.152,-205.814 515.842,-161.913 541.878,-138.438"/>
<polygon fill="midnightblue" stroke="midnightblue" points="544.388,-140.887 549.471,-131.591 539.701,-135.688 544.388,-140.887"/>
</g>
<!-- Node25&#45;&gt;Node20 -->
<g id="edge37" class="edge"><title>Node25&#45;&gt;Node20</title>
<path fill="none" stroke="midnightblue" d="M404.338,-228.166C363.366,-221.356 296.681,-207.549 282,-188 264.79,-165.084 291.187,-124.294 307,-112 341.129,-85.467 465.93,-73.6339 529.793,-69.2209"/>
<polygon fill="midnightblue" stroke="midnightblue" points="530.12,-72.7069 539.866,-68.5516 529.656,-65.7223 530.12,-72.7069"/>
</g>
<!-- Node25&#45;&gt;Node22 -->
<g id="edge36" class="edge"><title>Node25&#45;&gt;Node22</title>
<path fill="none" stroke="midnightblue" d="M404.476,-228.909C344.271,-221.008 220.42,-203.098 208,-188 186.541,-161.914 187.358,-138.737 208,-112 225.026,-89.9466 303.572,-76.6188 348.406,-70.6771"/>
<polygon fill="midnightblue" stroke="midnightblue" points="349.013,-74.1281 358.489,-69.3898 348.126,-67.1844 349.013,-74.1281"/>
</g>
<!-- Node25&#45;&gt;Node26 -->
<g id="edge38" class="edge"><title>Node25&#45;&gt;Node26</title>
<path fill="none" stroke="midnightblue" d="M419.809,-224.324C402.649,-215.664 376.054,-202.242 356.253,-192.249"/>
<polygon fill="midnightblue" stroke="midnightblue" points="357.653,-189.035 347.149,-187.655 354.499,-195.285 357.653,-189.035"/>
</g>
<!-- Node26&#45;&gt;Node3 -->
<g id="edge43" class="edge"><title>Node26&#45;&gt;Node3</title>
<path fill="none" stroke="midnightblue" d="M314.077,-168.471C294.683,-156.86 265.805,-134.89 277,-112 294.811,-75.5827 311.552,-71.5267 349,-56 407.444,-31.7683 596.552,-17.7595 673.733,-12.9276"/>
<polygon fill="midnightblue" stroke="midnightblue" points="674.089,-16.4124 683.856,-12.3066 673.66,-9.42558 674.089,-16.4124"/>
</g>
<!-- Node26&#45;&gt;Node6 -->
<g id="edge42" class="edge"><title>Node26&#45;&gt;Node6</title>
<path fill="none" stroke="midnightblue" d="M355.828,-168.444C384.056,-159.092 429.352,-144.086 460.103,-133.898"/>
<polygon fill="midnightblue" stroke="midnightblue" points="461.537,-137.111 469.928,-130.643 459.335,-130.466 461.537,-137.111"/>
</g>
<!-- Node26&#45;&gt;Node8 -->
<g id="edge47" class="edge"><title>Node26&#45;&gt;Node8</title>
<path fill="none" stroke="midnightblue" d="M292.288,-168.444C247.174,-158.208 172.203,-141.197 127.904,-131.146"/>
<polygon fill="midnightblue" stroke="midnightblue" points="128.666,-127.73 118.139,-128.931 127.117,-134.557 128.666,-127.73"/>
</g>
<!-- Node26&#45;&gt;Node13 -->
<g id="edge45" class="edge"><title>Node26&#45;&gt;Node13</title>
<path fill="none" stroke="midnightblue" d="M368.566,-168.482C405.889,-160.154 464.302,-146.897 524.138,-132.154"/>
<polygon fill="midnightblue" stroke="midnightblue" points="525.275,-135.478 534.141,-129.678 523.593,-128.683 525.275,-135.478"/>
</g>
<!-- Node26&#45;&gt;Node18 -->
<g id="edge46" class="edge"><title>Node26&#45;&gt;Node18</title>
<path fill="none" stroke="midnightblue" d="M339.437,-168.459C355.989,-154.035 391.937,-125.139 428,-112 492.268,-88.5841 693.469,-74.4959 781.757,-69.2945"/>
<polygon fill="midnightblue" stroke="midnightblue" points="782.167,-72.7767 791.948,-68.7042 781.762,-65.7884 782.167,-72.7767"/>
</g>
<!-- Node26&#45;&gt;Node19 -->
<g id="edge49" class="edge"><title>Node26&#45;&gt;Node19</title>
<path fill="none" stroke="midnightblue" d="M368.556,-172.113C445.903,-162.308 619.936,-140.248 705.944,-129.345"/>
<polygon fill="midnightblue" stroke="midnightblue" points="706.504,-132.802 715.984,-128.072 705.624,-125.858 706.504,-132.802"/>
</g>
<!-- Node26&#45;&gt;Node22 -->
<g id="edge39" class="edge"><title>Node26&#45;&gt;Node22</title>
<path fill="none" stroke="midnightblue" d="M316.115,-168.358C298.195,-156.08 270.799,-132.767 284,-112 298.065,-89.873 326.199,-78.4377 348.392,-72.6465"/>
<polygon fill="midnightblue" stroke="midnightblue" points="349.471,-75.9885 358.409,-70.2997 347.874,-69.1731 349.471,-75.9885"/>
</g>
<!-- Node26&#45;&gt;Node23 -->
<g id="edge40" class="edge"><title>Node26&#45;&gt;Node23</title>
<path fill="none" stroke="midnightblue" d="M324.169,-168.235C315.835,-154.51 302.99,-127.878 317,-112 357.701,-65.8743 525.613,-86.5008 603.705,-75.4876"/>
<polygon fill="midnightblue" stroke="midnightblue" points="604.385,-78.9225 613.661,-73.8039 603.218,-72.0205 604.385,-78.9225"/>
</g>
<!-- Node26&#45;&gt;Node24 -->
<g id="edge48" class="edge"><title>Node26&#45;&gt;Node24</title>
<path fill="none" stroke="midnightblue" d="M348.503,-168.47C367.555,-159.609 398.042,-145.219 424,-132 440.658,-123.517 443.099,-117.385 461,-112 630.507,-61.0083 684.214,-97.2091 863.781,-76.0363"/>
<polygon fill="midnightblue" stroke="midnightblue" points="864.321,-79.4964 873.822,-74.8084 863.471,-72.5482 864.321,-79.4964"/>
</g>
<!-- Node27 -->
<g id="node27" class="node"><title>Node27</title>
<polygon fill="white" stroke="#bfbfbf" points="326.5,-112.5 326.5,-131.5 375.5,-131.5 375.5,-112.5 326.5,-112.5"/>
<text text-anchor="middle" x="351" y="-119.5" font-family="Helvetica,sans-Serif" font-size="10.00">cstdarg</text>
</g>
<!-- Node26&#45;&gt;Node27 -->
<g id="edge41" class="edge"><title>Node26&#45;&gt;Node27</title>
<path fill="none" stroke="midnightblue" d="M333.468,-168.083C336.312,-160.77 340.429,-150.181 343.96,-141.103"/>
<polygon fill="midnightblue" stroke="midnightblue" points="347.234,-142.34 347.597,-131.751 340.71,-139.803 347.234,-142.34"/>
</g>
<!-- Node28 -->
<g id="node28" class="node"><title>Node28</title>
<polygon fill="white" stroke="#bfbfbf" points="1262.5,-112.5 1262.5,-131.5 1303.5,-131.5 1303.5,-112.5 1262.5,-112.5"/>
<text text-anchor="middle" x="1283" y="-119.5" font-family="Helvetica,sans-Serif" font-size="10.00">ctime</text>
</g>
<!-- Node26&#45;&gt;Node28 -->
<g id="edge44" class="edge"><title>Node26&#45;&gt;Node28</title>
<path fill="none" stroke="midnightblue" d="M368.539,-174.816C524.995,-165.951 1111.05,-132.743 1252.25,-124.742"/>
<polygon fill="midnightblue" stroke="midnightblue" points="1252.58,-128.229 1262.37,-124.169 1252.18,-121.241 1252.58,-128.229"/>
</g>
<!-- Node29&#45;&gt;Node2 -->
<g id="edge55" class="edge"><title>Node29&#45;&gt;Node2</title>
<path fill="none" stroke="midnightblue" d="M709.529,-280.389C746.948,-265.86 826.72,-236.809 897,-224 963.686,-211.846 1448.88,-224.49 1506,-188 1542.56,-164.645 1559.99,-113.373 1567.01,-85.66"/>
<polygon fill="midnightblue" stroke="midnightblue" points="1570.47,-86.2157 1569.34,-75.6815 1563.66,-84.6222 1570.47,-86.2157"/>
</g>
<!-- Node29&#45;&gt;Node7 -->
<g id="edge53" class="edge"><title>Node29&#45;&gt;Node7</title>
<path fill="none" stroke="midnightblue" d="M727.567,-281.654C730.757,-281.086 733.931,-280.528 737,-280 833.266,-263.426 860.666,-264.819 960.312,-243.962"/>
<polygon fill="midnightblue" stroke="midnightblue" points="961.127,-247.368 970.186,-241.873 959.678,-240.519 961.127,-247.368"/>
</g>
<!-- Node29&#45;&gt;Node18 -->
<g id="edge52" class="edge"><title>Node29&#45;&gt;Node18</title>
<path fill="none" stroke="midnightblue" d="M696.379,-280.215C717.587,-257.526 773.913,-194.368 805,-132 812.376,-117.203 817.381,-99.0489 820.395,-85.6908"/>
<polygon fill="midnightblue" stroke="midnightblue" points="823.847,-86.2815 822.467,-75.777 816.995,-84.8497 823.847,-86.2815"/>
</g>
<!-- Node29&#45;&gt;Node19 -->
<g id="edge57" class="edge"><title>Node29&#45;&gt;Node19</title>
<path fill="none" stroke="midnightblue" d="M683.194,-280.393C676.796,-267.762 667.052,-243.582 674,-224 686.613,-188.454 717.663,-156.306 737.729,-138.247"/>
<polygon fill="midnightblue" stroke="midnightblue" points="740.094,-140.829 745.321,-131.614 735.488,-135.558 740.094,-140.829"/>
</g>
<!-- Node29&#45;&gt;Node20 -->
<g id="edge51" class="edge"><title>Node29&#45;&gt;Node20</title>
<path fill="none" stroke="midnightblue" d="M683.296,-280.297C665.49,-247.356 601.999,-129.898 577.624,-84.8052"/>
<polygon fill="midnightblue" stroke="midnightblue" points="580.636,-83.0165 572.802,-75.8837 574.478,-86.3451 580.636,-83.0165"/>
</g>
<!-- Node29&#45;&gt;Node24 -->
<g id="edge54" class="edge"><title>Node29&#45;&gt;Node24</title>
<path fill="none" stroke="midnightblue" d="M701.575,-280.382C714.718,-271.794 734.955,-257.913 751,-244 813.467,-189.83 878.624,-115.732 906.282,-83.309"/>
<polygon fill="midnightblue" stroke="midnightblue" points="908.971,-85.5496 912.77,-75.6592 903.632,-81.022 908.971,-85.5496"/>
</g>
<!-- Node29&#45;&gt;Node25 -->
<g id="edge56" class="edge"><title>Node29&#45;&gt;Node25</title>
<path fill="none" stroke="midnightblue" d="M648.228,-280.444C602.253,-270.552 526.874,-254.335 479.694,-244.185"/>
<polygon fill="midnightblue" stroke="midnightblue" points="480.299,-240.735 469.787,-242.054 478.827,-247.579 480.299,-240.735"/>
</g>
<!-- Node30&#45;&gt;Node16 -->
<g id="edge66" class="edge"><title>Node30&#45;&gt;Node16</title>
<path fill="none" stroke="midnightblue" d="M887.708,-448.23C895.54,-439.743 906.616,-426.122 912,-412 932.758,-357.556 932.148,-287.177 930.394,-253.957"/>
<polygon fill="midnightblue" stroke="midnightblue" points="933.879,-253.604 929.76,-243.843 926.893,-254.042 933.879,-253.604"/>
</g>
<!-- Node31 -->
<g id="node31" class="node"><title>Node31</title>
<polygon fill="white" stroke="#bfbfbf" points="854.5,-392.5 854.5,-411.5 903.5,-411.5 903.5,-392.5 854.5,-392.5"/>
<text text-anchor="middle" x="879" y="-399.5" font-family="Helvetica,sans-Serif" font-size="10.00">cstddef</text>
</g>
<!-- Node30&#45;&gt;Node31 -->
<g id="edge67" class="edge"><title>Node30&#45;&gt;Node31</title>
<path fill="none" stroke="midnightblue" d="M879,-448.083C879,-441.006 879,-430.861 879,-421.986"/>
<polygon fill="midnightblue" stroke="midnightblue" points="882.5,-421.751 879,-411.751 875.5,-421.751 882.5,-421.751"/>
</g>
<!-- Node32&#45;&gt;Node2 -->
<g id="edge73" class="edge"><title>Node32&#45;&gt;Node2</title>
<path fill="none" stroke="midnightblue" d="M1167.08,-285.209C1258.97,-274.828 1498.39,-242.986 1553,-188 1579.85,-160.971 1577.91,-112.413 1574.34,-85.7671"/>
<polygon fill="midnightblue" stroke="midnightblue" points="1577.79,-85.1584 1572.79,-75.8154 1570.87,-86.2346 1577.79,-85.1584"/>
</g>
<!-- Node32&#45;&gt;Node3 -->
<g id="edge69" class="edge"><title>Node32&#45;&gt;Node3</title>
<path fill="none" stroke="midnightblue" d="M1167.13,-282.285C1204.22,-273.547 1254.24,-255.537 1237,-224 1136.37,-39.9327 840.148,-14.6252 740.297,-11.3866"/>
<polygon fill="midnightblue" stroke="midnightblue" points="740.273,-7.88475 730.183,-11.1138 740.085,-14.8822 740.273,-7.88475"/>
</g>
<!-- Node32&#45;&gt;Node7 -->
<g id="edge72" class="edge"><title>Node32&#45;&gt;Node7</title>
<path fill="none" stroke="midnightblue" d="M1109.45,-280.444C1086.97,-271.517 1051.51,-257.439 1026.02,-247.317"/>
<polygon fill="midnightblue" stroke="midnightblue" points="1027.03,-243.954 1016.45,-243.516 1024.45,-250.46 1027.03,-243.954"/>
</g>
<!-- Node32&#45;&gt;Node14 -->
<g id="edge70" class="edge"><title>Node32&#45;&gt;Node14</title>
<path fill="none" stroke="midnightblue" d="M1132.32,-280.083C1133.38,-272.927 1134.91,-262.635 1136.23,-253.691"/>
<polygon fill="midnightblue" stroke="midnightblue" points="1139.7,-254.156 1137.7,-243.751 1132.78,-253.13 1139.7,-254.156"/>
</g>
<!-- Node32&#45;&gt;Node17 -->
<g id="edge71" class="edge"><title>Node32&#45;&gt;Node17</title>
<path fill="none" stroke="midnightblue" d="M1120.72,-280.324C1111.16,-272.263 1096.72,-260.077 1085.22,-250.369"/>
<polygon fill="midnightblue" stroke="midnightblue" points="1087.37,-247.608 1077.47,-243.834 1082.86,-252.958 1087.37,-247.608"/>
</g>
<!-- Node33 -->
<g id="node33" class="node"><title>Node33</title>
<polygon fill="white" stroke="#bfbfbf" points="1181.5,-224.5 1181.5,-243.5 1228.5,-243.5 1228.5,-224.5 1181.5,-224.5"/>
<text text-anchor="middle" x="1205" y="-231.5" font-family="Helvetica,sans-Serif" font-size="10.00">swell.h</text>
</g>
<!-- Node32&#45;&gt;Node33 -->
<g id="edge74" class="edge"><title>Node32&#45;&gt;Node33</title>
<path fill="none" stroke="midnightblue" d="M1142.89,-280.324C1154.15,-272.107 1171.29,-259.602 1184.71,-249.807"/>
<polygon fill="midnightblue" stroke="midnightblue" points="1186.88,-252.556 1192.89,-243.834 1182.75,-246.901 1186.88,-252.556"/>
</g>
<!-- Node34&#45;&gt;Node2 -->
<g id="edge79" class="edge"><title>Node34&#45;&gt;Node2</title>
<path fill="none" stroke="midnightblue" d="M1348.02,-339.256C1437.88,-326.749 1628,-293.388 1628,-235 1628,-235 1628,-235 1628,-177 1628,-140.3 1602.68,-103.657 1585.79,-83.2973"/>
<polygon fill="midnightblue" stroke="midnightblue" points="1588.35,-80.9037 1579.17,-75.6161 1583.05,-85.475 1588.35,-80.9037"/>
</g>
<!-- Node34&#45;&gt;Node3 -->
<g id="edge76" class="edge"><title>Node34&#45;&gt;Node3</title>
<path fill="none" stroke="midnightblue" d="M1324.69,-336.42C1340.19,-329.24 1359.55,-317.352 1369,-300 1398.25,-246.274 1378.16,-205.714 1330,-168 1316.73,-157.607 1064.31,-60.2461 1048,-56 937.605,-27.2662 802.086,-16.3579 740.411,-12.6719"/>
<polygon fill="midnightblue" stroke="midnightblue" points="740.305,-9.16021 730.121,-12.0837 739.905,-16.1488 740.305,-9.16021"/>
</g>
<!-- Node34&#45;&gt;Node6 -->
<g id="edge77" class="edge"><title>Node34&#45;&gt;Node6</title>
<path fill="none" stroke="midnightblue" d="M1255.8,-343.969C1114.36,-340.522 693.521,-327.999 639,-300 569.039,-264.072 520.149,-178.28 501.442,-140.909"/>
<polygon fill="midnightblue" stroke="midnightblue" points="504.499,-139.193 496.974,-131.735 498.206,-142.258 504.499,-139.193"/>
</g>
<!-- Node34&#45;&gt;Node7 -->
<g id="edge78" class="edge"><title>Node34&#45;&gt;Node7</title>
<path fill="none" stroke="midnightblue" d="M1255.65,-340.94C1210.72,-335.732 1141.44,-324.281 1086,-300 1057.57,-287.549 1029.17,-265.306 1011.84,-250.353"/>
<polygon fill="midnightblue" stroke="midnightblue" points="1014.08,-247.666 1004.27,-243.672 1009.45,-252.914 1014.08,-247.666"/>
</g>
<!-- Node34&#45;&gt;Node19 -->
<g id="edge82" class="edge"><title>Node34&#45;&gt;Node19</title>
<path fill="none" stroke="midnightblue" d="M1288.29,-336.397C1276.75,-328.406 1260.77,-315.436 1252,-300 1235,-270.061 1261.2,-248.492 1237,-224 1177.02,-163.286 917.062,-135.785 806.293,-126.664"/>
<polygon fill="midnightblue" stroke="midnightblue" points="806.3,-123.154 796.051,-125.839 805.737,-130.131 806.3,-123.154"/>
</g>
<!-- Node34&#45;&gt;Node24 -->
<g id="edge80" class="edge"><title>Node34&#45;&gt;Node24</title>
<path fill="none" stroke="midnightblue" d="M1316.66,-336.402C1328.41,-328.585 1344.03,-315.862 1351,-300 1370.93,-254.627 1362.99,-221.282 1306,-168 1276.64,-140.549 1172.84,-122.373 1134,-112 1081.03,-97.8508 1019.71,-85.3442 976.332,-77.1301"/>
<polygon fill="midnightblue" stroke="midnightblue" points="976.732,-73.644 966.257,-75.2387 975.44,-80.5238 976.732,-73.644"/>
</g>
<!-- Node34&#45;&gt;Node29 -->
<g id="edge81" class="edge"><title>Node34&#45;&gt;Node29</title>
<path fill="none" stroke="midnightblue" d="M1255.69,-342.917C1160.61,-338.293 936.322,-325.605 737.569,-299.929"/>
<polygon fill="midnightblue" stroke="midnightblue" points="737.895,-296.442 727.526,-298.618 736.988,-303.383 737.895,-296.442"/>
</g>
<!-- Node35 -->
<g id="node35" class="node"><title>Node35</title>
<polygon fill="white" stroke="#bfbfbf" points="1261.5,-280.5 1261.5,-299.5 1342.5,-299.5 1342.5,-280.5 1261.5,-280.5"/>
<text text-anchor="middle" x="1302" y="-287.5" font-family="Helvetica,sans-Serif" font-size="10.00">NChanDelay.h</text>
</g>
<!-- Node34&#45;&gt;Node35 -->
<g id="edge83" class="edge"><title>Node34&#45;&gt;Node35</title>
<path fill="none" stroke="midnightblue" d="M1302,-336.083C1302,-329.006 1302,-318.861 1302,-309.986"/>
<polygon fill="midnightblue" stroke="midnightblue" points="1305.5,-309.751 1302,-299.751 1298.5,-309.751 1305.5,-309.751"/>
</g>
<!-- Node36 -->
<g id="node36" class="node"><title>Node36</title>
<g id="a_node36"><a xlink:href="_i_plug_processor_8cpp.html" target="_top" xlink:title="IPlugProcessor implementation. ">
<polygon fill="white" stroke="black" points="1396,-168.5 1396,-187.5 1498,-187.5 1498,-168.5 1396,-168.5"/>
<text text-anchor="middle" x="1447" y="-175.5" font-family="Helvetica,sans-Serif" font-size="10.00">IPlugProcessor.cpp</text>
</a>
</g>
</g>
<!-- Node34&#45;&gt;Node36 -->
<g id="edge84" class="edge"><title>Node34&#45;&gt;Node36</title>
<path fill="none" stroke="midnightblue" d="M1348.25,-338.951C1373.92,-333.182 1404.33,-321.929 1423,-300 1447.79,-270.88 1449.67,-223.509 1448.55,-197.518"/>
<polygon fill="midnightblue" stroke="midnightblue" points="1452.04,-197.272 1447.91,-187.513 1445.05,-197.715 1452.04,-197.272"/>
</g>
<!-- Node36&#45;&gt;Node13 -->
<g id="edge88" class="edge"><title>Node36&#45;&gt;Node13</title>
<path fill="none" stroke="midnightblue" d="M1395.99,-177.374C1263.58,-177.682 898.361,-174.29 598,-132 596.538,-131.794 595.05,-131.56 593.55,-131.305"/>
<polygon fill="midnightblue" stroke="midnightblue" points="594.122,-127.851 583.636,-129.366 592.779,-134.721 594.122,-127.851"/>
</g>
<!-- Node36&#45;&gt;Node21 -->
<g id="edge85" class="edge"><title>Node36&#45;&gt;Node21</title>
<path fill="none" stroke="midnightblue" d="M1461.16,-168.386C1479.43,-156.14 1507.38,-132.867 1494,-112 1479.54,-89.4493 1450.63,-78.049 1427.94,-72.3794"/>
<polygon fill="midnightblue" stroke="midnightblue" points="1428.55,-68.9293 1418.02,-70.1583 1427.02,-75.76 1428.55,-68.9293"/>
</g>
<!-- Node36&#45;&gt;Node22 -->
<g id="edge86" class="edge"><title>Node36&#45;&gt;Node22</title>
<path fill="none" stroke="midnightblue" d="M1395.64,-176.268C1274.98,-174.028 964.212,-165.229 707,-132 649.532,-124.576 481.93,-89.0039 411.622,-73.8553"/>
<polygon fill="midnightblue" stroke="midnightblue" points="412.105,-70.379 401.592,-71.6904 410.628,-77.2214 412.105,-70.379"/>
</g>
<!-- Node36&#45;&gt;Node28 -->
<g id="edge87" class="edge"><title>Node36&#45;&gt;Node28</title>
<path fill="none" stroke="midnightblue" d="M1421.01,-168.444C1391.8,-158.825 1344.42,-143.224 1313.48,-133.037"/>
<polygon fill="midnightblue" stroke="midnightblue" points="1314.27,-129.61 1303.67,-129.807 1312.08,-136.259 1314.27,-129.61"/>
</g>
<!-- Node37 -->
<g id="node37" class="node"><title>Node37</title>
<polygon fill="white" stroke="#bfbfbf" points="1322,-112.5 1322,-131.5 1390,-131.5 1390,-112.5 1322,-112.5"/>
<text text-anchor="middle" x="1356" y="-119.5" font-family="Helvetica,sans-Serif" font-size="10.00">wdlendian.h</text>
</g>
<!-- Node36&#45;&gt;Node37 -->
<g id="edge89" class="edge"><title>Node36&#45;&gt;Node37</title>
<path fill="none" stroke="midnightblue" d="M1432.38,-168.324C1418.05,-159.822 1395.99,-146.729 1379.25,-136.797"/>
<polygon fill="midnightblue" stroke="midnightblue" points="1380.97,-133.748 1370.58,-131.655 1377.4,-139.768 1380.97,-133.748"/>
</g>
<!-- Node38 -->
<g id="node38" class="node"><title>Node38</title>
<polygon fill="white" stroke="#bfbfbf" points="1408.5,-112.5 1408.5,-131.5 1485.5,-131.5 1485.5,-112.5 1408.5,-112.5"/>
<text text-anchor="middle" x="1447" y="-119.5" font-family="Helvetica,sans-Serif" font-size="10.00">wdl_base64.h</text>
</g>
<!-- Node36&#45;&gt;Node38 -->
<g id="edge90" class="edge"><title>Node36&#45;&gt;Node38</title>
<path fill="none" stroke="midnightblue" d="M1447,-168.083C1447,-161.006 1447,-150.861 1447,-141.986"/>
<polygon fill="midnightblue" stroke="midnightblue" points="1450.5,-141.751 1447,-131.751 1443.5,-141.751 1450.5,-141.751"/>
</g>
</g>
</svg>
