<?xml version="1.0" encoding="UTF-8" standalone="no"?>
<!DOCTYPE svg PUBLIC "-//W3C//DTD SVG 1.1//EN"
 "http://www.w3.org/Graphics/SVG/1.1/DTD/svg11.dtd">
<!-- Generated by graphviz version 2.36.0 (20140111.2315)
 -->
<!-- Title: IVKeyboardControl.h Pages: 1 -->
<svg width="1979pt" height="588pt"
 viewBox="0.00 0.00 1979.03 588.00" xmlns="http://www.w3.org/2000/svg" xmlns:xlink="http://www.w3.org/1999/xlink">
<g id="graph0" class="graph" transform="scale(1 1) rotate(0) translate(4 584)">
<title>IVKeyboardControl.h</title>
<polygon fill="white" stroke="none" points="-4,4 -4,-584 1975.03,-584 1975.03,4 -4,4"/>
<!-- Node1 -->
<g id="node1" class="node"><title>Node1</title>
<polygon fill="#bfbfbf" stroke="black" points="1007.53,-560.5 1007.53,-579.5 1114.53,-579.5 1114.53,-560.5 1007.53,-560.5"/>
<text text-anchor="middle" x="1061.03" y="-567.5" font-family="Helvetica,sans-Serif" font-size="10.00">IVKeyboardControl.h</text>
</g>
<!-- Node2 -->
<g id="node2" class="node"><title>Node2</title>
<g id="a_node2"><a xlink:href="_i_control_8h.html" target="_top" xlink:title="This file contains the base IControl implementation, along with some base classes for specific types ...">
<polygon fill="white" stroke="black" points="122.526,-504.5 122.526,-523.5 181.526,-523.5 181.526,-504.5 122.526,-504.5"/>
<text text-anchor="middle" x="152.026" y="-511.5" font-family="Helvetica,sans-Serif" font-size="10.00">IControl.h</text>
</a>
</g>
</g>
<!-- Node1&#45;&gt;Node2 -->
<g id="edge1" class="edge"><title>Node1&#45;&gt;Node2</title>
<path fill="none" stroke="midnightblue" d="M1007.22,-565.804C840.904,-555.923 337.502,-526.018 191.882,-517.368"/>
<polygon fill="midnightblue" stroke="midnightblue" points="191.823,-513.858 181.633,-516.759 191.408,-520.846 191.823,-513.858"/>
</g>
<!-- Node34 -->
<g id="node34" class="node"><title>Node34</title>
<g id="a_node34"><a xlink:href="_i_plug_midi_8h.html" target="_top" xlink:title="MIDI and sysex structs/utilites. ">
<polygon fill="white" stroke="black" points="1359.53,-224.5 1359.53,-243.5 1424.53,-243.5 1424.53,-224.5 1359.53,-224.5"/>
<text text-anchor="middle" x="1392.03" y="-231.5" font-family="Helvetica,sans-Serif" font-size="10.00">IPlugMidi.h</text>
</a>
</g>
</g>
<!-- Node1&#45;&gt;Node34 -->
<g id="edge85" class="edge"><title>Node1&#45;&gt;Node34</title>
<path fill="none" stroke="midnightblue" d="M1069.54,-560.408C1113.8,-515.744 1317.82,-309.879 1376.31,-250.857"/>
<polygon fill="midnightblue" stroke="midnightblue" points="1379.01,-253.102 1383.57,-243.535 1374.04,-248.174 1379.01,-253.102"/>
</g>
<!-- Node3 -->
<g id="node3" class="node"><title>Node3</title>
<polygon fill="white" stroke="#bfbfbf" points="959.026,-0.5 959.026,-19.5 1005.03,-19.5 1005.03,-0.5 959.026,-0.5"/>
<text text-anchor="middle" x="982.026" y="-7.5" font-family="Helvetica,sans-Serif" font-size="10.00">cstring</text>
</g>
<!-- Node2&#45;&gt;Node3 -->
<g id="edge2" class="edge"><title>Node2&#45;&gt;Node3</title>
<path fill="none" stroke="midnightblue" d="M131.381,-504.421C98.5296,-489.231 38.0258,-454.293 38.0258,-403 38.0258,-403 38.0258,-403 38.0258,-121 38.0258,-27.3573 780.367,-13.2939 948.463,-11.3097"/>
<polygon fill="midnightblue" stroke="midnightblue" points="948.73,-14.8071 958.691,-11.1958 948.652,-7.80752 948.73,-14.8071"/>
</g>
<!-- Node4 -->
<g id="node4" class="node"><title>Node4</title>
<polygon fill="white" stroke="#bfbfbf" points="479.526,-0.5 479.526,-19.5 524.526,-19.5 524.526,-0.5 479.526,-0.5"/>
<text text-anchor="middle" x="502.026" y="-7.5" font-family="Helvetica,sans-Serif" font-size="10.00">cstdlib</text>
</g>
<!-- Node2&#45;&gt;Node4 -->
<g id="edge3" class="edge"><title>Node2&#45;&gt;Node4</title>
<path fill="none" stroke="midnightblue" d="M122.317,-509.831C93.6286,-505.271 50.7155,-494.276 24.0258,-468 2.08072,-446.395 0.0258182,-433.795 0.0258182,-403 0.0258182,-403 0.0258182,-403 0.0258182,-121 0.0258182,-90.2048 -0.387273,-74.7709 24.0258,-56 59.2465,-28.9193 367.346,-15.7335 469.371,-12.0818"/>
<polygon fill="midnightblue" stroke="midnightblue" points="469.536,-15.5783 479.407,-11.7298 469.291,-8.5826 469.536,-15.5783"/>
</g>
<!-- Node5 -->
<g id="node5" class="node"><title>Node5</title>
<g id="a_node5"><a xlink:href="_i_plug_platform_8h.html" target="_top" xlink:title="Include to get consistently named preprocessor macros for different platforms and logging functionali...">
<polygon fill="white" stroke="black" points="460.026,-56.5 460.026,-75.5 544.026,-75.5 544.026,-56.5 460.026,-56.5"/>
<text text-anchor="middle" x="502.026" y="-63.5" font-family="Helvetica,sans-Serif" font-size="10.00">IPlugPlatform.h</text>
</a>
</g>
</g>
<!-- Node2&#45;&gt;Node5 -->
<g id="edge4" class="edge"><title>Node2&#45;&gt;Node5</title>
<path fill="none" stroke="midnightblue" d="M140.483,-504.433C119.222,-487.571 76.0258,-447.799 76.0258,-403 76.0258,-403 76.0258,-403 76.0258,-177 76.0258,-137.077 102.36,-129.939 138.026,-112 191.46,-85.1252 362.492,-73.4606 449.75,-69.1551"/>
<polygon fill="midnightblue" stroke="midnightblue" points="450.141,-72.6404 459.962,-68.666 449.806,-65.6485 450.141,-72.6404"/>
</g>
<!-- Node6 -->
<g id="node6" class="node"><title>Node6</title>
<polygon fill="white" stroke="#bfbfbf" points="890.026,-56.5 890.026,-75.5 954.026,-75.5 954.026,-56.5 890.026,-56.5"/>
<text text-anchor="middle" x="922.026" y="-63.5" font-family="Helvetica,sans-Serif" font-size="10.00">wdlstring.h</text>
</g>
<!-- Node2&#45;&gt;Node6 -->
<g id="edge7" class="edge"><title>Node2&#45;&gt;Node6</title>
<path fill="none" stroke="midnightblue" d="M152.026,-504.442C152.026,-485.936 152.026,-440.812 152.026,-403 152.026,-403 152.026,-403 152.026,-177 152.026,-146.902 147.493,-130.764 171.026,-112 198.885,-89.7862 725.017,-72.7434 879.638,-68.1987"/>
<polygon fill="midnightblue" stroke="midnightblue" points="879.804,-71.6954 889.697,-67.9053 879.599,-64.6984 879.804,-71.6954"/>
</g>
<!-- Node7 -->
<g id="node7" class="node"><title>Node7</title>
<polygon fill="white" stroke="#bfbfbf" points="424.526,-112.5 424.526,-131.5 473.526,-131.5 473.526,-112.5 424.526,-112.5"/>
<text text-anchor="middle" x="449.026" y="-119.5" font-family="Helvetica,sans-Serif" font-size="10.00">ptrlist.h</text>
</g>
<!-- Node2&#45;&gt;Node7 -->
<g id="edge8" class="edge"><title>Node2&#45;&gt;Node7</title>
<path fill="none" stroke="midnightblue" d="M155.034,-504.263C170.318,-460.349 240.523,-264.239 289.026,-224 337.478,-183.803 379.698,-230.628 426.026,-188 439.082,-175.986 444.73,-156.095 447.171,-141.475"/>
<polygon fill="midnightblue" stroke="midnightblue" points="450.643,-141.913 448.482,-131.54 443.704,-140.996 450.643,-141.913"/>
</g>
<!-- Node8 -->
<g id="node8" class="node"><title>Node8</title>
<g id="a_node8"><a xlink:href="_i_graphics_8h.html" target="_top" xlink:title="The lowest level base class of an IGraphics context. ">
<polygon fill="white" stroke="black" points="455.526,-448.5 455.526,-467.5 522.526,-467.5 522.526,-448.5 455.526,-448.5"/>
<text text-anchor="middle" x="489.026" y="-455.5" font-family="Helvetica,sans-Serif" font-size="10.00">IGraphics.h</text>
</a>
</g>
</g>
<!-- Node2&#45;&gt;Node8 -->
<g id="edge9" class="edge"><title>Node2&#45;&gt;Node8</title>
<path fill="none" stroke="midnightblue" d="M181.637,-508.255C241.141,-498.72 375.478,-477.195 445.194,-466.024"/>
<polygon fill="midnightblue" stroke="midnightblue" points="446.08,-469.426 455.401,-464.388 444.973,-462.514 446.08,-469.426"/>
</g>
<!-- Node5&#45;&gt;Node3 -->
<g id="edge5" class="edge"><title>Node5&#45;&gt;Node3</title>
<path fill="none" stroke="midnightblue" d="M544.29,-57.3062C547.243,-56.8412 550.177,-56.4003 553.026,-56 699.745,-35.385 875.913,-19.7569 948.382,-13.7202"/>
<polygon fill="midnightblue" stroke="midnightblue" points="949.027,-17.1789 958.704,-12.867 948.45,-10.2027 949.027,-17.1789"/>
</g>
<!-- Node5&#45;&gt;Node4 -->
<g id="edge6" class="edge"><title>Node5&#45;&gt;Node4</title>
<path fill="none" stroke="midnightblue" d="M502.026,-56.083C502.026,-49.0059 502.026,-38.8611 502.026,-29.9865"/>
<polygon fill="midnightblue" stroke="midnightblue" points="505.526,-29.751 502.026,-19.7511 498.526,-29.7511 505.526,-29.751"/>
</g>
<!-- Node9 -->
<g id="node9" class="node"><title>Node9</title>
<g id="a_node9"><a xlink:href="_i_plug_constants_8h.html" target="_top" xlink:title="IPlug Constant definitions, Types, magic numbers. ">
<polygon fill="white" stroke="black" points="1808.03,-56.5 1808.03,-75.5 1900.03,-75.5 1900.03,-56.5 1808.03,-56.5"/>
<text text-anchor="middle" x="1854.03" y="-63.5" font-family="Helvetica,sans-Serif" font-size="10.00">IPlugConstants.h</text>
</a>
</g>
</g>
<!-- Node8&#45;&gt;Node9 -->
<g id="edge10" class="edge"><title>Node8&#45;&gt;Node9</title>
<path fill="none" stroke="midnightblue" d="M522.764,-456.873C743.36,-455.61 1971.03,-441.81 1971.03,-291 1971.03,-291 1971.03,-291 1971.03,-177 1971.03,-129.599 1919.42,-96.6419 1884.76,-79.85"/>
<polygon fill="midnightblue" stroke="midnightblue" points="1886.03,-76.5821 1875.49,-75.5439 1883.08,-82.9307 1886.03,-76.5821"/>
</g>
<!-- Node10 -->
<g id="node10" class="node"><title>Node10</title>
<g id="a_node10"><a xlink:href="_i_plug_logger_8h.html" target="_top" xlink:title="IPlug logging a.k.a tracing functionality. ">
<polygon fill="white" stroke="black" points="1557.53,-168.5 1557.53,-187.5 1634.53,-187.5 1634.53,-168.5 1557.53,-168.5"/>
<text text-anchor="middle" x="1596.03" y="-175.5" font-family="Helvetica,sans-Serif" font-size="10.00">IPlugLogger.h</text>
</a>
</g>
</g>
<!-- Node8&#45;&gt;Node10 -->
<g id="edge11" class="edge"><title>Node8&#45;&gt;Node10</title>
<path fill="none" stroke="midnightblue" d="M522.593,-456.206C599.057,-453.859 791.742,-444.889 949.026,-412 1106.41,-379.09 1141.84,-354.733 1293.03,-300 1394.56,-263.242 1512.9,-214.131 1566.71,-191.448"/>
<polygon fill="midnightblue" stroke="midnightblue" points="1568.14,-194.644 1575.99,-187.529 1565.41,-188.196 1568.14,-194.644"/>
</g>
<!-- Node21 -->
<g id="node21" class="node"><title>Node21</title>
<g id="a_node21"><a xlink:href="_i_graphics_constants_8h_source.html" target="_top" xlink:title="IGraphicsConstants.h">
<polygon fill="white" stroke="black" points="180.026,-112.5 180.026,-131.5 292.026,-131.5 292.026,-112.5 180.026,-112.5"/>
<text text-anchor="middle" x="236.026" y="-119.5" font-family="Helvetica,sans-Serif" font-size="10.00">IGraphicsConstants.h</text>
</a>
</g>
</g>
<!-- Node8&#45;&gt;Node21 -->
<g id="edge32" class="edge"><title>Node8&#45;&gt;Node21</title>
<path fill="none" stroke="midnightblue" d="M455.508,-456.577C415.513,-454.468 348.369,-445.673 303.026,-412 252.967,-374.825 232.026,-353.352 232.026,-291 232.026,-291 232.026,-291 232.026,-233 232.026,-200.927 233.745,-163.628 234.929,-141.741"/>
<polygon fill="midnightblue" stroke="midnightblue" points="238.435,-141.735 235.503,-131.554 231.446,-141.341 238.435,-141.735"/>
</g>
<!-- Node22 -->
<g id="node22" class="node"><title>Node22</title>
<g id="a_node22"><a xlink:href="_i_graphics_structs_8h_source.html" target="_top" xlink:title="IGraphicsStructs.h">
<polygon fill="white" stroke="black" points="685.026,-168.5 685.026,-187.5 783.026,-187.5 783.026,-168.5 685.026,-168.5"/>
<text text-anchor="middle" x="734.026" y="-175.5" font-family="Helvetica,sans-Serif" font-size="10.00">IGraphicsStructs.h</text>
</a>
</g>
</g>
<!-- Node8&#45;&gt;Node22 -->
<g id="edge34" class="edge"><title>Node8&#45;&gt;Node22</title>
<path fill="none" stroke="midnightblue" d="M504.218,-448.268C530.348,-431.983 581.026,-394.303 581.026,-347 581.026,-347 581.026,-347 581.026,-289 581.026,-235.205 644.15,-205.134 689.307,-190.505"/>
<polygon fill="midnightblue" stroke="midnightblue" points="690.405,-193.829 698.925,-187.53 688.337,-187.141 690.405,-193.829"/>
</g>
<!-- Node27 -->
<g id="node27" class="node"><title>Node27</title>
<g id="a_node27"><a xlink:href="_i_graphics_utilities_8h_source.html" target="_top" xlink:title="IGraphicsUtilities.h">
<polygon fill="white" stroke="black" points="298.026,-224.5 298.026,-243.5 398.026,-243.5 398.026,-224.5 298.026,-224.5"/>
<text text-anchor="middle" x="348.026" y="-231.5" font-family="Helvetica,sans-Serif" font-size="10.00">IGraphicsUtilities.h</text>
</a>
</g>
</g>
<!-- Node8&#45;&gt;Node27 -->
<g id="edge46" class="edge"><title>Node8&#45;&gt;Node27</title>
<path fill="none" stroke="midnightblue" d="M455.148,-453.018C409.981,-446.932 333.766,-433.684 317.026,-412 280.067,-364.127 316.862,-287.256 336.901,-252.76"/>
<polygon fill="midnightblue" stroke="midnightblue" points="340.104,-254.225 342.259,-243.852 334.105,-250.618 340.104,-254.225"/>
</g>
<!-- Node28 -->
<g id="node28" class="node"><title>Node28</title>
<g id="a_node28"><a xlink:href="_i_graphics_popup_menu_8h.html" target="_top" xlink:title="A class for setting the contents of a pop up menu. ">
<polygon fill="white" stroke="black" points="298.526,-168.5 298.526,-187.5 417.526,-187.5 417.526,-168.5 298.526,-168.5"/>
<text text-anchor="middle" x="358.026" y="-175.5" font-family="Helvetica,sans-Serif" font-size="10.00">IGraphicsPopupMenu.h</text>
</a>
</g>
</g>
<!-- Node8&#45;&gt;Node28 -->
<g id="edge49" class="edge"><title>Node8&#45;&gt;Node28</title>
<path fill="none" stroke="midnightblue" d="M497.356,-448.386C505.242,-439.801 516.906,-425.923 524.026,-412 537.729,-385.203 543.026,-377.098 543.026,-347 543.026,-347 543.026,-347 543.026,-289 543.026,-231.133 475.328,-203.024 421.836,-189.845"/>
<polygon fill="midnightblue" stroke="midnightblue" points="422.567,-186.422 412.033,-187.554 420.974,-193.238 422.567,-186.422"/>
</g>
<!-- Node29 -->
<g id="node29" class="node"><title>Node29</title>
<g id="a_node29"><a xlink:href="_i_graphics_editor_delegate_8h.html" target="_top" xlink:title="An editor delgate base class for a SOMETHING that uses IGraphics for it&#39;s UI. ">
<polygon fill="white" stroke="black" points="809.526,-392.5 809.526,-411.5 940.526,-411.5 940.526,-392.5 809.526,-392.5"/>
<text text-anchor="middle" x="875.026" y="-399.5" font-family="Helvetica,sans-Serif" font-size="10.00">IGraphicsEditorDelegate.h</text>
</a>
</g>
</g>
<!-- Node8&#45;&gt;Node29 -->
<g id="edge56" class="edge"><title>Node8&#45;&gt;Node29</title>
<path fill="none" stroke="midnightblue" d="M522.606,-452.302C585.088,-443.561 720.434,-424.627 804.026,-412.933"/>
<polygon fill="midnightblue" stroke="midnightblue" points="804.537,-416.395 813.955,-411.544 803.567,-409.463 804.537,-416.395"/>
</g>
<!-- Node36 -->
<g id="node36" class="node"><title>Node36</title>
<polygon fill="white" stroke="#bfbfbf" points="326.526,-392.5 326.526,-411.5 385.526,-411.5 385.526,-392.5 326.526,-392.5"/>
<text text-anchor="middle" x="356.026" y="-399.5" font-family="Helvetica,sans-Serif" font-size="10.00">heapbuf.h</text>
</g>
<!-- Node8&#45;&gt;Node36 -->
<g id="edge82" class="edge"><title>Node8&#45;&gt;Node36</title>
<path fill="none" stroke="midnightblue" d="M467.952,-448.444C445.966,-439.517 411.292,-425.439 386.362,-415.317"/>
<polygon fill="midnightblue" stroke="midnightblue" points="387.584,-412.035 377.001,-411.516 384.95,-418.521 387.584,-412.035"/>
</g>
<!-- Node37 -->
<g id="node37" class="node"><title>Node37</title>
<polygon fill="white" stroke="#bfbfbf" points="403.526,-392.5 403.526,-411.5 444.526,-411.5 444.526,-392.5 403.526,-392.5"/>
<text text-anchor="middle" x="424.026" y="-399.5" font-family="Helvetica,sans-Serif" font-size="10.00">stack</text>
</g>
<!-- Node8&#45;&gt;Node37 -->
<g id="edge83" class="edge"><title>Node8&#45;&gt;Node37</title>
<path fill="none" stroke="midnightblue" d="M478.582,-448.324C468.88,-440.263 454.211,-428.077 442.526,-418.369"/>
<polygon fill="midnightblue" stroke="midnightblue" points="444.588,-415.532 434.659,-411.834 440.115,-420.916 444.588,-415.532"/>
</g>
<!-- Node38 -->
<g id="node38" class="node"><title>Node38</title>
<polygon fill="white" stroke="#bfbfbf" points="463.026,-392.5 463.026,-411.5 515.026,-411.5 515.026,-392.5 463.026,-392.5"/>
<text text-anchor="middle" x="489.026" y="-399.5" font-family="Helvetica,sans-Serif" font-size="10.00">memory</text>
</g>
<!-- Node8&#45;&gt;Node38 -->
<g id="edge84" class="edge"><title>Node8&#45;&gt;Node38</title>
<path fill="none" stroke="midnightblue" d="M489.026,-448.083C489.026,-441.006 489.026,-430.861 489.026,-421.986"/>
<polygon fill="midnightblue" stroke="midnightblue" points="492.526,-421.751 489.026,-411.751 485.526,-421.751 492.526,-421.751"/>
</g>
<!-- Node10&#45;&gt;Node3 -->
<g id="edge16" class="edge"><title>Node10&#45;&gt;Node3</title>
<path fill="none" stroke="midnightblue" d="M1589.27,-168.408C1582.19,-159.378 1570.76,-144.742 1561.03,-132 1535.4,-98.4457 1540.94,-76.4882 1504.03,-56 1419.71,-9.20776 1116.99,-9.05639 1015.48,-10.3851"/>
<polygon fill="midnightblue" stroke="midnightblue" points="1015.15,-6.88941 1005.2,-10.5341 1015.25,-13.8887 1015.15,-6.88941"/>
</g>
<!-- Node10&#45;&gt;Node6 -->
<g id="edge19" class="edge"><title>Node10&#45;&gt;Node6</title>
<path fill="none" stroke="midnightblue" d="M1582.9,-168.303C1558.23,-152.127 1505.58,-118.466 1485.03,-112 1387.86,-81.4354 1077.58,-70.8423 964.109,-67.9354"/>
<polygon fill="midnightblue" stroke="midnightblue" points="964.153,-64.4356 954.069,-67.6853 963.979,-71.4334 964.153,-64.4356"/>
</g>
<!-- Node10&#45;&gt;Node9 -->
<g id="edge21" class="edge"><title>Node10&#45;&gt;Node9</title>
<path fill="none" stroke="midnightblue" d="M1634.84,-177.795C1681.22,-176.885 1759.28,-169.27 1813.03,-132 1829.44,-120.621 1840.67,-100.329 1847.18,-85.4361"/>
<polygon fill="midnightblue" stroke="midnightblue" points="1850.59,-86.3336 1851.08,-75.7502 1844.09,-83.7162 1850.59,-86.3336"/>
</g>
<!-- Node11 -->
<g id="node11" class="node"><title>Node11</title>
<polygon fill="white" stroke="#bfbfbf" points="1368.53,-56.5 1368.53,-75.5 1411.53,-75.5 1411.53,-56.5 1368.53,-56.5"/>
<text text-anchor="middle" x="1390.03" y="-63.5" font-family="Helvetica,sans-Serif" font-size="10.00">cstdio</text>
</g>
<!-- Node10&#45;&gt;Node11 -->
<g id="edge12" class="edge"><title>Node10&#45;&gt;Node11</title>
<path fill="none" stroke="midnightblue" d="M1606.84,-168.344C1621.95,-155.227 1645.93,-129.944 1631.03,-112 1630.19,-110.99 1487.19,-84.7534 1421.89,-72.8165"/>
<polygon fill="midnightblue" stroke="midnightblue" points="1422.21,-69.3171 1411.75,-70.9626 1420.95,-76.2031 1422.21,-69.3171"/>
</g>
<!-- Node12 -->
<g id="node12" class="node"><title>Node12</title>
<polygon fill="white" stroke="#bfbfbf" points="1449.03,-56.5 1449.03,-75.5 1495.03,-75.5 1495.03,-56.5 1449.03,-56.5"/>
<text text-anchor="middle" x="1472.03" y="-63.5" font-family="Helvetica,sans-Serif" font-size="10.00">cctype</text>
</g>
<!-- Node10&#45;&gt;Node12 -->
<g id="edge13" class="edge"><title>Node10&#45;&gt;Node12</title>
<path fill="none" stroke="midnightblue" d="M1634.62,-176.741C1704.59,-174.987 1841.08,-164.912 1795.03,-112 1757.74,-69.157 1580.5,-65.8281 1505.58,-66.3922"/>
<polygon fill="midnightblue" stroke="midnightblue" points="1505.26,-62.8952 1495.3,-66.4994 1505.34,-69.8949 1505.26,-62.8952"/>
</g>
<!-- Node13 -->
<g id="node13" class="node"><title>Node13</title>
<polygon fill="white" stroke="#bfbfbf" points="1678.53,-112.5 1678.53,-131.5 1727.53,-131.5 1727.53,-112.5 1678.53,-112.5"/>
<text text-anchor="middle" x="1703.03" y="-119.5" font-family="Helvetica,sans-Serif" font-size="10.00">cstdarg</text>
</g>
<!-- Node10&#45;&gt;Node13 -->
<g id="edge14" class="edge"><title>Node10&#45;&gt;Node13</title>
<path fill="none" stroke="midnightblue" d="M1613.22,-168.324C1630.38,-159.664 1656.97,-146.242 1676.77,-136.249"/>
<polygon fill="midnightblue" stroke="midnightblue" points="1678.53,-139.285 1685.88,-131.655 1675.37,-133.035 1678.53,-139.285"/>
</g>
<!-- Node14 -->
<g id="node14" class="node"><title>Node14</title>
<polygon fill="white" stroke="#bfbfbf" points="1430.03,-112.5 1430.03,-131.5 1476.03,-131.5 1476.03,-112.5 1430.03,-112.5"/>
<text text-anchor="middle" x="1453.03" y="-119.5" font-family="Helvetica,sans-Serif" font-size="10.00">cstdint</text>
</g>
<!-- Node10&#45;&gt;Node14 -->
<g id="edge15" class="edge"><title>Node10&#45;&gt;Node14</title>
<path fill="none" stroke="midnightblue" d="M1573.37,-168.444C1549.62,-159.478 1512.12,-145.314 1485.29,-135.183"/>
<polygon fill="midnightblue" stroke="midnightblue" points="1486.17,-131.775 1475.58,-131.516 1483.7,-138.324 1486.17,-131.775"/>
</g>
<!-- Node15 -->
<g id="node15" class="node"><title>Node15</title>
<polygon fill="white" stroke="#bfbfbf" points="1745.53,-112.5 1745.53,-131.5 1786.53,-131.5 1786.53,-112.5 1745.53,-112.5"/>
<text text-anchor="middle" x="1766.03" y="-119.5" font-family="Helvetica,sans-Serif" font-size="10.00">ctime</text>
</g>
<!-- Node10&#45;&gt;Node15 -->
<g id="edge17" class="edge"><title>Node10&#45;&gt;Node15</title>
<path fill="none" stroke="midnightblue" d="M1622.96,-168.444C1653.63,-158.702 1703.61,-142.826 1735.64,-132.651"/>
<polygon fill="midnightblue" stroke="midnightblue" points="1736.89,-135.926 1745.36,-129.563 1734.77,-129.255 1736.89,-135.926"/>
</g>
<!-- Node16 -->
<g id="node16" class="node"><title>Node16</title>
<polygon fill="white" stroke="#bfbfbf" points="1074.53,-112.5 1074.53,-131.5 1123.53,-131.5 1123.53,-112.5 1074.53,-112.5"/>
<text text-anchor="middle" x="1099.03" y="-119.5" font-family="Helvetica,sans-Serif" font-size="10.00">cassert</text>
</g>
<!-- Node10&#45;&gt;Node16 -->
<g id="edge18" class="edge"><title>Node10&#45;&gt;Node16</title>
<path fill="none" stroke="midnightblue" d="M1557.44,-172.808C1463.42,-162.592 1223.62,-136.537 1133.74,-126.772"/>
<polygon fill="midnightblue" stroke="midnightblue" points="1133.87,-123.265 1123.55,-125.664 1133.11,-130.224 1133.87,-123.265"/>
</g>
<!-- Node17 -->
<g id="node17" class="node"><title>Node17</title>
<polygon fill="white" stroke="#bfbfbf" points="1570.03,-112.5 1570.03,-131.5 1622.03,-131.5 1622.03,-112.5 1570.03,-112.5"/>
<text text-anchor="middle" x="1596.03" y="-119.5" font-family="Helvetica,sans-Serif" font-size="10.00">mutex.h</text>
</g>
<!-- Node10&#45;&gt;Node17 -->
<g id="edge20" class="edge"><title>Node10&#45;&gt;Node17</title>
<path fill="none" stroke="midnightblue" d="M1596.03,-168.083C1596.03,-161.006 1596.03,-150.861 1596.03,-141.986"/>
<polygon fill="midnightblue" stroke="midnightblue" points="1599.53,-141.751 1596.03,-131.751 1592.53,-141.751 1599.53,-141.751"/>
</g>
<!-- Node18 -->
<g id="node18" class="node"><title>Node18</title>
<g id="a_node18"><a xlink:href="_i_plug_utilities_8h.html" target="_top" xlink:title="Utility functions and macros. ">
<polygon fill="white" stroke="black" points="1294.03,-112.5 1294.03,-131.5 1374.03,-131.5 1374.03,-112.5 1294.03,-112.5"/>
<text text-anchor="middle" x="1334.03" y="-119.5" font-family="Helvetica,sans-Serif" font-size="10.00">IPlugUtilities.h</text>
</a>
</g>
</g>
<!-- Node10&#45;&gt;Node18 -->
<g id="edge22" class="edge"><title>Node10&#45;&gt;Node18</title>
<path fill="none" stroke="midnightblue" d="M1557.37,-169.032C1511.42,-159.563 1434.65,-143.739 1384.17,-133.336"/>
<polygon fill="midnightblue" stroke="midnightblue" points="1384.64,-129.857 1374.13,-131.267 1383.22,-136.713 1384.64,-129.857"/>
</g>
<!-- Node18&#45;&gt;Node3 -->
<g id="edge27" class="edge"><title>Node18&#45;&gt;Node3</title>
<path fill="none" stroke="midnightblue" d="M1332.27,-112.148C1328.92,-97.7989 1320.18,-69.6885 1301.03,-56 1255.69,-23.5949 1087.65,-14.3723 1015.4,-11.8761"/>
<polygon fill="midnightblue" stroke="midnightblue" points="1015.17,-8.36688 1005.06,-11.5426 1014.94,-15.3632 1015.17,-8.36688"/>
</g>
<!-- Node18&#45;&gt;Node4 -->
<g id="edge26" class="edge"><title>Node18&#45;&gt;Node4</title>
<path fill="none" stroke="midnightblue" d="M1328.02,-112.272C1317.33,-97.5651 1293.44,-68.2544 1265.03,-56 1197.33,-26.8006 672.182,-14.3855 534.818,-11.6182"/>
<polygon fill="midnightblue" stroke="midnightblue" points="534.595,-8.11321 524.528,-11.4145 534.456,-15.1118 534.595,-8.11321"/>
</g>
<!-- Node18&#45;&gt;Node5 -->
<g id="edge31" class="edge"><title>Node18&#45;&gt;Node5</title>
<path fill="none" stroke="midnightblue" d="M1293.97,-118.823C1147.16,-110.827 642.824,-83.2115 554.482,-75.8206"/>
<polygon fill="midnightblue" stroke="midnightblue" points="554.557,-72.312 544.271,-74.8477 553.893,-79.2805 554.557,-72.312"/>
</g>
<!-- Node18&#45;&gt;Node6 -->
<g id="edge29" class="edge"><title>Node18&#45;&gt;Node6</title>
<path fill="none" stroke="midnightblue" d="M1293.77,-115.724C1215.58,-105.476 1043.87,-82.9697 964.185,-72.5258"/>
<polygon fill="midnightblue" stroke="midnightblue" points="964.396,-69.0235 954.026,-71.1942 963.486,-75.9642 964.396,-69.0235"/>
</g>
<!-- Node18&#45;&gt;Node9 -->
<g id="edge30" class="edge"><title>Node18&#45;&gt;Node9</title>
<path fill="none" stroke="midnightblue" d="M1374.4,-116.808C1466.42,-107.251 1691.94,-83.8319 1797.63,-72.856"/>
<polygon fill="midnightblue" stroke="midnightblue" points="1798.2,-76.3162 1807.79,-71.8019 1797.48,-69.3536 1798.2,-76.3162"/>
</g>
<!-- Node18&#45;&gt;Node11 -->
<g id="edge25" class="edge"><title>Node18&#45;&gt;Node11</title>
<path fill="none" stroke="midnightblue" d="M1343.02,-112.324C1351.22,-104.42 1363.53,-92.5482 1373.5,-82.9377"/>
<polygon fill="midnightblue" stroke="midnightblue" points="1376.1,-85.2947 1380.86,-75.8339 1371.24,-80.2558 1376.1,-85.2947"/>
</g>
<!-- Node18&#45;&gt;Node12 -->
<g id="edge28" class="edge"><title>Node18&#45;&gt;Node12</title>
<path fill="none" stroke="midnightblue" d="M1355.89,-112.444C1378.81,-103.478 1415,-89.314 1440.89,-79.1827"/>
<polygon fill="midnightblue" stroke="midnightblue" points="1442.22,-82.4198 1450.26,-75.5164 1439.67,-75.9011 1442.22,-82.4198"/>
</g>
<!-- Node19 -->
<g id="node19" class="node"><title>Node19</title>
<polygon fill="white" stroke="#bfbfbf" points="1201.03,-56.5 1201.03,-75.5 1257.03,-75.5 1257.03,-56.5 1201.03,-56.5"/>
<text text-anchor="middle" x="1229.03" y="-63.5" font-family="Helvetica,sans-Serif" font-size="10.00">algorithm</text>
</g>
<!-- Node18&#45;&gt;Node19 -->
<g id="edge23" class="edge"><title>Node18&#45;&gt;Node19</title>
<path fill="none" stroke="midnightblue" d="M1317.16,-112.324C1300.32,-103.664 1274.22,-90.2424 1254.79,-80.249"/>
<polygon fill="midnightblue" stroke="midnightblue" points="1256.35,-77.1155 1245.85,-75.6545 1253.15,-83.3405 1256.35,-77.1155"/>
</g>
<!-- Node20 -->
<g id="node20" class="node"><title>Node20</title>
<polygon fill="white" stroke="#bfbfbf" points="562.026,-56.5 562.026,-75.5 606.026,-75.5 606.026,-56.5 562.026,-56.5"/>
<text text-anchor="middle" x="584.026" y="-63.5" font-family="Helvetica,sans-Serif" font-size="10.00">cmath</text>
</g>
<!-- Node18&#45;&gt;Node20 -->
<g id="edge24" class="edge"><title>Node18&#45;&gt;Node20</title>
<path fill="none" stroke="midnightblue" d="M1293.97,-118.116C1161.08,-108.548 736.394,-77.9705 616.073,-69.3074"/>
<polygon fill="midnightblue" stroke="midnightblue" points="616.252,-65.8113 606.027,-68.5841 615.749,-72.7933 616.252,-65.8113"/>
</g>
<!-- Node21&#45;&gt;Node5 -->
<g id="edge33" class="edge"><title>Node21&#45;&gt;Node5</title>
<path fill="none" stroke="midnightblue" d="M278.174,-112.444C324.772,-102.984 399.87,-87.7384 450.071,-77.5472"/>
<polygon fill="midnightblue" stroke="midnightblue" points="450.971,-80.936 460.075,-75.5164 449.578,-74.076 450.971,-80.936"/>
</g>
<!-- Node22&#45;&gt;Node5 -->
<g id="edge44" class="edge"><title>Node22&#45;&gt;Node5</title>
<path fill="none" stroke="midnightblue" d="M686.805,-168.5C641.734,-159.779 577.596,-145.601 556.026,-132 537.091,-120.06 521.545,-99.2633 512.074,-84.4083"/>
<polygon fill="midnightblue" stroke="midnightblue" points="514.939,-82.3833 506.753,-75.6573 508.958,-86.0201 514.939,-82.3833"/>
</g>
<!-- Node22&#45;&gt;Node6 -->
<g id="edge41" class="edge"><title>Node22&#45;&gt;Node6</title>
<path fill="none" stroke="midnightblue" d="M684.926,-170.179C636.824,-161.51 574.459,-143.714 602.026,-112 637.557,-71.1224 801.524,-66.3081 879.976,-66.4109"/>
<polygon fill="midnightblue" stroke="midnightblue" points="879.993,-69.9109 890.007,-66.4516 880.021,-62.9109 879.993,-69.9109"/>
</g>
<!-- Node22&#45;&gt;Node7 -->
<g id="edge42" class="edge"><title>Node22&#45;&gt;Node7</title>
<path fill="none" stroke="midnightblue" d="M684.889,-168.695C635.141,-160.126 556.055,-146.064 488.026,-132 486.58,-131.701 485.105,-131.39 483.616,-131.07"/>
<polygon fill="midnightblue" stroke="midnightblue" points="484.266,-127.629 473.746,-128.885 482.753,-134.464 484.266,-127.629"/>
</g>
<!-- Node22&#45;&gt;Node16 -->
<g id="edge36" class="edge"><title>Node22&#45;&gt;Node16</title>
<path fill="none" stroke="midnightblue" d="M783.133,-172.242C846.077,-165.721 958.702,-152.626 1064.35,-131.906"/>
<polygon fill="midnightblue" stroke="midnightblue" points="1065.1,-135.327 1074.23,-129.944 1063.74,-128.461 1065.1,-135.327"/>
</g>
<!-- Node22&#45;&gt;Node19 -->
<g id="edge38" class="edge"><title>Node22&#45;&gt;Node19</title>
<path fill="none" stroke="midnightblue" d="M699.31,-168.41C662.113,-157.647 611.401,-137.482 635.026,-112 653.983,-91.5526 1062.65,-73.6169 1190.88,-68.4751"/>
<polygon fill="midnightblue" stroke="midnightblue" points="1191.17,-71.9668 1201.02,-68.072 1190.89,-64.9723 1191.17,-71.9668"/>
</g>
<!-- Node22&#45;&gt;Node20 -->
<g id="edge35" class="edge"><title>Node22&#45;&gt;Node20</title>
<path fill="none" stroke="midnightblue" d="M691.195,-168.482C643.461,-158.559 571.894,-142.222 564.026,-132 553.274,-118.032 561.865,-98.2485 570.895,-84.1836"/>
<polygon fill="midnightblue" stroke="midnightblue" points="573.834,-86.0872 576.693,-75.8853 568.096,-82.0778 573.834,-86.0872"/>
</g>
<!-- Node22&#45;&gt;Node21 -->
<g id="edge45" class="edge"><title>Node22&#45;&gt;Node21</title>
<path fill="none" stroke="midnightblue" d="M684.913,-171.674C594.999,-161.925 403.876,-141.201 302.457,-130.203"/>
<polygon fill="midnightblue" stroke="midnightblue" points="302.652,-126.704 292.333,-129.106 301.897,-133.663 302.652,-126.704"/>
</g>
<!-- Node23 -->
<g id="node23" class="node"><title>Node23</title>
<polygon fill="white" stroke="#bfbfbf" points="856.526,-112.5 856.526,-131.5 915.526,-131.5 915.526,-112.5 856.526,-112.5"/>
<text text-anchor="middle" x="886.026" y="-119.5" font-family="Helvetica,sans-Serif" font-size="10.00">functional</text>
</g>
<!-- Node22&#45;&gt;Node23 -->
<g id="edge37" class="edge"><title>Node22&#45;&gt;Node23</title>
<path fill="none" stroke="midnightblue" d="M758.111,-168.444C783.57,-159.399 823.92,-145.064 852.485,-134.916"/>
<polygon fill="midnightblue" stroke="midnightblue" points="853.802,-138.162 862.054,-131.516 851.459,-131.566 853.802,-138.162"/>
</g>
<!-- Node24 -->
<g id="node24" class="node"><title>Node24</title>
<polygon fill="white" stroke="#bfbfbf" points="724.526,-112.5 724.526,-131.5 773.526,-131.5 773.526,-112.5 724.526,-112.5"/>
<text text-anchor="middle" x="749.026" y="-119.5" font-family="Helvetica,sans-Serif" font-size="10.00">random</text>
</g>
<!-- Node22&#45;&gt;Node24 -->
<g id="edge39" class="edge"><title>Node22&#45;&gt;Node24</title>
<path fill="none" stroke="midnightblue" d="M736.503,-168.083C738.512,-160.849 741.412,-150.409 743.916,-141.397"/>
<polygon fill="midnightblue" stroke="midnightblue" points="747.291,-142.323 746.595,-131.751 740.546,-140.449 747.291,-142.323"/>
</g>
<!-- Node25 -->
<g id="node25" class="node"><title>Node25</title>
<polygon fill="white" stroke="#bfbfbf" points="792.026,-112.5 792.026,-131.5 838.026,-131.5 838.026,-112.5 792.026,-112.5"/>
<text text-anchor="middle" x="815.026" y="-119.5" font-family="Helvetica,sans-Serif" font-size="10.00">chrono</text>
</g>
<!-- Node22&#45;&gt;Node25 -->
<g id="edge40" class="edge"><title>Node22&#45;&gt;Node25</title>
<path fill="none" stroke="midnightblue" d="M747.04,-168.324C759.557,-159.979 778.708,-147.212 793.497,-137.352"/>
<polygon fill="midnightblue" stroke="midnightblue" points="795.665,-140.114 802.044,-131.655 791.782,-134.289 795.665,-140.114"/>
</g>
<!-- Node26 -->
<g id="node26" class="node"><title>Node26</title>
<polygon fill="white" stroke="#bfbfbf" points="644.026,-112.5 644.026,-131.5 706.026,-131.5 706.026,-112.5 644.026,-112.5"/>
<text text-anchor="middle" x="675.026" y="-119.5" font-family="Helvetica,sans-Serif" font-size="10.00">nanosvg.h</text>
</g>
<!-- Node22&#45;&gt;Node26 -->
<g id="edge43" class="edge"><title>Node22&#45;&gt;Node26</title>
<path fill="none" stroke="midnightblue" d="M724.546,-168.324C715.825,-160.341 702.682,-148.313 692.128,-138.653"/>
<polygon fill="midnightblue" stroke="midnightblue" points="694.417,-136.004 684.678,-131.834 689.691,-141.167 694.417,-136.004"/>
</g>
<!-- Node27&#45;&gt;Node21 -->
<g id="edge47" class="edge"><title>Node27&#45;&gt;Node21</title>
<path fill="none" stroke="midnightblue" d="M335.136,-224.489C322.697,-215.98 303.65,-202.157 289.026,-188 273.556,-173.024 258.274,-153.661 248.124,-139.977"/>
<polygon fill="midnightblue" stroke="midnightblue" points="250.693,-137.559 241.978,-131.533 245.034,-141.678 250.693,-137.559"/>
</g>
<!-- Node27&#45;&gt;Node22 -->
<g id="edge48" class="edge"><title>Node27&#45;&gt;Node22</title>
<path fill="none" stroke="midnightblue" d="M398.093,-225.996C469.107,-216.061 598.856,-197.91 674.638,-187.308"/>
<polygon fill="midnightblue" stroke="midnightblue" points="675.543,-190.716 684.962,-185.864 674.573,-183.783 675.543,-190.716"/>
</g>
<!-- Node28&#45;&gt;Node3 -->
<g id="edge51" class="edge"><title>Node28&#45;&gt;Node3</title>
<path fill="none" stroke="midnightblue" d="M298.436,-175.347C230.562,-171.305 133.6,-157.652 171.026,-112 221.322,-50.6483 802.736,-19.407 948.863,-12.4915"/>
<polygon fill="midnightblue" stroke="midnightblue" points="949.174,-15.9809 959,-12.018 948.848,-8.9885 949.174,-15.9809"/>
</g>
<!-- Node28&#45;&gt;Node6 -->
<g id="edge54" class="edge"><title>Node28&#45;&gt;Node6</title>
<path fill="none" stroke="midnightblue" d="M358.433,-168.116C359.616,-153.719 364.215,-125.543 382.026,-112 421.324,-82.1178 759.252,-70.9847 879.647,-67.9447"/>
<polygon fill="midnightblue" stroke="midnightblue" points="880.028,-71.4365 889.939,-67.6913 879.856,-64.4386 880.028,-71.4365"/>
</g>
<!-- Node28&#45;&gt;Node7 -->
<g id="edge55" class="edge"><title>Node28&#45;&gt;Node7</title>
<path fill="none" stroke="midnightblue" d="M372.647,-168.324C386.975,-159.822 409.038,-146.729 425.775,-136.797"/>
<polygon fill="midnightblue" stroke="midnightblue" points="427.628,-139.768 434.441,-131.655 424.055,-133.748 427.628,-139.768"/>
</g>
<!-- Node28&#45;&gt;Node11 -->
<g id="edge52" class="edge"><title>Node28&#45;&gt;Node11</title>
<path fill="none" stroke="midnightblue" d="M362.568,-168.258C370.765,-153.529 389.576,-124.187 415.026,-112 500.283,-71.1725 1170.65,-81.3949 1265.03,-76 1296.77,-74.1855 1333,-71.5101 1358.25,-69.5478"/>
<polygon fill="midnightblue" stroke="midnightblue" points="1358.66,-73.0265 1368.36,-68.7551 1358.12,-66.0479 1358.66,-73.0265"/>
</g>
<!-- Node28&#45;&gt;Node16 -->
<g id="edge53" class="edge"><title>Node28&#45;&gt;Node16</title>
<path fill="none" stroke="midnightblue" d="M417.55,-174.709C560.804,-168.959 922.722,-152.975 1064.07,-131.755"/>
<polygon fill="midnightblue" stroke="midnightblue" points="1064.93,-135.164 1074.26,-130.152 1063.84,-128.249 1064.93,-135.164"/>
</g>
<!-- Node28&#45;&gt;Node20 -->
<g id="edge50" class="edge"><title>Node28&#45;&gt;Node20</title>
<path fill="none" stroke="midnightblue" d="M352.081,-168.323C343.564,-154.719 330.347,-128.249 344.026,-112 372.524,-78.1456 491.645,-85.3507 551.595,-75.5507"/>
<polygon fill="midnightblue" stroke="midnightblue" points="552.569,-78.9271 561.721,-73.589 551.238,-72.0549 552.569,-78.9271"/>
</g>
<!-- Node30 -->
<g id="node30" class="node"><title>Node30</title>
<g id="a_node30"><a xlink:href="_i_plug_editor_delegate_8h.html" target="_top" xlink:title="This pure virtual interface delegates communication in both directions between a UI editor and someth...">
<polygon fill="white" stroke="black" points="993.026,-336.5 993.026,-355.5 1105.03,-355.5 1105.03,-336.5 993.026,-336.5"/>
<text text-anchor="middle" x="1049.03" y="-343.5" font-family="Helvetica,sans-Serif" font-size="10.00">IPlugEditorDelegate.h</text>
</a>
</g>
</g>
<!-- Node29&#45;&gt;Node30 -->
<g id="edge57" class="edge"><title>Node29&#45;&gt;Node30</title>
<path fill="none" stroke="midnightblue" d="M902.597,-392.444C932.123,-383.28 979.144,-368.688 1011.91,-358.519"/>
<polygon fill="midnightblue" stroke="midnightblue" points="1013.07,-361.823 1021.58,-355.516 1011,-355.138 1013.07,-361.823"/>
</g>
<!-- Node30&#45;&gt;Node3 -->
<g id="edge59" class="edge"><title>Node30&#45;&gt;Node3</title>
<path fill="none" stroke="midnightblue" d="M1105.03,-337.282C1256.89,-315.719 1673.27,-252.198 1795.03,-188 1863.6,-151.846 1962.49,-112.126 1909.03,-56 1877.62,-23.0344 1178.86,-13.1996 1015.82,-11.3499"/>
<polygon fill="midnightblue" stroke="midnightblue" points="1015.48,-7.84607 1005.44,-11.2349 1015.4,-14.8456 1015.48,-7.84607"/>
</g>
<!-- Node30&#45;&gt;Node7 -->
<g id="edge61" class="edge"><title>Node30&#45;&gt;Node7</title>
<path fill="none" stroke="midnightblue" d="M1025.87,-336.433C933.251,-302.163 589.22,-174.872 481.493,-135.013"/>
<polygon fill="midnightblue" stroke="midnightblue" points="482.703,-131.729 472.11,-131.541 480.274,-138.294 482.703,-131.729"/>
</g>
<!-- Node30&#45;&gt;Node16 -->
<g id="edge58" class="edge"><title>Node30&#45;&gt;Node16</title>
<path fill="none" stroke="midnightblue" d="M1050.99,-336.297C1058.36,-303.563 1084.53,-187.375 1094.82,-141.666"/>
<polygon fill="midnightblue" stroke="midnightblue" points="1098.24,-142.408 1097.02,-131.884 1091.41,-140.87 1098.24,-142.408"/>
</g>
<!-- Node31 -->
<g id="node31" class="node"><title>Node31</title>
<polygon fill="white" stroke="#bfbfbf" points="998.526,-280.5 998.526,-299.5 1047.53,-299.5 1047.53,-280.5 998.526,-280.5"/>
<text text-anchor="middle" x="1023.03" y="-287.5" font-family="Helvetica,sans-Serif" font-size="10.00">stdint.h</text>
</g>
<!-- Node30&#45;&gt;Node31 -->
<g id="edge60" class="edge"><title>Node30&#45;&gt;Node31</title>
<path fill="none" stroke="midnightblue" d="M1044.73,-336.083C1041.17,-328.691 1036,-317.953 1031.6,-308.811"/>
<polygon fill="midnightblue" stroke="midnightblue" points="1034.73,-307.243 1027.24,-299.751 1028.42,-310.279 1034.73,-307.243"/>
</g>
<!-- Node32 -->
<g id="node32" class="node"><title>Node32</title>
<g id="a_node32"><a xlink:href="_i_plug_parameter_8h.html" target="_top" xlink:title="IPlug&#39;s parameter class. ">
<polygon fill="white" stroke="black" points="930.026,-168.5 930.026,-187.5 1022.03,-187.5 1022.03,-168.5 930.026,-168.5"/>
<text text-anchor="middle" x="976.026" y="-175.5" font-family="Helvetica,sans-Serif" font-size="10.00">IPlugParameter.h</text>
</a>
</g>
</g>
<!-- Node30&#45;&gt;Node32 -->
<g id="edge62" class="edge"><title>Node30&#45;&gt;Node32</title>
<path fill="none" stroke="midnightblue" d="M1030.52,-336.368C1016.62,-328.837 998.425,-316.524 989.026,-300 970.637,-267.671 971.391,-222.587 973.656,-197.578"/>
<polygon fill="midnightblue" stroke="midnightblue" points="977.138,-197.938 974.74,-187.618 970.179,-197.18 977.138,-197.938"/>
</g>
<!-- Node30&#45;&gt;Node34 -->
<g id="edge68" class="edge"><title>Node30&#45;&gt;Node34</title>
<path fill="none" stroke="midnightblue" d="M1105.18,-336.546C1147.6,-329.279 1206.88,-317.225 1257.03,-300 1297.56,-286.075 1341.84,-263.149 1368.25,-248.577"/>
<polygon fill="midnightblue" stroke="midnightblue" points="1370.11,-251.549 1377.14,-243.618 1366.7,-245.437 1370.11,-251.549"/>
</g>
<!-- Node35 -->
<g id="node35" class="node"><title>Node35</title>
<g id="a_node35"><a xlink:href="_i_plug_structs_8h_source.html" target="_top" xlink:title="IPlugStructs.h">
<polygon fill="white" stroke="black" points="1169.53,-280.5 1169.53,-299.5 1248.53,-299.5 1248.53,-280.5 1169.53,-280.5"/>
<text text-anchor="middle" x="1209.03" y="-287.5" font-family="Helvetica,sans-Serif" font-size="10.00">IPlugStructs.h</text>
</a>
</g>
</g>
<!-- Node30&#45;&gt;Node35 -->
<g id="edge74" class="edge"><title>Node30&#45;&gt;Node35</title>
<path fill="none" stroke="midnightblue" d="M1074.38,-336.444C1101.3,-327.359 1144.02,-312.939 1174.11,-302.783"/>
<polygon fill="midnightblue" stroke="midnightblue" points="1175.44,-306.031 1183.79,-299.516 1173.2,-299.398 1175.44,-306.031"/>
</g>
<!-- Node32&#45;&gt;Node3 -->
<g id="edge64" class="edge"><title>Node32&#45;&gt;Node3</title>
<path fill="none" stroke="midnightblue" d="M976.348,-168.075C977.293,-141.945 980.066,-65.2106 981.354,-29.577"/>
<polygon fill="midnightblue" stroke="midnightblue" points="984.853,-29.688 981.716,-19.5681 977.857,-29.4351 984.853,-29.688"/>
</g>
<!-- Node32&#45;&gt;Node6 -->
<g id="edge66" class="edge"><title>Node32&#45;&gt;Node6</title>
<path fill="none" stroke="midnightblue" d="M971.789,-168.368C962.956,-150.376 942.423,-108.55 930.679,-84.6267"/>
<polygon fill="midnightblue" stroke="midnightblue" points="933.792,-83.0257 926.243,-75.5914 927.508,-86.1105 933.792,-83.0257"/>
</g>
<!-- Node32&#45;&gt;Node18 -->
<g id="edge67" class="edge"><title>Node32&#45;&gt;Node18</title>
<path fill="none" stroke="midnightblue" d="M1022.1,-170.051C1089.37,-159.904 1214.02,-141.102 1283.65,-130.599"/>
<polygon fill="midnightblue" stroke="midnightblue" points="1284.55,-134.002 1293.92,-129.049 1283.51,-127.08 1284.55,-134.002"/>
</g>
<!-- Node32&#45;&gt;Node23 -->
<g id="edge65" class="edge"><title>Node32&#45;&gt;Node23</title>
<path fill="none" stroke="midnightblue" d="M961.566,-168.324C947.526,-159.9 925.977,-146.971 909.483,-137.074"/>
<polygon fill="midnightblue" stroke="midnightblue" points="910.826,-133.798 900.45,-131.655 907.224,-139.801 910.826,-133.798"/>
</g>
<!-- Node33 -->
<g id="node33" class="node"><title>Node33</title>
<polygon fill="white" stroke="#bfbfbf" points="1010.03,-112.5 1010.03,-131.5 1056.03,-131.5 1056.03,-112.5 1010.03,-112.5"/>
<text text-anchor="middle" x="1033.03" y="-119.5" font-family="Helvetica,sans-Serif" font-size="10.00">atomic</text>
</g>
<!-- Node32&#45;&gt;Node33 -->
<g id="edge63" class="edge"><title>Node32&#45;&gt;Node33</title>
<path fill="none" stroke="midnightblue" d="M985.184,-168.324C993.527,-160.42 1006.06,-148.548 1016.2,-138.938"/>
<polygon fill="midnightblue" stroke="midnightblue" points="1018.85,-141.252 1023.7,-131.834 1014.03,-136.171 1018.85,-141.252"/>
</g>
<!-- Node34&#45;&gt;Node10 -->
<g id="edge73" class="edge"><title>Node34&#45;&gt;Node10</title>
<path fill="none" stroke="midnightblue" d="M1424.35,-224.444C1459.42,-215.162 1515.52,-200.309 1553.99,-190.127"/>
<polygon fill="midnightblue" stroke="midnightblue" points="1555.08,-193.459 1563.85,-187.516 1553.29,-186.692 1555.08,-193.459"/>
</g>
<!-- Node34&#45;&gt;Node11 -->
<g id="edge71" class="edge"><title>Node34&#45;&gt;Node11</title>
<path fill="none" stroke="midnightblue" d="M1391.92,-224.075C1391.6,-197.945 1390.68,-121.211 1390.25,-85.577"/>
<polygon fill="midnightblue" stroke="midnightblue" points="1393.75,-85.5252 1390.13,-75.5681 1386.75,-85.6096 1393.75,-85.5252"/>
</g>
<!-- Node34&#45;&gt;Node14 -->
<g id="edge70" class="edge"><title>Node34&#45;&gt;Node14</title>
<path fill="none" stroke="midnightblue" d="M1396.81,-224.368C1406.79,-206.376 1429.98,-164.55 1443.25,-140.627"/>
<polygon fill="midnightblue" stroke="midnightblue" points="1446.47,-142.034 1448.26,-131.591 1440.35,-138.639 1446.47,-142.034"/>
</g>
<!-- Node34&#45;&gt;Node16 -->
<g id="edge69" class="edge"><title>Node34&#45;&gt;Node16</title>
<path fill="none" stroke="midnightblue" d="M1362.8,-224.452C1334.3,-215.916 1289.83,-202.073 1252.03,-188 1207.61,-171.465 1157.21,-149.395 1126.79,-135.696"/>
<polygon fill="midnightblue" stroke="midnightblue" points="1128.2,-132.493 1117.65,-131.56 1125.32,-138.871 1128.2,-132.493"/>
</g>
<!-- Node34&#45;&gt;Node19 -->
<g id="edge72" class="edge"><title>Node34&#45;&gt;Node19</title>
<path fill="none" stroke="midnightblue" d="M1382.26,-224.402C1363.06,-207.357 1319.26,-167.829 1285.03,-132 1269.83,-116.099 1253.53,-96.9169 1242.46,-83.5284"/>
<polygon fill="midnightblue" stroke="midnightblue" points="1245.05,-81.1694 1236,-75.6596 1239.64,-85.6102 1245.05,-81.1694"/>
</g>
<!-- Node35&#45;&gt;Node5 -->
<g id="edge79" class="edge"><title>Node35&#45;&gt;Node5</title>
<path fill="none" stroke="midnightblue" d="M1206.55,-280.296C1197.06,-247.621 1162.08,-133.06 1132.03,-112 1081.25,-76.4157 651.646,-83.0235 554.236,-75.7638"/>
<polygon fill="midnightblue" stroke="midnightblue" points="554.555,-72.2784 544.272,-74.8328 553.903,-79.248 554.555,-72.2784"/>
</g>
<!-- Node35&#45;&gt;Node6 -->
<g id="edge76" class="edge"><title>Node35&#45;&gt;Node6</title>
<path fill="none" stroke="midnightblue" d="M1208.17,-280.467C1204.77,-248.41 1191.19,-135.791 1166.03,-112 1137.55,-85.0724 1026.27,-73.6891 964.291,-69.3574"/>
<polygon fill="midnightblue" stroke="midnightblue" points="964.266,-65.848 954.056,-68.6748 963.8,-72.8325 964.266,-65.848"/>
</g>
<!-- Node35&#45;&gt;Node7 -->
<g id="edge77" class="edge"><title>Node35&#45;&gt;Node7</title>
<path fill="none" stroke="midnightblue" d="M1169.41,-284.898C1079.79,-274.888 855.334,-245.697 676.026,-188 655.962,-181.544 652.913,-174.981 633.026,-168 582.114,-150.128 520.881,-136.68 483.469,-129.327"/>
<polygon fill="midnightblue" stroke="midnightblue" points="484.06,-125.876 473.577,-127.416 482.732,-132.749 484.06,-125.876"/>
</g>
<!-- Node35&#45;&gt;Node9 -->
<g id="edge78" class="edge"><title>Node35&#45;&gt;Node9</title>
<path fill="none" stroke="midnightblue" d="M1248.84,-281.778C1293.76,-273.45 1368.91,-258.975 1433.03,-244 1614.05,-201.723 1705.38,-264.253 1836.03,-132 1847.97,-119.905 1852.16,-100.622 1853.54,-86.1948"/>
<polygon fill="midnightblue" stroke="midnightblue" points="1857.06,-86.0833 1854.15,-75.8953 1850.07,-85.6728 1857.06,-86.0833"/>
</g>
<!-- Node35&#45;&gt;Node18 -->
<g id="edge81" class="edge"><title>Node35&#45;&gt;Node18</title>
<path fill="none" stroke="midnightblue" d="M1215.75,-280.075C1235.76,-253.493 1295.22,-174.538 1321.4,-139.763"/>
<polygon fill="midnightblue" stroke="midnightblue" points="1324.35,-141.662 1327.57,-131.568 1318.76,-137.451 1324.35,-141.662"/>
</g>
<!-- Node35&#45;&gt;Node19 -->
<g id="edge75" class="edge"><title>Node35&#45;&gt;Node19</title>
<path fill="none" stroke="midnightblue" d="M1209.81,-280.297C1212.75,-247.633 1223.18,-131.866 1227.32,-85.9573"/>
<polygon fill="midnightblue" stroke="midnightblue" points="1230.81,-86.1575 1228.23,-75.8837 1223.84,-85.5293 1230.81,-86.1575"/>
</g>
<!-- Node35&#45;&gt;Node34 -->
<g id="edge80" class="edge"><title>Node35&#45;&gt;Node34</title>
<path fill="none" stroke="midnightblue" d="M1238.02,-280.444C1269.21,-271.241 1318.96,-256.562 1353.43,-246.388"/>
<polygon fill="midnightblue" stroke="midnightblue" points="1354.56,-249.704 1363.16,-243.516 1352.58,-242.99 1354.56,-249.704"/>
</g>
</g>
</svg>
