<?xml version="1.0" encoding="UTF-8" standalone="no"?>
<!DOCTYPE svg PUBLIC "-//W3C//DTD SVG 1.1//EN"
 "http://www.w3.org/Graphics/SVG/1.1/DTD/svg11.dtd">
<!-- Generated by graphviz version 2.36.0 (20140111.2315)
 -->
<!-- Title: IVTrackControlBase Pages: 1 -->
<svg width="267pt" height="152pt"
 viewBox="0.00 0.00 267.00 152.00" xmlns="http://www.w3.org/2000/svg" xmlns:xlink="http://www.w3.org/1999/xlink">
<g id="graph0" class="graph" transform="scale(1 1) rotate(0) translate(4 148)">
<title>IVTrackControlBase</title>
<polygon fill="white" stroke="none" points="-4,4 -4,-148 263,-148 263,4 -4,4"/>
<!-- Node1 -->
<g id="node1" class="node"><title>Node1</title>
<polygon fill="#bfbfbf" stroke="black" points="84.5,-68.5 84.5,-87.5 189.5,-87.5 189.5,-68.5 84.5,-68.5"/>
<text text-anchor="middle" x="137" y="-75.5" font-family="Helvetica,sans-Serif" font-size="10.00">IVTrackControlBase</text>
</g>
<!-- Node4 -->
<g id="node4" class="node"><title>Node4</title>
<g id="a_node4"><a xlink:href="class_i_v_meter_control.html" target="_top" xlink:title="Vectorial multichannel capable meter control. ">
<polygon fill="white" stroke="black" points="-0.5,-6.5 -0.5,-25.5 136.5,-25.5 136.5,-6.5 -0.5,-6.5"/>
<text text-anchor="middle" x="68" y="-13.5" font-family="Helvetica,sans-Serif" font-size="10.00">IVMeterControl&lt; MAXNC &gt;</text>
</a>
</g>
</g>
<!-- Node1&#45;&gt;Node4 -->
<g id="edge3" class="edge"><title>Node1&#45;&gt;Node4</title>
<path fill="none" stroke="midnightblue" d="M119.199,-61.5206C106.044,-50.0815 88.6201,-34.9305 77.8677,-25.5806"/>
<polygon fill="midnightblue" stroke="midnightblue" points="117.271,-64.4828 127.114,-68.4035 121.865,-59.2005 117.271,-64.4828"/>
</g>
<!-- Node5 -->
<g id="node5" class="node"><title>Node5</title>
<g id="a_node5"><a xlink:href="class_i_v_multi_slider_control.html" target="_top" xlink:title="A vectorial multi&#45;slider control. ">
<polygon fill="white" stroke="black" points="155,-1 155,-31 259,-31 259,-1 155,-1"/>
<text text-anchor="start" x="163" y="-19" font-family="Helvetica,sans-Serif" font-size="10.00">IVMultiSliderControl</text>
<text text-anchor="middle" x="207" y="-8" font-family="Helvetica,sans-Serif" font-size="10.00">&lt; MAXNC &gt;</text>
</a>
</g>
</g>
<!-- Node1&#45;&gt;Node5 -->
<g id="edge4" class="edge"><title>Node1&#45;&gt;Node5</title>
<path fill="none" stroke="midnightblue" d="M154.739,-61.7947C165.731,-52.3738 179.751,-40.3562 190.502,-31.1408"/>
<polygon fill="midnightblue" stroke="midnightblue" points="152.344,-59.2381 147.029,-68.4035 156.9,-64.5529 152.344,-59.2381"/>
</g>
<!-- Node2 -->
<g id="node2" class="node"><title>Node2</title>
<g id="a_node2"><a xlink:href="class_i_control.html" target="_top" xlink:title="The lowest level base class of an IGraphics control. ">
<polygon fill="white" stroke="black" points="72.5,-124.5 72.5,-143.5 123.5,-143.5 123.5,-124.5 72.5,-124.5"/>
<text text-anchor="middle" x="98" y="-131.5" font-family="Helvetica,sans-Serif" font-size="10.00">IControl</text>
</a>
</g>
</g>
<!-- Node2&#45;&gt;Node1 -->
<g id="edge1" class="edge"><title>Node2&#45;&gt;Node1</title>
<path fill="none" stroke="midnightblue" d="M110.382,-115.855C117.135,-106.505 125.209,-95.3265 130.68,-87.7511"/>
<polygon fill="midnightblue" stroke="midnightblue" points="107.458,-113.927 104.44,-124.083 113.132,-118.025 107.458,-113.927"/>
</g>
<!-- Node3 -->
<g id="node3" class="node"><title>Node3</title>
<g id="a_node3"><a xlink:href="class_i_vector_base.html" target="_top" xlink:title="A base interface to be combined with IControl for vectorial controls &quot;IVControls&quot;, in order for them to share a common set of colors. ">
<polygon fill="white" stroke="black" points="141.5,-124.5 141.5,-143.5 212.5,-143.5 212.5,-124.5 141.5,-124.5"/>
<text text-anchor="middle" x="177" y="-131.5" font-family="Helvetica,sans-Serif" font-size="10.00">IVectorBase</text>
</a>
</g>
</g>
<!-- Node3&#45;&gt;Node1 -->
<g id="edge2" class="edge"><title>Node3&#45;&gt;Node1</title>
<path fill="none" stroke="midnightblue" d="M164.3,-115.855C157.374,-106.505 149.094,-95.3265 143.482,-87.7511"/>
<polygon fill="midnightblue" stroke="midnightblue" points="161.63,-118.131 170.395,-124.083 167.255,-113.964 161.63,-118.131"/>
</g>
</g>
</svg>
