<?xml version="1.0" encoding="UTF-8" standalone="no"?>
<!DOCTYPE svg PUBLIC "-//W3C//DTD SVG 1.1//EN"
 "http://www.w3.org/Graphics/SVG/1.1/DTD/svg11.dtd">
<!-- Generated by graphviz version 2.36.0 (20140111.2315)
 -->
<!-- Title: IKnobControlBase Pages: 1 -->
<svg width="488pt" height="332pt"
 viewBox="0.00 0.00 488.00 332.00" xmlns="http://www.w3.org/2000/svg" xmlns:xlink="http://www.w3.org/1999/xlink">
<g id="graph0" class="graph" transform="scale(1 1) rotate(0) translate(4 328)">
<title>IKnobControlBase</title>
<polygon fill="white" stroke="none" points="-4,4 -4,-328 484,-328 484,4 -4,4"/>
<!-- Node1 -->
<g id="node1" class="node"><title>Node1</title>
<polygon fill="#bfbfbf" stroke="black" points="88,-152.5 88,-171.5 184,-171.5 184,-152.5 88,-152.5"/>
<text text-anchor="middle" x="136" y="-159.5" font-family="Helvetica,sans-Serif" font-size="10.00">IKnobControlBase</text>
</g>
<!-- Node3 -->
<g id="node3" class="node"><title>Node3</title>
<g id="a_node3"><a xlink:href="class_i_b_knob_control.html" target="_top" xlink:title="A bitmap knob/dial control that draws a frame from a stacked bitmap. ">
<polygon fill="white" stroke="black" points="235,-304.5 235,-323.5 315,-323.5 315,-304.5 235,-304.5"/>
<text text-anchor="middle" x="275" y="-311.5" font-family="Helvetica,sans-Serif" font-size="10.00">IBKnobControl</text>
</a>
</g>
</g>
<!-- Node1&#45;&gt;Node3 -->
<g id="edge2" class="edge"><title>Node1&#45;&gt;Node3</title>
<path fill="none" stroke="midnightblue" d="M144.149,-181.255C155.765,-210.001 181.393,-264.06 220,-295 224.808,-298.853 230.455,-301.955 236.252,-304.442"/>
<polygon fill="midnightblue" stroke="midnightblue" points="147.273,-179.629 140.386,-171.578 140.749,-182.167 147.273,-179.629"/>
</g>
<!-- Node5 -->
<g id="node5" class="node"><title>Node5</title>
<g id="a_node5"><a xlink:href="class_i_s_v_g_knob.html" target="_top" xlink:title="A vector knob/dial control which rotates an SVG image. ">
<polygon fill="white" stroke="black" points="243.5,-266.5 243.5,-285.5 306.5,-285.5 306.5,-266.5 243.5,-266.5"/>
<text text-anchor="middle" x="275" y="-273.5" font-family="Helvetica,sans-Serif" font-size="10.00">ISVGKnob</text>
</a>
</g>
</g>
<!-- Node1&#45;&gt;Node5 -->
<g id="edge4" class="edge"><title>Node1&#45;&gt;Node5</title>
<path fill="none" stroke="midnightblue" d="M148.406,-179.94C162.732,-201.131 189.202,-236.132 220,-257 226.993,-261.739 235.296,-265.425 243.267,-268.236"/>
<polygon fill="midnightblue" stroke="midnightblue" points="151.292,-177.958 142.87,-171.531 145.445,-181.808 151.292,-177.958"/>
</g>
<!-- Node6 -->
<g id="node6" class="node"><title>Node6</title>
<g id="a_node6"><a xlink:href="class_i_v_knob_control.html" target="_top" xlink:title="A vector knob control drawn using graphics primitves. ">
<polygon fill="white" stroke="black" points="235,-228.5 235,-247.5 315,-247.5 315,-228.5 235,-228.5"/>
<text text-anchor="middle" x="275" y="-235.5" font-family="Helvetica,sans-Serif" font-size="10.00">IVKnobControl</text>
</a>
</g>
</g>
<!-- Node1&#45;&gt;Node6 -->
<g id="edge5" class="edge"><title>Node1&#45;&gt;Node6</title>
<path fill="none" stroke="midnightblue" d="M156.93,-177.919C173.185,-190.338 197.12,-207.376 220,-219 227,-222.556 234.822,-225.727 242.292,-228.411"/>
<polygon fill="midnightblue" stroke="midnightblue" points="158.789,-174.93 148.745,-171.558 154.494,-180.458 158.789,-174.93"/>
</g>
<!-- Node7 -->
<g id="node7" class="node"><title>Node7</title>
<g id="a_node7"><a xlink:href="class_test_arc_control.html" target="_top" xlink:title="Control to test drawing arcs. ">
<polygon fill="white" stroke="black" points="233.5,-190.5 233.5,-209.5 316.5,-209.5 316.5,-190.5 233.5,-190.5"/>
<text text-anchor="middle" x="275" y="-197.5" font-family="Helvetica,sans-Serif" font-size="10.00">TestArcControl</text>
</a>
</g>
</g>
<!-- Node1&#45;&gt;Node7 -->
<g id="edge6" class="edge"><title>Node1&#45;&gt;Node7</title>
<path fill="none" stroke="midnightblue" d="M181.411,-174.318C200.234,-179.539 221.838,-185.532 239.44,-190.414"/>
<polygon fill="midnightblue" stroke="midnightblue" points="182.143,-170.889 171.571,-171.589 180.272,-177.635 182.143,-170.889"/>
</g>
<!-- Node8 -->
<g id="node8" class="node"><title>Node8</title>
<g id="a_node8"><a xlink:href="class_test_blend_control.html" target="_top" xlink:title="Control to test blend methods. ">
<polygon fill="white" stroke="black" points="229,-152.5 229,-171.5 321,-171.5 321,-152.5 229,-152.5"/>
<text text-anchor="middle" x="275" y="-159.5" font-family="Helvetica,sans-Serif" font-size="10.00">TestBlendControl</text>
</a>
</g>
</g>
<!-- Node1&#45;&gt;Node8 -->
<g id="edge7" class="edge"><title>Node1&#45;&gt;Node8</title>
<path fill="none" stroke="midnightblue" d="M194.463,-162C205.865,-162 217.685,-162 228.616,-162"/>
<polygon fill="midnightblue" stroke="midnightblue" points="194.148,-158.5 184.148,-162 194.148,-165.5 194.148,-158.5"/>
</g>
<!-- Node9 -->
<g id="node9" class="node"><title>Node9</title>
<g id="a_node9"><a xlink:href="class_test_gradient_control.html" target="_top" xlink:title="Control to test drawing gradients with path based drawing backends. ">
<polygon fill="white" stroke="black" points="223,-114.5 223,-133.5 327,-133.5 327,-114.5 223,-114.5"/>
<text text-anchor="middle" x="275" y="-121.5" font-family="Helvetica,sans-Serif" font-size="10.00">TestGradientControl</text>
</a>
</g>
</g>
<!-- Node1&#45;&gt;Node9 -->
<g id="edge8" class="edge"><title>Node1&#45;&gt;Node9</title>
<path fill="none" stroke="midnightblue" d="M181.411,-149.682C200.234,-144.461 221.838,-138.468 239.44,-133.586"/>
<polygon fill="midnightblue" stroke="midnightblue" points="180.272,-146.365 171.571,-152.411 182.143,-153.111 180.272,-146.365"/>
</g>
<!-- Node10 -->
<g id="node10" class="node"><title>Node10</title>
<g id="a_node10"><a xlink:href="class_test_layer_control.html" target="_top" xlink:title="Control to test IGraphics layers. ">
<polygon fill="white" stroke="black" points="229,-76.5 229,-95.5 321,-95.5 321,-76.5 229,-76.5"/>
<text text-anchor="middle" x="275" y="-83.5" font-family="Helvetica,sans-Serif" font-size="10.00">TestLayerControl</text>
</a>
</g>
</g>
<!-- Node1&#45;&gt;Node10 -->
<g id="edge9" class="edge"><title>Node1&#45;&gt;Node10</title>
<path fill="none" stroke="midnightblue" d="M156.93,-146.081C173.185,-133.662 197.12,-116.624 220,-105 227,-101.444 234.822,-98.2732 242.292,-95.5887"/>
<polygon fill="midnightblue" stroke="midnightblue" points="154.494,-143.542 148.745,-152.442 158.789,-149.07 154.494,-143.542"/>
</g>
<!-- Node11 -->
<g id="node11" class="node"><title>Node11</title>
<g id="a_node11"><a xlink:href="class_test_multi_path_control.html" target="_top" xlink:title="Control to test drawing paths in path&#45;based drawing backends. ">
<polygon fill="white" stroke="black" points="220.5,-38.5 220.5,-57.5 329.5,-57.5 329.5,-38.5 220.5,-38.5"/>
<text text-anchor="middle" x="275" y="-45.5" font-family="Helvetica,sans-Serif" font-size="10.00">TestMultiPathControl</text>
</a>
</g>
</g>
<!-- Node1&#45;&gt;Node11 -->
<g id="edge10" class="edge"><title>Node1&#45;&gt;Node11</title>
<path fill="none" stroke="midnightblue" d="M148.406,-144.06C162.732,-122.869 189.202,-87.868 220,-67 225.595,-63.2091 232.027,-60.0916 238.458,-57.5571"/>
<polygon fill="midnightblue" stroke="midnightblue" points="145.445,-142.192 142.87,-152.469 151.292,-146.042 145.445,-142.192"/>
</g>
<!-- Node12 -->
<g id="node12" class="node"><title>Node12</title>
<g id="a_node12"><a xlink:href="class_test_poly_control.html" target="_top" xlink:title="Control to test drawing polygons. ">
<polygon fill="white" stroke="black" points="231.5,-0.5 231.5,-19.5 318.5,-19.5 318.5,-0.5 231.5,-0.5"/>
<text text-anchor="middle" x="275" y="-7.5" font-family="Helvetica,sans-Serif" font-size="10.00">TestPolyControl</text>
</a>
</g>
</g>
<!-- Node1&#45;&gt;Node12 -->
<g id="edge11" class="edge"><title>Node1&#45;&gt;Node12</title>
<path fill="none" stroke="midnightblue" d="M144.149,-142.745C155.765,-113.999 181.393,-59.9402 220,-29 224.808,-25.1466 230.455,-22.0453 236.252,-19.5577"/>
<polygon fill="midnightblue" stroke="midnightblue" points="140.749,-141.833 140.386,-152.422 147.273,-144.371 140.749,-141.833"/>
</g>
<!-- Node2 -->
<g id="node2" class="node"><title>Node2</title>
<g id="a_node2"><a xlink:href="class_i_control.html" target="_top" xlink:title="The lowest level base class of an IGraphics control. ">
<polygon fill="white" stroke="black" points="0.5,-152.5 0.5,-171.5 51.5,-171.5 51.5,-152.5 0.5,-152.5"/>
<text text-anchor="middle" x="26" y="-159.5" font-family="Helvetica,sans-Serif" font-size="10.00">IControl</text>
</a>
</g>
</g>
<!-- Node2&#45;&gt;Node1 -->
<g id="edge1" class="edge"><title>Node2&#45;&gt;Node1</title>
<path fill="none" stroke="midnightblue" d="M61.5595,-162C69.8495,-162 78.845,-162 87.6051,-162"/>
<polygon fill="midnightblue" stroke="midnightblue" points="61.5069,-158.5 51.5069,-162 61.5068,-165.5 61.5069,-158.5"/>
</g>
<!-- Node4 -->
<g id="node4" class="node"><title>Node4</title>
<g id="a_node4"><a xlink:href="class_i_b_knob_rotater_control.html" target="_top" xlink:title="A bitmap knob/dial control that rotates an image. ">
<polygon fill="white" stroke="black" points="366.5,-304.5 366.5,-323.5 479.5,-323.5 479.5,-304.5 366.5,-304.5"/>
<text text-anchor="middle" x="423" y="-311.5" font-family="Helvetica,sans-Serif" font-size="10.00">IBKnobRotaterControl</text>
</a>
</g>
</g>
<!-- Node3&#45;&gt;Node4 -->
<g id="edge3" class="edge"><title>Node3&#45;&gt;Node4</title>
<path fill="none" stroke="midnightblue" d="M325.389,-314C338.539,-314 352.836,-314 366.299,-314"/>
<polygon fill="midnightblue" stroke="midnightblue" points="325.125,-310.5 315.125,-314 325.125,-317.5 325.125,-310.5"/>
</g>
</g>
</svg>
