<?xml version="1.0" encoding="UTF-8" standalone="no"?>
<!DOCTYPE svg PUBLIC "-//W3C//DTD SVG 1.1//EN"
 "http://www.w3.org/Graphics/SVG/1.1/DTD/svg11.dtd">
<!-- Generated by graphviz version 2.36.0 (20140111.2315)
 -->
<!-- Title: IVectorBase Pages: 1 -->
<svg width="424pt" height="371pt"
 viewBox="0.00 0.00 424.00 371.00" xmlns="http://www.w3.org/2000/svg" xmlns:xlink="http://www.w3.org/1999/xlink">
<g id="graph0" class="graph" transform="scale(1 1) rotate(0) translate(4 367)">
<title>IVectorBase</title>
<polygon fill="white" stroke="none" points="-4,4 -4,-367 420,-367 420,4 -4,4"/>
<!-- Node1 -->
<g id="node1" class="node"><title>Node1</title>
<polygon fill="#bfbfbf" stroke="black" points="0.5,-191.5 0.5,-210.5 71.5,-210.5 71.5,-191.5 0.5,-191.5"/>
<text text-anchor="middle" x="36" y="-198.5" font-family="Helvetica,sans-Serif" font-size="10.00">IVectorBase</text>
</g>
<!-- Node2 -->
<g id="node2" class="node"><title>Node2</title>
<g id="a_node2"><a xlink:href="class_i_f_p_s_display_control.html" target="_top" xlink:title="Performance display meter, based on code from NanoVG This is a special control that lives outside the...">
<polygon fill="white" stroke="black" points="123,-343.5 123,-362.5 227,-362.5 227,-343.5 123,-343.5"/>
<text text-anchor="middle" x="175" y="-350.5" font-family="Helvetica,sans-Serif" font-size="10.00">IFPSDisplayControl</text>
</a>
</g>
</g>
<!-- Node1&#45;&gt;Node2 -->
<g id="edge1" class="edge"><title>Node1&#45;&gt;Node2</title>
<path fill="none" stroke="midnightblue" d="M42.1171,-220.509C50.7557,-249.586 71.0149,-304.069 108,-334 112.82,-337.901 118.405,-341 124.245,-343.464"/>
<polygon fill="midnightblue" stroke="midnightblue" points="45.4393,-219.394 39.3646,-210.713 38.7003,-221.287 45.4393,-219.394"/>
</g>
<!-- Node3 -->
<g id="node3" class="node"><title>Node3</title>
<g id="a_node3"><a xlink:href="class_i_v_button_control.html" target="_top" xlink:title="A vector button/momentary switch control. ">
<polygon fill="white" stroke="black" points="132,-305.5 132,-324.5 218,-324.5 218,-305.5 132,-305.5"/>
<text text-anchor="middle" x="175" y="-312.5" font-family="Helvetica,sans-Serif" font-size="10.00">IVButtonControl</text>
</a>
</g>
</g>
<!-- Node1&#45;&gt;Node3 -->
<g id="edge2" class="edge"><title>Node1&#45;&gt;Node3</title>
<path fill="none" stroke="midnightblue" d="M46.2427,-219.858C57.7697,-241.427 79.4836,-276.296 108,-296 115.063,-300.88 123.374,-304.518 131.672,-307.227"/>
<polygon fill="midnightblue" stroke="midnightblue" points="49.2315,-218.016 41.546,-210.723 43.0062,-221.217 49.2315,-218.016"/>
</g>
<!-- Node4 -->
<g id="node4" class="node"><title>Node4</title>
<g id="a_node4"><a xlink:href="class_i_v_keyboard_control.html" target="_top" xlink:title="Vectorial keyboard control. ">
<polygon fill="white" stroke="black" points="125.5,-267.5 125.5,-286.5 224.5,-286.5 224.5,-267.5 125.5,-267.5"/>
<text text-anchor="middle" x="175" y="-274.5" font-family="Helvetica,sans-Serif" font-size="10.00">IVKeyboardControl</text>
</a>
</g>
</g>
<!-- Node1&#45;&gt;Node4 -->
<g id="edge3" class="edge"><title>Node1&#45;&gt;Node4</title>
<path fill="none" stroke="midnightblue" d="M54.2486,-218.143C67.828,-230.774 87.7797,-247.515 108,-258 115.304,-261.787 123.465,-264.913 131.491,-267.459"/>
<polygon fill="midnightblue" stroke="midnightblue" points="56.3191,-215.28 46.6716,-210.901 51.4826,-220.34 56.3191,-215.28"/>
</g>
<!-- Node5 -->
<g id="node5" class="node"><title>Node5</title>
<g id="a_node5"><a xlink:href="class_i_v_knob_control.html" target="_top" xlink:title="A vector knob control drawn using graphics primitves. ">
<polygon fill="white" stroke="black" points="135,-229.5 135,-248.5 215,-248.5 215,-229.5 135,-229.5"/>
<text text-anchor="middle" x="175" y="-236.5" font-family="Helvetica,sans-Serif" font-size="10.00">IVKnobControl</text>
</a>
</g>
</g>
<!-- Node1&#45;&gt;Node5 -->
<g id="edge4" class="edge"><title>Node1&#45;&gt;Node5</title>
<path fill="none" stroke="midnightblue" d="M81.4108,-213.318C100.234,-218.539 121.838,-224.532 139.44,-229.414"/>
<polygon fill="midnightblue" stroke="midnightblue" points="82.1426,-209.889 71.5709,-210.589 80.2716,-216.635 82.1426,-209.889"/>
</g>
<!-- Node6 -->
<g id="node6" class="node"><title>Node6</title>
<g id="a_node6"><a xlink:href="class_i_v_radio_button_control.html" target="_top" xlink:title="A vector switch control. ">
<polygon fill="white" stroke="black" points="119,-191.5 119,-210.5 231,-210.5 231,-191.5 119,-191.5"/>
<text text-anchor="middle" x="175" y="-198.5" font-family="Helvetica,sans-Serif" font-size="10.00">IVRadioButtonControl</text>
</a>
</g>
</g>
<!-- Node1&#45;&gt;Node6 -->
<g id="edge5" class="edge"><title>Node1&#45;&gt;Node6</title>
<path fill="none" stroke="midnightblue" d="M81.6891,-201C93.5713,-201 106.545,-201 118.912,-201"/>
<polygon fill="midnightblue" stroke="midnightblue" points="81.5709,-197.5 71.5709,-201 81.5709,-204.5 81.5709,-197.5"/>
</g>
<!-- Node7 -->
<g id="node7" class="node"><title>Node7</title>
<g id="a_node7"><a xlink:href="class_i_v_scope_control.html" target="_top" xlink:title="Vectorial multichannel capable oscilloscope control. ">
<polygon fill="white" stroke="black" points="108,-142 108,-172 242,-172 242,-142 108,-142"/>
<text text-anchor="start" x="116" y="-160" font-family="Helvetica,sans-Serif" font-size="10.00">IVScopeControl&lt; MAXNC,</text>
<text text-anchor="middle" x="175" y="-149" font-family="Helvetica,sans-Serif" font-size="10.00"> MAXBUF &gt;</text>
</a>
</g>
</g>
<!-- Node1&#45;&gt;Node7 -->
<g id="edge6" class="edge"><title>Node1&#45;&gt;Node7</title>
<path fill="none" stroke="midnightblue" d="M76.6789,-188.256C92.4376,-183.195 110.685,-177.335 127.092,-172.065"/>
<polygon fill="midnightblue" stroke="midnightblue" points="75.1777,-185.062 66.727,-191.453 77.3182,-191.727 75.1777,-185.062"/>
</g>
<!-- Node8 -->
<g id="node8" class="node"><title>Node8</title>
<g id="a_node8"><a xlink:href="class_i_v_slider_control.html" target="_top" xlink:title="A vector slider control. ">
<polygon fill="white" stroke="black" points="133.5,-103.5 133.5,-122.5 216.5,-122.5 216.5,-103.5 133.5,-103.5"/>
<text text-anchor="middle" x="175" y="-110.5" font-family="Helvetica,sans-Serif" font-size="10.00">IVSliderControl</text>
</a>
</g>
</g>
<!-- Node1&#45;&gt;Node8 -->
<g id="edge7" class="edge"><title>Node1&#45;&gt;Node8</title>
<path fill="none" stroke="midnightblue" d="M51.1381,-183.404C64.3443,-168.054 85.3731,-146.228 108,-133 115.752,-128.468 124.627,-124.875 133.301,-122.059"/>
<polygon fill="midnightblue" stroke="midnightblue" points="48.3748,-181.252 44.6456,-191.169 53.7451,-185.742 48.3748,-181.252"/>
</g>
<!-- Node9 -->
<g id="node9" class="node"><title>Node9</title>
<g id="a_node9"><a xlink:href="class_i_v_switch_control.html" target="_top" xlink:title="A vector switch control. ">
<polygon fill="white" stroke="black" points="131,-65.5 131,-84.5 219,-84.5 219,-65.5 131,-65.5"/>
<text text-anchor="middle" x="175" y="-72.5" font-family="Helvetica,sans-Serif" font-size="10.00">IVSwitchControl</text>
</a>
</g>
</g>
<!-- Node1&#45;&gt;Node9 -->
<g id="edge8" class="edge"><title>Node1&#45;&gt;Node9</title>
<path fill="none" stroke="midnightblue" d="M44.6774,-181.887C55.3199,-157.816 76.8328,-116.85 108,-94 114.731,-89.065 122.716,-85.4082 130.766,-82.6996"/>
<polygon fill="midnightblue" stroke="midnightblue" points="41.3469,-180.776 40.6708,-191.35 47.7929,-183.506 41.3469,-180.776"/>
</g>
<!-- Node10 -->
<g id="node10" class="node"><title>Node10</title>
<g id="a_node10"><a xlink:href="class_i_v_track_control_base.html" target="_top" xlink:title="A base class for mult&#45;strip/track controls, such as multi&#45;sliders, meters. ">
<polygon fill="white" stroke="black" points="122.5,-27.5 122.5,-46.5 227.5,-46.5 227.5,-27.5 122.5,-27.5"/>
<text text-anchor="middle" x="175" y="-34.5" font-family="Helvetica,sans-Serif" font-size="10.00">IVTrackControlBase</text>
</a>
</g>
</g>
<!-- Node1&#45;&gt;Node10 -->
<g id="edge9" class="edge"><title>Node1&#45;&gt;Node10</title>
<path fill="none" stroke="midnightblue" d="M41.2666,-181.091C49.0176,-149.785 68.4063,-89.206 108,-56 112.659,-52.0923 118.082,-48.9876 123.778,-46.5208"/>
<polygon fill="midnightblue" stroke="midnightblue" points="37.773,-180.662 38.9217,-191.195 44.5918,-182.245 37.773,-180.662"/>
</g>
<!-- Node11 -->
<g id="node11" class="node"><title>Node11</title>
<g id="a_node11"><a xlink:href="class_i_v_meter_control.html" target="_top" xlink:title="Vectorial multichannel capable meter control. ">
<polygon fill="white" stroke="black" points="278.5,-49.5 278.5,-68.5 415.5,-68.5 415.5,-49.5 278.5,-49.5"/>
<text text-anchor="middle" x="347" y="-56.5" font-family="Helvetica,sans-Serif" font-size="10.00">IVMeterControl&lt; MAXNC &gt;</text>
</a>
</g>
</g>
<!-- Node10&#45;&gt;Node11 -->
<g id="edge10" class="edge"><title>Node10&#45;&gt;Node11</title>
<path fill="none" stroke="midnightblue" d="M238.22,-45.052C251.291,-46.7435 265.138,-48.5355 278.396,-50.2512"/>
<polygon fill="midnightblue" stroke="midnightblue" points="238.296,-41.5327 227.929,-43.7203 237.397,-48.4748 238.296,-41.5327"/>
</g>
<!-- Node12 -->
<g id="node12" class="node"><title>Node12</title>
<g id="a_node12"><a xlink:href="class_i_v_multi_slider_control.html" target="_top" xlink:title="A vectorial multi&#45;slider control. ">
<polygon fill="white" stroke="black" points="295,-0 295,-30 399,-30 399,-0 295,-0"/>
<text text-anchor="start" x="303" y="-18" font-family="Helvetica,sans-Serif" font-size="10.00">IVMultiSliderControl</text>
<text text-anchor="middle" x="347" y="-7" font-family="Helvetica,sans-Serif" font-size="10.00">&lt; MAXNC &gt;</text>
</a>
</g>
</g>
<!-- Node10&#45;&gt;Node12 -->
<g id="edge11" class="edge"><title>Node10&#45;&gt;Node12</title>
<path fill="none" stroke="midnightblue" d="M237.863,-28.9942C256.622,-26.5666 277.009,-23.9282 294.973,-21.6035"/>
<polygon fill="midnightblue" stroke="midnightblue" points="237.397,-25.5252 227.929,-30.2797 238.296,-32.4673 237.397,-25.5252"/>
</g>
</g>
</svg>
