<?xml version="1.0" encoding="UTF-8" standalone="no"?>
<!DOCTYPE svg PUBLIC "-//W3C//DTD SVG 1.1//EN"
 "http://www.w3.org/Graphics/SVG/1.1/DTD/svg11.dtd">
<!-- Generated by graphviz version 2.36.0 (20140111.2315)
 -->
<!-- Title: IControl Pages: 1 -->
<svg width="404pt" height="1142pt"
 viewBox="0.00 0.00 404.00 1142.00" xmlns="http://www.w3.org/2000/svg" xmlns:xlink="http://www.w3.org/1999/xlink">
<g id="graph0" class="graph" transform="scale(1 1) rotate(0) translate(4 1138)">
<title>IControl</title>
<polygon fill="white" stroke="none" points="-4,4 -4,-1138 400,-1138 400,4 -4,4"/>
<!-- Node1 -->
<g id="node1" class="node"><title>Node1</title>
<polygon fill="#bfbfbf" stroke="black" points="0.5,-525.5 0.5,-544.5 51.5,-544.5 51.5,-525.5 0.5,-525.5"/>
<text text-anchor="middle" x="26" y="-532.5" font-family="Helvetica,sans-Serif" font-size="10.00">IControl</text>
</g>
<!-- Node2 -->
<g id="node2" class="node"><title>Node2</title>
<g id="a_node2"><a xlink:href="class_i_bitmap_control.html" target="_top" xlink:title="A basic control to draw a bitmap, or one frame of a stacked bitmap depending on the current value...">
<polygon fill="white" stroke="black" points="114,-1095.5 114,-1114.5 196,-1114.5 196,-1095.5 114,-1095.5"/>
<text text-anchor="middle" x="155" y="-1102.5" font-family="Helvetica,sans-Serif" font-size="10.00">IBitmapControl</text>
</a>
</g>
</g>
<!-- Node1&#45;&gt;Node2 -->
<g id="edge1" class="edge"><title>Node1&#45;&gt;Node2</title>
<path fill="none" stroke="midnightblue" d="M26.9419,-554.647C27.0303,-640.254 31.0216,-980.274 88,-1067 96.712,-1080.26 111.758,-1089.44 125.287,-1095.45"/>
<polygon fill="midnightblue" stroke="midnightblue" points="30.4419,-554.507 26.9497,-544.504 23.4419,-554.501 30.4419,-554.507"/>
</g>
<!-- Node4 -->
<g id="node4" class="node"><title>Node4</title>
<g id="a_node4"><a xlink:href="class_i_button_control_base.html" target="_top" xlink:title="A base class for buttons/momentary switches &#45; cannot be linked to parameters. ">
<polygon fill="white" stroke="black" points="104,-1038.5 104,-1057.5 206,-1057.5 206,-1038.5 104,-1038.5"/>
<text text-anchor="middle" x="155" y="-1045.5" font-family="Helvetica,sans-Serif" font-size="10.00">IButtonControlBase</text>
</a>
</g>
</g>
<!-- Node1&#45;&gt;Node4 -->
<g id="edge3" class="edge"><title>Node1&#45;&gt;Node4</title>
<path fill="none" stroke="midnightblue" d="M27.8133,-555.228C31.2345,-633.21 46.2623,-913.815 88,-991 99.3063,-1011.91 121.568,-1028.61 137.096,-1038.4"/>
<polygon fill="midnightblue" stroke="midnightblue" points="31.295,-554.719 27.3762,-544.875 24.3013,-555.014 31.295,-554.719"/>
</g>
<!-- Node7 -->
<g id="node7" class="node"><title>Node7</title>
<g id="a_node7"><a xlink:href="class_i_color_picker_control.html" target="_top" xlink:title="A control for choosing a color. ">
<polygon fill="white" stroke="black" points="104,-962.5 104,-981.5 206,-981.5 206,-962.5 104,-962.5"/>
<text text-anchor="middle" x="155" y="-969.5" font-family="Helvetica,sans-Serif" font-size="10.00">IColorPickerControl</text>
</a>
</g>
</g>
<!-- Node1&#45;&gt;Node7 -->
<g id="edge6" class="edge"><title>Node1&#45;&gt;Node7</title>
<path fill="none" stroke="midnightblue" d="M27.1474,-555.09C28.1056,-630.102 35.2362,-892.561 88,-953 92.3129,-957.94 97.8191,-961.635 103.807,-964.391"/>
<polygon fill="midnightblue" stroke="midnightblue" points="30.6435,-554.684 27.0406,-544.721 23.6439,-554.756 30.6435,-554.684"/>
</g>
<!-- Node8 -->
<g id="node8" class="node"><title>Node8</title>
<g id="a_node8"><a xlink:href="class_i_corner_resizer_control.html" target="_top" xlink:title="A control for resizing the plug&#45;in window by clicking and dragging in the bottom right&#45;hand corner Th...">
<polygon fill="white" stroke="black" points="98,-924.5 98,-943.5 212,-943.5 212,-924.5 98,-924.5"/>
<text text-anchor="middle" x="155" y="-931.5" font-family="Helvetica,sans-Serif" font-size="10.00">ICornerResizerControl</text>
</a>
</g>
</g>
<!-- Node1&#45;&gt;Node8 -->
<g id="edge7" class="edge"><title>Node1&#45;&gt;Node8</title>
<path fill="none" stroke="midnightblue" d="M27.458,-554.607C29.4872,-624.564 39.8462,-860.629 88,-915 91.3994,-918.838 95.5189,-921.923 100.021,-924.4"/>
<polygon fill="midnightblue" stroke="midnightblue" points="30.9547,-554.431 27.1915,-544.528 23.9571,-554.617 30.9547,-554.431"/>
</g>
<!-- Node9 -->
<g id="node9" class="node"><title>Node9</title>
<g id="a_node9"><a xlink:href="class_i_dir_browse_control_base.html" target="_top" xlink:title="An abstract IControl base class that you can inherit from in order to make a control that pops up a m...">
<polygon fill="white" stroke="black" points="95.5,-886.5 95.5,-905.5 214.5,-905.5 214.5,-886.5 95.5,-886.5"/>
<text text-anchor="middle" x="155" y="-893.5" font-family="Helvetica,sans-Serif" font-size="10.00">IDirBrowseControlBase</text>
</a>
</g>
</g>
<!-- Node1&#45;&gt;Node9 -->
<g id="edge8" class="edge"><title>Node1&#45;&gt;Node9</title>
<path fill="none" stroke="midnightblue" d="M27.8489,-554.722C31.0602,-620.181 44.5769,-828.819 88,-877 91.4325,-880.809 95.574,-883.874 100.089,-886.338"/>
<polygon fill="midnightblue" stroke="midnightblue" points="31.3365,-554.373 27.3776,-544.546 24.344,-554.697 31.3365,-554.373"/>
</g>
<!-- Node11 -->
<g id="node11" class="node"><title>Node11</title>
<g id="a_node11"><a xlink:href="class_i_f_p_s_display_control.html" target="_top" xlink:title="Performance display meter, based on code from NanoVG This is a special control that lives outside the...">
<polygon fill="white" stroke="black" points="103,-848.5 103,-867.5 207,-867.5 207,-848.5 103,-848.5"/>
<text text-anchor="middle" x="155" y="-855.5" font-family="Helvetica,sans-Serif" font-size="10.00">IFPSDisplayControl</text>
</a>
</g>
</g>
<!-- Node1&#45;&gt;Node11 -->
<g id="edge10" class="edge"><title>Node1&#45;&gt;Node11</title>
<path fill="none" stroke="midnightblue" d="M28.3408,-554.863C32.8304,-615.551 49.2885,-796.965 88,-839 92.1195,-843.473 97.2171,-846.918 102.739,-849.567"/>
<polygon fill="midnightblue" stroke="midnightblue" points="31.8189,-554.429 27.6191,-544.703 24.8365,-554.925 31.8189,-554.429"/>
</g>
<!-- Node12 -->
<g id="node12" class="node"><title>Node12</title>
<g id="a_node12"><a xlink:href="class_i_graphics_live_edit.html" target="_top" xlink:title="A control to enable live modification of control layout in an IGraphics context in debug builds This ...">
<polygon fill="white" stroke="black" points="108,-810.5 108,-829.5 202,-829.5 202,-810.5 108,-810.5"/>
<text text-anchor="middle" x="155" y="-817.5" font-family="Helvetica,sans-Serif" font-size="10.00">IGraphicsLiveEdit</text>
</a>
</g>
</g>
<!-- Node1&#45;&gt;Node12 -->
<g id="edge11" class="edge"><title>Node1&#45;&gt;Node12</title>
<path fill="none" stroke="midnightblue" d="M28.9611,-554.87C34.8218,-610.318 53.9434,-765.021 88,-801 93.4099,-806.715 100.417,-810.746 107.839,-813.582"/>
<polygon fill="midnightblue" stroke="midnightblue" points="32.4123,-554.214 27.9111,-544.623 25.4488,-554.928 32.4123,-554.214"/>
</g>
<!-- Node13 -->
<g id="node13" class="node"><title>Node13</title>
<g id="a_node13"><a xlink:href="class_i_knob_control_base.html" target="_top" xlink:title="A base class for knob/dial controls, to handle mouse action and ballistics. ">
<polygon fill="white" stroke="black" points="107,-772.5 107,-791.5 203,-791.5 203,-772.5 107,-772.5"/>
<text text-anchor="middle" x="155" y="-779.5" font-family="Helvetica,sans-Serif" font-size="10.00">IKnobControlBase</text>
</a>
</g>
</g>
<!-- Node1&#45;&gt;Node13 -->
<g id="edge12" class="edge"><title>Node1&#45;&gt;Node13</title>
<path fill="none" stroke="midnightblue" d="M26.2332,-555.088C25.6971,-599.099 30.8312,-704.742 88,-763 93.2614,-768.362 99.9302,-772.235 106.995,-775.028"/>
<polygon fill="midnightblue" stroke="midnightblue" points="29.7381,-554.925 26.4797,-544.844 22.7401,-554.757 29.7381,-554.925"/>
</g>
<!-- Node23 -->
<g id="node23" class="node"><title>Node23</title>
<g id="a_node23"><a xlink:href="class_i_lambda_control.html" target="_top" xlink:title="A control that can be specialised with a lamda function, for quick experiments without making a custo...">
<polygon fill="white" stroke="black" points="112,-734.5 112,-753.5 198,-753.5 198,-734.5 112,-734.5"/>
<text text-anchor="middle" x="155" y="-741.5" font-family="Helvetica,sans-Serif" font-size="10.00">ILambdaControl</text>
</a>
</g>
</g>
<!-- Node1&#45;&gt;Node23 -->
<g id="edge22" class="edge"><title>Node1&#45;&gt;Node23</title>
<path fill="none" stroke="midnightblue" d="M27.544,-555.379C29.7047,-594.067 40.0002,-678.436 88,-725 94.5899,-731.393 103.187,-735.659 111.987,-738.499"/>
<polygon fill="midnightblue" stroke="midnightblue" points="31.0217,-554.775 27.1019,-544.932 24.0279,-555.071 31.0217,-554.775"/>
</g>
<!-- Node24 -->
<g id="node24" class="node"><title>Node24</title>
<g id="a_node24"><a xlink:href="class_i_panel_control.html" target="_top" xlink:title="A basic control to fill a rectangle with a color or gradient. ">
<polygon fill="white" stroke="black" points="117,-696.5 117,-715.5 193,-715.5 193,-696.5 117,-696.5"/>
<text text-anchor="middle" x="155" y="-703.5" font-family="Helvetica,sans-Serif" font-size="10.00">IPanelControl</text>
</a>
</g>
</g>
<!-- Node1&#45;&gt;Node24 -->
<g id="edge23" class="edge"><title>Node1&#45;&gt;Node24</title>
<path fill="none" stroke="midnightblue" d="M29.3808,-554.894C34.3273,-587.327 48.7429,-651.532 88,-687 95.9628,-694.194 106.484,-698.678 116.781,-701.469"/>
<polygon fill="midnightblue" stroke="midnightblue" points="32.829,-554.276 28.0008,-544.846 25.8941,-555.229 32.829,-554.276"/>
</g>
<!-- Node25 -->
<g id="node25" class="node"><title>Node25</title>
<g id="a_node25"><a xlink:href="class_i_popup_menu_control.html" target="_top" xlink:title="A base control for a pop&#45;up menu/drop&#45;down list that stays within the bounds of the IGraphics context...">
<polygon fill="white" stroke="black" points="103.5,-658.5 103.5,-677.5 206.5,-677.5 206.5,-658.5 103.5,-658.5"/>
<text text-anchor="middle" x="155" y="-665.5" font-family="Helvetica,sans-Serif" font-size="10.00">IPopupMenuControl</text>
</a>
</g>
</g>
<!-- Node1&#45;&gt;Node25 -->
<g id="edge24" class="edge"><title>Node1&#45;&gt;Node25</title>
<path fill="none" stroke="midnightblue" d="M32.164,-554.218C39.9913,-579.657 57.2998,-624.18 88,-649 92.8216,-652.898 98.4076,-655.997 104.249,-658.459"/>
<polygon fill="midnightblue" stroke="midnightblue" points="35.5216,-553.229 29.3786,-544.597 28.7977,-555.176 35.5216,-553.229"/>
</g>
<!-- Node26 -->
<g id="node26" class="node"><title>Node26</title>
<g id="a_node26"><a xlink:href="class_i_slider_control_base.html" target="_top" xlink:title="A base class for slider/fader controls, to handle mouse action and ballistics. ">
<polygon fill="white" stroke="black" points="106,-620.5 106,-639.5 204,-639.5 204,-620.5 106,-620.5"/>
<text text-anchor="middle" x="155" y="-627.5" font-family="Helvetica,sans-Serif" font-size="10.00">ISliderControlBase</text>
</a>
</g>
</g>
<!-- Node1&#45;&gt;Node26 -->
<g id="edge25" class="edge"><title>Node1&#45;&gt;Node26</title>
<path fill="none" stroke="midnightblue" d="M37.0664,-553.167C47.5851,-570.506 65.6605,-596.127 88,-611 93.8559,-614.899 100.518,-618.009 107.304,-620.488"/>
<polygon fill="midnightblue" stroke="midnightblue" points="40.0794,-551.386 32.0211,-544.507 34.031,-554.91 40.0794,-551.386"/>
</g>
<!-- Node29 -->
<g id="node29" class="node"><title>Node29</title>
<g id="a_node29"><a xlink:href="class_i_s_v_g_control.html" target="_top" xlink:title="A basic control to draw an SVG image to the screen. ">
<polygon fill="white" stroke="black" points="119,-582.5 119,-601.5 191,-601.5 191,-582.5 119,-582.5"/>
<text text-anchor="middle" x="155" y="-589.5" font-family="Helvetica,sans-Serif" font-size="10.00">ISVGControl</text>
</a>
</g>
</g>
<!-- Node1&#45;&gt;Node29 -->
<g id="edge28" class="edge"><title>Node1&#45;&gt;Node29</title>
<path fill="none" stroke="midnightblue" d="M48.3476,-550.339C59.7024,-557.961 74.1482,-566.836 88,-573 97.6953,-577.315 108.626,-580.926 118.762,-583.801"/>
<polygon fill="midnightblue" stroke="midnightblue" points="50.1947,-547.361 39.9742,-544.57 46.2232,-553.126 50.1947,-547.361"/>
</g>
<!-- Node30 -->
<g id="node30" class="node"><title>Node30</title>
<g id="a_node30"><a xlink:href="class_i_switch_control_base.html" target="_top" xlink:title="A base class for switch controls. ">
<polygon fill="white" stroke="black" points="103,-544.5 103,-563.5 207,-563.5 207,-544.5 103,-544.5"/>
<text text-anchor="middle" x="155" y="-551.5" font-family="Helvetica,sans-Serif" font-size="10.00">ISwitchControlBase</text>
</a>
</g>
</g>
<!-- Node1&#45;&gt;Node30 -->
<g id="edge29" class="edge"><title>Node1&#45;&gt;Node30</title>
<path fill="none" stroke="midnightblue" d="M61.8769,-540.218C74.4912,-542.105 89.0112,-544.277 102.738,-546.331"/>
<polygon fill="midnightblue" stroke="midnightblue" points="62.1962,-536.727 51.7884,-538.708 61.1604,-543.65 62.1962,-536.727"/>
</g>
<!-- Node33 -->
<g id="node33" class="node"><title>Node33</title>
<g id="a_node33"><a xlink:href="class_i_text_control.html" target="_top" xlink:title="A basic control to display some text. ">
<polygon fill="white" stroke="black" points="119.5,-506.5 119.5,-525.5 190.5,-525.5 190.5,-506.5 119.5,-506.5"/>
<text text-anchor="middle" x="155" y="-513.5" font-family="Helvetica,sans-Serif" font-size="10.00">ITextControl</text>
</a>
</g>
</g>
<!-- Node1&#45;&gt;Node33 -->
<g id="edge32" class="edge"><title>Node1&#45;&gt;Node33</title>
<path fill="none" stroke="midnightblue" d="M61.7978,-529.794C79.6486,-527.123 101.332,-523.879 119.185,-521.209"/>
<polygon fill="midnightblue" stroke="midnightblue" points="61.1604,-526.35 51.7884,-531.292 62.1962,-533.273 61.1604,-526.35"/>
</g>
<!-- Node36 -->
<g id="node36" class="node"><title>Node36</title>
<g id="a_node36"><a xlink:href="class_i_text_entry_control.html" target="_top" xlink:title="A Text entry widget drawn by IGraphics. ">
<polygon fill="white" stroke="black" points="108,-468.5 108,-487.5 202,-487.5 202,-468.5 108,-468.5"/>
<text text-anchor="middle" x="155" y="-475.5" font-family="Helvetica,sans-Serif" font-size="10.00">ITextEntryControl</text>
</a>
</g>
</g>
<!-- Node1&#45;&gt;Node36 -->
<g id="edge35" class="edge"><title>Node1&#45;&gt;Node36</title>
<path fill="none" stroke="midnightblue" d="M48.3476,-519.661C59.7024,-512.039 74.1482,-503.164 88,-497 96.2792,-493.316 105.459,-490.144 114.276,-487.506"/>
<polygon fill="midnightblue" stroke="midnightblue" points="46.2232,-516.874 39.9742,-525.43 50.1947,-522.639 46.2232,-516.874"/>
</g>
<!-- Node37 -->
<g id="node37" class="node"><title>Node37</title>
<g id="a_node37"><a xlink:href="class_i_v_keyboard_control.html" target="_top" xlink:title="Vectorial keyboard control. ">
<polygon fill="white" stroke="black" points="105.5,-430.5 105.5,-449.5 204.5,-449.5 204.5,-430.5 105.5,-430.5"/>
<text text-anchor="middle" x="155" y="-437.5" font-family="Helvetica,sans-Serif" font-size="10.00">IVKeyboardControl</text>
</a>
</g>
</g>
<!-- Node1&#45;&gt;Node37 -->
<g id="edge36" class="edge"><title>Node1&#45;&gt;Node37</title>
<path fill="none" stroke="midnightblue" d="M37.0664,-516.833C47.5851,-499.494 65.6605,-473.873 88,-459 93.8559,-455.101 100.518,-451.991 107.304,-449.512"/>
<polygon fill="midnightblue" stroke="midnightblue" points="34.031,-515.09 32.0211,-525.493 40.0794,-518.614 34.031,-515.09"/>
</g>
<!-- Node38 -->
<g id="node38" class="node"><title>Node38</title>
<g id="a_node38"><a xlink:href="class_i_v_scope_control.html" target="_top" xlink:title="Vectorial multichannel capable oscilloscope control. ">
<polygon fill="white" stroke="black" points="88,-381 88,-411 222,-411 222,-381 88,-381"/>
<text text-anchor="start" x="96" y="-399" font-family="Helvetica,sans-Serif" font-size="10.00">IVScopeControl&lt; MAXNC,</text>
<text text-anchor="middle" x="155" y="-388" font-family="Helvetica,sans-Serif" font-size="10.00"> MAXBUF &gt;</text>
</a>
</g>
</g>
<!-- Node1&#45;&gt;Node38 -->
<g id="edge37" class="edge"><title>Node1&#45;&gt;Node38</title>
<path fill="none" stroke="midnightblue" d="M32.7032,-515.433C40.9769,-490.288 58.6195,-446.809 88,-421 92.4186,-417.118 97.5005,-413.814 102.842,-411.006"/>
<polygon fill="midnightblue" stroke="midnightblue" points="29.2699,-514.686 29.6379,-525.275 35.9533,-516.768 29.2699,-514.686"/>
</g>
<!-- Node39 -->
<g id="node39" class="node"><title>Node39</title>
<g id="a_node39"><a xlink:href="class_i_v_track_control_base.html" target="_top" xlink:title="A base class for mult&#45;strip/track controls, such as multi&#45;sliders, meters. ">
<polygon fill="white" stroke="red" points="102.5,-342.5 102.5,-361.5 207.5,-361.5 207.5,-342.5 102.5,-342.5"/>
<text text-anchor="middle" x="155" y="-349.5" font-family="Helvetica,sans-Serif" font-size="10.00">IVTrackControlBase</text>
</a>
</g>
</g>
<!-- Node1&#45;&gt;Node39 -->
<g id="edge38" class="edge"><title>Node1&#45;&gt;Node39</title>
<path fill="none" stroke="midnightblue" d="M28.811,-515.2C32.9972,-481.052 46.423,-411.003 88,-372 92.628,-367.659 98.1686,-364.257 104.046,-361.593"/>
<polygon fill="midnightblue" stroke="midnightblue" points="25.3135,-514.989 27.7183,-525.308 32.273,-515.742 25.3135,-514.989"/>
</g>
<!-- Node41 -->
<g id="node41" class="node"><title>Node41</title>
<g id="a_node41"><a xlink:href="class_test_animation_control.html" target="_top" xlink:title="Control to test animation. ">
<polygon fill="white" stroke="black" points="99.5,-304.5 99.5,-323.5 210.5,-323.5 210.5,-304.5 99.5,-304.5"/>
<text text-anchor="middle" x="155" y="-311.5" font-family="Helvetica,sans-Serif" font-size="10.00">TestAnimationControl</text>
</a>
</g>
</g>
<!-- Node1&#45;&gt;Node41 -->
<g id="edge40" class="edge"><title>Node1&#45;&gt;Node41</title>
<path fill="none" stroke="midnightblue" d="M27.0589,-515.289C28.2808,-475.15 36.8732,-383.468 88,-333 91.9035,-329.147 96.5351,-326.065 101.507,-323.602"/>
<polygon fill="midnightblue" stroke="midnightblue" points="23.558,-515.313 26.8795,-525.373 30.5569,-515.437 23.558,-515.313"/>
</g>
<!-- Node42 -->
<g id="node42" class="node"><title>Node42</title>
<g id="a_node42"><a xlink:href="class_test_cursor_control.html" target="_top" xlink:title="Control to test changing the platform cursor. ">
<polygon fill="white" stroke="black" points="106.5,-266.5 106.5,-285.5 203.5,-285.5 203.5,-266.5 106.5,-266.5"/>
<text text-anchor="middle" x="155" y="-273.5" font-family="Helvetica,sans-Serif" font-size="10.00">TestCursorControl</text>
</a>
</g>
</g>
<!-- Node1&#45;&gt;Node42 -->
<g id="edge41" class="edge"><title>Node1&#45;&gt;Node42</title>
<path fill="none" stroke="midnightblue" d="M29.5061,-515.044C36.3851,-463.343 57.1255,-326.86 88,-295 93.0617,-289.777 99.4586,-285.964 106.267,-283.186"/>
<polygon fill="midnightblue" stroke="midnightblue" points="25.9994,-514.871 28.1848,-525.238 32.9413,-515.771 25.9994,-514.871"/>
</g>
<!-- Node43 -->
<g id="node43" class="node"><title>Node43</title>
<g id="a_node43"><a xlink:href="class_test_draw_context_control.html" target="_top" xlink:title="Control to test obtaining a drawing API (NanoVG, LICE, Cairo, AGG etc) context and using that API wit...">
<polygon fill="white" stroke="black" points="92.5,-228.5 92.5,-247.5 217.5,-247.5 217.5,-228.5 92.5,-228.5"/>
<text text-anchor="middle" x="155" y="-235.5" font-family="Helvetica,sans-Serif" font-size="10.00">TestDrawContextControl</text>
</a>
</g>
</g>
<!-- Node1&#45;&gt;Node43 -->
<g id="edge42" class="edge"><title>Node1&#45;&gt;Node43</title>
<path fill="none" stroke="midnightblue" d="M28.761,-514.989C34.1934,-457.718 52.5065,-294.852 88,-257 91.5886,-253.173 95.8934,-250.1 100.562,-247.635"/>
<polygon fill="midnightblue" stroke="midnightblue" points="25.2482,-514.968 27.8202,-525.246 32.219,-515.608 25.2482,-514.968"/>
</g>
<!-- Node44 -->
<g id="node44" class="node"><title>Node44</title>
<g id="a_node44"><a xlink:href="class_test_drop_shadow_control.html" target="_top" xlink:title="Control to test layer drop shadows. ">
<polygon fill="white" stroke="black" points="93,-190.5 93,-209.5 217,-209.5 217,-190.5 93,-190.5"/>
<text text-anchor="middle" x="155" y="-197.5" font-family="Helvetica,sans-Serif" font-size="10.00">TestDropShadowControl</text>
</a>
</g>
</g>
<!-- Node1&#45;&gt;Node44 -->
<g id="edge43" class="edge"><title>Node1&#45;&gt;Node44</title>
<path fill="none" stroke="midnightblue" d="M28.1734,-515.167C32.2499,-452.92 47.8068,-262.966 88,-219 91.5399,-215.128 95.8127,-212.025 100.462,-209.543"/>
<polygon fill="midnightblue" stroke="midnightblue" points="24.6746,-515.04 27.5425,-525.239 31.6609,-515.478 24.6746,-515.04"/>
</g>
<!-- Node45 -->
<g id="node45" class="node"><title>Node45</title>
<g id="a_node45"><a xlink:href="class_test_image_control.html" target="_top" xlink:title="Control to test drawing bitmaps. ">
<polygon fill="white" stroke="black" points="107.5,-152.5 107.5,-171.5 202.5,-171.5 202.5,-152.5 107.5,-152.5"/>
<text text-anchor="middle" x="155" y="-159.5" font-family="Helvetica,sans-Serif" font-size="10.00">TestImageControl</text>
</a>
</g>
</g>
<!-- Node1&#45;&gt;Node45 -->
<g id="edge44" class="edge"><title>Node1&#45;&gt;Node45</title>
<path fill="none" stroke="midnightblue" d="M27.7104,-515.451C30.5277,-448.702 43.0548,-231.165 88,-181 93.1718,-175.228 99.9722,-171.162 107.241,-168.308"/>
<polygon fill="midnightblue" stroke="midnightblue" points="24.2126,-515.329 27.3145,-525.46 31.2071,-515.606 24.2126,-515.329"/>
</g>
<!-- Node46 -->
<g id="node46" class="node"><title>Node46</title>
<g id="a_node46"><a xlink:href="class_test_keyboard_control.html" target="_top" xlink:title="Control to test keyboard input. ">
<polygon fill="white" stroke="black" points="100.5,-114.5 100.5,-133.5 209.5,-133.5 209.5,-114.5 100.5,-114.5"/>
<text text-anchor="middle" x="155" y="-121.5" font-family="Helvetica,sans-Serif" font-size="10.00">TestKeyboardControl</text>
</a>
</g>
</g>
<!-- Node1&#45;&gt;Node46 -->
<g id="edge45" class="edge"><title>Node1&#45;&gt;Node46</title>
<path fill="none" stroke="midnightblue" d="M27.366,-514.779C29.0805,-442.631 38.4977,-199.164 88,-143 91.469,-139.064 95.6952,-135.92 100.316,-133.412"/>
<polygon fill="midnightblue" stroke="midnightblue" points="23.8585,-515.102 27.1457,-525.174 30.8569,-515.251 23.8585,-515.102"/>
</g>
<!-- Node47 -->
<g id="node47" class="node"><title>Node47</title>
<g id="a_node47"><a xlink:href="class_test_size_control.html" target="_top" xlink:title="Control to display the size of a region. ">
<polygon fill="white" stroke="black" points="111.5,-76.5 111.5,-95.5 198.5,-95.5 198.5,-76.5 111.5,-76.5"/>
<text text-anchor="middle" x="155" y="-83.5" font-family="Helvetica,sans-Serif" font-size="10.00">TestSizeControl</text>
</a>
</g>
</g>
<!-- Node1&#45;&gt;Node47 -->
<g id="edge46" class="edge"><title>Node1&#45;&gt;Node47</title>
<path fill="none" stroke="midnightblue" d="M27.0533,-515.306C27.6591,-439.477 33.6477,-167.51 88,-105 94.1025,-97.9816 102.613,-93.4762 111.499,-90.6039"/>
<polygon fill="midnightblue" stroke="midnightblue" points="23.553,-515.359 26.9967,-525.379 30.5529,-515.399 23.553,-515.359"/>
</g>
<!-- Node48 -->
<g id="node48" class="node"><title>Node48</title>
<g id="a_node48"><a xlink:href="class_test_s_v_g_control.html" target="_top" xlink:title="Control to test drawing SVGs. ">
<polygon fill="white" stroke="black" points="110.5,-38.5 110.5,-57.5 199.5,-57.5 199.5,-38.5 110.5,-38.5"/>
<text text-anchor="middle" x="155" y="-45.5" font-family="Helvetica,sans-Serif" font-size="10.00">TestSVGControl</text>
</a>
</g>
</g>
<!-- Node1&#45;&gt;Node48 -->
<g id="edge47" class="edge"><title>Node1&#45;&gt;Node48</title>
<path fill="none" stroke="midnightblue" d="M26.7999,-515.135C26.398,-434.891 28.9454,-135.698 88,-67 93.8296,-60.2185 101.908,-55.7797 110.418,-52.8931"/>
<polygon fill="midnightblue" stroke="midnightblue" points="23.3013,-515.358 26.8742,-525.332 30.3011,-515.307 23.3013,-515.358"/>
</g>
<!-- Node49 -->
<g id="node49" class="node"><title>Node49</title>
<g id="a_node49"><a xlink:href="class_test_text_control.html" target="_top" xlink:title="Control to test drawing text. ">
<polygon fill="white" stroke="black" points="111.5,-0.5 111.5,-19.5 198.5,-19.5 198.5,-0.5 111.5,-0.5"/>
<text text-anchor="middle" x="155" y="-7.5" font-family="Helvetica,sans-Serif" font-size="10.00">TestTextControl</text>
</a>
</g>
</g>
<!-- Node1&#45;&gt;Node49 -->
<g id="edge48" class="edge"><title>Node1&#45;&gt;Node49</title>
<path fill="none" stroke="midnightblue" d="M26.5829,-515.162C25.2207,-430.95 24.1819,-103.967 88,-29 94.0287,-21.9181 102.511,-17.3878 111.391,-14.5118"/>
<polygon fill="midnightblue" stroke="midnightblue" points="23.0875,-515.448 26.7706,-525.382 30.0863,-515.319 23.0875,-515.448"/>
</g>
<!-- Node3 -->
<g id="node3" class="node"><title>Node3</title>
<g id="a_node3"><a xlink:href="class_i_b_switch_control.html" target="_top" xlink:title="A bitmap switch control. ">
<polygon fill="white" stroke="black" points="283,-1114.5 283,-1133.5 371,-1133.5 371,-1114.5 283,-1114.5"/>
<text text-anchor="middle" x="327" y="-1121.5" font-family="Helvetica,sans-Serif" font-size="10.00">IBSwitchControl</text>
</a>
</g>
</g>
<!-- Node2&#45;&gt;Node3 -->
<g id="edge2" class="edge"><title>Node2&#45;&gt;Node3</title>
<path fill="none" stroke="midnightblue" d="M206.382,-1110.63C230.652,-1113.34 259.464,-1116.56 282.729,-1119.16"/>
<polygon fill="midnightblue" stroke="midnightblue" points="206.615,-1107.14 196.288,-1109.5 205.837,-1114.09 206.615,-1107.14"/>
</g>
<!-- Node5 -->
<g id="node5" class="node"><title>Node5</title>
<g id="a_node5"><a xlink:href="class_i_b_button_control.html" target="_top" xlink:title="A bitmap button/momentary switch control. ">
<polygon fill="white" stroke="black" points="284,-1076.5 284,-1095.5 370,-1095.5 370,-1076.5 284,-1076.5"/>
<text text-anchor="middle" x="327" y="-1083.5" font-family="Helvetica,sans-Serif" font-size="10.00">IBButtonControl</text>
</a>
</g>
</g>
<!-- Node4&#45;&gt;Node5 -->
<g id="edge4" class="edge"><title>Node4&#45;&gt;Node5</title>
<path fill="none" stroke="midnightblue" d="M208.976,-1059.84C233.134,-1065.24 261.334,-1071.55 283.998,-1076.61"/>
<polygon fill="midnightblue" stroke="midnightblue" points="209.421,-1056.35 198.898,-1057.59 207.894,-1063.19 209.421,-1056.35"/>
</g>
<!-- Node6 -->
<g id="node6" class="node"><title>Node6</title>
<g id="a_node6"><a xlink:href="class_i_v_button_control.html" target="_top" xlink:title="A vector button/momentary switch control. ">
<polygon fill="white" stroke="black" points="284,-1038.5 284,-1057.5 370,-1057.5 370,-1038.5 284,-1038.5"/>
<text text-anchor="middle" x="327" y="-1045.5" font-family="Helvetica,sans-Serif" font-size="10.00">IVButtonControl</text>
</a>
</g>
</g>
<!-- Node4&#45;&gt;Node6 -->
<g id="edge5" class="edge"><title>Node4&#45;&gt;Node6</title>
<path fill="none" stroke="midnightblue" d="M216.147,-1048C238.482,-1048 263.327,-1048 283.732,-1048"/>
<polygon fill="midnightblue" stroke="midnightblue" points="216.086,-1044.5 206.086,-1048 216.086,-1051.5 216.086,-1044.5"/>
</g>
<!-- Node10 -->
<g id="node10" class="node"><title>Node10</title>
<g id="a_node10"><a xlink:href="class_test_dir_browse_control.html" target="_top" xlink:title="Control to test IDirBrowseControlBase. ">
<polygon fill="white" stroke="black" points="270.5,-1000.5 270.5,-1019.5 383.5,-1019.5 383.5,-1000.5 270.5,-1000.5"/>
<text text-anchor="middle" x="327" y="-1007.5" font-family="Helvetica,sans-Serif" font-size="10.00">TestDirBrowseControl</text>
</a>
</g>
</g>
<!-- Node9&#45;&gt;Node10 -->
<g id="edge9" class="edge"><title>Node9&#45;&gt;Node10</title>
<path fill="none" stroke="midnightblue" d="M215.649,-910.369C217.883,-911.772 220.012,-913.311 222,-915 250.481,-939.202 229.424,-966.909 258,-991 262.592,-994.871 267.918,-997.957 273.527,-1000.42"/>
<polygon fill="midnightblue" stroke="midnightblue" points="217.084,-907.17 206.605,-905.609 213.824,-913.364 217.084,-907.17"/>
</g>
<!-- Node14 -->
<g id="node14" class="node"><title>Node14</title>
<g id="a_node14"><a xlink:href="class_i_b_knob_control.html" target="_top" xlink:title="A bitmap knob/dial control that draws a frame from a stacked bitmap. ">
<polygon fill="white" stroke="red" points="287,-962.5 287,-981.5 367,-981.5 367,-962.5 287,-962.5"/>
<text text-anchor="middle" x="327" y="-969.5" font-family="Helvetica,sans-Serif" font-size="10.00">IBKnobControl</text>
</a>
</g>
</g>
<!-- Node13&#45;&gt;Node14 -->
<g id="edge13" class="edge"><title>Node13&#45;&gt;Node14</title>
<path fill="none" stroke="midnightblue" d="M212.366,-793.38C215.898,-795.509 219.165,-798.027 222,-801 269.905,-851.248 209.899,-902.94 258,-953 265.644,-960.955 276.317,-965.665 286.946,-968.428"/>
<polygon fill="midnightblue" stroke="midnightblue" points="213.656,-790.114 203.138,-788.844 210.568,-796.396 213.656,-790.114"/>
</g>
<!-- Node15 -->
<g id="node15" class="node"><title>Node15</title>
<g id="a_node15"><a xlink:href="class_i_s_v_g_knob.html" target="_top" xlink:title="A vector knob/dial control which rotates an SVG image. ">
<polygon fill="white" stroke="black" points="295.5,-924.5 295.5,-943.5 358.5,-943.5 358.5,-924.5 295.5,-924.5"/>
<text text-anchor="middle" x="327" y="-931.5" font-family="Helvetica,sans-Serif" font-size="10.00">ISVGKnob</text>
</a>
</g>
</g>
<!-- Node13&#45;&gt;Node15 -->
<g id="edge14" class="edge"><title>Node13&#45;&gt;Node15</title>
<path fill="none" stroke="midnightblue" d="M212.296,-793.717C215.819,-795.77 219.105,-798.178 222,-801 260.048,-838.087 219.807,-878.062 258,-915 267.957,-924.629 282.372,-929.46 295.371,-931.852"/>
<polygon fill="midnightblue" stroke="midnightblue" points="213.669,-790.493 203.141,-789.306 210.631,-796.799 213.669,-790.493"/>
</g>
<!-- Node16 -->
<g id="node16" class="node"><title>Node16</title>
<g id="a_node16"><a xlink:href="class_i_v_knob_control.html" target="_top" xlink:title="A vector knob control drawn using graphics primitves. ">
<polygon fill="white" stroke="black" points="287,-886.5 287,-905.5 367,-905.5 367,-886.5 287,-886.5"/>
<text text-anchor="middle" x="327" y="-893.5" font-family="Helvetica,sans-Serif" font-size="10.00">IVKnobControl</text>
</a>
</g>
</g>
<!-- Node13&#45;&gt;Node16 -->
<g id="edge15" class="edge"><title>Node13&#45;&gt;Node16</title>
<path fill="none" stroke="midnightblue" d="M212.526,-794.53C215.906,-796.396 219.104,-798.539 222,-801 250.481,-825.202 229.424,-852.909 258,-877 266.153,-883.874 276.619,-888.27 286.883,-891.078"/>
<polygon fill="midnightblue" stroke="midnightblue" points="213.779,-791.254 203.236,-790.211 210.828,-797.601 213.779,-791.254"/>
</g>
<!-- Node17 -->
<g id="node17" class="node"><title>Node17</title>
<g id="a_node17"><a xlink:href="class_test_arc_control.html" target="_top" xlink:title="Control to test drawing arcs. ">
<polygon fill="white" stroke="black" points="285.5,-848.5 285.5,-867.5 368.5,-867.5 368.5,-848.5 285.5,-848.5"/>
<text text-anchor="middle" x="327" y="-855.5" font-family="Helvetica,sans-Serif" font-size="10.00">TestArcControl</text>
</a>
</g>
</g>
<!-- Node13&#45;&gt;Node17 -->
<g id="edge16" class="edge"><title>Node13&#45;&gt;Node17</title>
<path fill="none" stroke="midnightblue" d="M210.706,-795.202C214.637,-796.915 218.447,-798.839 222,-801 241.878,-813.088 238.075,-826.99 258,-839 266.294,-843.999 275.944,-847.722 285.324,-850.481"/>
<polygon fill="midnightblue" stroke="midnightblue" points="211.968,-791.937 201.379,-791.579 209.433,-798.462 211.968,-791.937"/>
</g>
<!-- Node18 -->
<g id="node18" class="node"><title>Node18</title>
<g id="a_node18"><a xlink:href="class_test_blend_control.html" target="_top" xlink:title="Control to test blend methods. ">
<polygon fill="white" stroke="black" points="281,-810.5 281,-829.5 373,-829.5 373,-810.5 281,-810.5"/>
<text text-anchor="middle" x="327" y="-817.5" font-family="Helvetica,sans-Serif" font-size="10.00">TestBlendControl</text>
</a>
</g>
</g>
<!-- Node13&#45;&gt;Node18 -->
<g id="edge17" class="edge"><title>Node13&#45;&gt;Node18</title>
<path fill="none" stroke="midnightblue" d="M208.898,-793.824C232.865,-799.182 260.824,-805.431 283.41,-810.48"/>
<polygon fill="midnightblue" stroke="midnightblue" points="209.421,-790.355 198.898,-791.589 207.894,-797.186 209.421,-790.355"/>
</g>
<!-- Node19 -->
<g id="node19" class="node"><title>Node19</title>
<g id="a_node19"><a xlink:href="class_test_gradient_control.html" target="_top" xlink:title="Control to test drawing gradients with path based drawing backends. ">
<polygon fill="white" stroke="black" points="275,-772.5 275,-791.5 379,-791.5 379,-772.5 275,-772.5"/>
<text text-anchor="middle" x="327" y="-779.5" font-family="Helvetica,sans-Serif" font-size="10.00">TestGradientControl</text>
</a>
</g>
</g>
<!-- Node13&#45;&gt;Node19 -->
<g id="edge18" class="edge"><title>Node13&#45;&gt;Node19</title>
<path fill="none" stroke="midnightblue" d="M213.499,-782C233.34,-782 255.422,-782 274.731,-782"/>
<polygon fill="midnightblue" stroke="midnightblue" points="213.355,-778.5 203.354,-782 213.354,-785.5 213.355,-778.5"/>
</g>
<!-- Node20 -->
<g id="node20" class="node"><title>Node20</title>
<g id="a_node20"><a xlink:href="class_test_layer_control.html" target="_top" xlink:title="Control to test IGraphics layers. ">
<polygon fill="white" stroke="black" points="281,-734.5 281,-753.5 373,-753.5 373,-734.5 281,-734.5"/>
<text text-anchor="middle" x="327" y="-741.5" font-family="Helvetica,sans-Serif" font-size="10.00">TestLayerControl</text>
</a>
</g>
</g>
<!-- Node13&#45;&gt;Node20 -->
<g id="edge19" class="edge"><title>Node13&#45;&gt;Node20</title>
<path fill="none" stroke="midnightblue" d="M208.898,-770.176C232.865,-764.818 260.824,-758.569 283.41,-753.52"/>
<polygon fill="midnightblue" stroke="midnightblue" points="207.894,-766.814 198.898,-772.411 209.421,-773.645 207.894,-766.814"/>
</g>
<!-- Node21 -->
<g id="node21" class="node"><title>Node21</title>
<g id="a_node21"><a xlink:href="class_test_multi_path_control.html" target="_top" xlink:title="Control to test drawing paths in path&#45;based drawing backends. ">
<polygon fill="white" stroke="black" points="272.5,-696.5 272.5,-715.5 381.5,-715.5 381.5,-696.5 272.5,-696.5"/>
<text text-anchor="middle" x="327" y="-703.5" font-family="Helvetica,sans-Serif" font-size="10.00">TestMultiPathControl</text>
</a>
</g>
</g>
<!-- Node13&#45;&gt;Node21 -->
<g id="edge20" class="edge"><title>Node13&#45;&gt;Node21</title>
<path fill="none" stroke="midnightblue" d="M210.706,-768.798C214.637,-767.085 218.447,-765.161 222,-763 241.878,-750.912 238.075,-737.01 258,-725 264.404,-721.14 271.617,-718.041 278.89,-715.559"/>
<polygon fill="midnightblue" stroke="midnightblue" points="209.433,-765.538 201.379,-772.421 211.968,-772.063 209.433,-765.538"/>
</g>
<!-- Node22 -->
<g id="node22" class="node"><title>Node22</title>
<g id="a_node22"><a xlink:href="class_test_poly_control.html" target="_top" xlink:title="Control to test drawing polygons. ">
<polygon fill="white" stroke="black" points="283.5,-658.5 283.5,-677.5 370.5,-677.5 370.5,-658.5 283.5,-658.5"/>
<text text-anchor="middle" x="327" y="-665.5" font-family="Helvetica,sans-Serif" font-size="10.00">TestPolyControl</text>
</a>
</g>
</g>
<!-- Node13&#45;&gt;Node22 -->
<g id="edge21" class="edge"><title>Node13&#45;&gt;Node22</title>
<path fill="none" stroke="midnightblue" d="M212.526,-769.47C215.906,-767.604 219.104,-765.461 222,-763 250.481,-738.798 229.424,-711.091 258,-687 265.216,-680.916 274.243,-676.774 283.339,-673.954"/>
<polygon fill="midnightblue" stroke="midnightblue" points="210.828,-766.399 203.236,-773.789 213.779,-772.746 210.828,-766.399"/>
</g>
<!-- Node27 -->
<g id="node27" class="node"><title>Node27</title>
<g id="a_node27"><a xlink:href="class_i_b_slider_control.html" target="_top" xlink:title="A bitmap slider/fader control. ">
<polygon fill="white" stroke="black" points="285.5,-620.5 285.5,-639.5 368.5,-639.5 368.5,-620.5 285.5,-620.5"/>
<text text-anchor="middle" x="327" y="-627.5" font-family="Helvetica,sans-Serif" font-size="10.00">IBSliderControl</text>
</a>
</g>
</g>
<!-- Node26&#45;&gt;Node27 -->
<g id="edge26" class="edge"><title>Node26&#45;&gt;Node27</title>
<path fill="none" stroke="midnightblue" d="M214.417,-630C237.796,-630 264.157,-630 285.385,-630"/>
<polygon fill="midnightblue" stroke="midnightblue" points="214.26,-626.5 204.26,-630 214.26,-633.5 214.26,-626.5"/>
</g>
<!-- Node28 -->
<g id="node28" class="node"><title>Node28</title>
<g id="a_node28"><a xlink:href="class_i_v_slider_control.html" target="_top" xlink:title="A vector slider control. ">
<polygon fill="white" stroke="black" points="285.5,-582.5 285.5,-601.5 368.5,-601.5 368.5,-582.5 285.5,-582.5"/>
<text text-anchor="middle" x="327" y="-589.5" font-family="Helvetica,sans-Serif" font-size="10.00">IVSliderControl</text>
</a>
</g>
</g>
<!-- Node26&#45;&gt;Node28 -->
<g id="edge27" class="edge"><title>Node26&#45;&gt;Node28</title>
<path fill="none" stroke="midnightblue" d="M208.842,-618.188C233.55,-612.665 262.511,-606.192 285.456,-601.063"/>
<polygon fill="midnightblue" stroke="midnightblue" points="207.894,-614.814 198.898,-620.411 209.421,-621.645 207.894,-614.814"/>
</g>
<!-- Node31 -->
<g id="node31" class="node"><title>Node31</title>
<g id="a_node31"><a xlink:href="class_i_v_radio_button_control.html" target="_top" xlink:title="A vector switch control. ">
<polygon fill="white" stroke="black" points="271,-544.5 271,-563.5 383,-563.5 383,-544.5 271,-544.5"/>
<text text-anchor="middle" x="327" y="-551.5" font-family="Helvetica,sans-Serif" font-size="10.00">IVRadioButtonControl</text>
</a>
</g>
</g>
<!-- Node30&#45;&gt;Node31 -->
<g id="edge30" class="edge"><title>Node30&#45;&gt;Node31</title>
<path fill="none" stroke="midnightblue" d="M217.143,-554C234.693,-554 253.719,-554 270.883,-554"/>
<polygon fill="midnightblue" stroke="midnightblue" points="217.006,-550.5 207.006,-554 217.006,-557.5 217.006,-550.5"/>
</g>
<!-- Node32 -->
<g id="node32" class="node"><title>Node32</title>
<g id="a_node32"><a xlink:href="class_i_v_switch_control.html" target="_top" xlink:title="A vector switch control. ">
<polygon fill="white" stroke="black" points="283,-506.5 283,-525.5 371,-525.5 371,-506.5 283,-506.5"/>
<text text-anchor="middle" x="327" y="-513.5" font-family="Helvetica,sans-Serif" font-size="10.00">IVSwitchControl</text>
</a>
</g>
</g>
<!-- Node30&#45;&gt;Node32 -->
<g id="edge31" class="edge"><title>Node30&#45;&gt;Node32</title>
<path fill="none" stroke="midnightblue" d="M208.898,-542.176C232.865,-536.818 260.824,-530.569 283.41,-525.52"/>
<polygon fill="midnightblue" stroke="midnightblue" points="207.894,-538.814 198.898,-544.411 209.421,-545.645 207.894,-538.814"/>
</g>
<!-- Node34 -->
<g id="node34" class="node"><title>Node34</title>
<g id="a_node34"><a xlink:href="class_i_b_text_control.html" target="_top" xlink:title="A control to display text using a monospace bitmap font. ">
<polygon fill="white" stroke="black" points="288.5,-468.5 288.5,-487.5 365.5,-487.5 365.5,-468.5 288.5,-468.5"/>
<text text-anchor="middle" x="327" y="-475.5" font-family="Helvetica,sans-Serif" font-size="10.00">IBTextControl</text>
</a>
</g>
</g>
<!-- Node33&#45;&gt;Node34 -->
<g id="edge33" class="edge"><title>Node33&#45;&gt;Node34</title>
<path fill="none" stroke="midnightblue" d="M200.866,-505.971C228.096,-499.884 262.458,-492.203 288.281,-486.431"/>
<polygon fill="midnightblue" stroke="midnightblue" points="199.808,-502.621 190.812,-508.218 201.335,-509.453 199.808,-502.621"/>
</g>
<!-- Node35 -->
<g id="node35" class="node"><title>Node35</title>
<g id="a_node35"><a xlink:href="class_i_caption_control.html" target="_top" xlink:title="A control to display the textual representation of a parameter. ">
<polygon fill="white" stroke="black" points="284.5,-430.5 284.5,-449.5 369.5,-449.5 369.5,-430.5 284.5,-430.5"/>
<text text-anchor="middle" x="327" y="-437.5" font-family="Helvetica,sans-Serif" font-size="10.00">ICaptionControl</text>
</a>
</g>
</g>
<!-- Node33&#45;&gt;Node35 -->
<g id="edge34" class="edge"><title>Node33&#45;&gt;Node35</title>
<path fill="none" stroke="midnightblue" d="M200.454,-506.738C207.941,-504.201 215.412,-501.006 222,-497 241.878,-484.912 238.075,-471.01 258,-459 265.979,-454.191 275.213,-450.563 284.255,-447.838"/>
<polygon fill="midnightblue" stroke="midnightblue" points="199.226,-503.453 190.674,-509.708 201.26,-510.151 199.226,-503.453"/>
</g>
<!-- Node40 -->
<g id="node40" class="node"><title>Node40</title>
<g id="a_node40"><a xlink:href="class_i_v_meter_control.html" target="_top" xlink:title="Vectorial multichannel capable meter control. ">
<polygon fill="white" stroke="black" points="258.5,-342.5 258.5,-361.5 395.5,-361.5 395.5,-342.5 258.5,-342.5"/>
<text text-anchor="middle" x="327" y="-349.5" font-family="Helvetica,sans-Serif" font-size="10.00">IVMeterControl&lt; MAXNC &gt;</text>
</a>
</g>
</g>
<!-- Node39&#45;&gt;Node40 -->
<g id="edge39" class="edge"><title>Node39&#45;&gt;Node40</title>
<path fill="none" stroke="midnightblue" d="M218.22,-352C231.291,-352 245.138,-352 258.396,-352"/>
<polygon fill="midnightblue" stroke="midnightblue" points="217.929,-348.5 207.929,-352 217.929,-355.5 217.929,-348.5"/>
</g>
</g>
</svg>
