<?xml version="1.0" encoding="UTF-8" standalone="no"?>
<!DOCTYPE svg PUBLIC "-//W3C//DTD SVG 1.1//EN"
 "http://www.w3.org/Graphics/SVG/1.1/DTD/svg11.dtd">
<!-- Generated by graphviz version 2.36.0 (20140111.2315)
 -->
<!-- Title: IVScopeControl&lt; MAXNC, MAXBUF &gt; Pages: 1 -->
<svg width="150pt" height="96pt"
 viewBox="0.00 0.00 150.00 96.00" xmlns="http://www.w3.org/2000/svg" xmlns:xlink="http://www.w3.org/1999/xlink">
<g id="graph0" class="graph" transform="scale(1 1) rotate(0) translate(4 92)">
<title>IVScopeControl&lt; MAXNC, MAXBUF &gt;</title>
<polygon fill="white" stroke="none" points="-4,4 -4,-92 146,-92 146,4 -4,4"/>
<!-- Node1 -->
<g id="node1" class="node"><title>Node1</title>
<polygon fill="#bfbfbf" stroke="black" points="0,-1 0,-31 134,-31 134,-1 0,-1"/>
<text text-anchor="start" x="8" y="-19" font-family="Helvetica,sans-Serif" font-size="10.00">IVScopeControl&lt; MAXNC,</text>
<text text-anchor="middle" x="67" y="-8" font-family="Helvetica,sans-Serif" font-size="10.00"> MAXBUF &gt;</text>
</g>
<!-- Node2 -->
<g id="node2" class="node"><title>Node2</title>
<g id="a_node2"><a xlink:href="class_i_control.html" target="_top" xlink:title="The lowest level base class of an IGraphics control. ">
<polygon fill="white" stroke="black" points="2.5,-68.5 2.5,-87.5 53.5,-87.5 53.5,-68.5 2.5,-68.5"/>
<text text-anchor="middle" x="28" y="-75.5" font-family="Helvetica,sans-Serif" font-size="10.00">IControl</text>
</a>
</g>
</g>
<!-- Node2&#45;&gt;Node1 -->
<g id="edge1" class="edge"><title>Node2&#45;&gt;Node1</title>
<path fill="none" stroke="midnightblue" d="M39.1669,-59.8202C45.0706,-50.7375 52.2295,-39.7238 57.8085,-31.1408"/>
<polygon fill="midnightblue" stroke="midnightblue" points="36.1031,-58.1115 33.5877,-68.4035 41.9722,-61.9265 36.1031,-58.1115"/>
</g>
<!-- Node3 -->
<g id="node3" class="node"><title>Node3</title>
<g id="a_node3"><a xlink:href="class_i_vector_base.html" target="_top" xlink:title="A base interface to be combined with IControl for vectorial controls &quot;IVControls&quot;, in order for them to share a common set of colors. ">
<polygon fill="white" stroke="black" points="71.5,-68.5 71.5,-87.5 142.5,-87.5 142.5,-68.5 71.5,-68.5"/>
<text text-anchor="middle" x="107" y="-75.5" font-family="Helvetica,sans-Serif" font-size="10.00">IVectorBase</text>
</a>
</g>
</g>
<!-- Node3&#45;&gt;Node1 -->
<g id="edge2" class="edge"><title>Node3&#45;&gt;Node1</title>
<path fill="none" stroke="midnightblue" d="M95.5468,-59.8202C89.4917,-50.7375 82.1492,-39.7238 76.4272,-31.1408"/>
<polygon fill="midnightblue" stroke="midnightblue" points="92.8097,-62.0244 101.269,-68.4035 98.6341,-58.1415 92.8097,-62.0244"/>
</g>
</g>
</svg>
